<svg width="1155" height="243" viewBox="0 0 1155 243" fill="none" xmlns="http://www.w3.org/2000/svg">
<g clip-path="url(#clip0_467_189)">
<path d="M680.537 82.6619C679.912 78.8406 679.567 74.9124 679.567 70.9041V70.5139C679.567 31.7693 710.14 0.03125 752.188 0.03125C794.243 0.03125 824.421 31.3765 824.421 70.1238V70.5113C824.421 84.7275 820.151 97.9577 812.353 109.248L812.385 109.269C795.163 107.85 778.418 105.771 762.238 103.08L780.767 81.911L789.003 89.1661C791.643 83.4208 793.073 76.7643 793.073 69.5573V69.1752C793.073 46.3356 776.329 27.6835 752.185 27.6835H751.798C727.654 27.6835 710.91 46.3356 710.91 69.1752V69.5573C710.91 78.5814 713.561 87.0043 718.248 93.904C705.162 90.5851 692.562 86.8252 680.537 82.6619ZM927.133 109.101C936.529 108.334 945.828 107.388 955.026 106.276C957.77 98.5777 959.211 89.5803 959.211 79.2735V2.36945H929.231V80.4386C929.231 95.4165 923.897 105.338 914.534 110.026C918.721 109.75 922.927 109.446 927.133 109.101ZM1010.24 97.4153V2.36945H980.255V102.786C990.412 101.194 1000.4 99.4007 1010.24 97.4153ZM1063.38 84.3935V52.0141L1083.35 78.226C1092.98 75.0621 1102.38 71.7031 1111.51 68.1624L1061.43 2.36945H1033.78V92.2231C1043.86 89.8181 1053.72 87.202 1063.38 84.3935ZM888.188 111.252C876.935 107.161 870.431 96.4506 870.431 79.4659V2.36945H840.452V80.2516C840.452 92.3755 842.509 102.688 846.37 111.201C860.09 111.629 874.044 111.653 888.188 111.252ZM1033.78 105.726V138.653H1063.38V100.47C1053.65 102.354 1043.78 104.107 1033.78 105.726ZM980.255 112.928V138.653H1010.24V109.248C1000.36 110.605 990.361 111.837 980.255 112.928ZM948.952 115.835C915.319 118.454 882.438 119.405 850.654 118.831C860.614 133.413 877.459 140.794 899.444 140.794C922.868 140.794 940.78 132.491 950.644 115.699C950.077 115.747 949.513 115.792 948.952 115.835ZM746.007 111.028C745.766 110.99 745.526 110.966 745.296 110.929C724.648 108.115 704.817 104.593 685.933 100.427C696.902 124.394 721.203 140.991 751.798 140.991C766.987 140.991 780.994 136.491 792.477 129.103L813.991 148.335L833.188 126.591L822.78 117.922C796.205 116.674 770.538 114.347 746.007 111.028ZM1125.3 86.2828L1125.29 86.2774C1115.44 88.9069 1105.4 91.3974 1095.17 93.7516L1129.38 138.653H1154.89V77.7984C1145.24 80.7619 1135.37 83.5945 1125.3 86.2828ZM1125.3 2.36945V62.6042C1135.53 58.3045 1145.4 53.7671 1154.89 49.0239V2.36945H1125.3ZM248.024 43.6073C258.547 42.9659 268.974 42.4636 279.318 42.0948C286.458 33.2952 296.907 27.6835 308.659 27.6835C324.431 27.6835 333.784 32.742 344.296 41.5042L363.178 18.7288C348.962 6.65036 334.171 0.03125 309.64 0.03125C278.378 0.03125 253.502 18.2452 243.262 43.9092C244.849 43.805 246.436 43.7062 248.024 43.6073ZM419.327 45.5126C426.435 34.7355 438.367 27.6835 453.043 27.6835C471.508 27.6835 485.86 39.0725 491.592 54.8707C503.179 56.8909 514.378 59.1142 525.142 61.5299C521.04 26.8471 492.324 0.03125 453.43 0.03125C421.916 0.03125 396.854 17.8604 386.269 43.1049C397.49 43.7409 408.523 44.5452 419.327 45.5126ZM182.928 49.3312V2.36945H152.951V53.1846C162.793 51.7843 172.793 50.5016 182.928 49.3312ZM633.044 86.2828L633.033 86.2721L569.18 2.36945H541.539V65.4474C551.862 68.0662 561.738 70.8854 571.131 73.881V52.0114L637.122 138.65H662.633V94.8339C652.436 92.1831 642.56 89.3211 633.041 86.2747L633.044 86.2828ZM541.541 138.653H571.134V98.6017C561.738 94.0349 551.864 89.7486 541.541 85.7457V138.653ZM633.044 2.36945V62.5988C642.375 67.3741 652.26 71.8474 662.636 75.9974V2.36945H633.044ZM494.318 70.3536C494.318 70.4071 494.318 70.4578 494.318 70.5113V70.9014C494.318 94.262 477.574 113.344 453.43 113.344C429.297 113.344 412.157 93.8719 412.157 70.5113V70.1238C412.157 64.6858 413.077 59.491 414.776 54.705C404.504 53.3689 394.045 52.2573 383.431 51.3648C381.729 57.4601 380.812 63.8815 380.812 70.5086V70.8988C380.812 109.641 410.99 140.989 453.045 140.989C491.699 140.989 520.634 114.173 525.059 79.7465C515.161 76.3661 504.913 73.2263 494.318 70.3536ZM308.857 86.085H339.035V105.552C331.445 111.012 321.708 113.737 310.808 113.737C286.664 113.737 269.535 95.4325 269.535 70.5113V70.1238C269.535 62.9328 271.195 56.116 274.15 50.1382C268.514 50.4669 262.847 50.849 257.157 51.298C251.532 51.7469 245.926 52.2519 240.363 52.8104C238.944 58.4729 238.19 64.4026 238.19 70.5086V70.8988C238.19 111.196 267.387 140.989 309.84 140.989C334.756 140.989 354.026 131.254 368.044 119.376V60.1938H308.86L308.857 86.085ZM182.928 60.6775C172.771 62.4518 162.782 64.4052 152.949 66.5323V138.65H238.094V110.448H182.928V60.6775ZM10.6952 114.646L0.476562 138.653H31.0415L42.5642 110.448H102.083L113.597 138.653H144.943L117.878 75.0514C78.6713 85.6254 42.5855 99.04 10.6952 114.646ZM58.5655 70.9976L72.3221 37.4131L83.7405 65.3245C92.7914 63.4138 102.029 61.6021 111.422 59.8972L86.5303 1.39943H58.8888L25.6009 79.6129C36.2497 76.5959 47.2406 73.7153 58.5655 70.9976ZM653.836 242.229C668.71 242.229 677.793 236.78 686.09 228.151L677.114 219.066C670.297 225.428 664.055 229.399 654.285 229.399C639.067 229.399 628.055 216.68 628.055 201.122V200.892C628.055 185.334 639.067 172.844 654.285 172.844C663.376 172.844 670.182 176.815 676.55 182.723L685.516 172.39C677.905 165.119 669.055 160.01 654.398 160.01C630.326 160.01 613.406 178.523 613.406 201.122V201.346C613.408 224.175 630.663 242.229 653.836 242.229ZM734.88 242.229C759.296 242.229 776.561 223.491 776.561 201.122V200.892C776.561 178.523 759.526 160.01 735.11 160.01C710.693 160.01 693.428 178.747 693.428 201.122V201.346C693.428 223.715 710.464 242.229 734.88 242.229ZM735.11 229.399C719.317 229.399 708.075 216.565 708.075 201.122V200.892C708.075 185.449 719.098 172.844 734.88 172.844C750.662 172.844 761.904 185.679 761.904 201.122V201.346C761.904 216.789 750.892 229.399 735.11 229.399ZM790.965 240.866H846.726V228.151H804.93V161.372H790.962V240.866H790.965ZM861.185 240.866H916.947V228.151H875.15V161.372H861.183V240.866H861.185ZM931.393 240.866H990.903V228.376H945.371V207.025H985.225V194.529H945.371V173.862H990.339V161.372H931.393V240.866ZM1044.13 242.229C1058.21 242.229 1069.45 236.556 1077.29 229.854V196.467H1043.45V208.617H1063.77V223.491C1058.9 227.128 1052.08 229.509 1044.59 229.509C1028.34 229.509 1017.55 217.473 1017.55 201.122V200.892C1017.55 185.679 1028.68 172.844 1043.33 172.844C1053.44 172.844 1059.46 176.136 1065.6 181.363L1074.45 170.8C1066.28 163.874 1057.76 160.012 1043.9 160.012C1019.94 160.012 1002.9 178.865 1002.9 201.124V201.349C1002.91 224.52 1019.25 242.229 1044.13 242.229ZM1095.38 240.866H1154.89V228.376H1109.35V207.025H1149.21V194.529H1109.35V173.862H1154.32V161.372H1095.38V240.866Z" fill="#00703C"/>
</g>
<defs>
<clipPath id="clip0_467_189">
<rect width="1154.41" height="242.197" fill="white" transform="translate(0.476562 0.03125)"/>
</clipPath>
</defs>
</svg>
