<svg width="267" height="331" viewBox="0 0 267 331" fill="none" xmlns="http://www.w3.org/2000/svg">
<path fill-rule="evenodd" clip-rule="evenodd" d="M265.798 100.723L212.942 157.898L235.771 57.9445L205.332 74.1922L182.503 12.0809L159.468 73.9865L129.03 57.7389L151.859 157.693L97.7686 99.4891L94.2723 124.992L49.8483 112.035L70.415 160.366L51.6993 165.508L115.045 212.811C187.233 185.046 232.48 193.067 258.805 203.762C254.898 218.981 249.139 233.172 241.529 246.335C239.267 245.101 237.005 244.072 234.742 243.044C225.487 238.931 214.381 235.434 201.219 233.583C195.871 232.761 190.318 232.35 184.765 231.938C179.829 231.733 174.893 231.527 169.957 231.733C154.944 231.938 138.079 233.789 118.747 237.491C117.924 237.697 117.307 237.697 116.484 237.903C112.988 238.52 109.492 239.136 106.201 239.548C57.8693 245.923 27.842 231.527 9.94907 215.279C8.09808 209.932 6.45275 204.585 5.21875 199.032C23.1117 217.747 54.7843 234.201 107.435 216.102L36.48 163.246L61.16 156.459L38.1254 102.163L88.5136 116.971L92.8326 85.0925L139.519 135.481L118.952 45.8102L155.561 65.1428L177.978 4.26562C180.858 4.67696 183.737 5.0883 186.822 5.49964L208.623 64.9372L245.231 45.6046L224.665 135.275L265.592 91.2625L265.798 100.723ZM107.229 250.448C57.2523 254.561 29.076 240.576 13.2397 223.3C15.7077 229.676 18.7927 235.846 22.0834 242.016C22.2891 242.427 22.4947 242.633 22.7004 243.044C37.5084 253.944 62.5996 264.228 104.556 267.724C148.568 271.22 177.567 283.149 196.694 296.723C208.211 287.879 218.289 278.007 226.927 267.313C205.538 254.973 168.929 245.512 107.229 250.448Z" fill="#FFFFFE"/>
<path fill-rule="evenodd" clip-rule="evenodd" d="M22.7019 243.043C46.5592 286.233 84.8131 310.502 129.031 329.835C131.705 331.069 134.584 331.069 137.052 329.835C150.009 323.87 164.406 317.906 176.54 310.502C183.327 306.389 190.114 301.658 196.49 296.928C177.363 283.354 148.364 271.425 104.351 267.929C62.6011 264.227 37.5099 253.944 22.7019 243.043ZM118.748 237.285C63.0125 247.98 29.4889 232.554 10.1562 214.867C11.1846 217.747 12.2129 220.42 13.2412 223.3C29.0775 240.575 57.2538 254.561 107.231 250.447C168.931 245.512 205.334 254.972 226.928 267.312C232.276 260.731 237.212 253.738 241.531 246.334C218.085 233.377 179.831 225.562 118.748 237.285Z" fill="#0A0B09"/>
<path fill-rule="evenodd" clip-rule="evenodd" d="M259.006 203.965C262.297 190.802 264.354 176.817 264.765 162.215C265.382 141.854 265.793 121.287 265.793 100.72L212.937 157.896L235.766 57.9417L205.327 74.1893L182.498 12.0781L159.464 73.9837L129.025 57.736L151.854 157.69L97.764 99.4863L94.2677 124.989L49.8438 112.032L70.4104 160.363L51.6947 165.505L115.04 212.808C187.229 185.043 232.475 193.064 259.006 203.965Z" fill="#D8232A"/>
<path fill-rule="evenodd" clip-rule="evenodd" d="M245.644 45.1897L225.077 134.86L266.005 90.8476C266.005 70.898 266.005 50.7427 266.21 30.7931C266.21 27.0911 265.388 25.0344 261.48 23.8004C237.211 15.3681 212.326 8.99243 187.029 5.08477L208.829 64.5223L245.644 45.1897ZM107.436 215.687L36.4811 162.831L61.161 156.044L38.1264 101.748L88.5146 116.556L92.8336 84.6776L139.52 135.066L118.953 45.3953L155.562 64.728L177.979 3.85076C171.809 3.02809 165.639 2.41109 159.469 1.7941C107.025 -2.31923 56.0194 5.90744 6.45378 23.1834C1.72346 24.8287 0.078125 27.091 0.078125 32.027C0.283791 54.4447 0.283792 99.4856 0.283792 99.4856C0.283792 119.847 0.0781258 140.002 0.283792 160.363C0.489458 173.525 2.13479 186.071 5.01411 198.617C23.3184 217.332 54.991 233.786 107.436 215.687Z" fill="#0A0B09"/>
</svg>
