<svg width="413" height="473" viewBox="0 0 413 473" fill="none" xmlns="http://www.w3.org/2000/svg">
<path d="M100.822 54.5874H49.9554V81.0521H0.148438V472.199H412.381V81.0521H362.574V54.5874H311.707C289.983 19.1248 252.892 0.0703125 206.265 0.0703125C159.637 0.0703125 122.546 19.1248 100.822 54.5874ZM107.18 76.2884H113.539L116.718 70.4662C138.442 30.24 177.652 21.7713 206.265 21.7713C234.877 21.7713 274.087 30.24 295.811 70.4662L298.99 76.2884H340.849V102.753H390.656V450.498H22.9325V103.282H72.7395V76.8177L107.18 76.2884Z" fill="#8F001A"/>
<path d="M45.1875 391.75H367.343V403.924H45.1875V391.75Z" fill="#8F001A"/>
<path d="M35.6484 412.922H376.879V425.096H35.6484V412.922Z" fill="#8F001A"/>
<path d="M202.554 127.627L41.4766 185.32L48.8946 205.962L206.263 149.328L363.632 205.962L371.05 185.32L206.263 126.039L202.554 127.627Z" fill="#8F001A"/>
<path d="M345.086 358.399L341.906 235.603C342.966 236.133 344.026 236.133 345.086 236.662C348.795 236.662 351.974 233.486 351.974 229.781C351.974 228.193 351.444 226.076 349.854 225.017H355.153V212.844H56.3111V225.017H61.6097C60.55 226.076 59.4903 228.193 59.4903 229.781C59.4903 233.486 62.6694 236.662 66.3785 236.662C67.4382 236.662 68.4979 236.662 69.5576 236.133L66.9083 357.87H55.7812V377.983H356.213V357.87H345.086V358.399ZM129.962 358.399H95.5208L92.3417 235.603C93.4014 236.133 94.4611 236.133 95.5208 236.133C99.2298 236.133 102.409 232.957 102.409 229.252C102.409 227.664 101.879 225.547 100.29 224.488H124.663C123.603 225.547 122.544 227.664 122.544 229.252C122.544 232.957 125.723 236.133 129.432 236.133C130.492 236.133 131.551 236.133 132.611 235.603L129.962 358.399ZM191.956 358.399H157.515L154.335 235.603C157.515 237.191 161.754 235.603 163.343 232.428C164.403 229.781 163.873 227.135 162.283 225.017H186.657C185.597 226.076 184.538 228.193 184.538 229.781C184.538 233.486 187.717 236.662 191.426 236.662C192.485 236.662 193.545 236.662 194.605 236.133L191.956 358.399ZM254.479 358.399H220.038L216.859 235.603C217.919 236.133 218.979 236.133 220.038 236.133C223.747 236.133 226.926 232.957 226.926 229.252C226.926 227.664 226.397 225.547 224.807 224.488H249.711C248.651 225.547 247.591 227.664 247.591 229.252C247.591 232.957 250.77 236.133 254.479 236.133C255.539 236.133 256.599 236.133 257.658 235.603L254.479 358.399ZM317.003 358.399H282.562L279.383 235.603C280.443 236.133 281.502 236.133 282.562 236.133C286.271 236.133 289.45 232.957 289.45 229.252C289.45 227.664 288.92 225.547 287.331 224.488H312.234C311.174 225.547 310.115 227.664 310.115 229.252C310.115 232.957 313.294 236.133 317.003 236.133C318.063 236.133 319.122 236.133 320.182 235.603L317.003 358.399Z" fill="#8F001A"/>
</svg>
