<svg width="44" height="26" viewBox="0 0 44 26" fill="none" xmlns="http://www.w3.org/2000/svg">
<g clip-path="url(#clip0_138_2872)">
<path d="M40.2365 4.12035C40.2365 4.12035 40.6962 0.374112 36.0805 0.374112C31.4647 0.374112 31.6112 4.12035 31.6112 4.12035V7.82365C31.6102 8.06911 31.646 8.31334 31.7174 8.54821C32.0024 9.47001 32.9863 11.535 36.0926 11.535C40.0914 11.535 40.25 8.86219 40.25 7.74449H37.8305C37.8305 7.74449 38.008 9.74373 36.1154 9.74373C34.2229 9.74373 34.1436 8.11079 34.1436 7.7418V4.05192C34.1436 2.07146 36.1705 2.2848 36.1705 2.2848C36.1705 2.2848 37.8279 2.27407 37.8279 4.11901H40.2365V4.12035Z" fill="#00CAFF"/>
<path d="M21.3179 11.488H31.13L29.8464 7.5365C29.6872 7.58803 29.5216 7.61738 29.3544 7.62372L28.2065 5.22194C28.4135 4.91467 29.0023 4.97103 29.0023 4.97103L29.0345 5.03946L27.5842 0.57671H24.8126L23.3824 5.04751L23.416 4.97639C23.416 4.97639 24.0048 4.92004 24.2118 5.22865L23.0639 7.63311C22.9 7.62664 22.7377 7.59821 22.5813 7.54858M23.619 7.74045L23.8529 7.95111L24.0048 7.88939C24.1714 7.82498 24.2736 7.78876 24.3798 7.89744L24.4618 7.95916C24.5133 8.01095 24.5492 8.07616 24.5654 8.14734C24.5815 8.21851 24.5773 8.29279 24.5532 8.36169C24.5397 8.42073 24.5344 8.46233 24.5263 8.49587L24.6728 8.45294C24.9295 8.38048 24.9873 8.41939 25.0868 8.52003C25.1324 8.55998 25.164 8.6134 25.177 8.67252C25.1901 8.73165 25.1839 8.79339 25.1594 8.84876C25.146 8.89223 25.1392 8.93746 25.1392 8.98294L25.1621 8.97623C25.4013 8.90914 25.5317 8.94805 25.6258 9.04198C25.6609 9.08378 25.6853 9.13343 25.697 9.1867C25.7087 9.23997 25.7073 9.29528 25.693 9.3479C25.7021 9.4234 25.686 9.49979 25.6473 9.56527L25.6581 9.57466C25.707 9.54791 25.7589 9.52676 25.8126 9.5116C25.8727 9.48646 25.9391 9.48031 26.0028 9.49399C26.0665 9.50766 26.1244 9.5405 26.1688 9.58808C26.2023 9.61741 26.2256 9.65663 26.2353 9.70006C26.245 9.74349 26.2405 9.78886 26.2226 9.8296C26.2102 9.89517 26.1831 9.9571 26.1433 10.0107L26.1514 10.0174L26.2858 10.1114C26.4565 10.2603 26.9659 10.0751 26.7414 9.86448C26.7414 9.86448 26.232 9.45122 26.0788 9.32777C25.9255 9.20433 26.1151 9.11175 26.2589 9.21506L27.2361 9.92621C27.3987 10.0429 27.8799 9.80545 27.5654 9.52367C27.5654 9.52367 26.4793 8.70385 26.4121 8.65018C26.3449 8.59651 26.4256 8.41134 26.6151 8.54686L27.8705 9.47537C28.1138 9.65517 28.5143 9.32241 28.181 9.04332C28.181 9.04332 26.8651 8.06785 26.7119 7.95111C26.5586 7.83438 26.7293 7.69886 26.8785 7.81693C26.8785 7.81693 28.1743 8.75618 28.4014 8.93732C28.6286 9.11846 29.0533 8.64078 28.7939 8.38048C28.7939 8.38048 26.6003 6.4604 26.4323 6.31817C26.2643 6.17594 26.0505 6.25779 25.8798 6.34098C25.7091 6.42417 25.7253 6.52883 25.7253 6.52883C25.731 6.68182 25.6912 6.83309 25.611 6.96356C25.361 7.50027 24.9484 7.34195 24.7803 7.33792C24.6123 7.3339 24.5303 7.1863 24.6795 7.03065C24.8287 6.87501 24.8287 6.56506 24.8287 6.33561C24.8287 6.10617 25.072 5.83647 25.072 5.83647H24.4295C24.4295 5.83647 24.3704 5.74255 24.5236 5.6607C24.6768 5.57885 25.1594 5.62984 25.1594 5.62984C26.0331 5.62984 25.822 5.33733 26.4296 5.33733C26.4296 5.33733 26.9672 5.32391 27.2361 5.49969C27.5049 5.67546 28.0103 5.58556 28.0103 5.58556L29.0802 7.81962L28.7832 8.1081L28.9364 8.28387C28.9364 8.28387 29.2335 8.5898 28.9727 8.89035C28.9107 8.97478 28.8266 9.04049 28.7296 9.08026C28.6326 9.12003 28.5265 9.13232 28.4229 9.11577C28.4525 9.18375 28.4598 9.25934 28.4436 9.33168C28.4274 9.40401 28.3886 9.46936 28.3329 9.51831C28.2661 9.58262 28.1822 9.62651 28.0913 9.64482C28.0003 9.66312 27.906 9.65507 27.8194 9.62162C27.892 9.74775 27.7065 9.95036 27.7065 9.95036C27.3866 10.3193 26.9632 9.97719 26.9632 9.97719C26.9135 10.2455 26.4901 10.5139 26.0976 10.153L26.0384 10.1033C25.984 10.1522 25.9261 10.1971 25.8651 10.2375C25.8232 10.2697 25.7715 10.2865 25.7187 10.2853C25.6659 10.2841 25.6151 10.2649 25.5747 10.2308C25.5179 10.1821 25.4806 10.1145 25.4697 10.0406C25.4589 9.96659 25.4751 9.89119 25.5156 9.82826C25.5288 9.80456 25.5374 9.77863 25.5411 9.75177C25.4826 9.83211 25.4003 9.89216 25.3059 9.92352C25.1715 9.97719 24.9793 10.0188 24.8852 9.92352C24.6795 9.74775 24.7293 9.55319 24.7642 9.38681C24.6392 9.47134 24.3986 9.65517 24.1741 9.42707C24.0128 9.26605 24.1016 9.06613 24.1607 8.89706C23.8126 9.11712 23.5747 9.04063 23.4712 8.93732C23.3677 8.834 23.412 8.59382 23.5088 8.41402C23.5854 8.27985 23.5948 8.16311 23.662 8.06919C23.5276 7.95514 23.4402 7.87597 23.4187 7.85584C23.3004 7.73911 23.4483 7.57676 23.6204 7.73106L23.619 7.74045Z" fill="#00CAFF"/>
<path d="M18.2707 0.576717H13.6455V11.488H16.1658V7.69886H18.5516C19.4024 7.69886 21.7103 7.29633 21.7103 3.89761C21.7103 0.498893 18.2707 0.576717 18.2707 0.576717ZM18.1591 5.866H16.2209V2.51156H18.147C18.147 2.51156 19.514 2.635 19.514 4.18878C19.514 5.74256 18.1591 5.86466 18.1591 5.86466V5.866Z" fill="#00CAFF"/>
<path d="M12.1441 3.7849C12.1441 3.7849 12.167 0.386177 8.24615 0.386177C4.32531 0.386177 3.94492 2.60011 3.94492 3.7849C3.94492 3.7849 3.5148 5.1951 6.86841 6.5825C8.69106 7.33792 9.75024 7.4466 9.75024 8.3684C9.75024 9.2902 9.28786 9.77056 8.26363 9.77056C7.2394 9.77056 6.22189 9.30094 6.22189 8.06784V7.85853H3.75137V8.36169C3.75137 8.36169 3.50808 11.5994 8.0526 11.5994C12.5971 11.5994 12.245 8.42878 12.245 8.42878C12.245 8.42878 12.5057 6.65093 10.4814 5.77877C8.45718 4.90662 6.49071 4.49604 6.49071 3.48165C6.49071 2.46727 7.27165 2.24856 8.00286 2.24856C8.73407 2.24856 9.59835 2.42702 9.59835 3.78624H12.1441V3.7849Z" fill="#00CAFF"/>
</g>
<path d="M43.5442 13.1829L43 12.6387L42.4558 13.1829L43 13.7271L43.5442 13.1829ZM0.455819 13.1829L1 13.7271L1.54418 13.1829L1 12.6387L0.455819 13.1829ZM43 13.0886L1 13.0886V13.2771L43 13.2771V13.0886Z" fill="url(#paint0_linear_138_2872)"/>
<g clip-path="url(#clip1_138_2872)">
<path d="M15.8387 16.1959H18.1026V24.3818H15.8387V16.1959ZM19.2905 24.3818V16.1959H25.5159V17.783H21.5542V19.4721H25.1987V21.0595H21.5542V22.794H25.5159V24.3818H19.2905ZM26.7842 24.3818V16.1959H33.0081V17.783H29.0475V19.4721H32.6908V21.0595H29.0475V22.794H33.0081V24.3818H26.7842ZM34.2757 24.3818V16.1959H40.5011V17.783H36.5409V19.4721H40.1844V21.0595H36.5409V22.794H40.501V24.3818H34.2757ZM8.66323 21.1102C8.63331 21.6882 8.62594 22.2232 8.58323 22.8027C8.8116 22.8234 9.06938 22.8434 9.31293 22.8079L9.24009 21.1925L9.22729 21.1157C9.04185 21.1229 8.86638 21.1304 8.66323 21.1102ZM7.23677 19.4871C6.95543 19.6283 6.54154 19.8418 6.58721 20.2283C6.64749 20.4393 6.87557 20.5756 7.0561 20.6624C8.05378 21.1027 9.37826 21.1177 10.4316 20.789C10.6916 20.6886 11.0408 20.5431 11.0885 20.2239C11.0857 19.9603 10.807 19.7943 10.6068 19.6933V19.6808C10.6767 19.6532 10.757 19.6283 10.8292 19.6207V19.6137C10.4765 19.5503 10.1358 19.4579 9.7941 19.3674C9.85987 19.5176 9.90742 19.676 9.96228 19.8321C10.0649 19.7992 10.1702 19.7742 10.281 19.759C10.4612 19.8293 10.7192 19.9299 10.7448 20.1555C10.7648 20.3666 10.5342 20.4694 10.3886 20.5551C9.61596 20.8367 8.74663 20.8642 7.94082 20.6501C7.71823 20.5798 7.39707 20.4896 7.36946 20.2057C7.52744 19.8321 7.93605 19.7543 8.27731 19.6636C8.10191 19.5503 7.92355 19.4502 7.75357 19.3242C7.57001 19.3343 7.40234 19.4148 7.23677 19.4871ZM8.94378 17.2323L8.84376 17.5539L8.34221 18.9929C8.46781 19.0057 8.62334 18.9929 8.74663 19.0057V19.0176L8.67328 20.6453L8.68592 20.6624C8.84636 20.6781 9.04669 20.6862 9.21024 20.6582V20.6326L9.14476 19.0538L9.15459 19.0004L9.59587 18.9929C9.37581 18.4104 9.16225 17.822 8.95672 17.2323H8.94378ZM8.71071 16.5093C9.07972 16.2575 9.41079 16.6095 9.69668 16.8107C10.8021 17.7019 11.8453 18.7221 12.6402 19.8741C12.7403 20.0227 12.7856 20.2536 12.6958 20.4218C12.4898 20.7661 12.2117 21.0803 11.9481 21.3994V21.4169C11.2909 22.1176 10.5968 22.838 9.84679 23.4314C9.48074 23.6545 9.14476 24.1418 8.67328 23.8399C7.59971 23.0541 6.5724 22.0772 5.70155 21.0294C5.5539 20.799 5.32336 20.6102 5.22067 20.3489C5.07736 19.9952 5.39332 19.7413 5.57407 19.4748C6.46204 18.378 7.5648 17.3023 8.71071 16.5093ZM9.63598 15.4617L9.22737 14.8816C9.17721 14.8511 9.11484 14.8004 9.05941 14.7856C8.93894 14.7332 8.809 14.7966 8.71064 14.8713L7.97132 15.8358C6.78509 17.3073 5.38089 18.6813 3.84899 19.7346C3.72794 19.8293 3.54792 19.9218 3.51041 20.0781C3.47023 20.2185 3.54329 20.3344 3.63038 20.4219C4.85708 21.2682 6.02987 22.2729 7.07381 23.4187C7.2591 23.6138 7.40935 23.8077 7.59061 23.9908C7.89594 24.3977 8.25462 24.8079 8.53531 25.2445C8.62334 25.3367 8.63844 25.4882 8.77604 25.533C8.8838 25.5704 9.01684 25.5957 9.11961 25.533L9.2218 25.4303C10.4911 23.6292 12.1009 22.0117 13.8994 20.7058C14.0794 20.5447 14.4233 20.4849 14.4282 20.186C14.4155 20.0481 14.3353 19.9122 14.2171 19.8369L14.1877 19.8321C13.2621 19.2014 12.3997 18.4882 11.5873 17.679L10.6895 16.7397C10.3257 16.3357 9.97225 15.8884 9.63598 15.4617ZM8.5781 16.2879C8.93894 16.0066 9.39301 16.2402 9.69661 16.499C10.0146 16.7424 10.3458 17.0183 10.6366 17.3002L10.6894 17.3306C11.4945 18.0788 12.2421 18.9103 12.8563 19.7894C12.9559 19.9423 13.0439 20.1157 12.9883 20.3187C12.7835 20.8316 12.3673 21.2404 12.0034 21.6883C11.2161 22.5371 10.3856 23.3584 9.45588 24.0136C9.26784 24.1468 9.0141 24.2699 8.78883 24.1642C8.10444 23.8054 7.52737 23.2176 6.9284 22.6821C6.23374 22.0369 5.53656 21.2857 5.01008 20.4999C4.93181 20.3896 4.90977 20.2536 4.91208 20.1082C4.97972 19.8369 5.16531 19.6137 5.34085 19.385C5.96295 18.5909 6.72496 17.8376 7.49449 17.1495C7.51226 17.1319 7.54508 17.0944 7.57297 17.0765C7.90346 16.7903 8.23178 16.5369 8.5781 16.2879Z" fill="#006699"/>
</g>
<defs>
<linearGradient id="paint0_linear_138_2872" x1="1" y1="12.6829" x2="43" y2="12.6829" gradientUnits="userSpaceOnUse">
<stop stop-color="#00CAFF"/>
<stop offset="1" stop-color="#007999"/>
</linearGradient>
<clipPath id="clip0_138_2872">
<rect width="36.5" height="11.224" fill="white" transform="translate(3.75002 0.375453)"/>
</clipPath>
<clipPath id="clip1_138_2872">
<rect width="37.0233" height="10.8582" fill="white" transform="translate(3.48833 14.7664)"/>
</clipPath>
</defs>
</svg>
