<svg width="212" height="88" viewBox="0 0 212 88" fill="none" xmlns="http://www.w3.org/2000/svg">
<path d="M210.904 43.6026C210.904 43.6026 213.561 21.7815 186.881 21.7815C160.201 21.7815 161.048 43.6026 161.048 43.6026V65.1735C161.042 66.6033 161.249 68.0259 161.662 69.3939C163.309 74.7632 168.996 86.7914 186.951 86.7914C210.065 86.7914 210.981 71.2228 210.981 64.7124H196.997C196.997 64.7124 198.022 76.3576 187.083 76.3576C176.144 76.3576 175.685 66.8461 175.685 64.6968V43.204C175.685 31.6682 187.402 32.9109 187.402 32.9109C187.402 32.9109 196.981 32.8484 196.981 43.5948H210.904V43.6026Z" fill="#00CAFF"/>
<path d="M101.55 86.5178H158.267L150.847 63.5009C149.927 63.8011 148.97 63.972 148.003 64.009L141.368 50.0191C142.565 48.2293 145.968 48.5576 145.968 48.5576L146.154 48.9562L137.771 22.9616H121.751L113.484 49.0031L113.678 48.5889C113.678 48.5889 117.081 48.2606 118.278 50.0582L111.643 64.0637C110.695 64.026 109.757 63.8604 108.854 63.5713M114.852 64.6889L116.203 65.916L117.081 65.5564C118.045 65.1813 118.635 64.9703 119.249 65.6033L119.723 65.9628C120.021 66.2645 120.228 66.6443 120.322 67.0589C120.415 67.4735 120.391 67.9062 120.251 68.3075C120.174 68.6514 120.142 68.8937 120.096 69.0891L120.943 68.839C122.427 68.4169 122.761 68.6436 123.336 69.2298C123.599 69.4625 123.782 69.7736 123.857 70.118C123.933 70.4624 123.897 70.822 123.755 71.1446C123.678 71.3978 123.638 71.6612 123.639 71.9261L123.771 71.887C125.154 71.4963 125.907 71.7229 126.451 72.27C126.654 72.5135 126.795 72.8027 126.863 73.113C126.93 73.4233 126.923 73.7454 126.84 74.052C126.892 74.4917 126.799 74.9367 126.575 75.3181L126.638 75.3728C126.921 75.217 127.22 75.0938 127.531 75.0055C127.878 74.859 128.262 74.8232 128.63 74.9029C128.998 74.9825 129.333 75.1738 129.59 75.4509C129.784 75.6218 129.918 75.8502 129.974 76.1032C130.03 76.3562 130.004 76.6205 129.901 76.8577C129.829 77.2397 129.672 77.6004 129.442 77.9128L129.489 77.9519L130.266 78.499C131.253 79.3665 134.197 78.288 132.9 77.0609C132.9 77.0609 129.955 74.6538 129.069 73.9347C128.184 73.2157 129.279 72.6764 130.11 73.2782L135.759 77.4205C136.699 78.1004 139.48 76.7171 137.662 75.0758C137.662 75.0758 131.385 70.3005 130.996 69.9879C130.608 69.6752 131.074 68.5967 132.169 69.3861L139.426 74.7944C140.832 75.8417 143.147 73.9035 141.221 72.2778C141.221 72.2778 133.614 66.5959 132.729 65.916C131.843 65.236 132.83 64.4466 133.692 65.1344C133.692 65.1344 141.182 70.6053 142.495 71.6604C143.808 72.7155 146.263 69.9332 144.763 68.4169C144.763 68.4169 132.084 57.2329 131.113 56.4044C130.142 55.576 128.906 56.0527 127.92 56.5373C126.933 57.0219 127.026 57.6315 127.026 57.6315C127.059 58.5226 126.829 59.4037 126.366 60.1637C124.921 63.2899 122.535 62.3677 121.564 62.3443C120.593 62.3208 120.119 61.4611 120.982 60.5545C121.844 59.6479 121.844 57.8425 121.844 56.506C121.844 55.1696 123.25 53.5986 123.25 53.5986H119.536C119.536 53.5986 119.195 53.0516 120.08 52.5748C120.966 52.0981 123.755 52.395 123.755 52.395C128.805 52.395 127.585 50.6912 131.097 50.6912C131.097 50.6912 134.205 50.6131 135.759 51.6369C137.313 52.6608 140.234 52.1371 140.234 52.1371L146.418 65.15L144.701 66.8304L145.587 67.8542C145.587 67.8542 147.304 69.6362 145.797 71.3869C145.438 71.8786 144.952 72.2614 144.392 72.493C143.831 72.7247 143.218 72.7963 142.619 72.6999C142.79 73.0958 142.832 73.5361 142.738 73.9575C142.645 74.3788 142.421 74.7594 142.099 75.0445C141.712 75.4191 141.228 75.6748 140.702 75.7814C140.176 75.8881 139.631 75.8412 139.131 75.6463C139.55 76.381 138.478 77.5611 138.478 77.5611C136.629 79.7104 134.182 77.7175 134.182 77.7175C133.894 79.2806 131.447 80.8437 129.178 78.7413L128.836 78.4521C128.522 78.737 128.187 78.9982 127.834 79.2337C127.592 79.4211 127.293 79.5194 126.988 79.5123C126.683 79.5052 126.389 79.3931 126.156 79.1946C125.827 78.911 125.612 78.5175 125.549 78.0866C125.486 77.6557 125.58 77.2165 125.814 76.8499C125.89 76.7119 125.94 76.5609 125.962 76.4044C125.623 76.8724 125.148 77.2222 124.602 77.4048C123.825 77.7175 122.714 77.9597 122.17 77.4048C120.982 76.381 121.269 75.2477 121.471 74.2786C120.748 74.771 119.358 75.8417 118.06 74.5131C117.128 73.5752 117.641 72.4107 117.983 71.4259C115.97 72.7077 114.595 72.2622 113.997 71.6604C113.399 71.0586 113.655 69.6596 114.214 68.6123C114.657 67.8308 114.712 67.1508 115.1 66.6037C114.323 65.9394 113.818 65.4783 113.694 65.3611C113.01 64.6811 113.865 63.7354 114.859 64.6342L114.852 64.6889Z" fill="#00CAFF"/>
<path d="M83.9373 22.9617H57.2031V86.5178H71.7706V64.4467H85.5611C90.4791 64.4467 103.819 62.102 103.819 42.3052C103.819 22.5084 83.9373 22.9617 83.9373 22.9617ZM83.2925 53.7706H72.0891V34.2317H83.2225C83.2225 34.2317 91.124 34.9507 91.124 44.0012C91.124 53.0516 83.2925 53.7628 83.2925 53.7628V53.7706Z" fill="#00CAFF"/>
<path d="M48.5248 41.6486C48.5248 41.6486 48.6569 21.8518 25.9938 21.8518C3.33065 21.8518 1.13194 34.7475 1.13194 41.6486C1.13194 41.6486 -1.35425 49.8628 18.0302 57.9441C28.5654 62.3442 34.6877 62.9773 34.6877 68.3466C34.6877 73.7159 32.015 76.5138 26.0948 76.5138C20.1746 76.5138 14.2932 73.7784 14.2932 66.5959V65.3767H0.0131535V68.3075C0.0131535 68.3075 -1.3931 87.1665 24.875 87.1665C51.1431 87.1665 49.1075 68.6983 49.1075 68.6983C49.1075 68.6983 50.6148 58.3427 38.9142 53.2626C27.2136 48.1824 15.847 45.7909 15.847 39.8823C15.847 33.9738 20.361 32.6998 24.5875 32.6998C28.814 32.6998 33.8097 33.7393 33.8097 41.6565H48.5248V41.6486Z" fill="#00CAFF"/>
<path d="M168.327 14.5788V17.4309H156.519V15.013L162.035 9.168C162.552 8.57332 162.963 8.04907 163.268 7.59523C163.581 7.1414 163.808 6.7306 163.949 6.36284C164.089 5.98726 164.16 5.64297 164.16 5.32998C164.16 4.82138 164.078 4.39102 163.913 4.03891C163.757 3.6868 163.526 3.41684 163.221 3.22905C162.916 3.04126 162.544 2.94736 162.106 2.94736C161.636 2.94736 161.233 3.06865 160.897 3.31121C160.561 3.55378 160.302 3.89024 160.122 4.3206C159.942 4.74313 159.852 5.22435 159.852 5.76425H156.167C156.167 4.72357 156.417 3.77678 156.918 2.92389C157.419 2.06317 158.119 1.37851 159.019 0.869906C159.919 0.353476 160.971 0.0952606 162.176 0.0952606C163.413 0.0952606 164.449 0.290878 165.287 0.682113C166.124 1.07335 166.758 1.63281 167.188 2.36051C167.618 3.08821 167.834 3.96457 167.834 4.98961C167.834 5.56864 167.74 6.1281 167.552 6.66801C167.372 7.20791 167.11 7.7439 166.766 8.27598C166.421 8.80806 166.007 9.35188 165.521 9.90743C165.036 10.4552 164.489 11.0342 163.878 11.6445L161.296 14.5788H168.327Z" fill="#00CAFF"/>
<path d="M182.071 7.36049V10.4004C182.071 11.6523 181.93 12.7361 181.648 13.6515C181.374 14.567 180.975 15.3221 180.451 15.9168C179.934 16.5115 179.316 16.9536 178.596 17.2431C177.884 17.5248 177.094 17.6656 176.226 17.6656C175.529 17.6656 174.88 17.5756 174.277 17.3957C173.675 17.2157 173.131 16.9379 172.646 16.5623C172.168 16.1789 171.758 15.7016 171.413 15.1304C171.069 14.5592 170.803 13.8785 170.615 13.0882C170.435 12.2979 170.345 11.4019 170.345 10.4004V7.36049C170.345 6.09289 170.482 5.00526 170.756 4.09759C171.038 3.18993 171.441 2.43876 171.965 1.84408C172.489 1.2494 173.107 0.81122 173.819 0.529531C174.539 0.247842 175.334 0.106998 176.202 0.106998C176.899 0.106998 177.544 0.196982 178.139 0.37695C178.741 0.556918 179.285 0.834695 179.77 1.21028C180.255 1.58587 180.666 2.05926 181.003 2.63046C181.347 3.20167 181.609 3.88241 181.789 4.67271C181.977 5.45518 182.071 6.35111 182.071 7.36049ZM178.409 10.8581V6.87927C178.409 6.29242 178.373 5.78382 178.303 5.35346C178.24 4.91527 178.147 4.5436 178.021 4.23844C177.904 3.93327 177.755 3.6868 177.575 3.499C177.395 3.31121 177.188 3.17428 176.953 3.08821C176.726 2.99431 176.476 2.94736 176.202 2.94736C175.858 2.94736 175.549 3.01779 175.275 3.15863C175.001 3.29947 174.77 3.52248 174.582 3.82764C174.395 4.12498 174.25 4.52795 174.148 5.03656C174.054 5.53734 174.007 6.15158 174.007 6.87927V10.8581C174.007 11.445 174.039 11.9575 174.101 12.3957C174.172 12.8339 174.266 13.2095 174.383 13.5224C174.508 13.8276 174.661 14.078 174.841 14.2736C175.021 14.4614 175.228 14.5983 175.463 14.6844C175.697 14.7705 175.952 14.8135 176.226 14.8135C176.57 14.8135 176.875 14.747 177.141 14.614C177.407 14.4731 177.634 14.2501 177.822 13.945C178.017 13.632 178.162 13.2212 178.256 12.7126C178.358 12.204 178.409 11.5858 178.409 10.8581Z" fill="#00CAFF"/>
<path d="M196.073 14.5788V17.4309H184.265V15.013L189.782 9.168C190.298 8.57332 190.709 8.04907 191.014 7.59523C191.327 7.1414 191.554 6.7306 191.695 6.36284C191.836 5.98726 191.906 5.64297 191.906 5.32998C191.906 4.82138 191.824 4.39102 191.66 4.03891C191.503 3.6868 191.272 3.41684 190.967 3.22905C190.662 3.04126 190.29 2.94736 189.852 2.94736C189.383 2.94736 188.98 3.06865 188.643 3.31121C188.307 3.55378 188.049 3.89024 187.869 4.3206C187.689 4.74313 187.599 5.22435 187.599 5.76425H183.913C183.913 4.72357 184.164 3.77678 184.665 2.92389C185.165 2.06317 185.866 1.37851 186.765 0.869906C187.665 0.353476 188.718 0.0952606 189.923 0.0952606C191.159 0.0952606 192.196 0.290878 193.033 0.682113C193.87 1.07335 194.504 1.63281 194.934 2.36051C195.365 3.08821 195.58 3.96457 195.58 4.98961C195.58 5.56864 195.486 6.1281 195.298 6.66801C195.118 7.20791 194.856 7.7439 194.512 8.27598C194.168 8.80806 193.753 9.35188 193.268 9.90743C192.783 10.4552 192.235 11.0342 191.625 11.6445L189.042 14.5788H196.073Z" fill="#00CAFF"/>
<path d="M210.204 10.9051V13.7454H197.904L197.704 11.5154L204.7 0.341739H207.599L204.453 5.55299L201.272 10.9051H210.204ZM208.373 0.341739V17.4309H204.711V0.341739H208.373Z" fill="#00CAFF"/>
<path d="M139.365 5.29917C139.365 8.66445 138.361 9.66603 134.705 10.0266C132.816 10.2269 132.455 10.3471 133.54 10.3872C135.99 10.4673 138.08 11.1484 138.763 12.1499C139.124 12.6707 139.365 13.9127 139.365 15.2348C139.365 16.7972 139.486 17.278 139.767 16.8373C139.968 16.5168 140.169 15.4752 140.169 14.5537C140.169 11.9897 141.334 10.948 144.588 10.4673L147.2 10.1067L144.869 10.0667C142.861 10.0266 142.338 9.86634 141.334 8.86477C140.41 7.94332 140.169 7.34238 140.169 5.94017C140.169 4.97866 139.968 3.93703 139.767 3.61652C139.486 3.17583 139.365 3.65659 139.365 5.29917Z" fill="#00CAFF"/>
<path d="M152.722 20.7788C152.361 25.0255 151.597 26.7883 149.749 27.5495C149.146 27.7899 147.057 28.1504 145.048 28.3107L141.433 28.6312L145.048 28.9517C151.155 29.5126 152.24 30.5943 152.722 36.764L153.044 40.61L153.365 36.6438C153.847 30.5943 154.972 29.5126 161.039 28.9517L164.735 28.6312L161.039 28.3507C154.892 27.8299 153.927 26.8684 153.365 20.6987L153.044 16.9729L152.722 20.7788Z" fill="#00CAFF"/>
<path d="M92.2964 73.9426C91.8544 77.7085 91.2919 78.3896 88.0376 79.0306L85.4262 79.5514L87.6761 79.5915C91.0107 79.6716 91.6535 80.3527 92.2562 84.2788L92.7785 87.4438L92.8186 84.7195C92.8588 82.2356 92.9794 81.835 94.0239 80.7934C95.0284 79.7918 95.5506 79.6315 97.5595 79.5915L99.8897 79.5514L97.4791 79.0707C93.3409 78.2694 93.2204 78.1492 92.8588 73.8224L92.6579 71.018L92.2964 73.9426Z" fill="#00CAFF"/>
</svg>
