<svg width="1164" height="370" viewBox="0 0 1164 370" fill="none" xmlns="http://www.w3.org/2000/svg">
<g clip-path="url(#clip0_164_4291)">
<mask id="mask0_164_4291" style="mask-type:luminance" maskUnits="userSpaceOnUse" x="0" y="0" width="1164" height="370">
<path d="M1163.16 0.00585938H0V369.043H1163.16V0.00585938Z" fill="white"/>
</mask>
<g mask="url(#mask0_164_4291)">
<path d="M129.404 369.067C149.828 369.067 181.608 364.929 200.132 355.595V291.001C184.086 297.184 165.417 299.83 150.574 299.83C120.117 299.83 84.2964 281.956 84.2964 244.017C84.2964 200.666 118.265 184.283 151.921 184.283C168.136 184.283 186.299 189.191 200.132 193.209V124.814C181.03 119.04 154.207 114.325 136.043 114.325C61.0571 114.325 0 160.034 0 242.43C0 326.245 58.9882 369.067 129.404 369.067Z" fill="#D22027"/>
</g>
<mask id="mask1_164_4291" style="mask-type:luminance" maskUnits="userSpaceOnUse" x="0" y="0" width="1164" height="370">
<path d="M1163.16 0.00585938H0V369.043H1163.16V0.00585938Z" fill="white"/>
</mask>
<g mask="url(#mask1_164_4291)">
<path d="M951.665 367.367C983.613 367.367 1006.56 355.242 1023.24 336.766V361.978H1105.9V222.013C1105.9 187.828 1100.17 162.616 1081.72 144.573C1062.35 125.231 1032.64 114.815 989.002 114.911C953.518 114.983 920.632 123.836 889.045 134.253V195.695C916.373 185.495 949.428 180.611 975.049 180.611C1007.91 180.611 1023.67 195.045 1023.67 220.233V224.227C1009.72 219.319 987.655 214.772 965.161 214.772C908.026 214.772 869.727 240.874 869.727 291.298V292.188C869.703 340.784 905.307 367.367 951.665 367.367ZM952.098 286.342C952.098 268.348 966.509 256.199 991.215 256.199C1003.82 256.199 1015.2 259.855 1024.56 263.897C1024.56 295.123 1007.02 313.792 982.242 313.792C964.704 313.792 952.098 303.88 952.098 287.232V286.342Z" fill="#D22027"/>
</g>
<mask id="mask2_164_4291" style="mask-type:luminance" maskUnits="userSpaceOnUse" x="0" y="0" width="1164" height="370">
<path d="M1163.16 0.00585938H0V369.043H1163.16V0.00585938Z" fill="white"/>
</mask>
<g mask="url(#mask2_164_4291)">
<path d="M694.17 230.404C694.17 202.907 710.168 187.534 732.036 187.534C753.591 187.534 768.146 203.051 768.146 230.404V361.877H849.868V202.955C849.868 148.466 819.484 115.267 768.94 115.267C735.115 115.267 713.103 134.127 697.562 154.143L694.146 158.473V121.786H612.424V361.877H694.146L694.17 230.404Z" fill="#D22027"/>
</g>
<mask id="mask3_164_4291" style="mask-type:luminance" maskUnits="userSpaceOnUse" x="0" y="0" width="1164" height="370">
<path d="M1163.16 0.00585938H0V369.043H1163.16V0.00585938Z" fill="white"/>
</mask>
<g mask="url(#mask3_164_4291)">
<path d="M294.571 363.484C328.131 369.498 361.017 362.738 404.897 342.939C425.899 357.951 453.613 367.79 484.454 367.79C527.06 367.79 561.87 349.146 587.66 331.873V284.264C555.616 304.881 508.776 319.989 479.715 298.746C509.378 278.129 537.573 253.374 556.217 223.664C585.904 176.247 566.514 107.131 484.815 107.131C412.836 107.131 358.323 170.137 357.168 240.6C356.807 262.709 361.45 283.59 369.798 300.911C322.237 314.817 313.071 291.89 311.435 248.924C309.511 197.273 309.126 124.067 309.126 124.067H233.081V274.4C233.081 305.506 240.683 353.861 294.571 363.484ZM480.461 176.199C505.48 170.305 527.733 191.307 499.851 226.719C488.52 241.129 471.921 254.962 452.194 267.761C424.504 217.072 458.569 181.371 480.461 176.199Z" fill="#D22027"/>
</g>
<mask id="mask4_164_4291" style="mask-type:luminance" maskUnits="userSpaceOnUse" x="0" y="0" width="1164" height="370">
<path d="M1163.16 0.00585938H0V369.043H1163.16V0.00585938Z" fill="white"/>
</mask>
<g mask="url(#mask4_164_4291)">
<path d="M226.641 45.2574C226.641 70.3009 246.897 90.533 271.892 90.533C296.888 90.533 317.144 70.3009 317.144 45.2574C317.144 20.2861 296.888 0.00585938 271.892 0.00585938C246.897 0.00585938 226.641 20.2861 226.641 45.2574Z" fill="#D22027"/>
</g>
<mask id="mask5_164_4291" style="mask-type:luminance" maskUnits="userSpaceOnUse" x="0" y="0" width="1164" height="370">
<path d="M1163.16 0.00585938H0V369.043H1163.16V0.00585938Z" fill="white"/>
</mask>
<g mask="url(#mask5_164_4291)">
<path d="M1148.14 361.965C1156.32 361.965 1163.18 355.517 1163.18 346.929C1163.18 338.509 1156.32 332.134 1148.14 332.134C1139.89 332.134 1133.11 338.533 1133.11 347.121C1133.11 355.517 1139.89 361.965 1148.14 361.965ZM1148.14 334.275C1155.17 334.275 1160.75 339.76 1160.75 346.929C1160.75 354.29 1155.17 359.751 1148.14 359.751C1141.14 359.751 1135.49 354.266 1135.49 347.121C1135.47 339.736 1141.14 334.275 1148.14 334.275Z" fill="#D22027"/>
</g>
<mask id="mask6_164_4291" style="mask-type:luminance" maskUnits="userSpaceOnUse" x="0" y="0" width="1164" height="370">
<path d="M1163.16 0.00585938H0V369.043H1163.16V0.00585938Z" fill="white"/>
</mask>
<g mask="url(#mask6_164_4291)">
<path d="M1144.98 348.356H1148.06L1152.8 355.814H1155.35L1150.44 348.164C1152.97 347.875 1154.97 346.552 1154.97 343.496C1154.97 340.008 1153.02 338.517 1148.88 338.517H1142.55V355.838H1144.96V348.356H1144.98ZM1144.98 340.634H1148.69C1150.56 340.634 1152.63 340.946 1152.63 343.328C1152.63 346.046 1150.32 346.143 1147.94 346.143H1144.98V340.634Z" fill="#D22027"/>
</g>
</g>
<defs>
<clipPath id="clip0_164_4291">
<rect width="1163.16" height="369.037" fill="white"/>
</clipPath>
</defs>
</svg>
