<svg width="1029" height="314" viewBox="0 0 1029 314" fill="none" xmlns="http://www.w3.org/2000/svg">
<line x1="767.133" y1="223.391" x2="767.133" y2="92.3165" stroke="white" stroke-width="3"/>
<path d="M815.391 122V95.0909H831.631V97.9815H818.65V107.074H830.79V109.964H818.65V119.109H831.842V122H815.391ZM840.185 109.859V122H837.084V101.818H840.08V104.972H840.343C840.816 103.947 841.534 103.123 842.498 102.501C843.461 101.871 844.705 101.555 846.229 101.555C847.596 101.555 848.791 101.836 849.816 102.396C850.841 102.948 851.638 103.789 852.207 104.919C852.777 106.04 853.061 107.459 853.061 109.176V122H849.961V109.386C849.961 107.801 849.549 106.566 848.725 105.681C847.902 104.788 846.772 104.341 845.336 104.341C844.346 104.341 843.461 104.556 842.681 104.985C841.911 105.414 841.302 106.04 840.855 106.864C840.408 107.687 840.185 108.686 840.185 109.859ZM866.874 129.989C865.376 129.989 864.089 129.796 863.011 129.411C861.934 129.034 861.036 128.535 860.318 127.913C859.608 127.299 859.043 126.643 858.623 125.942L861.093 124.207C861.373 124.575 861.728 124.996 862.157 125.469C862.586 125.951 863.173 126.367 863.918 126.717C864.671 127.076 865.656 127.256 866.874 127.256C868.503 127.256 869.848 126.862 870.908 126.073C871.968 125.285 872.498 124.05 872.498 122.368V118.268H872.235C872.007 118.636 871.683 119.092 871.263 119.635C870.851 120.169 870.255 120.647 869.476 121.067C868.705 121.479 867.662 121.685 866.348 121.685C864.719 121.685 863.256 121.299 861.96 120.528C860.672 119.758 859.652 118.636 858.899 117.165C858.154 115.693 857.782 113.906 857.782 111.804C857.782 109.737 858.145 107.937 858.872 106.404C859.599 104.862 860.611 103.671 861.907 102.83C863.204 101.98 864.702 101.555 866.401 101.555C867.715 101.555 868.757 101.774 869.528 102.212C870.308 102.642 870.903 103.132 871.315 103.684C871.736 104.227 872.06 104.674 872.287 105.024H872.603V101.818H875.598V122.578C875.598 124.312 875.204 125.723 874.416 126.809C873.636 127.904 872.585 128.705 871.263 129.213C869.949 129.73 868.486 129.989 866.874 129.989ZM866.769 118.899C868.013 118.899 869.064 118.614 869.922 118.045C870.781 117.476 871.433 116.657 871.88 115.588C872.327 114.519 872.55 113.241 872.55 111.751C872.55 110.297 872.331 109.014 871.893 107.902C871.455 106.789 870.807 105.918 869.949 105.287C869.09 104.656 868.03 104.341 866.769 104.341C865.455 104.341 864.36 104.674 863.484 105.339C862.617 106.005 861.964 106.899 861.526 108.02C861.097 109.141 860.883 110.385 860.883 111.751C860.883 113.153 861.102 114.392 861.54 115.47C861.986 116.538 862.643 117.379 863.51 117.993C864.386 118.597 865.473 118.899 866.769 118.899ZM881.275 122V101.818H884.375V122H881.275ZM882.851 98.4545C882.247 98.4545 881.726 98.2487 881.288 97.837C880.859 97.4253 880.644 96.9304 880.644 96.3523C880.644 95.7741 880.859 95.2792 881.288 94.8675C881.726 94.4558 882.247 94.25 882.851 94.25C883.456 94.25 883.973 94.4558 884.402 94.8675C884.84 95.2792 885.059 95.7741 885.059 96.3523C885.059 96.9304 884.84 97.4253 884.402 97.837C883.973 98.2487 883.456 98.4545 882.851 98.4545ZM893.156 109.859V122H890.055V101.818H893.051V104.972H893.313C893.786 103.947 894.505 103.123 895.468 102.501C896.432 101.871 897.676 101.555 899.2 101.555C900.566 101.555 901.762 101.836 902.787 102.396C903.812 102.948 904.609 103.789 905.178 104.919C905.747 106.04 906.032 107.459 906.032 109.176V122H902.931V109.386C902.931 107.801 902.52 106.566 901.696 105.681C900.873 104.788 899.743 104.341 898.306 104.341C897.316 104.341 896.432 104.556 895.652 104.985C894.881 105.414 894.273 106.04 893.826 106.864C893.379 107.687 893.156 108.686 893.156 109.859ZM920.16 122.42C918.215 122.42 916.538 121.991 915.128 121.133C913.726 120.266 912.644 119.057 911.882 117.506C911.129 115.947 910.752 114.134 910.752 112.067C910.752 110 911.129 108.178 911.882 106.601C912.644 105.015 913.704 103.78 915.062 102.896C916.429 102.002 918.023 101.555 919.845 101.555C920.896 101.555 921.934 101.731 922.959 102.081C923.984 102.431 924.916 103.001 925.757 103.789C926.598 104.569 927.268 105.602 927.768 106.89C928.267 108.178 928.517 109.763 928.517 111.646V112.96H912.96V110.28H925.363C925.363 109.141 925.135 108.125 924.68 107.232C924.233 106.338 923.594 105.633 922.762 105.116C921.938 104.599 920.966 104.341 919.845 104.341C918.61 104.341 917.541 104.647 916.639 105.261C915.745 105.865 915.058 106.653 914.576 107.626C914.094 108.598 913.853 109.64 913.853 110.753V112.54C913.853 114.064 914.116 115.356 914.642 116.416C915.176 117.467 915.916 118.268 916.862 118.82C917.808 119.363 918.907 119.635 920.16 119.635C920.975 119.635 921.71 119.521 922.367 119.293C923.033 119.057 923.607 118.706 924.089 118.242C924.57 117.769 924.943 117.182 925.206 116.482L928.201 117.322C927.886 118.339 927.356 119.232 926.611 120.003C925.867 120.765 924.947 121.361 923.852 121.79C922.757 122.21 921.527 122.42 920.16 122.42ZM941.695 122.42C939.751 122.42 938.073 121.991 936.663 121.133C935.261 120.266 934.18 119.057 933.418 117.506C932.664 115.947 932.288 114.134 932.288 112.067C932.288 110 932.664 108.178 933.418 106.601C934.18 105.015 935.239 103.78 936.597 102.896C937.964 102.002 939.558 101.555 941.38 101.555C942.431 101.555 943.469 101.731 944.494 102.081C945.519 102.431 946.452 103.001 947.293 103.789C948.133 104.569 948.804 105.602 949.303 106.89C949.802 108.178 950.052 109.763 950.052 111.646V112.96H934.495V110.28H946.898C946.898 109.141 946.671 108.125 946.215 107.232C945.768 106.338 945.129 105.633 944.297 105.116C943.473 104.599 942.501 104.341 941.38 104.341C940.145 104.341 939.076 104.647 938.174 105.261C937.28 105.865 936.593 106.653 936.111 107.626C935.629 108.598 935.388 109.64 935.388 110.753V112.54C935.388 114.064 935.651 115.356 936.177 116.416C936.711 117.467 937.451 118.268 938.397 118.82C939.343 119.363 940.443 119.635 941.695 119.635C942.51 119.635 943.246 119.521 943.903 119.293C944.568 119.057 945.142 118.706 945.624 118.242C946.106 117.769 946.478 117.182 946.741 116.482L949.736 117.322C949.421 118.339 948.891 119.232 948.147 120.003C947.402 120.765 946.482 121.361 945.387 121.79C944.292 122.21 943.062 122.42 941.695 122.42ZM954.769 122V101.818H957.764V104.866H957.975C958.343 103.868 959.008 103.058 959.972 102.436C960.935 101.814 962.022 101.503 963.23 101.503C963.458 101.503 963.743 101.507 964.084 101.516C964.426 101.525 964.684 101.538 964.86 101.555V104.709C964.755 104.683 964.514 104.643 964.137 104.591C963.769 104.529 963.379 104.499 962.968 104.499C961.987 104.499 961.111 104.704 960.34 105.116C959.578 105.519 958.973 106.08 958.527 106.798C958.089 107.507 957.87 108.318 957.87 109.229V122H954.769ZM968.535 122V101.818H971.636V122H968.535ZM970.112 98.4545C969.508 98.4545 968.986 98.2487 968.548 97.837C968.119 97.4253 967.905 96.9304 967.905 96.3523C967.905 95.7741 968.119 95.2792 968.548 94.8675C968.986 94.4558 969.508 94.25 970.112 94.25C970.716 94.25 971.233 94.4558 971.662 94.8675C972.1 95.2792 972.319 95.7741 972.319 96.3523C972.319 96.9304 972.1 97.4253 971.662 97.837C971.233 98.2487 970.716 98.4545 970.112 98.4545ZM980.416 109.859V122H977.316V101.818H980.311V104.972H980.574C981.047 103.947 981.765 103.123 982.729 102.501C983.693 101.871 984.936 101.555 986.46 101.555C987.827 101.555 989.023 101.836 990.047 102.396C991.072 102.948 991.869 103.789 992.439 104.919C993.008 106.04 993.293 107.459 993.293 109.176V122H990.192V109.386C990.192 107.801 989.78 106.566 988.957 105.681C988.134 104.788 987.004 104.341 985.567 104.341C984.577 104.341 983.693 104.556 982.913 104.985C982.142 105.414 981.533 106.04 981.087 106.864C980.64 107.687 980.416 108.686 980.416 109.859ZM1007.11 129.989C1005.61 129.989 1004.32 129.796 1003.24 129.411C1002.17 129.034 1001.27 128.535 1000.55 127.913C999.839 127.299 999.275 126.643 998.854 125.942L1001.32 124.207C1001.6 124.575 1001.96 124.996 1002.39 125.469C1002.82 125.951 1003.4 126.367 1004.15 126.717C1004.9 127.076 1005.89 127.256 1007.11 127.256C1008.73 127.256 1010.08 126.862 1011.14 126.073C1012.2 125.285 1012.73 124.05 1012.73 122.368V118.268H1012.47C1012.24 118.636 1011.91 119.092 1011.49 119.635C1011.08 120.169 1010.49 120.647 1009.71 121.067C1008.94 121.479 1007.89 121.685 1006.58 121.685C1004.95 121.685 1003.49 121.299 1002.19 120.528C1000.9 119.758 999.883 118.636 999.13 117.165C998.385 115.693 998.013 113.906 998.013 111.804C998.013 109.737 998.377 107.937 999.104 106.404C999.831 104.862 1000.84 103.671 1002.14 102.83C1003.44 101.98 1004.93 101.555 1006.63 101.555C1007.95 101.555 1008.99 101.774 1009.76 102.212C1010.54 102.642 1011.13 103.132 1011.55 103.684C1011.97 104.227 1012.29 104.674 1012.52 105.024H1012.83V101.818H1015.83V122.578C1015.83 124.312 1015.44 125.723 1014.65 126.809C1013.87 127.904 1012.82 128.705 1011.49 129.213C1010.18 129.73 1008.72 129.989 1007.11 129.989ZM1007 118.899C1008.24 118.899 1009.3 118.614 1010.15 118.045C1011.01 117.476 1011.66 116.657 1012.11 115.588C1012.56 114.519 1012.78 113.241 1012.78 111.751C1012.78 110.297 1012.56 109.014 1012.12 107.902C1011.69 106.789 1011.04 105.918 1010.18 105.287C1009.32 104.656 1008.26 104.341 1007 104.341C1005.69 104.341 1004.59 104.674 1003.72 105.339C1002.85 106.005 1002.2 106.899 1001.76 108.02C1001.33 109.141 1001.11 110.385 1001.11 111.751C1001.11 113.153 1001.33 114.392 1001.77 115.47C1002.22 116.538 1002.87 117.379 1003.74 117.993C1004.62 118.597 1005.7 118.899 1007 118.899ZM815.391 170V143.091H831.631V145.982H818.65V155.074H830.79V157.964H818.65V167.109H831.842V170H815.391ZM840.185 157.859V170H837.084V149.818H840.08V152.972H840.343C840.816 151.947 841.534 151.123 842.498 150.501C843.461 149.871 844.705 149.555 846.229 149.555C847.596 149.555 848.791 149.836 849.816 150.396C850.841 150.948 851.638 151.789 852.207 152.919C852.777 154.04 853.061 155.459 853.061 157.176V170H849.961V157.386C849.961 155.801 849.549 154.566 848.725 153.681C847.902 152.788 846.772 152.341 845.336 152.341C844.346 152.341 843.461 152.556 842.681 152.985C841.911 153.414 841.302 154.04 840.855 154.864C840.408 155.687 840.185 156.686 840.185 157.859ZM866.348 170.42C864.667 170.42 863.182 169.996 861.894 169.146C860.607 168.288 859.599 167.079 858.872 165.52C858.145 163.952 857.782 162.099 857.782 159.962C857.782 157.842 858.145 156.002 858.872 154.443C859.599 152.884 860.611 151.68 861.907 150.83C863.204 149.98 864.702 149.555 866.401 149.555C867.715 149.555 868.753 149.774 869.515 150.212C870.286 150.642 870.873 151.132 871.276 151.684C871.687 152.227 872.007 152.674 872.235 153.024H872.498V143.091H875.598V170H872.603V166.899H872.235C872.007 167.267 871.683 167.731 871.263 168.292C870.842 168.844 870.242 169.339 869.462 169.777C868.683 170.206 867.645 170.42 866.348 170.42ZM866.769 167.635C868.013 167.635 869.064 167.311 869.922 166.663C870.781 166.006 871.433 165.099 871.88 163.943C872.327 162.778 872.55 161.433 872.55 159.909C872.55 158.402 872.331 157.084 871.893 155.954C871.455 154.815 870.807 153.931 869.949 153.3C869.09 152.661 868.03 152.341 866.769 152.341C865.455 152.341 864.36 152.678 863.484 153.353C862.617 154.018 861.964 154.925 861.526 156.072C861.097 157.211 860.883 158.49 860.883 159.909C860.883 161.346 861.102 162.651 861.54 163.825C861.986 164.99 862.643 165.918 863.51 166.61C864.386 167.293 865.473 167.635 866.769 167.635ZM889.907 170.42C888.085 170.42 886.486 169.987 885.111 169.12C883.745 168.252 882.676 167.039 881.905 165.48C881.143 163.921 880.762 162.099 880.762 160.014C880.762 157.912 881.143 156.077 881.905 154.509C882.676 152.941 883.745 151.723 885.111 150.856C886.486 149.989 888.085 149.555 889.907 149.555C891.729 149.555 893.323 149.989 894.69 150.856C896.065 151.723 897.134 152.941 897.896 154.509C898.667 156.077 899.052 157.912 899.052 160.014C899.052 162.099 898.667 163.921 897.896 165.48C897.134 167.039 896.065 168.252 894.69 169.12C893.323 169.987 891.729 170.42 889.907 170.42ZM889.907 167.635C891.291 167.635 892.43 167.28 893.323 166.571C894.217 165.861 894.878 164.928 895.307 163.772C895.736 162.616 895.951 161.363 895.951 160.014C895.951 158.665 895.736 157.408 895.307 156.243C894.878 155.078 894.217 154.137 893.323 153.418C892.43 152.7 891.291 152.341 889.907 152.341C888.523 152.341 887.384 152.7 886.491 153.418C885.597 154.137 884.936 155.078 884.507 156.243C884.078 157.408 883.863 158.665 883.863 160.014C883.863 161.363 884.078 162.616 884.507 163.772C884.936 164.928 885.597 165.861 886.491 166.571C887.384 167.28 888.523 167.635 889.907 167.635ZM907.671 170L901.522 149.818H904.781L909.143 165.27H909.353L913.663 149.818H916.974L921.231 165.217H921.441L925.803 149.818H929.062L922.913 170H919.864L915.45 154.496H915.134L910.72 170H907.671ZM933.161 170V149.818H936.157V152.972H936.42C936.84 151.894 937.519 151.058 938.456 150.462C939.394 149.858 940.519 149.555 941.833 149.555C943.165 149.555 944.273 149.858 945.157 150.462C946.051 151.058 946.747 151.894 947.247 152.972H947.457C947.974 151.929 948.749 151.101 949.782 150.488C950.816 149.866 952.055 149.555 953.501 149.555C955.305 149.555 956.781 150.12 957.929 151.25C959.076 152.372 959.65 154.119 959.65 156.493V170H956.549V156.493C956.549 155.004 956.142 153.94 955.327 153.3C954.513 152.661 953.553 152.341 952.45 152.341C951.031 152.341 949.931 152.77 949.152 153.629C948.372 154.478 947.982 155.556 947.982 156.861V170H944.829V156.178C944.829 155.03 944.457 154.106 943.712 153.405C942.968 152.696 942.008 152.341 940.835 152.341C940.029 152.341 939.275 152.556 938.575 152.985C937.883 153.414 937.322 154.01 936.893 154.772C936.472 155.525 936.262 156.397 936.262 157.386V170H933.161ZM973.781 170.42C971.837 170.42 970.159 169.991 968.749 169.133C967.347 168.266 966.266 167.057 965.503 165.506C964.75 163.947 964.373 162.134 964.373 160.067C964.373 158 964.75 156.178 965.503 154.601C966.266 153.015 967.325 151.78 968.683 150.896C970.05 150.002 971.644 149.555 973.466 149.555C974.517 149.555 975.555 149.731 976.58 150.081C977.605 150.431 978.538 151.001 979.378 151.789C980.219 152.569 980.889 153.602 981.389 154.89C981.888 156.178 982.138 157.763 982.138 159.646V160.96H966.581V158.28H978.984C978.984 157.141 978.757 156.125 978.301 155.232C977.854 154.338 977.215 153.633 976.383 153.116C975.559 152.599 974.587 152.341 973.466 152.341C972.231 152.341 971.162 152.647 970.26 153.261C969.366 153.865 968.679 154.653 968.197 155.626C967.715 156.598 967.474 157.64 967.474 158.753V160.54C967.474 162.064 967.737 163.356 968.263 164.416C968.797 165.467 969.537 166.268 970.483 166.82C971.429 167.363 972.529 167.635 973.781 167.635C974.596 167.635 975.332 167.521 975.989 167.293C976.654 167.057 977.228 166.706 977.71 166.242C978.192 165.769 978.564 165.182 978.827 164.482L981.822 165.322C981.507 166.339 980.977 167.232 980.233 168.003C979.488 168.765 978.568 169.361 977.473 169.79C976.378 170.21 975.148 170.42 973.781 170.42ZM989.956 157.859V170H986.855V149.818H989.85V152.972H990.113C990.586 151.947 991.304 151.123 992.268 150.501C993.232 149.871 994.475 149.555 996 149.555C997.366 149.555 998.562 149.836 999.587 150.396C1000.61 150.948 1001.41 151.789 1001.98 152.919C1002.55 154.04 1002.83 155.459 1002.83 157.176V170H999.731V157.386C999.731 155.801 999.319 154.566 998.496 153.681C997.673 152.788 996.543 152.341 995.106 152.341C994.116 152.341 993.232 152.556 992.452 152.985C991.681 153.414 991.072 154.04 990.626 154.864C990.179 155.687 989.956 156.686 989.956 157.859ZM1017.28 149.818V152.446H1006.82V149.818H1017.28ZM1009.86 144.983H1012.97V164.219C1012.97 165.095 1013.09 165.752 1013.35 166.19C1013.61 166.619 1013.94 166.908 1014.35 167.057C1014.76 167.197 1015.19 167.267 1015.65 167.267C1015.99 167.267 1016.27 167.25 1016.49 167.214C1016.71 167.171 1016.88 167.136 1017.01 167.109L1017.64 169.895C1017.43 169.974 1017.14 170.053 1016.76 170.131C1016.39 170.219 1015.91 170.263 1015.33 170.263C1014.45 170.263 1013.6 170.074 1012.76 169.698C1011.92 169.321 1011.23 168.747 1010.68 167.977C1010.14 167.206 1009.86 166.233 1009.86 165.06V144.983ZM815.391 218V191.091H831.526V193.982H818.65V203.074H830.317V205.964H818.65V218H815.391ZM848.141 209.749V197.818H851.242V218H848.141V214.584H847.931C847.458 215.609 846.722 216.48 845.723 217.199C844.725 217.908 843.463 218.263 841.939 218.263C840.678 218.263 839.557 217.987 838.575 217.435C837.594 216.874 836.824 216.033 836.263 214.912C835.702 213.782 835.422 212.359 835.422 210.642V197.818H838.523V210.432C838.523 211.903 838.935 213.077 839.758 213.953C840.59 214.829 841.65 215.267 842.938 215.267C843.709 215.267 844.492 215.07 845.29 214.676C846.095 214.282 846.77 213.677 847.313 212.863C847.865 212.048 848.141 211.01 848.141 209.749ZM860.022 205.859V218H856.921V197.818H859.917V200.972H860.18C860.653 199.947 861.371 199.123 862.334 198.501C863.298 197.871 864.542 197.555 866.066 197.555C867.432 197.555 868.628 197.836 869.653 198.396C870.678 198.948 871.475 199.789 872.044 200.919C872.614 202.04 872.898 203.459 872.898 205.176V218H869.797V205.386C869.797 203.801 869.386 202.566 868.562 201.681C867.739 200.788 866.609 200.341 865.172 200.341C864.183 200.341 863.298 200.556 862.518 200.985C861.748 201.414 861.139 202.04 860.692 202.864C860.245 203.687 860.022 204.686 860.022 205.859ZM886.185 218.42C884.504 218.42 883.019 217.996 881.731 217.146C880.444 216.288 879.436 215.079 878.709 213.52C877.982 211.952 877.619 210.099 877.619 207.962C877.619 205.842 877.982 204.002 878.709 202.443C879.436 200.884 880.448 199.68 881.744 198.83C883.041 197.98 884.539 197.555 886.238 197.555C887.552 197.555 888.59 197.774 889.352 198.212C890.123 198.642 890.71 199.132 891.113 199.684C891.524 200.227 891.844 200.674 892.072 201.024H892.335V191.091H895.435V218H892.44V214.899H892.072C891.844 215.267 891.52 215.731 891.099 216.292C890.679 216.844 890.079 217.339 889.299 217.777C888.52 218.206 887.482 218.42 886.185 218.42ZM886.606 215.635C887.85 215.635 888.901 215.311 889.759 214.663C890.618 214.006 891.27 213.099 891.717 211.943C892.164 210.778 892.387 209.433 892.387 207.909C892.387 206.402 892.168 205.084 891.73 203.954C891.292 202.815 890.644 201.931 889.786 201.3C888.927 200.661 887.867 200.341 886.606 200.341C885.292 200.341 884.197 200.678 883.321 201.353C882.454 202.018 881.801 202.925 881.363 204.072C880.934 205.211 880.719 206.49 880.719 207.909C880.719 209.346 880.938 210.651 881.376 211.825C881.823 212.99 882.48 213.918 883.347 214.61C884.223 215.293 885.309 215.635 886.606 215.635Z" fill="white"/>
<path d="M618.662 93.6354L618.662 93.6358L618.653 93.6445C618.653 93.6439 618.648 93.6496 618.638 93.6714C618.63 93.6917 618.621 93.72 618.611 93.7575C618.592 93.8322 618.573 93.937 618.554 94.0718C618.515 94.3412 618.479 94.7243 618.443 95.2146C618.372 96.1947 618.307 97.5982 618.248 99.3654C618.13 102.9 618.036 107.886 617.964 113.842C617.82 125.754 617.766 141.545 617.791 157.362C617.816 173.178 617.92 189.019 618.093 201.032C618.18 207.038 618.283 212.086 618.403 215.695C618.463 217.5 618.526 218.944 618.594 219.969C618.628 220.481 618.662 220.887 618.698 221.18C618.715 221.327 618.733 221.444 618.751 221.532C618.769 221.622 618.786 221.672 618.798 221.693C618.986 221.974 619.352 222.217 619.952 222.417C620.551 222.617 621.375 222.771 622.465 222.879C624.643 223.095 627.873 223.128 632.473 222.995L644.942 222.597L645.341 195.594L645.341 195.594L645.608 168.661L645.609 168.595H645.675H673.675H701.608V156.662V144.728H673.675H645.675H645.608V144.662V130.662V116.662V116.596L645.674 116.595L678.074 116.328L678.074 116.328L710.277 115.929L710.675 104.259L711.072 92.7283H665.275C652.675 92.7283 641.109 92.8283 632.643 92.995C628.409 93.0783 624.952 93.1783 622.528 93.2908C621.316 93.347 620.363 93.4063 619.701 93.4681C619.369 93.4991 619.112 93.5305 618.933 93.5623C618.843 93.5782 618.774 93.5939 618.725 93.609C618.701 93.6166 618.684 93.6236 618.672 93.6295C618.667 93.6321 618.664 93.6341 618.662 93.6354Z" fill="white" stroke="white" stroke-width="0.133333"/>
<path d="M493.331 93.6352L493.331 93.6356L493.322 93.6439C493.322 93.644 493.318 93.6495 493.311 93.6668C493.303 93.6859 493.295 93.713 493.286 93.7493C493.269 93.8216 493.251 93.9236 493.234 94.0555C493.199 94.3188 493.165 94.695 493.132 95.1773C493.067 96.1417 493.006 97.5259 492.949 99.2712C492.837 102.761 492.742 107.693 492.666 113.589C492.514 125.383 492.435 141.037 492.427 156.745C492.418 172.453 492.481 188.215 492.612 200.225C492.678 206.23 492.761 211.297 492.86 214.95C492.91 216.776 492.964 218.249 493.023 219.308C493.052 219.838 493.082 220.264 493.113 220.579C493.128 220.736 493.144 220.865 493.16 220.965C493.176 221.067 493.192 221.134 493.206 221.171L493.206 221.171L493.206 221.172C493.36 221.604 493.803 221.964 495.081 222.251C496.356 222.537 498.438 222.745 501.83 222.895C508.611 223.195 520.609 223.261 541.81 223.261H589.61V211.328V199.395H555.01H520.343H520.277V199.328V183.328V167.328V167.262L520.343 167.261L550.743 166.995H550.743L580.943 166.596V155.328V144.061L550.743 143.661L550.743 143.661L520.343 143.395L520.277 143.394V143.328V129.328V115.328V115.261H520.343H554.343H588.277V103.995V92.7281H541.277C528.277 92.7281 516.378 92.8281 507.678 92.9948C503.328 93.0781 499.779 93.1781 497.292 93.2905C496.049 93.3468 495.072 93.4061 494.394 93.4679C494.054 93.4989 493.791 93.5303 493.607 93.5621C493.515 93.578 493.445 93.5937 493.395 93.6089C493.371 93.6165 493.353 93.6235 493.341 93.6295C493.336 93.632 493.333 93.634 493.331 93.6352Z" fill="white" stroke="white" stroke-width="0.133333"/>
<path d="M367.995 93.6352L367.995 93.6356L367.986 93.6439C367.986 93.644 367.982 93.6495 367.975 93.6668C367.967 93.6859 367.959 93.713 367.95 93.7493C367.933 93.8216 367.915 93.9236 367.898 94.0555C367.863 94.3188 367.829 94.695 367.796 95.1773C367.731 96.1417 367.67 97.5259 367.613 99.2712C367.501 102.761 367.406 107.693 367.33 113.589C367.178 125.383 367.099 141.037 367.091 156.745C367.083 172.453 367.145 188.215 367.276 200.225C367.342 206.23 367.425 211.297 367.524 214.95C367.574 216.776 367.628 218.249 367.687 219.308C367.716 219.838 367.746 220.264 367.777 220.579C367.793 220.736 367.808 220.865 367.824 220.965C367.84 221.067 367.856 221.134 367.87 221.171L367.87 221.171L367.87 221.172C368.024 221.604 368.467 221.964 369.745 222.251C371.02 222.537 373.102 222.745 376.494 222.895C383.275 223.195 395.274 223.261 416.474 223.261H464.274V211.328V199.395H429.674H395.008H394.941V199.328V183.328V167.328V167.262L395.007 167.261L425.407 166.995H425.407L455.608 166.596V155.328V144.061L425.407 143.661L425.407 143.661L395.007 143.395L394.941 143.394V143.328V129.328V115.328V115.261H395.008H429.008H462.941V103.995V92.7281H415.941C402.941 92.7281 391.042 92.8281 382.342 92.9948C377.992 93.0781 374.443 93.1781 371.956 93.2905C370.713 93.3468 369.736 93.4061 369.058 93.4679C368.719 93.4989 368.455 93.5303 368.272 93.5621C368.179 93.578 368.109 93.5937 368.06 93.6089C368.035 93.6165 368.017 93.6235 368.005 93.6295C368 93.632 367.997 93.634 367.995 93.6352Z" fill="white" stroke="white" stroke-width="0.133333"/>
<path d="M98.7406 27.9948L83.1406 55.3281H145.941C180.474 55.3281 208.474 55.0615 208.207 54.7948C207.541 54.1281 115.007 0.661455 114.607 0.661455C114.474 0.794789 107.274 13.0615 98.7406 27.9948Z" fill="#E04527"/>
<path d="M257.68 146.926C257.813 200.659 258.08 210.259 259.546 208.259C262.346 204.659 312.346 117.459 312.48 116.126C312.613 115.059 300.88 107.859 264.746 87.1925L257.68 83.1925V146.926Z" fill="#E04527"/>
<path d="M31.6776 144.262C19.2776 165.995 7.01094 187.195 4.61094 191.462L0.210938 199.195L13.2776 206.795C20.4776 210.929 32.7443 218.129 40.7443 222.795L55.0109 231.195V167.862C55.0109 133.062 54.8776 104.662 54.7443 104.662C54.4776 104.795 44.2109 122.529 31.6776 144.262Z" fill="#E04527"/>
<path d="M107.68 261.195C111.946 263.995 196.746 312.795 198.08 313.061C199.013 313.328 227.146 266.395 229.28 260.928C229.813 259.728 216.88 259.328 167.546 259.328C114.613 259.328 105.546 259.595 107.68 261.195Z" fill="#E04527"/>
<path fill-rule="evenodd" clip-rule="evenodd" d="M222.133 222.008V92.0078H92.1328V222.008H222.133ZM139.228 126.179H130.59V130.673H122.133V197.093H192.133V130.673H183.675V126.179H175.038C171.349 120.157 165.051 116.922 157.133 116.922C149.215 116.922 142.917 120.157 139.228 126.179ZM140.308 129.864H141.387L141.927 128.876C145.616 122.045 152.274 120.607 157.133 120.607C161.991 120.607 168.65 122.045 172.338 128.876L172.878 129.864H179.986V134.358H188.444V193.408H126.002V134.448H134.459V129.954L140.308 129.864ZM129.781 183.431H184.485V185.498H129.781V183.431ZM186.105 187.027H128.161V189.094H186.105V187.027ZM156.503 138.582L129.151 148.379L130.41 151.884L157.133 142.267L183.855 151.884L185.115 148.379L157.133 138.312L156.503 138.582ZM180.166 156.917L180.706 177.768V177.678H182.595V181.094H131.58V177.678H133.469L133.919 157.007C133.739 157.096 133.559 157.096 133.379 157.096C132.749 157.096 132.21 156.557 132.21 155.928C132.21 155.658 132.39 155.299 132.569 155.119H131.67V153.052H182.415V155.119H181.515C181.785 155.299 181.875 155.658 181.875 155.928C181.875 156.557 181.336 157.096 180.706 157.096C180.616 157.052 180.526 157.029 180.436 157.007C180.346 156.984 180.256 156.962 180.166 156.917ZM138.328 177.768H144.176L144.626 156.917C144.446 157.007 144.266 157.007 144.086 157.007C143.456 157.007 142.917 156.467 142.917 155.838C142.917 155.569 143.096 155.209 143.276 155.029H139.138C139.408 155.209 139.497 155.569 139.497 155.838C139.497 156.467 138.958 157.007 138.328 157.007C138.148 157.007 137.968 157.007 137.788 156.917L138.328 177.768ZM148.855 177.768H154.703L155.153 157.007C154.973 157.096 154.793 157.096 154.613 157.096C153.983 157.096 153.443 156.557 153.443 155.928C153.443 155.658 153.623 155.299 153.803 155.119H149.665C149.934 155.479 150.024 155.928 149.845 156.377C149.575 156.917 148.855 157.186 148.315 156.917L148.855 177.768ZM159.472 177.768H165.32L165.86 156.917C165.68 157.007 165.5 157.007 165.32 157.007C164.69 157.007 164.15 156.467 164.15 155.838C164.15 155.569 164.33 155.209 164.51 155.029H160.282C160.551 155.209 160.641 155.569 160.641 155.838C160.641 156.467 160.102 157.007 159.472 157.007C159.292 157.007 159.112 157.007 158.932 156.917L159.472 177.768ZM170.089 177.768H175.937L176.477 156.917C176.297 157.007 176.117 157.007 175.937 157.007C175.307 157.007 174.767 156.467 174.767 155.838C174.767 155.569 174.947 155.209 175.127 155.029H170.899C171.168 155.209 171.258 155.569 171.258 155.838C171.258 156.467 170.719 157.007 170.089 157.007C169.909 157.007 169.729 157.007 169.549 156.917L170.089 177.768Z" fill="#E04527"/>
</svg>
