<svg width="601" height="156" viewBox="0 0 601 156" fill="none" xmlns="http://www.w3.org/2000/svg">
<path d="M92.463 118.424C119.563 79.4235 124.363 44.1235 124.763 25.5235C124.763 23.9235 123.563 22.7235 121.963 22.6235C120.363 22.6235 119.163 23.8235 119.063 25.4235C118.763 43.3235 114.063 77.2235 88.063 114.924C90.063 115.324 91.663 116.624 92.463 118.424ZM81.263 124.223C80.063 125.723 78.963 127.223 77.663 128.723C76.663 129.923 76.863 131.723 78.063 132.723C78.563 133.123 79.263 133.323 79.863 133.323C80.663 133.323 81.463 132.923 82.063 132.323C83.363 130.723 84.663 129.024 85.963 127.424C83.963 127.124 82.263 125.923 81.263 124.223ZM58.863 95.0235C58.363 95.5235 57.863 96.0235 57.263 96.5235C56.063 97.5235 55.963 99.3235 57.063 100.424C57.563 101.024 58.363 101.323 59.163 101.323C59.863 101.323 60.463 101.124 61.063 100.624C61.663 100.124 62.263 99.5235 62.863 98.9235C60.963 98.3235 59.563 96.9235 58.863 95.0235ZM114.363 12.1235C114.363 13.2235 114.063 14.2235 113.663 15.0235C112.863 16.6235 111.363 17.8235 109.563 18.2235C107.863 24.7235 105.363 32.8235 101.663 41.7235C102.263 42.5235 102.763 43.4235 102.963 44.5235C103.063 44.9235 103.063 45.3235 103.063 45.7235C103.063 47.3235 102.463 48.8235 101.463 49.9235C100.363 51.1235 98.863 51.9235 97.163 52.0235C90.963 64.8235 82.463 78.5235 70.863 91.1235C70.263 89.2235 68.763 87.8235 66.863 87.1235C77.763 75.2235 85.863 62.0235 91.863 49.7235C91.263 49.0235 90.863 48.1235 90.663 47.2235C90.563 46.7235 90.463 46.2235 90.463 45.7235C90.463 44.2235 90.963 42.8235 91.863 41.7235C92.963 40.4235 94.563 39.5235 96.363 39.4235C99.863 30.9235 102.263 23.1235 103.963 16.9235C103.363 16.4235 102.863 15.7235 102.463 15.0235C101.963 14.1235 101.763 13.1235 101.763 12.1235C101.763 11.1235 101.963 10.2235 102.363 9.4235C103.163 7.7235 104.663 6.5235 106.463 6.0235C106.863 3.7235 107.063 2.5235 107.063 2.4235C107.263 0.923498 108.663 -0.176496 110.263 0.023504C111.763 0.223504 112.863 1.62349 112.663 3.12349C112.663 3.42349 112.463 4.9235 111.963 7.2235C112.663 7.8235 113.263 8.52349 113.663 9.32349C114.163 10.2235 114.363 11.1235 114.363 12.1235Z" fill="#94C52C"/>
<path d="M41.3622 41.2203C40.6622 39.1203 40.0622 37.1203 39.5622 35.2203C38.4622 36.1203 37.0622 36.6203 35.5622 36.6203C34.9622 36.6203 34.4622 36.5203 33.9622 36.4203C34.5622 38.5203 35.1622 40.8203 35.9622 43.2203C37.0622 42.0203 38.7622 41.2203 40.5622 41.2203C40.8622 41.1203 41.1622 41.1203 41.3622 41.2203ZM97.7622 122.82C96.1622 122.32 94.5622 121.92 93.0622 121.42C93.0622 121.32 93.0622 121.22 93.0622 121.12C93.0622 120.12 92.8622 119.22 92.4622 118.42C91.6622 116.62 90.0622 115.32 88.0622 114.92C87.6622 114.82 87.2622 114.82 86.7622 114.82C86.3622 114.82 85.9622 114.82 85.6622 114.92C79.9622 108.42 74.9622 102.12 70.4622 96.1203C70.9622 95.2203 71.2622 94.2203 71.2622 93.1203C71.2622 92.4203 71.1622 91.7203 70.9622 91.1203C70.3622 89.2203 68.8622 87.8203 66.9622 87.2203C66.3622 87.0203 65.6622 86.9203 64.9622 86.9203C64.6622 86.9203 64.3622 86.9203 64.0622 87.0203C55.2622 73.8203 49.3622 61.9203 45.2622 51.9203C44.0622 53.1203 42.4622 53.9203 40.6622 53.9203C40.3622 53.9203 40.1622 53.9203 39.8622 53.9203C44.0622 64.3203 50.2622 76.6203 59.3622 90.3203C58.8622 91.2203 58.6622 92.2203 58.6622 93.3203C58.6622 94.0203 58.7622 94.6203 58.9622 95.3203C59.5622 97.2203 61.0622 98.7203 62.8622 99.3203C63.4622 99.5203 64.1622 99.7203 64.8622 99.7203C65.1622 99.7203 65.4622 99.7203 65.7622 99.6203C69.7622 105.02 74.2622 110.72 79.1622 116.42C43.1622 100.12 23.9622 71.2203 14.8622 52.7203C13.6622 54.1203 11.9622 54.9203 10.0622 54.9203C9.96222 54.9203 9.86222 54.9203 9.76222 54.9203C19.5622 74.9203 40.6622 106.42 80.7622 123.12C80.8622 123.62 81.0622 124.02 81.3622 124.42C82.3622 126.12 83.9622 127.32 86.0622 127.62C86.3622 127.62 86.5622 127.72 86.8622 127.72C88.1622 127.72 89.2622 127.32 90.2622 126.72C92.2622 127.42 94.2622 128.02 96.2622 128.62C96.5622 128.72 96.7622 128.72 97.0622 128.72C98.2622 128.72 99.3622 127.92 99.7622 126.72C100.162 124.82 99.2622 123.32 97.7622 122.82ZM37.2622 24.2203C36.7622 20.7203 36.6622 18.7203 36.6622 18.6203C36.6622 17.1203 35.3622 15.8203 33.8622 15.8203C32.3622 15.8203 31.0622 17.1203 31.0622 18.6203C31.0622 19.0203 31.1622 21.3203 31.6622 25.3203C32.7622 24.4203 34.1622 23.9203 35.5622 23.9203C36.2622 24.0203 36.7622 24.1203 37.2622 24.2203ZM5.16221 44.3203C3.26221 39.6203 2.46222 36.7203 2.46222 36.5203C2.06222 35.0203 2.96222 33.5203 4.46222 33.1203C5.96222 32.7203 7.46222 33.6203 7.86222 35.1203C7.86222 35.2203 8.66222 37.8203 10.2622 42.1203C10.1622 42.1203 10.1622 42.1203 10.0622 42.1203C8.06222 42.0203 6.36221 42.9203 5.16221 44.3203Z" fill="#004481"/>
<path d="M45.2578 51.7203C45.9578 50.9203 46.5578 49.9203 46.7578 48.8203C57.9578 46.3203 74.1578 44.2203 90.6578 47.1203C90.5578 46.6203 90.4578 46.1203 90.4578 45.6203C90.4578 44.1203 90.9578 42.7203 91.8578 41.6203C74.2578 38.3203 57.1578 40.6203 45.3578 43.2203C44.3578 42.1203 42.9578 41.3203 41.3578 41.1203C41.0578 41.1203 40.8578 41.1203 40.5578 41.1203C38.7578 41.1203 37.0578 41.9203 35.9578 43.1203C35.1578 44.0203 34.5578 45.0203 34.3578 46.2203C31.6578 47.1203 30.0578 47.7203 29.7578 47.8203C28.3578 48.4203 27.6578 50.0203 28.1578 51.4203C28.5578 52.5203 29.6578 53.2203 30.7578 53.2203C31.0578 53.2203 31.4578 53.1203 31.7578 53.0203C31.8578 53.0203 33.3578 52.4203 35.8578 51.6203C36.8578 52.7203 38.1578 53.4203 39.6578 53.6203C39.9578 53.6203 40.1578 53.7203 40.4578 53.7203C42.4578 53.7203 44.0578 52.9203 45.2578 51.7203ZM14.8578 52.4203C15.7578 51.3203 16.3578 49.9203 16.3578 48.3203C16.3578 47.8203 16.2578 47.3203 16.1578 46.8203C21.4578 42.5203 26.8578 38.8203 32.2578 35.6203C32.8578 36.0203 33.4578 36.2203 34.0578 36.4203C34.5578 36.5203 35.1578 36.6203 35.6578 36.6203C37.1578 36.6203 38.5578 36.1203 39.6578 35.2203C41.0578 34.1203 41.9578 32.3203 41.9578 30.3203C65.5578 18.7203 88.4578 15.6203 102.458 15.1203C101.958 14.2203 101.758 13.2203 101.758 12.2203C101.758 11.2203 101.958 10.3203 102.358 9.52032C87.7578 10.1203 63.9578 13.3203 39.3578 25.4203C38.7578 24.9203 37.9578 24.6203 37.2578 24.4203C36.7578 24.3203 36.2578 24.2203 35.6578 24.2203C34.1578 24.2203 32.7578 24.7203 31.7578 25.6203C30.3578 26.7203 29.3578 28.5203 29.3578 30.5203C29.3578 30.6203 29.3578 30.7203 29.3578 30.9203C23.6578 34.3203 17.9578 38.2203 12.4578 42.7203C11.7578 42.4203 11.0578 42.2203 10.2578 42.2203C10.1578 42.2203 10.1578 42.2203 10.0578 42.2203C8.05781 42.2203 6.35781 43.1203 5.15781 44.5203C4.25781 45.6203 3.75782 47.0203 3.75782 48.5203C3.75782 49.1203 3.85781 49.6203 3.95781 50.2203C2.95781 51.2203 1.95781 52.1203 0.957813 53.1203C-0.142187 54.2203 -0.142187 56.0203 0.957813 57.1203C1.45781 57.6203 2.25781 57.9203 2.95781 57.9203C3.65781 57.9203 4.45781 57.6203 4.95781 57.0203C5.85781 56.1203 6.75781 55.2203 7.65781 54.3203C8.25781 54.5203 8.95781 54.7203 9.55781 54.7203C9.65781 54.7203 9.75781 54.7203 9.85781 54.7203C11.9578 54.6203 13.7578 53.7203 14.8578 52.4203ZM117.058 9.52032C116.958 9.52032 115.758 9.42031 113.658 9.32031C114.058 10.1203 114.258 11.1203 114.258 12.1203C114.258 13.1203 113.958 14.1203 113.558 15.0203C115.358 15.1203 116.358 15.2203 116.358 15.2203C117.958 15.4203 119.358 14.2203 119.458 12.7203C119.758 11.1203 118.658 9.72032 117.058 9.52032ZM107.758 49.2203C107.258 50.6203 105.558 51.4203 104.158 50.8203C103.258 50.5203 102.358 50.1203 101.358 49.8203C102.358 48.7203 102.958 47.2203 102.958 45.6203C102.958 45.2203 102.958 44.8203 102.858 44.4203C103.958 44.8203 105.058 45.1203 106.058 45.5203C107.558 46.1203 108.358 47.7203 107.758 49.2203Z" fill="#00A9DA"/>
<path d="M584.564 155.62L588.564 145.62H587.864L579.764 123.52H582.964L589.864 142.52L597.064 123.52H600.264L587.764 155.52H584.564V155.62ZM561.764 123.62L561.964 126.42C564.564 124.52 567.464 123.22 570.164 123.22C573.964 123.22 576.064 125.32 576.064 129.32V145.72H573.064V130.12C573.064 127.52 571.864 126.12 569.364 126.12C567.364 126.12 564.664 127.12 562.264 128.92V145.82H559.264V123.72H561.764V123.62ZM548.564 141.42C546.664 142.82 544.864 143.62 542.764 143.62C540.564 143.62 538.864 142.32 538.864 140.02C538.864 137.42 540.564 136.02 543.464 136.02H548.464V141.42H548.564ZM554.564 143.32C554.164 143.42 553.664 143.52 553.164 143.52C552.164 143.52 551.564 142.92 551.564 141.72V131.12C551.564 125.92 549.364 123.22 543.964 123.22C541.664 123.22 539.264 123.72 537.664 124.32V127.02C539.264 126.52 541.564 126.02 543.664 126.02C547.264 126.02 548.564 127.82 548.564 130.82V133.82H543.364C539.064 133.82 535.964 136.02 535.964 140.22C535.964 144.12 538.664 146.22 542.464 146.22C544.964 146.22 547.264 145.02 548.964 143.62C549.364 145.22 550.664 146.22 552.364 146.22C553.264 146.22 554.164 146.02 554.664 145.82L554.564 143.32ZM517.964 128.62V142.42C519.264 142.92 521.264 143.42 523.164 143.42C527.364 143.42 529.364 140.92 529.364 137.12V132.12C529.364 128.32 527.764 125.92 524.164 125.92C521.864 125.92 519.464 127.22 517.964 128.62ZM517.464 123.62L517.664 126.12C519.564 124.52 521.864 123.12 524.764 123.12C528.964 123.12 532.264 126.32 532.264 131.92V137.32C532.264 142.82 528.464 146.12 523.064 146.12C521.064 146.12 519.164 145.72 517.864 145.22V155.62H514.864V123.62H517.464ZM481.064 123.62L481.264 126.42C483.764 124.52 486.564 123.22 489.264 123.22C491.964 123.22 493.764 124.32 494.564 126.52C497.164 124.52 500.064 123.22 502.764 123.22C506.464 123.22 508.564 125.32 508.564 129.32V145.72H505.564V130.12C505.564 127.52 504.464 126.12 501.964 126.12C499.964 126.12 497.464 127.02 495.064 128.82V145.72H492.064V130.02C492.064 127.52 490.964 126.12 488.464 126.12C486.464 126.12 483.964 127.02 481.564 128.82V145.72H478.564V123.62H481.064ZM458.464 137.32C458.464 141.12 460.864 143.42 464.564 143.42C468.264 143.42 470.664 141.12 470.664 137.32V131.92C470.664 128.12 468.364 125.82 464.564 125.82C460.864 125.82 458.464 128.12 458.464 131.92V137.32ZM455.464 131.72C455.464 126.12 459.664 123.12 464.564 123.12C469.464 123.12 473.664 126.12 473.664 131.72V137.52C473.664 143.12 469.464 146.12 464.564 146.12C459.664 146.12 455.464 143.12 455.464 137.52V131.72ZM440.464 137.12C440.464 141.02 442.664 143.42 446.464 143.42C448.464 143.42 450.664 143.02 451.364 142.82L451.664 145.42C450.764 145.72 448.664 146.22 446.364 146.22C441.264 146.22 437.364 143.12 437.364 137.42V131.92C437.364 126.32 441.264 123.12 446.264 123.12C448.864 123.12 450.764 123.72 451.564 124.02L451.064 126.72C450.664 126.62 448.564 125.92 446.364 125.92C442.564 125.92 440.464 128.42 440.464 132.22V137.12ZM407.364 113.72V126.32C409.964 124.52 412.764 123.22 415.364 123.22C419.164 123.22 421.264 125.32 421.264 129.32V145.72H418.264V130.12C418.264 127.52 417.064 126.12 414.564 126.12C412.564 126.12 409.864 127.12 407.464 128.92V145.82H404.464V113.82H407.364V113.72ZM386.564 123.62H390.364L390.664 117.42H393.364V123.62H399.264V126.12H393.364V139.92C393.364 142.62 394.764 143.42 396.664 143.42C397.664 143.42 398.964 143.22 399.664 143.02L399.964 145.62C399.064 145.82 397.664 146.12 396.164 146.12C392.764 146.12 390.264 144.42 390.264 140.42V126.12H386.564V123.62ZM382.064 145.72H379.064V113.72H382.064V145.72ZM368.364 141.42C366.464 142.82 364.664 143.62 362.564 143.62C360.364 143.62 358.664 142.32 358.664 140.02C358.664 137.42 360.364 136.02 363.264 136.02H368.364V141.42ZM374.464 143.32C374.064 143.42 373.564 143.52 373.064 143.52C372.064 143.52 371.464 142.92 371.464 141.72V131.12C371.464 125.92 369.264 123.22 363.864 123.22C361.564 123.22 359.164 123.72 357.564 124.32V127.02C359.164 126.52 361.564 126.02 363.564 126.02C367.164 126.02 368.464 127.82 368.464 130.82V133.82H363.264C358.964 133.82 355.864 136.02 355.864 140.22C355.864 144.12 358.564 146.22 362.364 146.22C364.864 146.22 367.164 145.02 368.864 143.62C369.264 145.22 370.564 146.22 372.264 146.22C373.264 146.22 374.064 146.02 374.664 145.82L374.464 143.32ZM338.164 133.32H349.064V131.92C349.064 128.02 347.064 125.82 343.664 125.82C340.264 125.82 338.264 127.92 338.264 131.92V133.32H338.164ZM335.164 131.92C335.164 126.42 338.964 123.22 343.664 123.22C348.264 123.22 352.064 126.42 352.064 131.92V135.62H338.164V137.32C338.164 141.12 340.464 143.42 344.464 143.42C347.864 143.42 350.264 142.72 351.264 142.42L351.564 145.02C350.564 145.42 347.764 146.22 344.264 146.22C338.964 146.22 335.064 142.92 335.064 137.42V131.92H335.164ZM327.264 145.72V131.92H312.564V145.72H309.464V115.72H312.564V129.22H327.264V115.72H330.364V145.72H327.264ZM289.064 141.42C287.164 142.82 285.364 143.62 283.264 143.62C281.064 143.62 279.364 142.32 279.364 140.02C279.364 137.42 281.064 136.02 283.964 136.02H289.064V141.42ZM295.164 143.32C294.764 143.42 294.264 143.52 293.764 143.52C292.764 143.52 292.164 142.92 292.164 141.72V131.12C292.164 125.92 289.964 123.22 284.564 123.22C282.264 123.22 279.864 123.72 278.264 124.32V127.02C279.864 126.52 282.164 126.02 284.264 126.02C287.864 126.02 289.164 127.82 289.164 130.82V133.82H283.964C279.664 133.82 276.564 136.02 276.564 140.22C276.564 144.12 279.264 146.22 283.064 146.22C285.564 146.22 287.864 145.02 289.564 143.62C289.964 145.22 291.264 146.22 292.964 146.22C293.964 146.22 294.764 146.02 295.264 145.82L295.164 143.32ZM265.364 123.62L265.664 127.32C267.564 125.32 270.764 123.32 273.464 123.22V126.22C271.064 126.42 267.964 128.02 265.964 130.12V145.72H262.964V123.62H265.364ZM243.664 133.32H254.464V131.92C254.464 128.02 252.464 125.82 249.064 125.82C245.664 125.82 243.664 127.92 243.664 131.92V133.32ZM240.664 131.92C240.664 126.42 244.464 123.22 249.164 123.22C253.764 123.22 257.564 126.42 257.564 131.92V135.62H243.664V137.32C243.664 141.12 245.964 143.42 249.964 143.42C253.364 143.42 255.864 142.72 256.764 142.42L257.064 145.02C256.064 145.42 253.264 146.22 249.864 146.22C244.464 146.22 240.664 142.92 240.664 137.42V131.92ZM224.364 123.62H228.064L228.364 117.42H231.064V123.62H236.964V126.12H231.064V139.92C231.064 142.62 232.464 143.42 234.364 143.42C235.364 143.42 236.664 143.22 237.364 143.02L237.664 145.62C236.764 145.82 235.364 146.12 233.864 146.12C230.464 146.12 227.964 144.42 227.964 140.42V126.12H224.264V123.62H224.364ZM206.164 137.32C206.164 141.12 208.464 143.42 212.264 143.42C215.964 143.42 218.364 141.12 218.364 137.32V131.92C218.364 128.12 216.064 125.82 212.264 125.82C208.564 125.82 206.164 128.12 206.164 131.92V137.32ZM203.064 131.72C203.064 126.12 207.264 123.12 212.164 123.12C217.064 123.12 221.264 126.12 221.264 131.72V137.52C221.264 143.12 217.064 146.12 212.164 146.12C207.264 146.12 203.064 143.12 203.064 137.52V131.72ZM189.564 146.12C185.664 146.12 182.864 145.32 181.264 144.72L181.764 141.92C183.264 142.42 186.064 143.32 189.164 143.32C193.464 143.32 196.264 142.12 196.264 138.22C196.264 135.02 194.764 133.62 190.964 132.42L186.764 131.12C182.964 129.92 181.464 126.92 181.464 123.12C181.464 118.62 185.064 115.22 190.564 115.22C194.364 115.22 196.564 115.92 198.064 116.42L197.564 119.22C196.064 118.72 193.764 118.02 190.764 118.02C186.964 118.02 184.564 119.72 184.564 123.02C184.564 126.02 185.564 127.52 188.664 128.42L192.864 129.72C197.364 131.12 199.364 133.62 199.364 138.02C199.364 143.42 195.764 146.12 189.564 146.12ZM150.864 135.12H161.764L156.264 118.32L150.864 135.12ZM165.264 145.72L162.664 137.92H150.064L147.464 145.72H144.164L154.164 115.72H158.464L168.364 145.72H165.264ZM425.764 29.2203L426.464 35.7203C432.264 31.3203 438.964 28.1203 445.664 28.1203C454.864 28.1203 460.264 33.3203 460.264 43.0203V82.5203H450.964V45.8203C450.964 40.2203 448.564 37.1203 442.764 37.1203C438.464 37.1203 432.564 39.2203 427.364 42.9203V82.5203H418.064V29.2203H425.764ZM372.964 61.9203C372.964 70.3203 377.764 75.4203 386.264 75.4203C394.764 75.4203 399.564 70.3203 399.564 61.9203V49.9203C399.564 41.5203 394.764 36.4203 386.264 36.4203C377.764 36.4203 372.964 41.5203 372.964 49.9203V61.9203ZM363.664 49.3203C363.664 35.3203 374.264 28.2203 386.264 28.2203C398.264 28.2203 408.864 35.3203 408.864 49.3203V62.6203C408.864 76.6203 398.264 83.7203 386.264 83.7203C374.264 83.7203 363.664 76.6203 363.664 62.6203V49.3203ZM354.864 82.6203H345.564V29.3203H354.864V82.6203ZM350.264 7.92032C353.764 7.92032 355.864 9.92032 355.864 13.5203C355.864 17.0203 353.764 19.1203 350.264 19.1203C346.764 19.1203 344.664 17.0203 344.664 13.5203C344.664 9.92032 346.664 7.92032 350.264 7.92032ZM325.264 69.9203V38.6203C322.264 37.5203 317.964 36.4203 313.864 36.4203C304.164 36.4203 300.364 42.0203 300.364 50.4203V61.3203C300.364 69.8203 303.564 75.1203 311.764 75.1203C316.864 75.1203 321.664 72.8203 325.264 69.9203ZM290.964 49.9203C290.964 35.8203 300.464 28.2203 313.964 28.2203C318.064 28.2203 322.664 29.2203 325.464 30.2203V5.32031H334.464V82.6203H326.764L326.164 77.0203C321.564 80.6203 316.564 83.7203 309.364 83.7203C299.964 83.7203 290.964 76.1203 290.964 62.1203V49.9203ZM286.864 28.2203C280.464 28.4203 272.864 33.2203 268.664 37.7203L267.764 29.3203H260.164V82.6203H269.464V45.9203C273.864 41.6203 280.864 38.0203 286.764 37.5203V28.2203H286.864ZM215.164 61.9203C215.164 70.3203 219.964 75.4203 228.464 75.4203C236.964 75.4203 241.764 70.3203 241.764 61.9203V49.9203C241.764 41.5203 236.964 36.4203 228.464 36.4203C219.964 36.4203 215.164 41.5203 215.164 49.9203V61.9203ZM205.864 49.3203C205.864 35.3203 216.464 28.2203 228.464 28.2203C240.464 28.2203 251.064 35.3203 251.064 49.3203V62.6203C251.064 76.6203 240.464 83.7203 228.464 83.7203C216.464 83.7203 205.864 76.6203 205.864 62.6203V49.3203ZM154.164 26.7203V82.5203H144.664V10.0203H154.764L187.464 65.9203V10.1203H196.964V82.6203H186.864L154.164 26.7203ZM475.464 72.8203V76.2203H477.264C478.464 76.2203 479.164 75.7203 479.164 74.7203V74.4203C479.164 73.4203 478.464 72.9203 477.264 72.9203H475.464V72.8203ZM480.164 74.7203C480.164 76.0203 479.264 76.7203 478.164 77.0203L480.164 80.1203H478.964L477.064 77.1203H475.464V80.1203H474.464V71.9203H477.364C478.964 71.9203 480.164 72.7203 480.164 74.3203V74.7203ZM477.164 82.6203C480.764 82.6203 483.764 79.7203 483.764 76.1203C483.764 72.5203 480.864 69.5203 477.164 69.5203C473.564 69.5203 470.664 72.4203 470.664 76.1203C470.564 79.6203 473.564 82.6203 477.164 82.6203ZM477.164 68.4203C481.364 68.4203 484.864 71.8203 484.864 76.1203C484.864 80.3203 481.464 83.7203 477.164 83.7203C472.964 83.7203 469.564 80.3203 469.564 76.1203C469.564 71.8203 472.964 68.4203 477.164 68.4203Z" fill="white"/>
</svg>
