<svg width="601" height="156" viewBox="0 0 601 156" fill="none" xmlns="http://www.w3.org/2000/svg">
<path d="M92.3302 118.424C119.43 79.4235 124.23 44.1235 124.63 25.5235C124.63 23.9235 123.43 22.7235 121.83 22.6235C120.23 22.6235 119.03 23.8235 118.93 25.4235C118.63 43.3235 113.93 77.2235 87.9302 114.924C89.9302 115.324 91.5302 116.624 92.3302 118.424ZM81.1302 124.223C79.9302 125.723 78.8302 127.223 77.5302 128.723C76.5302 129.923 76.7302 131.723 77.9302 132.723C78.4302 133.123 79.1302 133.323 79.7302 133.323C80.5302 133.323 81.3302 132.923 81.9302 132.323C83.2302 130.723 84.5302 129.024 85.8302 127.424C83.8302 127.124 82.1302 125.923 81.1302 124.223ZM58.7302 95.0235C58.2302 95.5235 57.7302 96.0235 57.1302 96.5235C55.9302 97.5235 55.8302 99.3235 56.9302 100.424C57.4302 101.024 58.2302 101.323 59.0302 101.323C59.7302 101.323 60.3302 101.124 60.9302 100.624C61.5302 100.124 62.1302 99.5235 62.7302 98.9235C60.8302 98.3235 59.4302 96.9235 58.7302 95.0235ZM114.23 12.1235C114.23 13.2235 113.93 14.2235 113.53 15.0235C112.73 16.6235 111.23 17.8235 109.43 18.2235C107.73 24.7235 105.23 32.8235 101.53 41.7235C102.13 42.5235 102.63 43.4235 102.83 44.5235C102.93 44.9235 102.93 45.3235 102.93 45.7235C102.93 47.3235 102.33 48.8235 101.33 49.9235C100.23 51.1235 98.7302 51.9235 97.0302 52.0235C90.8302 64.8235 82.3302 78.5235 70.7302 91.1235C70.1302 89.2235 68.6302 87.8235 66.7302 87.1235C77.6302 75.2235 85.7302 62.0235 91.7302 49.7235C91.1302 49.0235 90.7302 48.1235 90.5302 47.2235C90.4302 46.7235 90.3302 46.2235 90.3302 45.7235C90.3302 44.2235 90.8302 42.8235 91.7302 41.7235C92.8302 40.4235 94.4302 39.5235 96.2302 39.4235C99.7302 30.9235 102.13 23.1235 103.83 16.9235C103.23 16.4235 102.73 15.7235 102.33 15.0235C101.83 14.1235 101.63 13.1235 101.63 12.1235C101.63 11.1235 101.83 10.2235 102.23 9.4235C103.03 7.7235 104.53 6.5235 106.33 6.0235C106.73 3.7235 106.93 2.5235 106.93 2.4235C107.13 0.923498 108.53 -0.176496 110.13 0.023504C111.63 0.223504 112.73 1.62349 112.53 3.12349C112.53 3.42349 112.33 4.9235 111.83 7.2235C112.53 7.8235 113.13 8.52349 113.53 9.32349C114.03 10.2235 114.23 11.1235 114.23 12.1235Z" fill="#94C52C"/>
<path d="M41.2294 41.2203C40.5294 39.1203 39.9294 37.1203 39.4294 35.2203C38.3294 36.1203 36.9294 36.6203 35.4294 36.6203C34.8294 36.6203 34.3294 36.5203 33.8294 36.4203C34.4294 38.5203 35.0294 40.8203 35.8294 43.2203C36.9294 42.0203 38.6294 41.2203 40.4294 41.2203C40.7294 41.1203 41.0294 41.1203 41.2294 41.2203ZM97.6294 122.82C96.0294 122.32 94.4294 121.92 92.9294 121.42C92.9294 121.32 92.9294 121.22 92.9294 121.12C92.9294 120.12 92.7294 119.22 92.3294 118.42C91.5294 116.62 89.9294 115.32 87.9294 114.92C87.5294 114.82 87.1294 114.82 86.6294 114.82C86.2294 114.82 85.8294 114.82 85.5294 114.92C79.8294 108.42 74.8294 102.12 70.3294 96.1203C70.8294 95.2203 71.1294 94.2203 71.1294 93.1203C71.1294 92.4203 71.0294 91.7203 70.8294 91.1203C70.2294 89.2203 68.7294 87.8203 66.8294 87.2203C66.2294 87.0203 65.5294 86.9203 64.8294 86.9203C64.5294 86.9203 64.2294 86.9203 63.9294 87.0203C55.1294 73.8203 49.2294 61.9203 45.1294 51.9203C43.9294 53.1203 42.3294 53.9203 40.5294 53.9203C40.2294 53.9203 40.0294 53.9203 39.7294 53.9203C43.9294 64.3203 50.1294 76.6203 59.2294 90.3203C58.7294 91.2203 58.5294 92.2203 58.5294 93.3203C58.5294 94.0203 58.6294 94.6203 58.8294 95.3203C59.4294 97.2203 60.9294 98.7203 62.7294 99.3203C63.3294 99.5203 64.0294 99.7203 64.7294 99.7203C65.0294 99.7203 65.3294 99.7203 65.6294 99.6203C69.6294 105.02 74.1294 110.72 79.0294 116.42C43.0294 100.12 23.8294 71.2203 14.7294 52.7203C13.5294 54.1203 11.8294 54.9203 9.9294 54.9203C9.8294 54.9203 9.72941 54.9203 9.62941 54.9203C19.4294 74.9203 40.5294 106.42 80.6294 123.12C80.7294 123.62 80.9294 124.02 81.2294 124.42C82.2294 126.12 83.8294 127.32 85.9294 127.62C86.2294 127.62 86.4294 127.72 86.7294 127.72C88.0294 127.72 89.1294 127.32 90.1294 126.72C92.1294 127.42 94.1294 128.02 96.1294 128.62C96.4294 128.72 96.6294 128.72 96.9294 128.72C98.1294 128.72 99.2294 127.92 99.6294 126.72C100.029 124.82 99.1294 123.32 97.6294 122.82ZM37.1294 24.2203C36.6294 20.7203 36.5294 18.7203 36.5294 18.6203C36.5294 17.1203 35.2294 15.8203 33.7294 15.8203C32.2294 15.8203 30.9294 17.1203 30.9294 18.6203C30.9294 19.0203 31.0294 21.3203 31.5294 25.3203C32.6294 24.4203 34.0294 23.9203 35.4294 23.9203C36.1294 24.0203 36.6294 24.1203 37.1294 24.2203ZM5.0294 44.3203C3.1294 39.6203 2.3294 36.7203 2.3294 36.5203C1.9294 35.0203 2.8294 33.5203 4.3294 33.1203C5.8294 32.7203 7.32941 33.6203 7.72941 35.1203C7.72941 35.2203 8.52941 37.8203 10.1294 42.1203C10.0294 42.1203 10.0294 42.1203 9.9294 42.1203C7.9294 42.0203 6.2294 42.9203 5.0294 44.3203Z" fill="#004481"/>
<path d="M45.125 51.7203C45.825 50.9203 46.425 49.9203 46.625 48.8203C57.825 46.3203 74.025 44.2203 90.525 47.1203C90.425 46.6203 90.325 46.1203 90.325 45.6203C90.325 44.1203 90.825 42.7203 91.725 41.6203C74.125 38.3203 57.025 40.6203 45.225 43.2203C44.225 42.1203 42.825 41.3203 41.225 41.1203C40.925 41.1203 40.725 41.1203 40.425 41.1203C38.625 41.1203 36.925 41.9203 35.825 43.1203C35.025 44.0203 34.425 45.0203 34.225 46.2203C31.525 47.1203 29.925 47.7203 29.625 47.8203C28.225 48.4203 27.525 50.0203 28.025 51.4203C28.425 52.5203 29.525 53.2203 30.625 53.2203C30.925 53.2203 31.325 53.1203 31.625 53.0203C31.725 53.0203 33.225 52.4203 35.725 51.6203C36.725 52.7203 38.025 53.4203 39.525 53.6203C39.825 53.6203 40.025 53.7203 40.325 53.7203C42.325 53.7203 43.925 52.9203 45.125 51.7203ZM14.725 52.4203C15.625 51.3203 16.225 49.9203 16.225 48.3203C16.225 47.8203 16.125 47.3203 16.025 46.8203C21.325 42.5203 26.725 38.8203 32.125 35.6203C32.725 36.0203 33.325 36.2203 33.925 36.4203C34.425 36.5203 35.025 36.6203 35.525 36.6203C37.025 36.6203 38.425 36.1203 39.525 35.2203C40.925 34.1203 41.825 32.3203 41.825 30.3203C65.425 18.7203 88.325 15.6203 102.325 15.1203C101.825 14.2203 101.625 13.2203 101.625 12.2203C101.625 11.2203 101.825 10.3203 102.225 9.52032C87.625 10.1203 63.825 13.3203 39.225 25.4203C38.625 24.9203 37.825 24.6203 37.125 24.4203C36.625 24.3203 36.125 24.2203 35.525 24.2203C34.025 24.2203 32.625 24.7203 31.625 25.6203C30.225 26.7203 29.225 28.5203 29.225 30.5203C29.225 30.6203 29.225 30.7203 29.225 30.9203C23.525 34.3203 17.825 38.2203 12.325 42.7203C11.625 42.4203 10.925 42.2203 10.125 42.2203C10.025 42.2203 10.025 42.2203 9.925 42.2203C7.925 42.2203 6.225 43.1203 5.025 44.5203C4.125 45.6203 3.625 47.0203 3.625 48.5203C3.625 49.1203 3.725 49.6203 3.825 50.2203C2.825 51.2203 1.825 52.1203 0.825 53.1203C-0.275 54.2203 -0.275 56.0203 0.825 57.1203C1.325 57.6203 2.125 57.9203 2.825 57.9203C3.525 57.9203 4.325 57.6203 4.825 57.0203C5.725 56.1203 6.625 55.2203 7.525 54.3203C8.125 54.5203 8.825 54.7203 9.425 54.7203C9.525 54.7203 9.625 54.7203 9.725 54.7203C11.825 54.6203 13.625 53.7203 14.725 52.4203ZM116.925 9.52032C116.825 9.52032 115.625 9.42031 113.525 9.32031C113.925 10.1203 114.125 11.1203 114.125 12.1203C114.125 13.1203 113.825 14.1203 113.425 15.0203C115.225 15.1203 116.225 15.2203 116.225 15.2203C117.825 15.4203 119.225 14.2203 119.325 12.7203C119.625 11.1203 118.525 9.72032 116.925 9.52032ZM107.625 49.2203C107.125 50.6203 105.425 51.4203 104.025 50.8203C103.125 50.5203 102.225 50.1203 101.225 49.8203C102.225 48.7203 102.825 47.2203 102.825 45.6203C102.825 45.2203 102.825 44.8203 102.725 44.4203C103.825 44.8203 104.925 45.1203 105.925 45.5203C107.425 46.1203 108.225 47.7203 107.625 49.2203Z" fill="#00A9DA"/>
<path d="M584.431 155.62L588.431 145.62H587.731L579.631 123.52H582.831L589.731 142.52L596.931 123.52H600.131L587.631 155.52H584.431V155.62ZM561.631 123.62L561.831 126.42C564.431 124.52 567.331 123.22 570.031 123.22C573.831 123.22 575.931 125.32 575.931 129.32V145.72H572.931V130.12C572.931 127.52 571.731 126.12 569.231 126.12C567.231 126.12 564.531 127.12 562.131 128.92V145.82H559.131V123.72H561.631V123.62ZM548.431 141.42C546.531 142.82 544.731 143.62 542.631 143.62C540.431 143.62 538.731 142.32 538.731 140.02C538.731 137.42 540.431 136.02 543.331 136.02H548.331V141.42H548.431ZM554.431 143.32C554.031 143.42 553.531 143.52 553.031 143.52C552.031 143.52 551.431 142.92 551.431 141.72V131.12C551.431 125.92 549.231 123.22 543.831 123.22C541.531 123.22 539.131 123.72 537.531 124.32V127.02C539.131 126.52 541.431 126.02 543.531 126.02C547.131 126.02 548.431 127.82 548.431 130.82V133.82H543.231C538.931 133.82 535.831 136.02 535.831 140.22C535.831 144.12 538.531 146.22 542.331 146.22C544.831 146.22 547.131 145.02 548.831 143.62C549.231 145.22 550.531 146.22 552.231 146.22C553.131 146.22 554.031 146.02 554.531 145.82L554.431 143.32ZM517.831 128.62V142.42C519.131 142.92 521.131 143.42 523.031 143.42C527.231 143.42 529.231 140.92 529.231 137.12V132.12C529.231 128.32 527.631 125.92 524.031 125.92C521.731 125.92 519.331 127.22 517.831 128.62ZM517.331 123.62L517.531 126.12C519.431 124.52 521.731 123.12 524.631 123.12C528.831 123.12 532.131 126.32 532.131 131.92V137.32C532.131 142.82 528.331 146.12 522.931 146.12C520.931 146.12 519.031 145.72 517.731 145.22V155.62H514.731V123.62H517.331ZM480.931 123.62L481.131 126.42C483.631 124.52 486.431 123.22 489.131 123.22C491.831 123.22 493.631 124.32 494.431 126.52C497.031 124.52 499.931 123.22 502.631 123.22C506.331 123.22 508.431 125.32 508.431 129.32V145.72H505.431V130.12C505.431 127.52 504.331 126.12 501.831 126.12C499.831 126.12 497.331 127.02 494.931 128.82V145.72H491.931V130.02C491.931 127.52 490.831 126.12 488.331 126.12C486.331 126.12 483.831 127.02 481.431 128.82V145.72H478.431V123.62H480.931ZM458.331 137.32C458.331 141.12 460.731 143.42 464.431 143.42C468.131 143.42 470.531 141.12 470.531 137.32V131.92C470.531 128.12 468.231 125.82 464.431 125.82C460.731 125.82 458.331 128.12 458.331 131.92V137.32ZM455.331 131.72C455.331 126.12 459.531 123.12 464.431 123.12C469.331 123.12 473.531 126.12 473.531 131.72V137.52C473.531 143.12 469.331 146.12 464.431 146.12C459.531 146.12 455.331 143.12 455.331 137.52V131.72ZM440.331 137.12C440.331 141.02 442.531 143.42 446.331 143.42C448.331 143.42 450.531 143.02 451.231 142.82L451.531 145.42C450.631 145.72 448.531 146.22 446.231 146.22C441.131 146.22 437.231 143.12 437.231 137.42V131.92C437.231 126.32 441.131 123.12 446.131 123.12C448.731 123.12 450.631 123.72 451.431 124.02L450.931 126.72C450.531 126.62 448.431 125.92 446.231 125.92C442.431 125.92 440.331 128.42 440.331 132.22V137.12ZM407.231 113.72V126.32C409.831 124.52 412.631 123.22 415.231 123.22C419.031 123.22 421.131 125.32 421.131 129.32V145.72H418.131V130.12C418.131 127.52 416.931 126.12 414.431 126.12C412.431 126.12 409.731 127.12 407.331 128.92V145.82H404.331V113.82H407.231V113.72ZM386.431 123.62H390.231L390.531 117.42H393.231V123.62H399.131V126.12H393.231V139.92C393.231 142.62 394.631 143.42 396.531 143.42C397.531 143.42 398.831 143.22 399.531 143.02L399.831 145.62C398.931 145.82 397.531 146.12 396.031 146.12C392.631 146.12 390.131 144.42 390.131 140.42V126.12H386.431V123.62ZM381.931 145.72H378.931V113.72H381.931V145.72ZM368.231 141.42C366.331 142.82 364.531 143.62 362.431 143.62C360.231 143.62 358.531 142.32 358.531 140.02C358.531 137.42 360.231 136.02 363.131 136.02H368.231V141.42ZM374.331 143.32C373.931 143.42 373.431 143.52 372.931 143.52C371.931 143.52 371.331 142.92 371.331 141.72V131.12C371.331 125.92 369.131 123.22 363.731 123.22C361.431 123.22 359.031 123.72 357.431 124.32V127.02C359.031 126.52 361.431 126.02 363.431 126.02C367.031 126.02 368.331 127.82 368.331 130.82V133.82H363.131C358.831 133.82 355.731 136.02 355.731 140.22C355.731 144.12 358.431 146.22 362.231 146.22C364.731 146.22 367.031 145.02 368.731 143.62C369.131 145.22 370.431 146.22 372.131 146.22C373.131 146.22 373.931 146.02 374.531 145.82L374.331 143.32ZM338.031 133.32H348.931V131.92C348.931 128.02 346.931 125.82 343.531 125.82C340.131 125.82 338.131 127.92 338.131 131.92V133.32H338.031ZM335.031 131.92C335.031 126.42 338.831 123.22 343.531 123.22C348.131 123.22 351.931 126.42 351.931 131.92V135.62H338.031V137.32C338.031 141.12 340.331 143.42 344.331 143.42C347.731 143.42 350.131 142.72 351.131 142.42L351.431 145.02C350.431 145.42 347.631 146.22 344.131 146.22C338.831 146.22 334.931 142.92 334.931 137.42V131.92H335.031ZM327.131 145.72V131.92H312.431V145.72H309.331V115.72H312.431V129.22H327.131V115.72H330.231V145.72H327.131ZM288.931 141.42C287.031 142.82 285.231 143.62 283.131 143.62C280.931 143.62 279.231 142.32 279.231 140.02C279.231 137.42 280.931 136.02 283.831 136.02H288.931V141.42ZM295.031 143.32C294.631 143.42 294.131 143.52 293.631 143.52C292.631 143.52 292.031 142.92 292.031 141.72V131.12C292.031 125.92 289.831 123.22 284.431 123.22C282.131 123.22 279.731 123.72 278.131 124.32V127.02C279.731 126.52 282.031 126.02 284.131 126.02C287.731 126.02 289.031 127.82 289.031 130.82V133.82H283.831C279.531 133.82 276.431 136.02 276.431 140.22C276.431 144.12 279.131 146.22 282.931 146.22C285.431 146.22 287.731 145.02 289.431 143.62C289.831 145.22 291.131 146.22 292.831 146.22C293.831 146.22 294.631 146.02 295.131 145.82L295.031 143.32ZM265.231 123.62L265.531 127.32C267.431 125.32 270.631 123.32 273.331 123.22V126.22C270.931 126.42 267.831 128.02 265.831 130.12V145.72H262.831V123.62H265.231ZM243.531 133.32H254.331V131.92C254.331 128.02 252.331 125.82 248.931 125.82C245.531 125.82 243.531 127.92 243.531 131.92V133.32ZM240.531 131.92C240.531 126.42 244.331 123.22 249.031 123.22C253.631 123.22 257.431 126.42 257.431 131.92V135.62H243.531V137.32C243.531 141.12 245.831 143.42 249.831 143.42C253.231 143.42 255.731 142.72 256.631 142.42L256.931 145.02C255.931 145.42 253.131 146.22 249.731 146.22C244.331 146.22 240.531 142.92 240.531 137.42V131.92ZM224.231 123.62H227.931L228.231 117.42H230.931V123.62H236.831V126.12H230.931V139.92C230.931 142.62 232.331 143.42 234.231 143.42C235.231 143.42 236.531 143.22 237.231 143.02L237.531 145.62C236.631 145.82 235.231 146.12 233.731 146.12C230.331 146.12 227.831 144.42 227.831 140.42V126.12H224.131V123.62H224.231ZM206.031 137.32C206.031 141.12 208.331 143.42 212.131 143.42C215.831 143.42 218.231 141.12 218.231 137.32V131.92C218.231 128.12 215.931 125.82 212.131 125.82C208.431 125.82 206.031 128.12 206.031 131.92V137.32ZM202.931 131.72C202.931 126.12 207.131 123.12 212.031 123.12C216.931 123.12 221.131 126.12 221.131 131.72V137.52C221.131 143.12 216.931 146.12 212.031 146.12C207.131 146.12 202.931 143.12 202.931 137.52V131.72ZM189.431 146.12C185.531 146.12 182.731 145.32 181.131 144.72L181.631 141.92C183.131 142.42 185.931 143.32 189.031 143.32C193.331 143.32 196.131 142.12 196.131 138.22C196.131 135.02 194.631 133.62 190.831 132.42L186.631 131.12C182.831 129.92 181.331 126.92 181.331 123.12C181.331 118.62 184.931 115.22 190.431 115.22C194.231 115.22 196.431 115.92 197.931 116.42L197.431 119.22C195.931 118.72 193.631 118.02 190.631 118.02C186.831 118.02 184.431 119.72 184.431 123.02C184.431 126.02 185.431 127.52 188.531 128.42L192.731 129.72C197.231 131.12 199.231 133.62 199.231 138.02C199.231 143.42 195.631 146.12 189.431 146.12ZM150.731 135.12H161.631L156.131 118.32L150.731 135.12ZM165.131 145.72L162.531 137.92H149.931L147.331 145.72H144.031L154.031 115.72H158.331L168.231 145.72H165.131ZM425.631 29.2203L426.331 35.7203C432.131 31.3203 438.831 28.1203 445.531 28.1203C454.731 28.1203 460.131 33.3203 460.131 43.0203V82.5203H450.831V45.8203C450.831 40.2203 448.431 37.1203 442.631 37.1203C438.331 37.1203 432.431 39.2203 427.231 42.9203V82.5203H417.931V29.2203H425.631ZM372.831 61.9203C372.831 70.3203 377.631 75.4203 386.131 75.4203C394.631 75.4203 399.431 70.3203 399.431 61.9203V49.9203C399.431 41.5203 394.631 36.4203 386.131 36.4203C377.631 36.4203 372.831 41.5203 372.831 49.9203V61.9203ZM363.531 49.3203C363.531 35.3203 374.131 28.2203 386.131 28.2203C398.131 28.2203 408.731 35.3203 408.731 49.3203V62.6203C408.731 76.6203 398.131 83.7203 386.131 83.7203C374.131 83.7203 363.531 76.6203 363.531 62.6203V49.3203ZM354.731 82.6203H345.431V29.3203H354.731V82.6203ZM350.131 7.92032C353.631 7.92032 355.731 9.92032 355.731 13.5203C355.731 17.0203 353.631 19.1203 350.131 19.1203C346.631 19.1203 344.531 17.0203 344.531 13.5203C344.531 9.92032 346.531 7.92032 350.131 7.92032ZM325.131 69.9203V38.6203C322.131 37.5203 317.831 36.4203 313.731 36.4203C304.031 36.4203 300.231 42.0203 300.231 50.4203V61.3203C300.231 69.8203 303.431 75.1203 311.631 75.1203C316.731 75.1203 321.531 72.8203 325.131 69.9203ZM290.831 49.9203C290.831 35.8203 300.331 28.2203 313.831 28.2203C317.931 28.2203 322.531 29.2203 325.331 30.2203V5.32031H334.331V82.6203H326.631L326.031 77.0203C321.431 80.6203 316.431 83.7203 309.231 83.7203C299.831 83.7203 290.831 76.1203 290.831 62.1203V49.9203ZM286.731 28.2203C280.331 28.4203 272.731 33.2203 268.531 37.7203L267.631 29.3203H260.031V82.6203H269.331V45.9203C273.731 41.6203 280.731 38.0203 286.631 37.5203V28.2203H286.731ZM215.031 61.9203C215.031 70.3203 219.831 75.4203 228.331 75.4203C236.831 75.4203 241.631 70.3203 241.631 61.9203V49.9203C241.631 41.5203 236.831 36.4203 228.331 36.4203C219.831 36.4203 215.031 41.5203 215.031 49.9203V61.9203ZM205.731 49.3203C205.731 35.3203 216.331 28.2203 228.331 28.2203C240.331 28.2203 250.931 35.3203 250.931 49.3203V62.6203C250.931 76.6203 240.331 83.7203 228.331 83.7203C216.331 83.7203 205.731 76.6203 205.731 62.6203V49.3203ZM154.031 26.7203V82.5203H144.531V10.0203H154.631L187.331 65.9203V10.1203H196.831V82.6203H186.731L154.031 26.7203ZM475.331 72.8203V76.2203H477.131C478.331 76.2203 479.031 75.7203 479.031 74.7203V74.4203C479.031 73.4203 478.331 72.9203 477.131 72.9203H475.331V72.8203ZM480.031 74.7203C480.031 76.0203 479.131 76.7203 478.031 77.0203L480.031 80.1203H478.831L476.931 77.1203H475.331V80.1203H474.331V71.9203H477.231C478.831 71.9203 480.031 72.7203 480.031 74.3203V74.7203ZM477.031 82.6203C480.631 82.6203 483.631 79.7203 483.631 76.1203C483.631 72.5203 480.731 69.5203 477.031 69.5203C473.431 69.5203 470.531 72.4203 470.531 76.1203C470.431 79.6203 473.431 82.6203 477.031 82.6203ZM477.031 68.4203C481.231 68.4203 484.731 71.8203 484.731 76.1203C484.731 80.3203 481.331 83.7203 477.031 83.7203C472.831 83.7203 469.431 80.3203 469.431 76.1203C469.431 71.8203 472.831 68.4203 477.031 68.4203Z" fill="black"/>
</svg>
