<svg width="2705" height="614" viewBox="0 0 2705 614" fill="none" xmlns="http://www.w3.org/2000/svg">
<g clip-path="url(#clip0_1190_1101)">
<path d="M928.715 486.375C906.6 486.375 888.506 504.469 888.506 539.653C888.506 574.836 907.605 600.972 934.747 600.972C961.888 600.972 974.956 583.883 974.956 548.7C974.956 513.517 955.857 486.375 928.715 486.375ZM992.045 541.663C992.045 579.862 964.904 607.004 929.721 607.004C894.537 607.004 869.406 579.862 869.406 544.679C869.406 509.496 891.521 480.344 932.736 480.344C973.951 480.344 992.045 505.475 992.045 541.663Z" fill="white"/>
<path d="M1020.26 579.833C1020.26 593.906 1027.3 596.922 1032.32 596.922C1037.35 596.922 1039.36 595.917 1043.38 592.901L1045.39 596.922L1030.31 604.964C1028.3 604.964 1026.29 605.969 1024.28 605.969C1012.22 605.969 1006.19 597.927 1006.19 583.854V530.576H993.117V528.566L998.143 523.54H1007.19V511.477L1019.25 499.414H1021.26V523.54H1042.37C1043.38 525.55 1042.37 528.566 1041.37 530.576H1021.26V579.833H1020.26Z" fill="white"/>
<path d="M1069.49 579.833C1069.49 593.906 1076.52 596.922 1081.55 596.922C1086.57 596.922 1088.58 595.917 1092.61 592.901L1094.62 596.922L1079.54 604.964C1077.53 604.964 1075.52 605.969 1073.51 605.969C1061.44 605.969 1055.41 597.927 1055.41 583.854V530.576H1042.34V528.566L1047.37 523.54H1056.42V511.477L1068.48 499.414H1070.49V523.54H1091.6C1092.61 525.55 1091.6 528.566 1090.6 530.576H1070.49V579.833H1069.49Z" fill="white"/>
<path d="M1137.87 558.678C1133.85 560.689 1122.79 565.715 1118.77 567.725C1112.74 571.746 1108.72 574.762 1108.72 581.799C1108.72 591.851 1115.76 595.872 1120.78 595.872C1125.81 595.872 1131.84 592.856 1136.87 588.835V558.678H1137.87ZM1147.92 605.924C1141.89 604.919 1138.88 598.888 1137.87 593.862C1129.83 598.888 1119.78 605.924 1115.76 605.924C1102.69 605.924 1093.64 594.867 1093.64 584.814C1093.64 574.762 1097.66 569.736 1107.71 565.715C1116.76 561.694 1131.84 556.668 1137.87 552.647V546.615C1137.87 535.558 1132.84 528.521 1122.79 528.521C1112.74 528.521 1109.72 536.563 1107.71 544.605C1107.71 546.615 1105.7 548.626 1103.69 548.626C1100.68 548.626 1095.65 545.61 1095.65 542.594C1095.65 539.579 1097.66 537.568 1101.68 534.552C1105.7 531.537 1116.76 524.5 1129.83 521.484C1134.86 521.484 1140.89 523.495 1144.91 525.505C1150.94 530.532 1151.94 536.563 1151.94 543.6V585.82C1151.94 592.856 1153.95 595.872 1156.97 595.872C1159.99 595.872 1162 595.872 1165.01 593.862L1167.02 597.883L1147.92 606.93V605.924Z" fill="white"/>
<path d="M1187.1 604.948L1164.98 538.602C1161.97 528.55 1160.96 528.55 1151.91 527.544V523.523H1190.11V527.544H1182.07C1178.05 529.555 1177.04 531.565 1179.06 536.592L1194.13 582.833C1201.17 565.743 1208.21 546.644 1216.25 524.529H1220.27L1243.39 582.833C1247.41 569.764 1254.45 549.66 1257.46 536.592C1258.47 531.565 1257.46 529.555 1253.44 528.55H1246.41V523.523H1279.58V527.544C1270.53 528.55 1269.53 530.56 1265.51 541.618C1259.47 559.712 1251.43 580.822 1243.39 605.953H1238.36L1215.24 548.654C1208.21 566.749 1201.17 584.843 1193.13 605.953H1188.1L1187.1 604.948Z" fill="white"/>
<path d="M1316.77 558.678C1312.75 560.689 1301.69 565.715 1297.67 567.725C1291.64 571.746 1287.62 574.762 1287.62 581.799C1287.62 591.851 1294.66 595.872 1299.68 595.872C1304.71 595.872 1310.74 592.856 1315.77 588.835V558.678H1316.77ZM1327.83 605.924C1321.8 604.919 1318.78 598.888 1317.78 593.862C1309.74 598.888 1299.68 605.924 1295.66 605.924C1282.59 605.924 1273.55 594.867 1273.55 584.814C1273.55 574.762 1277.57 569.736 1287.62 565.715C1296.67 561.694 1311.75 556.668 1317.78 552.647V546.615C1317.78 535.558 1312.75 528.521 1302.7 528.521C1292.65 528.521 1289.63 536.563 1287.62 544.605C1287.62 546.615 1285.61 548.626 1283.6 548.626C1280.58 548.626 1275.56 545.61 1275.56 542.594C1275.56 539.579 1277.57 537.568 1281.59 534.552C1285.61 531.537 1296.67 524.5 1309.74 521.484C1314.76 521.484 1320.79 523.495 1324.81 525.505C1330.85 530.532 1331.85 536.563 1331.85 543.6V585.82C1331.85 592.856 1333.86 595.872 1336.88 595.872C1339.89 595.872 1341.9 595.872 1344.92 593.862L1346.93 597.883L1327.83 606.93V605.924Z" fill="white"/>
<path d="M1316.79 416.934C1276.58 432.013 1240.39 463.175 1200.18 484.285L1637.46 8.80744L1629.41 11.8232L1145.9 374.714L1126.8 344.557L906.648 426.987L1641.48 3.78125L1395.19 535.552L1316.79 417.939V416.934Z" fill="white"/>
<path d="M37.0948 204.836V208.857C27.0424 208.857 26.0372 210.867 26.0372 224.941V270.176C26.0372 284.25 27.0424 285.255 37.0948 286.26V290.281H0.90625V286.26C10.9586 286.26 11.9639 284.25 11.9639 270.176V224.941C11.9639 210.867 10.9586 209.862 0.90625 208.857V204.836H37.0948Z" fill="white"/>
<path d="M65.2611 240.089C68.2768 238.078 70.2873 237.073 72.2978 235.063C76.3187 232.047 79.3344 231.042 83.3554 231.042C93.4078 231.042 99.4392 238.078 99.4392 248.131V276.277C99.4392 283.314 99.4392 284.319 107.481 284.319V288.34H78.3292V284.319C85.3659 284.319 86.3711 283.314 86.3711 276.277V251.146C86.3711 243.105 82.3502 239.084 76.3187 239.084C70.2873 239.084 68.2768 241.094 64.2559 244.11V275.272C64.2559 282.309 64.2559 283.314 71.2925 283.314V287.335H42.1406V283.314C50.1825 283.314 51.1878 282.309 51.1878 275.272V246.12C51.1878 238.078 51.1878 238.078 43.1459 237.073V234.057C49.1773 233.052 58.2244 231.042 64.2559 229.031V238.078L65.2611 240.089Z" fill="white"/>
<path d="M129.542 215.904V231.987H142.61C144.621 233.998 143.616 237.014 142.61 238.019H130.547V270.187C130.547 280.239 135.574 282.249 137.584 282.249C139.595 282.249 142.61 282.249 145.626 280.239L147.637 283.255L136.579 289.286C134.568 290.291 133.563 290.291 132.558 290.291C122.506 290.291 118.485 285.265 118.485 275.213V239.024H109.438V237.014L112.453 232.993H117.479V224.951L128.537 214.898H130.547L129.542 215.904Z" fill="white"/>
<path d="M179.847 252.102C181.858 252.102 181.858 252.102 181.858 248.081C181.858 243.055 177.837 236.018 171.805 236.018C165.774 236.018 160.748 242.05 159.743 252.102H178.842H179.847ZM194.926 277.233C187.889 288.291 177.837 290.301 174.821 290.301C157.732 290.301 147.68 278.238 147.68 263.16C147.68 247.076 159.743 230.992 175.826 230.992C191.91 230.992 194.926 240.039 194.926 249.086C194.926 258.134 194.926 254.113 191.91 254.113C189.9 254.113 173.816 256.123 159.743 256.123C159.743 272.207 169.795 279.244 178.842 279.244C187.889 279.244 186.884 277.233 191.91 274.217L193.921 276.228L194.926 277.233Z" fill="white"/>
<path d="M220.042 244.06C223.058 239.034 228.084 230.992 234.116 230.992C240.147 230.992 242.158 235.013 242.158 238.029C242.158 241.045 240.147 245.066 237.131 246.071C236.126 246.071 234.116 246.071 233.11 246.071C231.1 244.06 229.089 243.055 227.079 243.055C225.069 243.055 222.053 245.066 219.037 250.092V276.228C219.037 283.265 219.037 284.27 229.09 285.275V289.296H196.922V285.275C204.964 285.275 204.964 283.265 204.964 276.228V248.081C204.964 240.039 204.964 240.039 196.922 239.034V236.018C202.953 235.013 212 233.003 218.032 230.992V244.06H220.042Z" fill="white"/>
<path d="M268.269 240.089C271.285 238.078 273.295 237.073 275.306 235.063C279.327 232.047 282.342 231.042 286.363 231.042C296.416 231.042 302.447 238.078 302.447 248.131V276.277C302.447 283.314 302.447 284.319 310.489 284.319V288.34H281.337V284.319C288.374 284.319 289.379 283.314 289.379 276.277V251.146C289.379 243.105 285.358 239.084 279.327 239.084C273.295 239.084 271.285 241.094 267.264 244.11V275.272C267.264 282.309 267.264 283.314 274.3 283.314V287.335H245.148V283.314C253.19 283.314 254.196 282.309 254.196 275.272V246.12C254.196 238.078 254.196 238.078 246.154 237.073V234.057C252.185 233.052 261.232 231.042 267.264 229.031V238.078L268.269 240.089Z" fill="white"/>
<path d="M345.74 257.139C342.725 258.144 337.699 261.16 335.688 262.165C331.667 264.175 329.657 267.191 329.657 272.217C329.657 279.254 333.678 282.27 337.699 282.27C341.72 282.27 343.73 280.259 346.746 278.249V258.144L345.74 257.139ZM367.856 283.275L354.788 290.312C348.756 290.312 346.746 285.285 345.74 282.27C340.714 285.285 333.678 290.312 330.662 290.312C320.61 290.312 314.578 282.27 314.578 275.233C314.578 268.196 317.594 264.175 324.631 262.165C330.662 259.149 340.714 256.134 345.74 253.118V250.102C345.74 242.06 342.725 239.044 336.693 239.044C330.662 239.044 332.672 240.05 331.667 241.055C329.657 243.065 328.651 246.081 327.646 250.102C327.646 252.113 325.636 253.118 323.625 253.118C321.615 253.118 316.589 250.102 316.589 247.086C316.589 244.071 317.594 243.065 320.61 241.055C324.63 238.039 332.672 233.013 341.72 232.008C345.741 232.008 349.761 233.013 352.777 235.024C357.803 239.044 357.803 243.065 357.803 247.086V274.228C357.803 279.254 359.814 281.264 361.824 281.264C363.835 281.264 364.84 281.264 366.851 279.254V282.27L367.856 283.275Z" fill="white"/>
<path d="M387.925 215.904V231.987H400.993C403.004 233.998 401.998 237.014 400.993 238.019H388.93V270.187C388.93 280.239 393.956 282.249 395.967 282.249C397.977 282.249 400.993 282.249 404.009 280.239L406.019 283.255L394.962 289.286C392.951 290.291 391.946 290.291 390.941 290.291C380.888 290.291 376.867 285.265 376.867 275.213V239.024H367.82V237.014L370.836 232.993H375.862V224.951L386.92 214.898H388.93L387.925 215.904Z" fill="white"/>
<path d="M431.144 209.893C431.144 213.914 427.123 217.935 423.102 217.935C419.081 217.935 415.06 213.914 415.06 209.893C415.06 205.873 419.081 201.852 423.102 201.852C427.123 201.852 431.144 205.873 431.144 209.893ZM430.139 276.239C430.139 283.276 430.139 284.281 439.186 285.286V289.307H408.023V285.286C416.065 285.286 417.071 283.276 417.071 276.239V248.093C417.071 240.051 417.071 240.051 409.029 239.045V236.03C415.06 235.024 424.107 233.014 430.139 231.003V276.239Z" fill="white"/>
<path d="M483.392 262.165C483.392 246.081 478.366 236.029 468.313 236.029C458.261 236.029 456.25 244.071 456.25 258.144C456.25 272.217 462.282 285.285 471.329 285.285C480.376 285.285 483.392 280.259 483.392 262.165ZM498.47 260.154C498.47 280.259 483.392 290.312 470.324 290.312C457.256 290.312 441.172 276.238 441.172 262.165C441.172 242.06 457.256 232.008 470.324 232.008C483.392 232.008 498.47 245.076 498.47 260.154Z" fill="white"/>
<path d="M523.652 240.089C526.667 238.078 528.678 237.073 530.688 235.063C534.709 232.047 537.725 231.042 541.746 231.042C551.798 231.042 557.83 238.078 557.83 248.131V276.277C557.83 283.314 557.83 284.319 565.872 284.319V288.34H536.72V284.319C543.756 284.319 544.762 283.314 544.762 276.277V251.146C544.762 243.105 540.741 239.084 534.709 239.084C528.678 239.084 526.667 241.094 522.647 244.11V275.272C522.647 282.309 522.646 283.314 529.683 283.314V287.335H500.531V283.314C508.573 283.314 509.578 282.309 509.578 275.272V246.12C509.578 238.078 509.578 238.078 501.536 237.073V234.057C507.568 233.052 516.615 231.042 522.647 229.031V238.078L523.652 240.089Z" fill="white"/>
<path d="M600.048 257.139C597.032 258.144 592.006 261.16 589.995 262.165C585.974 264.175 583.964 267.191 583.964 272.217C583.964 279.254 587.985 282.27 592.006 282.27C596.027 282.27 598.037 280.259 601.053 278.249V258.144L600.048 257.139ZM623.168 283.275L610.1 290.312C604.069 290.312 602.058 285.285 601.053 282.27C596.027 285.285 588.99 290.312 585.974 290.312C575.922 290.312 569.891 282.27 569.891 275.233C569.891 268.196 572.906 264.175 579.943 262.165C585.974 259.149 596.027 256.134 601.053 253.118V250.102C601.053 242.06 598.037 239.044 592.006 239.044C585.974 239.044 587.985 240.05 586.98 241.055C584.969 243.065 583.964 246.081 582.959 250.102C582.959 252.113 580.948 253.118 578.938 253.118C576.927 253.118 571.901 250.102 571.901 247.086C571.901 244.071 572.906 243.065 575.922 241.055C579.943 238.039 587.985 233.013 597.032 232.008C601.053 232.008 605.074 233.013 608.09 235.024C613.116 239.044 613.116 243.065 613.116 247.086V274.228C613.116 279.254 615.126 281.264 617.137 281.264C619.147 281.264 620.153 281.264 622.163 279.254V282.27L623.168 283.275Z" fill="white"/>
<path d="M647.295 276.252C647.295 283.289 647.295 284.294 656.342 285.299V289.32H625.18V285.299C633.222 285.299 634.227 283.289 634.227 276.252V212.922C634.227 204.88 634.227 204.88 625.18 204.88V201.865C630.206 201.865 640.258 198.849 647.295 197.844V276.252Z" fill="white"/>
<path d="M708.618 253.147H728.723L718.67 225.001L708.618 253.147ZM725.707 203.891L734.754 228.016C740.786 244.1 745.812 259.179 750.838 272.247C754.859 283.304 756.869 284.31 764.911 285.315V289.336H730.733V285.315H734.754C739.78 284.31 739.78 282.299 738.775 278.278C737.77 274.257 734.754 266.215 731.738 260.184H707.613C705.602 264.205 703.592 271.242 701.581 276.268C699.571 283.304 700.576 284.31 705.602 285.315H709.623V289.336H681.477V285.315C689.518 284.31 690.524 283.304 695.55 272.247L721.686 205.901L726.712 203.891H725.707Z" fill="white"/>
<path d="M790.988 209.893C790.988 213.914 786.967 217.935 782.946 217.935C778.925 217.935 774.904 213.914 774.904 209.893C774.904 205.873 778.925 201.852 782.946 201.852C786.967 201.852 790.988 205.873 790.988 209.893ZM789.982 276.239C789.982 283.276 789.982 284.281 799.03 285.286V289.307H767.867V285.286C775.909 285.286 776.914 283.276 776.914 276.239V248.093C776.914 240.051 776.914 240.051 768.872 239.045V236.03C774.904 235.024 783.951 233.014 789.982 231.003V276.239Z" fill="white"/>
<path d="M824.214 244.06C827.23 239.034 832.256 230.992 838.288 230.992C844.319 230.992 846.329 235.013 846.329 238.029C846.329 241.045 844.319 245.066 841.303 246.071C840.298 246.071 838.288 246.071 837.282 246.071C835.272 244.06 833.261 243.055 831.251 243.055C829.24 243.055 826.225 245.066 823.209 250.092V276.228C823.209 283.265 823.209 284.27 833.261 285.275V289.296H801.094V285.275C809.136 285.275 809.136 283.265 809.136 276.228V248.081C809.136 240.039 809.136 240.039 801.094 239.034V236.018C807.125 235.013 816.172 233.003 822.204 230.992V244.06H824.214Z" fill="white"/>
<path d="M872.451 279.233C875.467 281.244 879.488 283.254 884.514 283.254C889.54 283.254 898.587 278.228 898.587 261.139C898.587 244.05 890.545 239.024 882.504 239.024C874.462 239.024 875.467 241.034 872.451 243.045V278.228V279.233ZM872.451 239.024L885.519 231.987C886.525 231.987 888.535 231.987 890.545 231.987C905.624 231.987 912.661 245.055 912.661 256.113C912.661 275.212 898.587 287.275 881.498 290.291C877.477 290.291 874.462 289.286 872.451 288.28V305.369C872.451 312.406 872.451 313.411 883.509 313.411V317.432H850.336V313.411C858.378 313.411 859.383 311.401 859.383 305.369V247.066C859.383 240.029 859.383 240.029 850.336 239.024V236.008C857.373 235.003 864.409 231.987 872.451 229.977V239.024Z" fill="white"/>
<path d="M960.876 262.165C960.876 246.081 955.85 236.029 945.798 236.029C935.745 236.029 933.735 244.071 933.735 258.144C933.735 272.217 939.766 285.285 948.813 285.285C957.861 285.285 960.876 280.259 960.876 262.165ZM975.955 260.154C975.955 280.259 960.876 290.312 947.808 290.312C934.74 290.312 918.656 276.238 918.656 262.165C918.656 242.06 934.74 232.008 947.808 232.008C960.876 232.008 975.955 245.076 975.955 260.154Z" fill="white"/>
<path d="M1001.16 244.06C1004.18 239.034 1009.2 230.992 1015.23 230.992C1021.26 230.992 1023.27 235.013 1023.27 238.029C1023.27 241.045 1021.26 245.066 1018.25 246.071C1017.24 246.071 1015.23 246.071 1014.23 246.071C1012.22 244.06 1010.21 243.055 1008.2 243.055C1006.19 243.055 1003.17 245.066 1000.15 250.092V276.228C1000.15 283.265 1000.15 284.27 1010.21 285.275V289.296H978.039V285.275C986.081 285.275 986.081 283.265 986.081 276.228V248.081C986.081 240.039 986.081 240.039 978.039 239.034V236.018C984.07 235.013 993.118 233.003 999.149 230.992V244.06H1001.16Z" fill="white"/>
<path d="M1049.33 215.904V231.987H1062.4C1064.41 233.998 1063.4 237.014 1062.4 238.019H1050.34V270.187C1050.34 280.239 1055.36 282.249 1057.37 282.249C1059.38 282.249 1062.4 282.249 1065.42 280.239L1067.43 283.255L1056.37 289.286C1054.36 290.291 1053.35 290.291 1052.35 290.291C1042.29 290.291 1038.27 285.265 1038.27 275.213V239.024H1029.23V237.014L1032.24 232.993H1037.27V224.951L1048.33 214.898H1050.34L1049.33 215.904Z" fill="white"/>
<path d="M1652.52 253.147H1672.63L1662.58 225.001L1652.52 253.147ZM1669.61 203.891L1678.66 228.016C1684.69 244.1 1689.72 259.179 1694.74 272.247C1698.77 283.304 1700.78 284.31 1708.82 285.315V289.336H1674.64V285.315H1678.66C1683.69 284.31 1683.69 282.299 1682.68 278.278C1681.68 274.257 1678.66 266.215 1675.64 260.184H1651.52C1649.51 264.205 1647.5 271.242 1645.49 276.268C1643.48 283.304 1644.48 284.31 1649.51 285.315H1653.53V289.336H1625.38V285.315C1633.42 284.31 1634.43 283.304 1639.46 272.247L1665.59 205.901L1670.62 203.891H1669.61Z" fill="white"/>
<path d="M1749.01 243.061C1747 239.04 1742.98 237.03 1737.95 237.03C1732.92 237.03 1723.88 239.04 1723.88 259.145C1723.88 279.25 1732.92 281.26 1739.96 281.26C1747 281.26 1747 280.255 1750.01 278.245V242.056L1749.01 243.061ZM1762.07 275.229C1762.07 281.26 1762.07 281.26 1766.1 281.26H1771.12V285.281C1769.11 285.281 1758.05 287.292 1749.01 290.307V283.271L1739.96 288.297C1737.95 289.302 1735.94 290.307 1734.93 290.307C1723.88 290.307 1708.8 281.26 1708.8 262.161C1708.8 243.061 1722.87 230.998 1742.98 230.998C1763.08 230.998 1745.99 230.998 1749.01 230.998V211.899C1749.01 204.862 1749.01 203.857 1739.96 203.857V200.841C1747 199.836 1756.04 197.826 1762.07 196.82V274.224V275.229Z" fill="white"/>
<path d="M1784.19 248.081C1784.19 240.039 1784.19 240.039 1776.14 239.034V236.018C1782.17 235.013 1791.22 233.003 1797.25 230.992V240.039C1799.26 238.029 1802.28 237.024 1804.29 235.013C1808.31 231.997 1811.33 230.992 1815.35 230.992C1822.38 230.992 1828.42 235.013 1830.43 241.045C1833.44 239.034 1836.46 237.024 1839.47 235.013C1843.49 233.003 1846.51 230.992 1850.53 230.992C1861.59 230.992 1866.61 238.029 1866.61 248.081V276.228C1866.61 283.265 1866.61 284.27 1874.66 285.275V289.296H1845.5V285.275C1852.54 285.275 1853.55 284.27 1853.55 276.228V252.102C1853.55 244.06 1850.53 240.039 1843.49 240.039C1836.46 240.039 1835.45 242.05 1831.43 245.066C1831.43 246.071 1831.43 247.076 1831.43 248.081V276.228C1831.43 283.265 1831.43 284.27 1838.47 285.275V289.296H1810.32V285.275C1817.36 285.275 1818.36 284.27 1818.36 276.228V252.102C1818.36 244.06 1815.35 240.039 1808.31 240.039C1801.27 240.039 1800.27 242.05 1796.25 245.066V276.228C1796.25 283.265 1796.25 284.27 1803.28 285.275V289.296H1774.13V285.275C1782.17 285.275 1783.18 284.27 1783.18 276.228V248.081H1784.19Z" fill="white"/>
<path d="M1902.78 209.893C1902.78 213.914 1898.76 217.935 1894.74 217.935C1890.72 217.935 1886.7 213.914 1886.7 209.893C1886.7 205.873 1890.72 201.852 1894.74 201.852C1898.76 201.852 1902.78 205.873 1902.78 209.893ZM1900.77 276.239C1900.77 283.276 1900.77 284.281 1909.82 285.286V289.307H1878.66V285.286C1886.7 285.286 1887.7 283.276 1887.7 276.239V248.093C1887.7 240.051 1887.7 240.051 1879.66 239.045V236.03C1885.69 235.024 1894.74 233.014 1900.77 231.003V276.239Z" fill="white"/>
<path d="M1936.02 240.089C1939.03 238.078 1941.05 237.073 1943.06 235.063C1947.08 232.047 1950.09 231.042 1954.11 231.042C1964.17 231.042 1970.2 238.078 1970.2 248.131V276.277C1970.2 283.314 1970.2 284.319 1978.24 284.319V288.34H1949.09V284.319C1956.12 284.319 1957.13 283.314 1957.13 276.277V251.146C1957.13 243.105 1953.11 239.084 1947.08 239.084C1941.05 239.084 1939.03 241.094 1935.01 244.11V275.272C1935.01 282.309 1935.01 283.314 1942.05 283.314V287.335H1912.9V283.314C1920.94 283.314 1921.95 282.309 1921.95 275.272V246.12C1921.95 238.078 1921.95 238.078 1913.9 237.073V234.057C1919.94 233.052 1928.98 231.042 1935.01 229.031V238.078L1936.02 240.089Z" fill="white"/>
<path d="M2007.4 209.893C2007.4 213.914 2003.38 217.935 1999.36 217.935C1995.34 217.935 1991.32 213.914 1991.32 209.893C1991.32 205.873 1995.34 201.852 1999.36 201.852C2003.38 201.852 2007.4 205.873 2007.4 209.893ZM2005.39 276.239C2005.39 283.276 2005.39 284.281 2014.44 285.286V289.307H1983.27V285.286C1991.32 285.286 1992.32 283.276 1992.32 276.239V248.093C1992.32 240.051 1992.32 240.051 1984.28 239.045V236.03C1990.31 235.024 1999.36 233.014 2005.39 231.003V276.239Z" fill="white"/>
<path d="M2021.47 270.196C2023.48 278.238 2030.52 285.275 2037.55 285.275C2044.59 285.275 2046.6 282.259 2046.6 277.233C2046.6 272.207 2043.58 269.191 2036.55 266.176C2029.51 263.16 2020.46 258.134 2020.46 249.086C2020.46 240.039 2027.5 231.997 2040.57 230.992C2044.59 230.992 2049.62 231.997 2052.63 233.003C2053.64 236.018 2055.65 244.06 2055.65 246.071H2051.63C2047.61 238.029 2042.58 236.018 2038.56 236.018C2034.54 236.018 2031.52 239.034 2031.52 244.06C2031.52 249.086 2035.54 252.102 2041.57 254.113C2051.63 258.134 2058.66 263.16 2058.66 272.207C2058.66 281.254 2046.6 290.301 2036.55 290.301C2026.5 290.301 2023.48 287.286 2020.46 285.275C2020.46 283.265 2018.45 275.223 2018.45 270.196H2021.47Z" fill="white"/>
<path d="M2082.78 216.919V233.003H2095.84C2097.86 235.014 2096.85 238.029 2095.84 239.035H2083.78V271.202C2083.78 281.255 2088.81 283.265 2090.82 283.265C2092.83 283.265 2095.84 283.265 2098.86 281.255L2100.87 284.27L2089.81 290.302C2087.8 291.307 2086.8 291.307 2085.79 291.307C2075.74 291.307 2071.72 286.281 2071.72 276.228V240.04H2062.67V238.029L2065.69 234.008H2070.71V225.966L2081.77 215.914H2083.78L2082.78 216.919Z" fill="white"/>
<path d="M2124.97 244.06C2127.99 239.034 2133.01 230.992 2139.05 230.992C2145.08 230.992 2147.09 235.013 2147.09 238.029C2147.09 241.045 2145.08 245.066 2142.06 246.071C2141.06 246.071 2139.05 246.071 2138.04 246.071C2136.03 244.06 2134.02 243.055 2132.01 243.055C2130 243.055 2126.98 245.066 2123.97 250.092V276.228C2123.97 283.265 2123.97 284.27 2134.02 285.275V289.296H2101.85V285.275C2109.89 285.275 2109.89 283.265 2109.89 276.228V248.081C2109.89 240.039 2109.89 240.039 2101.85 239.034V236.018C2107.88 235.013 2116.93 233.003 2122.96 230.992V244.06H2124.97Z" fill="white"/>
<path d="M2181.24 257.139C2178.22 258.144 2173.2 261.16 2171.19 262.165C2167.17 264.175 2165.16 267.191 2165.16 272.217C2165.16 279.254 2169.18 282.27 2173.2 282.27C2177.22 282.27 2179.23 280.259 2182.25 278.249V258.144L2181.24 257.139ZM2203.36 283.275L2190.29 290.312C2184.26 290.312 2182.25 285.285 2181.24 282.27C2176.21 285.285 2169.18 290.312 2166.16 290.312C2156.11 290.312 2150.08 282.27 2150.08 275.233C2150.08 268.196 2153.09 264.175 2160.13 262.165C2166.16 259.149 2176.21 256.134 2181.24 253.118V250.102C2181.24 242.06 2178.22 239.044 2172.19 239.044C2166.16 239.044 2168.17 240.05 2167.17 241.055C2165.16 243.065 2164.15 246.081 2163.15 250.102C2163.15 252.113 2161.14 253.118 2159.13 253.118C2157.11 253.118 2152.09 250.102 2152.09 247.086C2152.09 244.071 2153.09 243.065 2156.11 241.055C2160.13 238.039 2168.17 233.013 2177.22 232.008C2181.24 232.008 2185.26 233.013 2188.28 235.024C2193.3 239.044 2193.3 243.065 2193.3 247.086V274.228C2193.3 279.254 2195.31 281.264 2197.32 281.264C2199.33 281.264 2200.34 281.264 2202.35 279.254V282.27L2203.36 283.275Z" fill="white"/>
<path d="M2223.5 216.919V233.003H2236.56C2238.57 235.014 2237.57 238.029 2236.56 239.035H2224.5V271.202C2224.5 281.255 2229.53 283.265 2231.54 283.265C2233.55 283.265 2236.56 283.265 2239.58 281.255L2241.59 284.27L2230.53 290.302C2228.52 291.307 2227.52 291.307 2226.51 291.307C2216.46 291.307 2212.44 286.281 2212.44 276.228V240.04H2203.39V238.029L2206.41 234.008H2211.43V225.966L2222.49 215.914H2224.5L2223.5 216.919Z" fill="white"/>
<path d="M2266.72 209.893C2266.72 213.914 2262.7 217.935 2258.68 217.935C2254.66 217.935 2250.64 213.914 2250.64 209.893C2250.64 205.873 2254.66 201.852 2258.68 201.852C2262.7 201.852 2266.72 205.873 2266.72 209.893ZM2264.71 276.239C2264.71 283.276 2264.71 284.281 2273.76 285.286V289.307H2242.59V285.286C2250.64 285.286 2251.64 283.276 2251.64 276.239V248.093C2251.64 240.051 2251.64 240.051 2243.6 239.045V236.03C2249.63 235.024 2258.68 233.014 2264.71 231.003V276.239Z" fill="white"/>
<path d="M2317.95 262.165C2317.95 246.081 2312.92 236.029 2302.87 236.029C2292.82 236.029 2290.81 244.071 2290.81 258.144C2290.81 272.217 2296.84 285.285 2305.88 285.285C2314.93 285.285 2317.95 280.259 2317.95 262.165ZM2333.03 260.154C2333.03 280.259 2317.95 290.312 2304.88 290.312C2291.81 290.312 2275.73 276.238 2275.73 262.165C2275.73 242.06 2291.81 232.008 2304.88 232.008C2317.95 232.008 2333.03 245.076 2333.03 260.154Z" fill="white"/>
<path d="M2359.17 240.089C2362.18 238.078 2364.19 237.073 2366.2 235.063C2370.22 232.047 2373.24 231.042 2377.26 231.042C2387.31 231.042 2393.35 238.078 2393.35 248.131V276.277C2393.35 283.314 2393.35 284.319 2401.39 284.319V288.34H2372.24V284.319C2379.27 284.319 2380.28 283.314 2380.28 276.277V251.146C2380.28 243.105 2376.26 239.084 2370.22 239.084C2364.19 239.084 2362.18 241.094 2358.16 244.11V275.272C2358.16 282.309 2358.16 283.314 2365.2 283.314V287.335H2336.05V283.314C2344.09 283.314 2345.09 282.309 2345.09 275.272V246.12C2345.09 238.078 2345.09 238.078 2337.05 237.073V234.057C2343.08 233.052 2352.13 231.042 2358.16 229.031V238.078L2359.17 240.089Z" fill="white"/>
<path d="M2472.77 243.061C2470.76 239.04 2466.74 237.03 2461.71 237.03C2456.69 237.03 2447.64 239.04 2447.64 259.145C2447.64 279.25 2456.69 281.26 2463.72 281.26C2470.76 281.26 2470.76 280.255 2473.78 278.245V242.056L2472.77 243.061ZM2485.84 275.229C2485.84 281.26 2485.84 281.26 2489.86 281.26H2494.89V285.281C2492.88 285.281 2481.82 287.292 2472.77 290.307V283.271L2463.72 288.297C2461.71 289.302 2459.7 290.307 2458.7 290.307C2447.64 290.307 2432.56 281.26 2432.56 262.161C2432.56 243.061 2446.64 230.998 2466.74 230.998C2486.85 230.998 2469.76 230.998 2472.77 230.998V211.899C2472.77 204.862 2472.77 203.857 2463.72 203.857V200.841C2470.76 199.836 2479.81 197.826 2485.84 196.82V274.224V275.229Z" fill="white"/>
<path d="M2529.05 252.102C2531.06 252.102 2531.06 252.102 2531.06 248.081C2531.06 243.055 2527.04 236.018 2521.01 236.018C2514.98 236.018 2509.95 242.05 2508.95 252.102H2528.05H2529.05ZM2544.13 277.233C2537.09 288.291 2527.04 290.301 2524.02 290.301C2506.94 290.301 2496.88 278.238 2496.88 263.16C2496.88 247.076 2508.95 230.992 2525.03 230.992C2541.11 230.992 2544.13 240.039 2544.13 249.086C2544.13 258.134 2544.13 254.113 2541.11 254.113C2539.1 254.113 2523.02 256.123 2508.95 256.123C2508.95 272.207 2519 279.244 2528.05 279.244C2537.09 279.244 2536.09 277.233 2541.11 274.217L2543.12 276.228L2544.13 277.233Z" fill="white"/>
<path d="M1566.06 384.784C1566.06 391.82 1566.06 392.825 1575.11 393.831V397.852H1543.95V393.831C1551.99 393.831 1552.99 391.82 1552.99 384.784V321.454C1552.99 313.412 1552.99 313.412 1543.95 313.412V310.396C1548.97 310.396 1559.02 307.38 1566.06 306.375V384.784Z" fill="white"/>
<path d="M1578.12 337.527C1585.15 334.511 1589.17 330.49 1589.17 324.459C1589.17 318.427 1585.15 316.417 1580.13 315.412C1580.13 315.412 1578.12 314.407 1578.12 311.391C1578.12 308.375 1582.14 305.359 1584.15 305.359C1590.18 305.359 1598.22 311.391 1598.22 320.438C1598.22 329.485 1588.17 338.532 1579.12 340.543V337.527H1578.12Z" fill="white"/>
<path d="M1626.39 365.678C1623.37 366.683 1618.35 369.699 1616.34 370.704C1612.32 372.714 1610.31 375.73 1610.31 380.756C1610.31 387.793 1614.33 390.809 1618.35 390.809C1622.37 390.809 1624.38 388.798 1627.39 386.788V366.683L1626.39 365.678ZM1648.5 391.814L1635.44 398.851C1629.4 398.851 1627.39 393.825 1626.39 390.809C1621.36 393.825 1614.33 398.851 1611.31 398.851C1601.26 398.851 1595.23 390.809 1595.23 383.772C1595.23 376.735 1598.24 372.714 1605.28 370.704C1611.31 367.688 1621.36 364.673 1626.39 361.657V358.641C1626.39 350.599 1623.37 347.584 1617.34 347.584C1611.31 347.584 1613.32 348.589 1612.32 349.594C1610.31 351.605 1609.3 354.62 1608.29 358.641C1608.29 360.652 1606.28 361.657 1604.27 361.657C1602.26 361.657 1597.24 358.641 1597.24 355.625C1597.24 352.61 1598.24 351.605 1601.26 349.594C1605.28 346.578 1613.32 341.552 1622.37 340.547C1626.39 340.547 1630.41 341.552 1633.43 343.563C1638.45 347.584 1638.45 351.604 1638.45 355.625V382.767C1638.45 387.793 1640.46 389.804 1642.47 389.804C1644.48 389.804 1645.49 389.804 1647.5 387.793V390.809L1648.5 391.814Z" fill="white"/>
<path d="M1668.62 333.521L1681.69 313.417C1683.7 310.401 1684.7 311.406 1686.71 312.411H1688.72C1691.74 315.427 1690.73 317.438 1688.72 319.448L1670.63 335.532L1667.61 333.521H1668.62ZM1682.69 359.658C1684.7 359.658 1684.7 359.658 1684.7 355.637C1684.7 350.611 1680.68 343.574 1674.65 343.574C1668.62 343.574 1663.59 349.605 1662.59 359.658H1681.69H1682.69ZM1697.77 384.789C1690.73 395.846 1680.68 397.857 1677.66 397.857C1660.58 397.857 1650.52 385.794 1650.52 370.715C1650.52 354.631 1662.59 338.548 1678.67 338.548C1694.75 338.548 1697.77 347.595 1697.77 356.642C1697.77 365.689 1697.77 361.668 1694.75 361.668C1692.74 361.668 1676.66 363.679 1662.59 363.679C1662.59 379.762 1672.64 386.799 1681.69 386.799C1690.73 386.799 1689.73 384.789 1694.75 381.773L1696.76 383.783L1697.77 384.789Z" fill="white"/>
<path d="M1722.89 352.67C1725.9 347.643 1730.93 339.602 1736.96 339.602C1742.99 339.602 1745 343.623 1745 346.638C1745 349.654 1742.99 353.675 1739.98 354.68C1738.97 354.68 1736.96 354.68 1735.95 354.68C1733.94 352.67 1731.93 351.664 1729.92 351.664C1727.91 351.664 1724.9 353.675 1721.88 358.701V384.837C1721.88 391.874 1721.88 392.879 1731.93 393.884V397.905H1699.77V393.884C1707.81 393.884 1707.81 391.874 1707.81 384.837V356.691C1707.81 348.649 1707.81 348.649 1699.77 347.643V344.628C1705.8 343.623 1714.84 341.612 1720.88 339.602V352.67H1722.89Z" fill="white"/>
<path d="M1790.2 370.764C1790.2 354.68 1785.17 344.628 1775.12 344.628C1765.07 344.628 1763.06 352.67 1763.06 366.743C1763.06 380.816 1769.09 393.884 1778.13 393.884C1787.18 393.884 1790.2 388.858 1790.2 370.764ZM1805.28 367.748C1805.28 387.853 1790.2 397.905 1777.13 397.905C1764.06 397.905 1747.98 383.832 1747.98 369.759C1747.98 349.654 1764.06 339.602 1777.13 339.602C1790.2 339.602 1805.28 352.67 1805.28 367.748Z" fill="white"/>
<path d="M1829.46 387.843C1832.47 389.853 1836.5 391.864 1841.52 391.864C1846.55 391.864 1855.6 386.837 1855.6 369.748C1855.6 352.659 1847.55 347.633 1839.51 347.633C1831.47 347.633 1832.47 349.644 1829.46 351.654V386.837V387.843ZM1829.46 347.633L1842.53 340.596C1843.53 340.596 1845.54 340.596 1847.55 340.596C1862.63 340.596 1869.67 353.665 1869.67 364.722C1869.67 383.822 1855.6 395.885 1838.51 398.9C1834.49 398.9 1831.47 397.895 1829.46 396.89V413.979C1829.46 421.015 1829.46 422.021 1840.52 422.021V426.042H1807.34V422.021C1815.39 422.021 1816.39 420.01 1816.39 413.979V355.675C1816.39 348.638 1816.39 348.638 1807.34 347.633V344.617C1814.38 343.612 1821.42 340.596 1829.46 338.586V347.633Z" fill="white"/>
<path d="M1917.9 370.764C1917.9 354.68 1912.87 344.628 1902.82 344.628C1892.77 344.628 1890.76 352.67 1890.76 366.743C1890.76 380.816 1896.79 393.884 1905.84 393.884C1914.88 393.884 1917.9 388.858 1917.9 370.764ZM1932.98 367.748C1932.98 387.853 1917.9 397.905 1904.83 397.905C1891.76 397.905 1875.68 383.832 1875.68 369.759C1875.68 349.654 1891.76 339.602 1904.83 339.602C1917.9 339.602 1932.98 352.67 1932.98 367.748Z" fill="white"/>
<path d="M1958.09 352.67C1961.1 347.643 1966.13 339.602 1972.16 339.602C1978.19 339.602 1980.2 343.623 1980.2 346.638C1980.2 349.654 1978.19 353.675 1975.18 354.68C1974.17 354.68 1972.16 354.68 1971.16 354.68C1969.15 352.67 1967.14 351.664 1965.13 351.664C1963.12 351.664 1960.1 353.675 1957.08 358.701V384.837C1957.08 391.874 1957.08 392.879 1967.14 393.884V397.905H1934.97V393.884C1943.01 393.884 1943.01 391.874 1943.01 384.837V356.691C1943.01 348.649 1943.01 348.649 1934.97 347.643V344.628C1941 343.623 1950.05 341.612 1956.08 339.602V352.67H1958.09Z" fill="white"/>
<path d="M2006.35 324.513V340.597H2019.42C2021.43 342.607 2020.43 345.623 2019.42 346.628H2007.36V378.796C2007.36 388.848 2012.39 390.859 2014.4 390.859C2016.41 390.859 2019.42 390.859 2022.44 388.848L2024.45 391.864L2013.39 397.895C2011.38 398.901 2010.38 398.901 2009.37 398.901C1999.32 398.901 1995.3 393.874 1995.3 383.822V347.634H1986.25V345.623L1989.27 341.602H1994.29V333.56L2005.35 323.508H2007.36L2006.35 324.513Z" fill="white"/>
<path d="M2072.68 317.487C2072.68 321.508 2068.65 325.529 2064.63 325.529C2060.61 325.529 2056.59 321.508 2056.59 317.487C2056.59 313.466 2060.61 309.445 2064.63 309.445C2068.65 309.445 2072.68 313.466 2072.68 317.487ZM2071.67 384.838C2071.67 391.875 2071.67 392.88 2080.72 393.885V397.906H2049.55V393.885C2057.6 393.885 2058.6 391.875 2058.6 384.838V356.692C2058.6 348.65 2058.6 348.65 2050.56 347.644V344.629C2056.59 343.623 2065.64 341.613 2071.67 339.602V384.838Z" fill="white"/>
<path d="M2106.92 348.62C2109.93 346.61 2111.94 345.604 2113.95 343.594C2117.97 340.578 2120.99 339.573 2125.01 339.573C2135.06 339.573 2141.1 346.61 2141.1 356.662V384.809C2141.1 391.845 2141.1 392.851 2149.14 392.851V396.872H2119.99V392.851C2127.02 392.851 2128.03 391.845 2128.03 384.809V359.678C2128.03 351.636 2124.01 347.615 2117.98 347.615C2111.94 347.615 2109.93 349.625 2105.91 352.641V383.803C2105.91 390.84 2105.91 391.845 2112.95 391.845V395.866H2083.8V391.845C2091.84 391.845 2092.84 390.84 2092.84 383.803V354.652C2092.84 346.61 2092.84 346.61 2084.8 345.604V342.589C2090.83 341.583 2099.88 339.573 2105.91 337.562V346.61L2106.92 348.62Z" fill="white"/>
<path d="M2171.2 324.513V340.597H2184.27C2186.28 342.607 2185.27 345.623 2184.27 346.628H2172.2V378.796C2172.2 388.848 2177.23 390.859 2179.24 390.859C2181.25 390.859 2184.27 390.859 2187.28 388.848L2189.29 391.864L2178.24 397.895C2176.22 398.901 2175.22 398.901 2174.21 398.901C2164.16 398.901 2160.14 393.874 2160.14 383.822V347.634H2151.09V345.623L2154.11 341.602H2159.14V333.56L2170.19 323.508H2172.2L2171.2 324.513Z" fill="white"/>
<path d="M2221.5 359.696C2223.51 359.696 2223.51 359.696 2223.51 355.675C2223.51 350.649 2219.49 343.612 2213.46 343.612C2207.43 343.612 2202.4 349.644 2201.4 359.696H2220.5H2221.5ZM2236.58 384.827C2229.55 395.885 2219.49 397.895 2216.48 397.895C2199.39 397.895 2189.34 385.832 2189.34 370.754C2189.34 354.67 2201.4 338.586 2217.48 338.586C2233.57 338.586 2236.58 347.633 2236.58 356.68C2236.58 365.727 2236.58 361.706 2233.57 361.706C2231.56 361.706 2215.47 363.717 2201.4 363.717C2201.4 379.801 2211.45 386.837 2220.5 386.837C2229.55 386.837 2228.54 384.827 2233.57 381.811L2235.58 383.822L2236.58 384.827Z" fill="white"/>
<path d="M2261.7 352.67C2264.71 347.643 2269.74 339.602 2275.77 339.602C2281.8 339.602 2283.81 343.623 2283.81 346.638C2283.81 349.654 2281.8 353.675 2278.79 354.68C2277.78 354.68 2275.77 354.68 2274.77 354.68C2272.76 352.67 2270.75 351.664 2268.74 351.664C2266.72 351.664 2263.71 353.675 2260.69 358.701V384.837C2260.69 391.874 2260.69 392.879 2270.75 393.884V397.905H2238.58V393.884C2246.62 393.884 2246.62 391.874 2246.62 384.837V356.691C2246.62 348.649 2246.62 348.649 2238.58 347.643V344.628C2244.61 343.623 2253.66 341.612 2259.69 339.602V352.67H2261.7Z" fill="white"/>
<path d="M2309.93 348.62C2312.94 346.61 2314.95 345.604 2316.96 343.594C2320.98 340.578 2324 339.573 2328.02 339.573C2338.07 339.573 2344.1 346.61 2344.1 356.662V384.809C2344.1 391.845 2344.1 392.851 2352.15 392.851V396.872H2322.99V392.851C2330.03 392.851 2331.04 391.845 2331.04 384.809V359.678C2331.04 351.636 2327.01 347.615 2320.98 347.615C2314.95 347.615 2312.94 349.625 2308.92 352.641V383.803C2308.92 390.84 2308.92 391.845 2315.96 391.845V395.866H2286.8V391.845C2294.85 391.845 2295.85 390.84 2295.85 383.803V354.652C2295.85 346.61 2295.85 346.61 2287.81 345.604V342.589C2293.84 341.583 2302.89 339.573 2308.92 337.562V346.61L2309.93 348.62Z" fill="white"/>
<path d="M2387.3 365.678C2384.29 366.683 2379.26 369.699 2377.25 370.704C2373.23 372.714 2371.22 375.73 2371.22 380.756C2371.22 387.793 2375.24 390.809 2379.26 390.809C2383.28 390.809 2385.29 388.798 2388.31 386.788V366.683L2387.3 365.678ZM2409.42 391.814L2396.35 398.851C2390.32 398.851 2388.31 393.825 2387.3 390.809C2382.28 393.825 2375.24 398.851 2372.22 398.851C2362.17 398.851 2356.14 390.809 2356.14 383.772C2356.14 376.735 2359.16 372.714 2366.19 370.704C2372.22 367.688 2382.28 364.673 2387.3 361.657V358.641C2387.3 350.599 2384.29 347.584 2378.26 347.584C2372.22 347.584 2374.23 348.589 2373.23 349.594C2371.22 351.605 2370.21 354.62 2369.21 358.641C2369.21 360.652 2367.2 361.657 2365.19 361.657C2363.18 361.657 2358.15 358.641 2358.15 355.625C2358.15 352.61 2359.16 351.605 2362.17 349.594C2366.19 346.578 2374.23 341.552 2383.28 340.547C2387.3 340.547 2391.32 341.552 2394.34 343.563C2399.37 347.584 2399.37 351.604 2399.37 355.625V382.767C2399.37 387.793 2401.38 389.804 2403.39 389.804C2405.4 389.804 2406.4 389.804 2408.41 387.793V390.809L2409.42 391.814Z" fill="white"/>
<path d="M2429.58 324.513V340.597H2442.65C2444.66 342.607 2443.65 345.623 2442.65 346.628H2430.59V378.796C2430.59 388.848 2435.61 390.859 2437.62 390.859C2439.63 390.859 2442.65 390.859 2445.67 388.848L2447.68 391.864L2436.62 397.895C2434.61 398.901 2433.6 398.901 2432.6 398.901C2422.54 398.901 2418.52 393.874 2418.52 383.822V347.634H2409.48V345.623L2412.49 341.602H2417.52V333.56L2428.58 323.508H2430.59L2429.58 324.513Z" fill="white"/>
<path d="M2472.79 317.487C2472.79 321.508 2468.77 325.529 2464.75 325.529C2460.73 325.529 2456.71 321.508 2456.71 317.487C2456.71 313.466 2460.73 309.445 2464.75 309.445C2468.77 309.445 2472.79 313.466 2472.79 317.487ZM2471.79 384.838C2471.79 391.875 2471.79 392.88 2480.83 393.885V397.906H2449.67V393.885C2457.71 393.885 2458.72 391.875 2458.72 384.838V356.692C2458.72 348.65 2458.72 348.65 2450.68 347.644V344.629C2456.71 343.623 2465.76 341.613 2471.79 339.602V384.838Z" fill="white"/>
<path d="M2524.04 370.764C2524.04 354.68 2519.01 344.628 2508.96 344.628C2498.9 344.628 2496.89 352.67 2496.89 366.743C2496.89 380.816 2502.93 393.884 2511.97 393.884C2521.02 393.884 2524.04 388.858 2524.04 370.764ZM2540.12 367.748C2540.12 387.853 2525.04 397.905 2511.97 397.905C2498.9 397.905 2482.82 383.832 2482.82 369.759C2482.82 349.654 2498.9 339.602 2511.97 339.602C2525.04 339.602 2540.12 352.67 2540.12 367.748Z" fill="white"/>
<path d="M2565.24 348.62C2568.25 346.61 2570.26 345.604 2572.27 343.594C2576.3 340.578 2579.31 339.573 2583.33 339.573C2593.38 339.573 2599.42 346.61 2599.42 356.662V384.809C2599.42 391.845 2599.42 392.851 2607.46 392.851V396.872H2578.31V392.851C2585.34 392.851 2586.35 391.845 2586.35 384.809V359.678C2586.35 351.636 2582.33 347.615 2576.3 347.615C2570.26 347.615 2568.25 349.625 2564.23 352.641V383.803C2564.23 390.84 2564.23 391.845 2571.27 391.845V395.866H2542.12V391.845C2550.16 391.845 2551.16 390.84 2551.16 383.803V354.652C2551.16 346.61 2551.16 346.61 2543.12 345.604V342.589C2549.15 341.583 2558.2 339.573 2564.23 337.562V346.61L2565.24 348.62Z" fill="white"/>
<path d="M2641.7 365.678C2638.68 366.683 2633.65 369.699 2631.64 370.704C2627.62 372.714 2625.61 375.73 2625.61 380.756C2625.61 387.793 2629.63 390.809 2633.65 390.809C2637.68 390.809 2639.69 388.798 2642.7 386.788V366.683L2641.7 365.678ZM2664.82 391.814L2651.75 398.851C2645.72 398.851 2643.71 393.825 2642.7 390.809C2637.68 393.825 2630.64 398.851 2627.62 398.851C2617.57 398.851 2611.54 390.809 2611.54 383.772C2611.54 376.735 2614.55 372.714 2621.59 370.704C2627.62 367.688 2637.68 364.673 2642.7 361.657V358.641C2642.7 350.599 2639.69 347.584 2633.65 347.584C2627.62 347.584 2629.63 348.589 2628.63 349.594C2626.62 351.605 2625.61 354.62 2624.61 358.641C2624.61 360.652 2622.6 361.657 2620.59 361.657C2618.58 361.657 2613.55 358.641 2613.55 355.625C2613.55 352.61 2614.55 351.605 2617.57 349.594C2621.59 346.578 2629.63 341.552 2638.68 340.547C2642.7 340.547 2646.72 341.552 2649.74 343.563C2654.76 347.584 2654.76 351.604 2654.76 355.625V382.767C2654.76 387.793 2656.77 389.804 2658.79 389.804C2660.8 389.804 2661.8 389.804 2663.81 387.793V390.809L2664.82 391.814Z" fill="white"/>
<path d="M2688.95 384.784C2688.95 391.82 2688.95 392.825 2698 393.831V397.852H2666.84V393.831C2674.88 393.831 2675.88 391.82 2675.88 384.784V321.454C2675.88 313.412 2675.88 313.412 2666.84 313.412V310.396C2671.86 310.396 2681.91 307.38 2688.95 306.375V384.784Z" fill="white"/>
<path d="M383.884 358.702H403.988L393.936 330.555L383.884 358.702ZM400.973 309.445L410.02 333.571C416.051 349.655 421.077 364.733 426.104 377.802C430.125 388.859 432.135 389.864 440.177 390.87V394.891H405.999V390.87H410.02C415.046 389.864 415.046 387.854 414.041 383.833C413.036 379.812 410.02 371.77 407.004 365.739H382.878C380.868 369.76 378.857 376.796 376.847 381.822C374.836 388.859 375.842 389.864 380.868 390.87H384.889V394.891H356.742V390.87C364.784 389.864 365.789 388.859 370.816 377.802L396.952 311.456L401.978 309.445H400.973Z" fill="white"/>
<path d="M459.305 374.756C459.305 383.803 464.331 386.819 469.358 386.819C474.384 386.819 477.4 384.809 481.421 381.793V349.625C481.421 344.599 481.421 344.599 476.394 343.594H472.373V339.573C478.405 339.573 488.457 337.562 494.489 337.562V380.788C494.489 385.814 494.489 386.819 498.51 386.819H503.536V390.84C496.499 390.84 488.457 393.856 482.426 395.866H481.421V386.819C478.405 388.83 476.394 390.84 473.379 392.851C469.358 394.861 466.342 396.872 462.321 396.872C452.269 396.872 445.232 390.84 445.232 379.783V350.631C445.232 345.604 444.227 345.604 441.211 344.599H438.195V340.578C443.222 340.578 453.274 338.568 459.305 338.568V375.762V374.756Z" fill="white"/>
<path d="M524.652 321.443V337.527H537.72C539.73 339.537 538.725 342.553 537.72 343.558H525.657V375.726C525.657 385.778 530.683 387.788 532.694 387.788C534.704 387.788 537.72 387.788 540.735 385.778L542.746 388.794L531.688 394.825C529.678 395.83 528.673 395.83 527.667 395.83C517.615 395.83 513.594 390.804 513.594 380.752V344.563H504.547V342.553L507.563 338.532H512.589V330.49L523.646 320.438H525.657L524.652 321.443Z" fill="white"/>
<path d="M565.842 345.569C569.863 341.548 576.899 337.527 582.931 337.527C594.994 337.527 601.025 344.564 601.025 356.627V382.763C601.025 389.799 601.025 390.805 609.067 391.81V395.831H580.92V391.81C587.957 391.81 587.957 390.805 587.957 382.763V359.642C587.957 350.595 583.936 346.574 576.899 346.574C569.863 346.574 568.858 348.585 565.842 351.6V383.768C565.842 390.805 565.842 391.81 572.878 392.815V396.836H543.727V392.815C551.768 392.815 552.774 391.81 552.774 383.768V320.438C552.774 313.401 552.774 312.396 544.732 312.396V309.38C549.758 309.38 559.81 306.365 565.842 305.359V347.579V345.569Z" fill="white"/>
<path d="M654.283 367.709C654.283 351.625 649.256 341.573 639.204 341.573C629.152 341.573 627.141 349.615 627.141 363.688C627.141 377.762 633.173 390.83 642.22 390.83C651.267 390.83 654.283 385.804 654.283 367.709ZM669.361 364.694C669.361 384.798 654.283 394.851 641.214 394.851C628.146 394.851 612.062 380.777 612.062 366.704C612.062 346.599 628.146 336.547 641.214 336.547C654.283 336.547 669.361 349.615 669.361 364.694Z" fill="white"/>
<path d="M694.55 349.615C697.566 344.589 702.592 336.547 708.624 336.547C714.655 336.547 716.665 340.568 716.665 343.584C716.665 346.599 714.655 350.62 711.639 351.625C710.634 351.625 708.624 351.625 707.618 351.625C705.608 349.615 703.597 348.61 701.587 348.61C699.576 348.61 696.561 350.62 693.545 355.646V381.783C693.545 388.819 693.545 389.824 703.597 390.83V394.851H671.43V390.83C679.472 390.83 679.472 388.819 679.472 381.783V353.636C679.472 345.594 679.472 345.594 671.43 344.589V341.573C677.461 340.568 686.508 338.557 692.54 336.547V349.615H694.55Z" fill="white"/>
<path d="M743.8 315.456C743.8 319.477 739.779 323.498 735.758 323.498C731.737 323.498 727.716 319.477 727.716 315.456C727.716 311.435 731.737 307.414 735.758 307.414C739.779 307.414 743.8 311.435 743.8 315.456ZM742.795 381.802C742.795 388.838 742.795 389.844 751.842 390.849V394.87H720.68V390.849C728.722 390.849 729.727 388.838 729.727 381.802V353.655C729.727 345.613 729.727 345.613 721.685 344.608V341.592C727.716 340.587 736.764 338.576 742.795 336.566V381.802Z" fill="white"/>
<path d="M772.894 321.443V337.527H785.962C787.972 339.537 786.967 342.553 785.962 343.558H773.899V375.726C773.899 385.778 778.925 387.788 780.936 387.788C782.946 387.788 785.962 387.788 788.978 385.778L790.988 388.794L779.93 394.825C777.92 395.83 776.915 395.83 775.909 395.83C765.857 395.83 761.836 390.804 761.836 380.752V344.563H752.789V342.553L755.805 338.532H760.831V330.49L771.889 320.438H773.899L772.894 321.443Z" fill="white"/>
<path d="M819.199 338.568V342.589H815.178C812.162 343.594 812.162 345.604 813.168 348.62L824.225 376.767C826.236 371.741 834.277 351.636 835.283 347.615C837.293 343.594 836.288 342.589 833.272 342.589H828.246V338.568H851.367V342.589C844.33 343.594 843.325 343.594 840.309 351.636C837.293 358.673 832.267 369.73 824.225 386.819C816.183 406.924 813.167 414.966 810.152 422.003C810.152 425.018 807.136 425.018 806.131 425.018C802.11 425.018 799.094 420.997 799.094 418.987C799.094 416.976 800.099 415.971 802.11 413.961C806.131 410.945 809.147 407.929 811.157 402.903C812.162 400.893 814.173 396.872 814.173 394.861C814.173 393.856 814.173 392.851 814.173 390.84C808.141 374.756 801.105 357.667 798.089 350.631C795.073 343.594 794.068 342.589 787.031 341.583V337.562H816.183L819.199 338.568Z" fill="white"/>
</g>
<defs>
<clipPath id="clip0_1190_1101">
<rect width="2704.09" height="613.195" fill="white" transform="translate(0.90625 0.804688)"/>
</clipPath>
</defs>
</svg>
