<svg width="2705" height="614" viewBox="0 0 2705 614" fill="none" xmlns="http://www.w3.org/2000/svg">
<path d="M927.809 486.375C905.694 486.375 887.6 504.469 887.6 539.653C887.6 574.836 906.699 600.972 933.84 600.972C960.982 600.972 974.05 583.883 974.05 548.7C974.05 513.517 954.951 486.375 927.809 486.375ZM991.139 541.663C991.139 579.862 963.998 607.004 928.814 607.004C893.631 607.004 868.5 579.862 868.5 544.679C868.5 509.496 890.615 480.344 931.83 480.344C973.045 480.344 991.139 505.475 991.139 541.663Z" fill="#342A7B"/>
<path d="M1019.35 579.833C1019.35 593.906 1026.39 596.922 1031.42 596.922C1036.44 596.922 1038.45 595.917 1042.47 592.901L1044.48 596.922L1029.4 604.964C1027.39 604.964 1025.38 605.969 1023.37 605.969C1011.31 605.969 1005.28 597.927 1005.28 583.854V530.576H992.211V528.566L997.237 523.54H1006.28V511.477L1018.35 499.414H1020.36V523.54H1041.47C1042.47 525.55 1041.47 528.566 1040.46 530.576H1020.36V579.833H1019.35Z" fill="#342A7B"/>
<path d="M1068.58 579.833C1068.58 593.906 1075.62 596.922 1080.64 596.922C1085.67 596.922 1087.68 595.917 1091.7 592.901L1093.71 596.922L1078.63 604.964C1076.62 604.964 1074.61 605.969 1072.6 605.969C1060.54 605.969 1054.51 597.927 1054.51 583.854V530.576H1041.44V528.566L1046.46 523.54H1055.51V511.477L1067.57 499.414H1069.58V523.54H1090.69C1091.7 525.55 1090.69 528.566 1089.69 530.576H1069.58V579.833H1068.58Z" fill="#342A7B"/>
<path d="M1136.96 558.678C1132.94 560.689 1121.89 565.715 1117.87 567.725C1111.83 571.746 1107.81 574.762 1107.81 581.799C1107.81 591.851 1114.85 595.872 1119.88 595.872C1124.9 595.872 1130.93 592.856 1135.96 588.835V558.678H1136.96ZM1147.02 605.924C1140.99 604.919 1137.97 598.888 1136.96 593.862C1128.92 598.888 1118.87 605.924 1114.85 605.924C1101.78 605.924 1092.73 594.867 1092.73 584.814C1092.73 574.762 1096.76 569.736 1106.81 565.715C1115.85 561.694 1130.93 556.668 1136.96 552.647V546.615C1136.96 535.558 1131.94 528.521 1121.89 528.521C1111.83 528.521 1108.82 536.563 1106.81 544.605C1106.81 546.615 1104.8 548.626 1102.79 548.626C1099.77 548.626 1094.74 545.61 1094.74 542.594C1094.74 539.579 1096.76 537.568 1100.78 534.552C1104.8 531.537 1115.85 524.5 1128.92 521.484C1133.95 521.484 1139.98 523.495 1144 525.505C1150.03 530.532 1151.04 536.563 1151.04 543.6V585.82C1151.04 592.856 1153.05 595.872 1156.06 595.872C1159.08 595.872 1161.09 595.872 1164.11 593.862L1166.12 597.883L1147.02 606.93V605.924Z" fill="#342A7B"/>
<path d="M1186.19 604.948L1164.08 538.602C1161.06 528.55 1160.05 528.55 1151.01 527.544V523.523H1189.21V527.544H1181.16C1177.14 529.555 1176.14 531.565 1178.15 536.592L1193.23 582.833C1200.26 565.743 1207.3 546.644 1215.34 524.529H1219.36L1242.48 582.833C1246.51 569.764 1253.54 549.66 1256.56 536.592C1257.56 531.565 1256.56 529.555 1252.54 528.55H1245.5V523.523H1278.67V527.544C1269.63 528.55 1268.62 530.56 1264.6 541.618C1258.57 559.712 1250.53 580.822 1242.48 605.953H1237.46L1214.34 548.654C1207.3 566.749 1200.26 584.843 1192.22 605.953H1187.2L1186.19 604.948Z" fill="#342A7B"/>
<path d="M1315.87 558.678C1311.84 560.689 1300.79 565.715 1296.77 567.725C1290.73 571.746 1286.71 574.762 1286.71 581.799C1286.71 591.851 1293.75 595.872 1298.78 595.872C1303.8 595.872 1309.83 592.856 1314.86 588.835V558.678H1315.87ZM1326.92 605.924C1320.89 604.919 1317.88 598.888 1316.87 593.862C1308.83 598.888 1298.78 605.924 1294.76 605.924C1281.69 605.924 1272.64 594.867 1272.64 584.814C1272.64 574.762 1276.66 569.736 1286.71 565.715C1295.76 561.694 1310.84 556.668 1316.87 552.647V546.615C1316.87 535.558 1311.84 528.521 1301.79 528.521C1291.74 528.521 1288.72 536.563 1286.71 544.605C1286.71 546.615 1284.7 548.626 1282.69 548.626C1279.68 548.626 1274.65 545.61 1274.65 542.594C1274.65 539.579 1276.66 537.568 1280.68 534.552C1284.7 531.537 1295.76 524.5 1308.83 521.484C1313.86 521.484 1319.89 523.495 1323.91 525.505C1329.94 530.532 1330.94 536.563 1330.94 543.6V585.82C1330.94 592.856 1332.95 595.872 1335.97 595.872C1338.99 595.872 1341 595.872 1344.01 593.862L1346.02 597.883L1326.92 606.93V605.924Z" fill="#342A7B"/>
<path d="M1315.88 416.934C1275.67 432.013 1239.48 463.175 1199.27 484.285L1636.55 8.80744L1628.51 11.8232L1144.99 374.714L1125.89 344.557L905.742 426.987L1640.57 3.78125L1394.29 535.552L1315.88 417.939V416.934Z" fill="#342A7B"/>
<path d="M36.1886 204.836V208.857C26.1362 208.857 25.131 210.867 25.131 224.941V270.176C25.131 284.25 26.1362 285.255 36.1886 286.26V290.281H0V286.26C10.0524 286.26 11.0576 284.25 11.0576 270.176V224.941C11.0576 210.867 10.0524 209.862 0 208.857V204.836H36.1886Z" fill="#342A7B"/>
<path d="M64.3549 240.089C67.3706 238.078 69.381 237.073 71.3915 235.063C75.4125 232.047 78.4282 231.042 82.4491 231.042C92.5015 231.042 98.533 238.078 98.533 248.131V276.277C98.533 283.314 98.533 284.319 106.575 284.319V288.34H77.423V284.319C84.4596 284.319 85.4649 283.314 85.4649 276.277V251.146C85.4649 243.105 81.4439 239.084 75.4125 239.084C69.381 239.084 67.3706 241.094 63.3496 244.11V275.272C63.3496 282.309 63.3496 283.314 70.3863 283.314V287.335H41.2344V283.314C49.2763 283.314 50.2815 282.309 50.2815 275.272V246.12C50.2815 238.078 50.2815 238.078 42.2396 237.073V234.057C48.271 233.052 57.3182 231.042 63.3496 229.031V238.078L64.3549 240.089Z" fill="#342A7B"/>
<path d="M128.636 215.904V231.987H141.704C143.715 233.998 142.709 237.014 141.704 238.019H129.641V270.187C129.641 280.239 134.667 282.249 136.678 282.249C138.688 282.249 141.704 282.249 144.72 280.239L146.73 283.255L135.673 289.286C133.662 290.291 132.657 290.291 131.652 290.291C121.599 290.291 117.578 285.265 117.578 275.213V239.024H108.531V237.014L111.547 232.993H116.573V224.951L127.631 214.898H129.641L128.636 215.904Z" fill="#342A7B"/>
<path d="M178.941 252.102C180.952 252.102 180.952 252.102 180.952 248.081C180.952 243.055 176.931 236.018 170.899 236.018C164.868 236.018 159.842 242.05 158.836 252.102H177.936H178.941ZM194.02 277.233C186.983 288.291 176.931 290.301 173.915 290.301C156.826 290.301 146.773 278.238 146.773 263.16C146.773 247.076 158.836 230.992 174.92 230.992C191.004 230.992 194.02 240.039 194.02 249.086C194.02 258.134 194.02 254.113 191.004 254.113C188.993 254.113 172.91 256.123 158.836 256.123C158.836 272.207 168.889 279.244 177.936 279.244C186.983 279.244 185.978 277.233 191.004 274.217L193.014 276.228L194.02 277.233Z" fill="#342A7B"/>
<path d="M219.136 244.06C222.152 239.034 227.178 230.992 233.209 230.992C239.241 230.992 241.251 235.013 241.251 238.029C241.251 241.045 239.241 245.066 236.225 246.071C235.22 246.071 233.209 246.071 232.204 246.071C230.194 244.06 228.183 243.055 226.173 243.055C224.162 243.055 221.147 245.066 218.131 250.092V276.228C218.131 283.265 218.131 284.27 228.183 285.275V289.296H196.016V285.275C204.058 285.275 204.058 283.265 204.058 276.228V248.081C204.058 240.039 204.058 240.039 196.016 239.034V236.018C202.047 235.013 211.094 233.003 217.126 230.992V244.06H219.136Z" fill="#342A7B"/>
<path d="M267.363 240.089C270.378 238.078 272.389 237.073 274.399 235.063C278.42 232.047 281.436 231.042 285.457 231.042C295.509 231.042 301.541 238.078 301.541 248.131V276.277C301.541 283.314 301.541 284.319 309.583 284.319V288.34H280.431V284.319C287.467 284.319 288.473 283.314 288.473 276.277V251.146C288.473 243.105 284.452 239.084 278.42 239.084C272.389 239.084 270.378 241.094 266.357 244.11V275.272C266.357 282.309 266.357 283.314 273.394 283.314V287.335H244.242V283.314C252.284 283.314 253.289 282.309 253.289 275.272V246.12C253.289 238.078 253.289 238.078 245.247 237.073V234.057C251.279 233.052 260.326 231.042 266.357 229.031V238.078L267.363 240.089Z" fill="#342A7B"/>
<path d="M344.834 257.139C341.819 258.144 336.792 261.16 334.782 262.165C330.761 264.175 328.75 267.191 328.75 272.217C328.75 279.254 332.771 282.27 336.792 282.27C340.813 282.27 342.824 280.259 345.84 278.249V258.144L344.834 257.139ZM366.949 283.275L353.881 290.312C347.85 290.312 345.839 285.285 344.834 282.27C339.808 285.285 332.771 290.312 329.756 290.312C319.703 290.312 313.672 282.27 313.672 275.233C313.672 268.196 316.688 264.175 323.724 262.165C329.756 259.149 339.808 256.134 344.834 253.118V250.102C344.834 242.06 341.819 239.044 335.787 239.044C329.756 239.044 331.766 240.05 330.761 241.055C328.75 243.065 327.745 246.081 326.74 250.102C326.74 252.113 324.729 253.118 322.719 253.118C320.709 253.118 315.682 250.102 315.682 247.086C315.682 244.071 316.688 243.065 319.703 241.055C323.724 238.039 331.766 233.013 340.813 232.008C344.834 232.008 348.855 233.013 351.871 235.024C356.897 239.044 356.897 243.065 356.897 247.086V274.228C356.897 279.254 358.908 281.264 360.918 281.264C362.929 281.264 363.934 281.264 365.944 279.254V282.27L366.949 283.275Z" fill="#342A7B"/>
<path d="M387.019 215.904V231.987H400.087C402.097 233.998 401.092 237.014 400.087 238.019H388.024V270.187C388.024 280.239 393.05 282.249 395.061 282.249C397.071 282.249 400.087 282.249 403.103 280.239L405.113 283.255L394.056 289.286C392.045 290.291 391.04 290.291 390.035 290.291C379.982 290.291 375.961 285.265 375.961 275.213V239.024H366.914V237.014L369.93 232.993H374.956V224.951L386.014 214.898H388.024L387.019 215.904Z" fill="#342A7B"/>
<path d="M430.238 209.893C430.238 213.914 426.217 217.935 422.196 217.935C418.175 217.935 414.154 213.914 414.154 209.893C414.154 205.873 418.175 201.852 422.196 201.852C426.217 201.852 430.238 205.873 430.238 209.893ZM429.232 276.239C429.232 283.276 429.232 284.281 438.28 285.286V289.307H407.117V285.286C415.159 285.286 416.164 283.276 416.164 276.239V248.093C416.164 240.051 416.164 240.051 408.122 239.045V236.03C414.154 235.024 423.201 233.014 429.232 231.003V276.239Z" fill="#342A7B"/>
<path d="M482.486 262.165C482.486 246.081 477.459 236.029 467.407 236.029C457.355 236.029 455.344 244.071 455.344 258.144C455.344 272.217 461.376 285.285 470.423 285.285C479.47 285.285 482.486 280.259 482.486 262.165ZM497.564 260.154C497.564 280.259 482.486 290.312 469.418 290.312C456.349 290.312 440.266 276.238 440.266 262.165C440.266 242.06 456.349 232.008 469.418 232.008C482.486 232.008 497.564 245.076 497.564 260.154Z" fill="#342A7B"/>
<path d="M522.745 240.089C525.761 238.078 527.772 237.073 529.782 235.063C533.803 232.047 536.819 231.042 540.84 231.042C550.892 231.042 556.924 238.078 556.924 248.131V276.277C556.924 283.314 556.924 284.319 564.965 284.319V288.34H535.814V284.319C542.85 284.319 543.855 283.314 543.855 276.277V251.146C543.855 243.105 539.835 239.084 533.803 239.084C527.772 239.084 525.761 241.094 521.74 244.11V275.272C521.74 282.309 521.74 283.314 528.777 283.314V287.335H499.625V283.314C507.667 283.314 508.672 282.309 508.672 275.272V246.12C508.672 238.078 508.672 238.078 500.63 237.073V234.057C506.662 233.052 515.709 231.042 521.74 229.031V238.078L522.745 240.089Z" fill="#342A7B"/>
<path d="M599.142 257.139C596.126 258.144 591.1 261.16 589.089 262.165C585.068 264.175 583.058 267.191 583.058 272.217C583.058 279.254 587.079 282.27 591.1 282.27C595.121 282.27 597.131 280.259 600.147 278.249V258.144L599.142 257.139ZM622.262 283.275L609.194 290.312C603.162 290.312 601.152 285.285 600.147 282.27C595.121 285.285 588.084 290.312 585.068 290.312C575.016 290.312 568.984 282.27 568.984 275.233C568.984 268.196 572 264.175 579.037 262.165C585.068 259.149 595.121 256.134 600.147 253.118V250.102C600.147 242.06 597.131 239.044 591.1 239.044C585.068 239.044 587.079 240.05 586.073 241.055C584.063 243.065 583.058 246.081 582.053 250.102C582.053 252.113 580.042 253.118 578.032 253.118C576.021 253.118 570.995 250.102 570.995 247.086C570.995 244.071 572 243.065 575.016 241.055C579.037 238.039 587.079 233.013 596.126 232.008C600.147 232.008 604.168 233.013 607.183 235.024C612.21 239.044 612.21 243.065 612.21 247.086V274.228C612.21 279.254 614.22 281.264 616.231 281.264C618.241 281.264 619.246 281.264 621.257 279.254V282.27L622.262 283.275Z" fill="#342A7B"/>
<path d="M646.389 276.252C646.389 283.289 646.389 284.294 655.436 285.299V289.32H624.273V285.299C632.315 285.299 633.321 283.289 633.321 276.252V212.922C633.321 204.88 633.321 204.88 624.273 204.88V201.865C629.3 201.865 639.352 198.849 646.389 197.844V276.252Z" fill="#342A7B"/>
<path d="M707.712 253.147H727.817L717.764 225.001L707.712 253.147ZM724.801 203.891L733.848 228.016C739.879 244.1 744.906 259.179 749.932 272.247C753.953 283.304 755.963 284.31 764.005 285.315V289.336H729.827V285.315H733.848C738.874 284.31 738.874 282.299 737.869 278.278C736.864 274.257 733.848 266.215 730.832 260.184H706.707C704.696 264.205 702.686 271.242 700.675 276.268C698.665 283.304 699.67 284.31 704.696 285.315H708.717V289.336H680.57V285.315C688.612 284.31 689.617 283.304 694.644 272.247L720.78 205.901L725.806 203.891H724.801Z" fill="#342A7B"/>
<path d="M790.081 209.893C790.081 213.914 786.06 217.935 782.04 217.935C778.019 217.935 773.998 213.914 773.998 209.893C773.998 205.873 778.019 201.852 782.04 201.852C786.06 201.852 790.081 205.873 790.081 209.893ZM789.076 276.239C789.076 283.276 789.076 284.281 798.123 285.286V289.307H766.961V285.286C775.003 285.286 776.008 283.276 776.008 276.239V248.093C776.008 240.051 776.008 240.051 767.966 239.045V236.03C773.998 235.024 783.045 233.014 789.076 231.003V276.239Z" fill="#342A7B"/>
<path d="M823.308 244.06C826.324 239.034 831.35 230.992 837.381 230.992C843.413 230.992 845.423 235.013 845.423 238.029C845.423 241.045 843.413 245.066 840.397 246.071C839.392 246.071 837.381 246.071 836.376 246.071C834.366 244.06 832.355 243.055 830.345 243.055C828.334 243.055 825.319 245.066 822.303 250.092V276.228C822.303 283.265 822.303 284.27 832.355 285.275V289.296H800.188V285.275C808.229 285.275 808.229 283.265 808.229 276.228V248.081C808.229 240.039 808.229 240.039 800.188 239.034V236.018C806.219 235.013 815.266 233.003 821.297 230.992V244.06H823.308Z" fill="#342A7B"/>
<path d="M871.545 279.233C874.561 281.244 878.582 283.254 883.608 283.254C888.634 283.254 897.681 278.228 897.681 261.139C897.681 244.05 889.639 239.024 881.597 239.024C873.555 239.024 874.561 241.034 871.545 243.045V278.228V279.233ZM871.545 239.024L884.613 231.987C885.618 231.987 887.629 231.987 889.639 231.987C904.718 231.987 911.754 245.055 911.754 256.113C911.754 275.212 897.681 287.275 880.592 290.291C876.571 290.291 873.555 289.286 871.545 288.28V305.369C871.545 312.406 871.545 313.411 882.603 313.411V317.432H849.43V313.411C857.472 313.411 858.477 311.401 858.477 305.369V247.066C858.477 240.029 858.477 240.029 849.43 239.024V236.008C856.466 235.003 863.503 231.987 871.545 229.977V239.024Z" fill="#342A7B"/>
<path d="M959.97 262.165C959.97 246.081 954.944 236.029 944.891 236.029C934.839 236.029 932.829 244.071 932.829 258.144C932.829 272.217 938.86 285.285 947.907 285.285C956.954 285.285 959.97 280.259 959.97 262.165ZM975.049 260.154C975.049 280.259 959.97 290.312 946.902 290.312C933.834 290.312 917.75 276.238 917.75 262.165C917.75 242.06 933.834 232.008 946.902 232.008C959.97 232.008 975.049 245.076 975.049 260.154Z" fill="#342A7B"/>
<path d="M1000.25 244.06C1003.27 239.034 1008.3 230.992 1014.33 230.992C1020.36 230.992 1022.37 235.013 1022.37 238.029C1022.37 241.045 1020.36 245.066 1017.34 246.071C1016.34 246.071 1014.33 246.071 1013.32 246.071C1011.31 244.06 1009.3 243.055 1007.29 243.055C1005.28 243.055 1002.26 245.066 999.248 250.092V276.228C999.248 283.265 999.248 284.27 1009.3 285.275V289.296H977.133V285.275C985.175 285.275 985.175 283.265 985.175 276.228V248.081C985.175 240.039 985.175 240.039 977.133 239.034V236.018C983.164 235.013 992.211 233.003 998.243 230.992V244.06H1000.25Z" fill="#342A7B"/>
<path d="M1048.43 215.904V231.987H1061.49C1063.5 233.998 1062.5 237.014 1061.49 238.019H1049.43V270.187C1049.43 280.239 1054.46 282.249 1056.47 282.249C1058.48 282.249 1061.49 282.249 1064.51 280.239L1066.52 283.255L1055.46 289.286C1053.45 290.291 1052.45 290.291 1051.44 290.291C1041.39 290.291 1037.37 285.265 1037.37 275.213V239.024H1028.32V237.014L1031.34 232.993H1036.36V224.951L1047.42 214.898H1049.43L1048.43 215.904Z" fill="#342A7B"/>
<path d="M1651.62 253.147H1671.72L1661.67 225.001L1651.62 253.147ZM1668.71 203.891L1677.75 228.016C1683.79 244.1 1688.81 259.179 1693.84 272.247C1697.86 283.304 1699.87 284.31 1707.91 285.315V289.336H1673.73V285.315H1677.75C1682.78 284.31 1682.78 282.299 1681.78 278.278C1680.77 274.257 1677.75 266.215 1674.74 260.184H1650.61C1648.6 264.205 1646.59 271.242 1644.58 276.268C1642.57 283.304 1643.58 284.31 1648.6 285.315H1652.62V289.336H1624.48V285.315C1632.52 284.31 1633.52 283.304 1638.55 272.247L1664.69 205.901L1669.71 203.891H1668.71Z" fill="#342A7B"/>
<path d="M1748.1 243.061C1746.09 239.04 1742.07 237.03 1737.04 237.03C1732.02 237.03 1722.97 239.04 1722.97 259.145C1722.97 279.25 1732.02 281.26 1739.05 281.26C1746.09 281.26 1746.09 280.255 1749.11 278.245V242.056L1748.1 243.061ZM1761.17 275.229C1761.17 281.26 1761.17 281.26 1765.19 281.26H1770.22V285.281C1768.21 285.281 1757.15 287.292 1748.1 290.307V283.271L1739.05 288.297C1737.04 289.302 1735.03 290.307 1734.03 290.307C1722.97 290.307 1707.89 281.26 1707.89 262.161C1707.89 243.061 1721.96 230.998 1742.07 230.998C1762.17 230.998 1745.08 230.998 1748.1 230.998V211.899C1748.1 204.862 1748.1 203.857 1739.05 203.857V200.841C1746.09 199.836 1755.14 197.826 1761.17 196.82V274.224V275.229Z" fill="#342A7B"/>
<path d="M1783.28 248.081C1783.28 240.039 1783.28 240.039 1775.24 239.034V236.018C1781.27 235.013 1790.32 233.003 1796.35 230.992V240.039C1798.36 238.029 1801.37 237.024 1803.38 235.013C1807.4 231.997 1810.42 230.992 1814.44 230.992C1821.48 230.992 1827.51 235.013 1829.52 241.045C1832.54 239.034 1835.55 237.024 1838.57 235.013C1842.59 233.003 1845.6 230.992 1849.62 230.992C1860.68 230.992 1865.71 238.029 1865.71 248.081V276.228C1865.71 283.265 1865.71 284.27 1873.75 285.275V289.296H1844.6V285.275C1851.64 285.275 1852.64 284.27 1852.64 276.228V252.102C1852.64 244.06 1849.62 240.039 1842.59 240.039C1835.55 240.039 1834.55 242.05 1830.53 245.066C1830.53 246.071 1830.53 247.076 1830.53 248.081V276.228C1830.53 283.265 1830.53 284.27 1837.56 285.275V289.296H1809.42V285.275C1816.45 285.275 1817.46 284.27 1817.46 276.228V252.102C1817.46 244.06 1814.44 240.039 1807.4 240.039C1800.37 240.039 1799.36 242.05 1795.34 245.066V276.228C1795.34 283.265 1795.34 284.27 1802.38 285.275V289.296H1773.23V285.275C1781.27 285.275 1782.27 284.27 1782.27 276.228V248.081H1783.28Z" fill="#342A7B"/>
<path d="M1901.88 209.893C1901.88 213.914 1897.85 217.935 1893.83 217.935C1889.81 217.935 1885.79 213.914 1885.79 209.893C1885.79 205.873 1889.81 201.852 1893.83 201.852C1897.85 201.852 1901.88 205.873 1901.88 209.893ZM1899.87 276.239C1899.87 283.276 1899.87 284.281 1908.91 285.286V289.307H1877.75V285.286C1885.79 285.286 1886.8 283.276 1886.8 276.239V248.093C1886.8 240.051 1886.8 240.051 1878.76 239.045V236.03C1884.79 235.024 1893.83 233.014 1899.87 231.003V276.239Z" fill="#342A7B"/>
<path d="M1935.11 240.089C1938.13 238.078 1940.14 237.073 1942.15 235.063C1946.17 232.047 1949.19 231.042 1953.21 231.042C1963.26 231.042 1969.29 238.078 1969.29 248.131V276.277C1969.29 283.314 1969.29 284.319 1977.33 284.319V288.34H1948.18V284.319C1955.22 284.319 1956.22 283.314 1956.22 276.277V251.146C1956.22 243.105 1952.2 239.084 1946.17 239.084C1940.14 239.084 1938.13 241.094 1934.11 244.11V275.272C1934.11 282.309 1934.11 283.314 1941.14 283.314V287.335H1911.99V283.314C1920.03 283.314 1921.04 282.309 1921.04 275.272V246.12C1921.04 238.078 1921.04 238.078 1913 237.073V234.057C1919.03 233.052 1928.08 231.042 1934.11 229.031V238.078L1935.11 240.089Z" fill="#342A7B"/>
<path d="M2006.49 209.893C2006.49 213.914 2002.47 217.935 1998.45 217.935C1994.43 217.935 1990.41 213.914 1990.41 209.893C1990.41 205.873 1994.43 201.852 1998.45 201.852C2002.47 201.852 2006.49 205.873 2006.49 209.893ZM2004.48 276.239C2004.48 283.276 2004.48 284.281 2013.53 285.286V289.307H1982.37V285.286C1990.41 285.286 1991.41 283.276 1991.41 276.239V248.093C1991.41 240.051 1991.41 240.051 1983.37 239.045V236.03C1989.4 235.024 1998.45 233.014 2004.48 231.003V276.239Z" fill="#342A7B"/>
<path d="M2020.56 270.196C2022.57 278.238 2029.61 285.275 2036.65 285.275C2043.68 285.275 2045.69 282.259 2045.69 277.233C2045.69 272.207 2042.68 269.191 2035.64 266.176C2028.6 263.16 2019.56 258.134 2019.56 249.086C2019.56 240.039 2026.59 231.997 2039.66 230.992C2043.68 230.992 2048.71 231.997 2051.73 233.003C2052.73 236.018 2054.74 244.06 2054.74 246.071H2050.72C2046.7 238.029 2041.67 236.018 2037.65 236.018C2033.63 236.018 2030.62 239.034 2030.62 244.06C2030.62 249.086 2034.64 252.102 2040.67 254.113C2050.72 258.134 2057.76 263.16 2057.76 272.207C2057.76 281.254 2045.69 290.301 2035.64 290.301C2025.59 290.301 2022.57 287.286 2019.56 285.275C2019.56 283.265 2017.55 275.223 2017.55 270.196H2020.56Z" fill="#342A7B"/>
<path d="M2081.87 216.919V233.003H2094.94C2096.95 235.014 2095.94 238.029 2094.94 239.035H2082.88V271.202C2082.88 281.255 2087.9 283.265 2089.91 283.265C2091.92 283.265 2094.94 283.265 2097.95 281.255L2099.96 284.27L2088.91 290.302C2086.9 291.307 2085.89 291.307 2084.89 291.307C2074.83 291.307 2070.81 286.281 2070.81 276.228V240.04H2061.77V238.029L2064.78 234.008H2069.81V225.966L2080.87 215.914H2082.88L2081.87 216.919Z" fill="#342A7B"/>
<path d="M2124.07 244.06C2127.08 239.034 2132.11 230.992 2138.14 230.992C2144.17 230.992 2146.18 235.013 2146.18 238.029C2146.18 241.045 2144.17 245.066 2141.15 246.071C2140.15 246.071 2138.14 246.071 2137.13 246.071C2135.12 244.06 2133.11 243.055 2131.1 243.055C2129.09 243.055 2126.08 245.066 2123.06 250.092V276.228C2123.06 283.265 2123.06 284.27 2133.11 285.275V289.296H2100.95V285.275C2108.99 285.275 2108.99 283.265 2108.99 276.228V248.081C2108.99 240.039 2108.99 240.039 2100.95 239.034V236.018C2106.98 235.013 2116.02 233.003 2122.06 230.992V244.06H2124.07Z" fill="#342A7B"/>
<path d="M2180.33 257.139C2177.32 258.144 2172.29 261.16 2170.28 262.165C2166.26 264.175 2164.25 267.191 2164.25 272.217C2164.25 279.254 2168.27 282.27 2172.29 282.27C2176.31 282.27 2178.32 280.259 2181.34 278.249V258.144L2180.33 257.139ZM2202.45 283.275L2189.38 290.312C2183.35 290.312 2181.34 285.285 2180.33 282.27C2175.31 285.285 2168.27 290.312 2165.26 290.312C2155.2 290.312 2149.17 282.27 2149.17 275.233C2149.17 268.196 2152.19 264.175 2159.22 262.165C2165.26 259.149 2175.31 256.134 2180.33 253.118V250.102C2180.33 242.06 2177.32 239.044 2171.29 239.044C2165.26 239.044 2167.27 240.05 2166.26 241.055C2164.25 243.065 2163.25 246.081 2162.24 250.102C2162.24 252.113 2160.23 253.118 2158.22 253.118C2156.21 253.118 2151.18 250.102 2151.18 247.086C2151.18 244.071 2152.19 243.065 2155.2 241.055C2159.22 238.039 2167.27 233.013 2176.31 232.008C2180.33 232.008 2184.36 233.013 2187.37 235.024C2192.4 239.044 2192.4 243.065 2192.4 247.086V274.228C2192.4 279.254 2194.41 281.264 2196.42 281.264C2198.43 281.264 2199.43 281.264 2201.44 279.254V282.27L2202.45 283.275Z" fill="#342A7B"/>
<path d="M2222.59 216.919V233.003H2235.66C2237.67 235.014 2236.66 238.029 2235.66 239.035H2223.59V271.202C2223.59 281.255 2228.62 283.265 2230.63 283.265C2232.64 283.265 2235.66 283.265 2238.67 281.255L2240.68 284.27L2229.63 290.302C2227.62 291.307 2226.61 291.307 2225.6 291.307C2215.55 291.307 2211.53 286.281 2211.53 276.228V240.04H2202.48V238.029L2205.5 234.008H2210.53V225.966L2221.58 215.914H2223.59L2222.59 216.919Z" fill="#342A7B"/>
<path d="M2265.81 209.893C2265.81 213.914 2261.79 217.935 2257.77 217.935C2253.75 217.935 2249.73 213.914 2249.73 209.893C2249.73 205.873 2253.75 201.852 2257.77 201.852C2261.79 201.852 2265.81 205.873 2265.81 209.893ZM2263.8 276.239C2263.8 283.276 2263.8 284.281 2272.85 285.286V289.307H2241.69V285.286C2249.73 285.286 2250.73 283.276 2250.73 276.239V248.093C2250.73 240.051 2250.73 240.051 2242.69 239.045V236.03C2248.72 235.024 2257.77 233.014 2263.8 231.003V276.239Z" fill="#342A7B"/>
<path d="M2317.04 262.165C2317.04 246.081 2312.01 236.029 2301.96 236.029C2291.91 236.029 2289.9 244.071 2289.9 258.144C2289.9 272.217 2295.93 285.285 2304.98 285.285C2314.02 285.285 2317.04 280.259 2317.04 262.165ZM2332.12 260.154C2332.12 280.259 2317.04 290.312 2303.97 290.312C2290.9 290.312 2274.82 276.238 2274.82 262.165C2274.82 242.06 2290.9 232.008 2303.97 232.008C2317.04 232.008 2332.12 245.076 2332.12 260.154Z" fill="#342A7B"/>
<path d="M2358.26 240.089C2361.28 238.078 2363.29 237.073 2365.3 235.063C2369.32 232.047 2372.33 231.042 2376.36 231.042C2386.41 231.042 2392.44 238.078 2392.44 248.131V276.277C2392.44 283.314 2392.44 284.319 2400.48 284.319V288.34H2371.33V284.319C2378.37 284.319 2379.37 283.314 2379.37 276.277V251.146C2379.37 243.105 2375.35 239.084 2369.32 239.084C2363.29 239.084 2361.28 241.094 2357.26 244.11V275.272C2357.26 282.309 2357.26 283.314 2364.29 283.314V287.335H2335.14V283.314C2343.18 283.314 2344.19 282.309 2344.19 275.272V246.12C2344.19 238.078 2344.19 238.078 2336.15 237.073V234.057C2342.18 233.052 2351.22 231.042 2357.26 229.031V238.078L2358.26 240.089Z" fill="#342A7B"/>
<path d="M2471.87 243.061C2469.86 239.04 2465.83 237.03 2460.81 237.03C2455.78 237.03 2446.73 239.04 2446.73 259.145C2446.73 279.25 2455.78 281.26 2462.82 281.26C2469.86 281.26 2469.86 280.255 2472.87 278.245V242.056L2471.87 243.061ZM2484.93 275.229C2484.93 281.26 2484.93 281.26 2488.95 281.26H2493.98V285.281C2491.97 285.281 2480.91 287.292 2471.87 290.307V283.271L2462.82 288.297C2460.81 289.302 2458.8 290.307 2457.79 290.307C2446.73 290.307 2431.66 281.26 2431.66 262.161C2431.66 243.061 2445.73 230.998 2465.83 230.998C2485.94 230.998 2468.85 230.998 2471.87 230.998V211.899C2471.87 204.862 2471.87 203.857 2462.82 203.857V200.841C2469.86 199.836 2478.9 197.826 2484.93 196.82V274.224V275.229Z" fill="#342A7B"/>
<path d="M2528.14 252.102C2530.15 252.102 2530.15 252.102 2530.15 248.081C2530.15 243.055 2526.13 236.018 2520.1 236.018C2514.07 236.018 2509.04 242.05 2508.04 252.102H2527.14H2528.14ZM2543.22 277.233C2536.19 288.291 2526.13 290.301 2523.12 290.301C2506.03 290.301 2495.98 278.238 2495.98 263.16C2495.98 247.076 2508.04 230.992 2524.12 230.992C2540.21 230.992 2543.22 240.039 2543.22 249.086C2543.22 258.134 2543.22 254.113 2540.21 254.113C2538.2 254.113 2522.11 256.123 2508.04 256.123C2508.04 272.207 2518.09 279.244 2527.14 279.244C2536.19 279.244 2535.18 277.233 2540.21 274.217L2542.22 276.228L2543.22 277.233Z" fill="#342A7B"/>
<path d="M1565.15 384.784C1565.15 391.82 1565.15 392.825 1574.2 393.831V397.852H1543.04V393.831C1551.08 393.831 1552.09 391.82 1552.09 384.784V321.454C1552.09 313.412 1552.09 313.412 1543.04 313.412V310.396C1548.07 310.396 1558.12 307.38 1565.15 306.375V384.784Z" fill="#342A7B"/>
<path d="M1577.21 337.527C1584.25 334.511 1588.27 330.49 1588.27 324.459C1588.27 318.427 1584.25 316.417 1579.22 315.412C1579.22 315.412 1577.21 314.407 1577.21 311.391C1577.21 308.375 1581.23 305.359 1583.24 305.359C1589.27 305.359 1597.32 311.391 1597.32 320.438C1597.32 329.485 1587.26 338.532 1578.22 340.543V337.527H1577.21Z" fill="#342A7B"/>
<path d="M1625.48 365.678C1622.47 366.683 1617.44 369.699 1615.43 370.704C1611.41 372.714 1609.4 375.73 1609.4 380.756C1609.4 387.793 1613.42 390.809 1617.44 390.809C1621.46 390.809 1623.47 388.798 1626.49 386.788V366.683L1625.48 365.678ZM1647.6 391.814L1634.53 398.851C1628.5 398.851 1626.49 393.825 1625.48 390.809C1620.46 393.825 1613.42 398.851 1610.4 398.851C1600.35 398.851 1594.32 390.809 1594.32 383.772C1594.32 376.735 1597.34 372.714 1604.37 370.704C1610.4 367.688 1620.46 364.673 1625.48 361.657V358.641C1625.48 350.599 1622.47 347.584 1616.44 347.584C1610.4 347.584 1612.41 348.589 1611.41 349.594C1609.4 351.605 1608.39 354.62 1607.39 358.641C1607.39 360.652 1605.38 361.657 1603.37 361.657C1601.36 361.657 1596.33 358.641 1596.33 355.625C1596.33 352.61 1597.34 351.605 1600.35 349.594C1604.37 346.578 1612.41 341.552 1621.46 340.547C1625.48 340.547 1629.5 341.552 1632.52 343.563C1637.55 347.584 1637.55 351.604 1637.55 355.625V382.767C1637.55 387.793 1639.56 389.804 1641.57 389.804C1643.58 389.804 1644.58 389.804 1646.59 387.793V390.809L1647.6 391.814Z" fill="#342A7B"/>
<path d="M1667.71 333.521L1680.78 313.417C1682.79 310.401 1683.8 311.406 1685.81 312.411H1687.82C1690.83 315.427 1689.83 317.438 1687.82 319.448L1669.72 335.532L1666.71 333.521H1667.71ZM1681.78 359.658C1683.8 359.658 1683.8 359.658 1683.8 355.637C1683.8 350.611 1679.77 343.574 1673.74 343.574C1667.71 343.574 1662.69 349.605 1661.68 359.658H1680.78H1681.78ZM1696.86 384.789C1689.83 395.846 1679.77 397.857 1676.76 397.857C1659.67 397.857 1649.62 385.794 1649.62 370.715C1649.62 354.631 1661.68 338.548 1677.76 338.548C1693.85 338.548 1696.86 347.595 1696.86 356.642C1696.86 365.689 1696.86 361.668 1693.85 361.668C1691.84 361.668 1675.75 363.679 1661.68 363.679C1661.68 379.762 1671.73 386.799 1680.78 386.799C1689.83 386.799 1688.82 384.789 1693.85 381.773L1695.86 383.783L1696.86 384.789Z" fill="#342A7B"/>
<path d="M1721.98 352.67C1725 347.643 1730.02 339.602 1736.05 339.602C1742.08 339.602 1744.1 343.623 1744.1 346.638C1744.1 349.654 1742.08 353.675 1739.07 354.68C1738.06 354.68 1736.05 354.68 1735.05 354.68C1733.04 352.67 1731.03 351.664 1729.02 351.664C1727.01 351.664 1723.99 353.675 1720.97 358.701V384.837C1720.97 391.874 1720.97 392.879 1731.03 393.884V397.905H1698.86V393.884C1706.9 393.884 1706.9 391.874 1706.9 384.837V356.691C1706.9 348.649 1706.9 348.649 1698.86 347.643V344.628C1704.89 343.623 1713.94 341.612 1719.97 339.602V352.67H1721.98Z" fill="#342A7B"/>
<path d="M1789.29 370.764C1789.29 354.68 1784.26 344.628 1774.21 344.628C1764.16 344.628 1762.15 352.67 1762.15 366.743C1762.15 380.816 1768.18 393.884 1777.23 393.884C1786.27 393.884 1789.29 388.858 1789.29 370.764ZM1804.37 367.748C1804.37 387.853 1789.29 397.905 1776.22 397.905C1763.15 397.905 1747.07 383.832 1747.07 369.759C1747.07 349.654 1763.15 339.602 1776.22 339.602C1789.29 339.602 1804.37 352.67 1804.37 367.748Z" fill="#342A7B"/>
<path d="M1828.55 387.843C1831.57 389.853 1835.59 391.864 1840.62 391.864C1845.64 391.864 1854.69 386.837 1854.69 369.748C1854.69 352.659 1846.65 347.633 1838.61 347.633C1830.56 347.633 1831.57 349.644 1828.55 351.654V386.837V387.843ZM1828.55 347.633L1841.62 340.596C1842.63 340.596 1844.64 340.596 1846.65 340.596C1861.73 340.596 1868.76 353.665 1868.76 364.722C1868.76 383.822 1854.69 395.885 1837.6 398.9C1833.58 398.9 1830.56 397.895 1828.55 396.89V413.979C1828.55 421.015 1828.55 422.021 1839.61 422.021V426.042H1806.44V422.021C1814.48 422.021 1815.48 420.01 1815.48 413.979V355.675C1815.48 348.638 1815.48 348.638 1806.44 347.633V344.617C1813.47 343.612 1820.51 340.596 1828.55 338.586V347.633Z" fill="#342A7B"/>
<path d="M1916.99 370.764C1916.99 354.68 1911.97 344.628 1901.91 344.628C1891.86 344.628 1889.85 352.67 1889.85 366.743C1889.85 380.816 1895.88 393.884 1904.93 393.884C1913.98 393.884 1916.99 388.858 1916.99 370.764ZM1932.07 367.748C1932.07 387.853 1916.99 397.905 1903.93 397.905C1890.86 397.905 1874.77 383.832 1874.77 369.759C1874.77 349.654 1890.86 339.602 1903.93 339.602C1916.99 339.602 1932.07 352.67 1932.07 367.748Z" fill="#342A7B"/>
<path d="M1957.18 352.67C1960.2 347.643 1965.23 339.602 1971.26 339.602C1977.29 339.602 1979.3 343.623 1979.3 346.638C1979.3 349.654 1977.29 353.675 1974.27 354.68C1973.27 354.68 1971.26 354.68 1970.25 354.68C1968.24 352.67 1966.23 351.664 1964.22 351.664C1962.21 351.664 1959.19 353.675 1956.18 358.701V384.837C1956.18 391.874 1956.18 392.879 1966.23 393.884V397.905H1934.06V393.884C1942.1 393.884 1942.1 391.874 1942.1 384.837V356.691C1942.1 348.649 1942.1 348.649 1934.06 347.643V344.628C1940.09 343.623 1949.14 341.612 1955.17 339.602V352.67H1957.18Z" fill="#342A7B"/>
<path d="M2005.45 324.513V340.597H2018.52C2020.53 342.607 2019.52 345.623 2018.52 346.628H2006.45V378.796C2006.45 388.848 2011.48 390.859 2013.49 390.859C2015.5 390.859 2018.52 390.859 2021.53 388.848L2023.54 391.864L2012.49 397.895C2010.47 398.901 2009.47 398.901 2008.46 398.901C1998.41 398.901 1994.39 393.874 1994.39 383.822V347.634H1985.34V345.623L1988.36 341.602H1993.39V333.56L2004.44 323.508H2006.45L2005.45 324.513Z" fill="#342A7B"/>
<path d="M2071.77 317.487C2071.77 321.508 2067.75 325.529 2063.73 325.529C2059.71 325.529 2055.69 321.508 2055.69 317.487C2055.69 313.466 2059.71 309.445 2063.73 309.445C2067.75 309.445 2071.77 313.466 2071.77 317.487ZM2070.76 384.838C2070.76 391.875 2070.76 392.88 2079.81 393.885V397.906H2048.65V393.885C2056.69 393.885 2057.7 391.875 2057.7 384.838V356.692C2057.7 348.65 2057.7 348.65 2049.65 347.644V344.629C2055.69 343.623 2064.73 341.613 2070.76 339.602V384.838Z" fill="#342A7B"/>
<path d="M2106.01 348.62C2109.03 346.61 2111.04 345.604 2113.05 343.594C2117.07 340.578 2120.08 339.573 2124.11 339.573C2134.16 339.573 2140.19 346.61 2140.19 356.662V384.809C2140.19 391.845 2140.19 392.851 2148.23 392.851V396.872H2119.08V392.851C2126.12 392.851 2127.12 391.845 2127.12 384.809V359.678C2127.12 351.636 2123.1 347.615 2117.07 347.615C2111.04 347.615 2109.03 349.625 2105.01 352.641V383.803C2105.01 390.84 2105.01 391.845 2112.04 391.845V395.866H2082.89V391.845C2090.93 391.845 2091.94 390.84 2091.94 383.803V354.652C2091.94 346.61 2091.94 346.61 2083.9 345.604V342.589C2089.93 341.583 2098.97 339.573 2105.01 337.562V346.61L2106.01 348.62Z" fill="#342A7B"/>
<path d="M2170.29 324.513V340.597H2183.36C2185.37 342.607 2184.37 345.623 2183.36 346.628H2171.3V378.796C2171.3 388.848 2176.32 390.859 2178.33 390.859C2180.34 390.859 2183.36 390.859 2186.38 388.848L2188.39 391.864L2177.33 397.895C2175.32 398.901 2174.31 398.901 2173.31 398.901C2163.26 398.901 2159.23 393.874 2159.23 383.822V347.634H2150.19V345.623L2153.2 341.602H2158.23V333.56L2169.29 323.508H2171.3L2170.29 324.513Z" fill="#342A7B"/>
<path d="M2220.6 359.696C2222.61 359.696 2222.61 359.696 2222.61 355.675C2222.61 350.649 2218.59 343.612 2212.56 343.612C2206.52 343.612 2201.5 349.644 2200.49 359.696H2219.59H2220.6ZM2235.68 384.827C2228.64 395.885 2218.59 397.895 2215.57 397.895C2198.48 397.895 2188.43 385.832 2188.43 370.754C2188.43 354.67 2200.49 338.586 2216.58 338.586C2232.66 338.586 2235.68 347.633 2235.68 356.68C2235.68 365.727 2235.68 361.706 2232.66 361.706C2230.65 361.706 2214.57 363.717 2200.49 363.717C2200.49 379.801 2210.54 386.837 2219.59 386.837C2228.64 386.837 2227.63 384.827 2232.66 381.811L2234.67 383.822L2235.68 384.827Z" fill="#342A7B"/>
<path d="M2260.79 352.67C2263.81 347.643 2268.83 339.602 2274.87 339.602C2280.9 339.602 2282.91 343.623 2282.91 346.638C2282.91 349.654 2280.9 353.675 2277.88 354.68C2276.88 354.68 2274.87 354.68 2273.86 354.68C2271.85 352.67 2269.84 351.664 2267.83 351.664C2265.82 351.664 2262.8 353.675 2259.79 358.701V384.837C2259.79 391.874 2259.79 392.879 2269.84 393.884V397.905H2237.67V393.884C2245.71 393.884 2245.71 391.874 2245.71 384.837V356.691C2245.71 348.649 2245.71 348.649 2237.67 347.643V344.628C2243.7 343.623 2252.75 341.612 2258.78 339.602V352.67H2260.79Z" fill="#342A7B"/>
<path d="M2309.02 348.62C2312.03 346.61 2314.05 345.604 2316.06 343.594C2320.08 340.578 2323.09 339.573 2327.11 339.573C2337.17 339.573 2343.2 346.61 2343.2 356.662V384.809C2343.2 391.845 2343.2 392.851 2351.24 392.851V396.872H2322.09V392.851C2329.12 392.851 2330.13 391.845 2330.13 384.809V359.678C2330.13 351.636 2326.11 347.615 2320.08 347.615C2314.05 347.615 2312.03 349.625 2308.01 352.641V383.803C2308.01 390.84 2308.01 391.845 2315.05 391.845V395.866H2285.9V391.845C2293.94 391.845 2294.95 390.84 2294.95 383.803V354.652C2294.95 346.61 2294.95 346.61 2286.9 345.604V342.589C2292.94 341.583 2301.98 339.573 2308.01 337.562V346.61L2309.02 348.62Z" fill="#342A7B"/>
<path d="M2386.4 365.678C2383.38 366.683 2378.35 369.699 2376.34 370.704C2372.32 372.714 2370.31 375.73 2370.31 380.756C2370.31 387.793 2374.33 390.809 2378.35 390.809C2382.38 390.809 2384.39 388.798 2387.4 386.788V366.683L2386.4 365.678ZM2408.51 391.814L2395.44 398.851C2389.41 398.851 2387.4 393.825 2386.4 390.809C2381.37 393.825 2374.33 398.851 2371.32 398.851C2361.27 398.851 2355.23 390.809 2355.23 383.772C2355.23 376.735 2358.25 372.714 2365.29 370.704C2371.32 367.688 2381.37 364.673 2386.4 361.657V358.641C2386.4 350.599 2383.38 347.584 2377.35 347.584C2371.32 347.584 2373.33 348.589 2372.32 349.594C2370.31 351.605 2369.31 354.62 2368.3 358.641C2368.3 360.652 2366.29 361.657 2364.28 361.657C2362.27 361.657 2357.24 358.641 2357.24 355.625C2357.24 352.61 2358.25 351.605 2361.27 349.594C2365.29 346.578 2373.33 341.552 2382.38 340.547C2386.4 340.547 2390.42 341.552 2393.43 343.563C2398.46 347.584 2398.46 351.604 2398.46 355.625V382.767C2398.46 387.793 2400.47 389.804 2402.48 389.804C2404.49 389.804 2405.5 389.804 2407.51 387.793V390.809L2408.51 391.814Z" fill="#342A7B"/>
<path d="M2428.68 324.513V340.597H2441.74C2443.75 342.607 2442.75 345.623 2441.74 346.628H2429.68V378.796C2429.68 388.848 2434.71 390.859 2436.72 390.859C2438.73 390.859 2441.74 390.859 2444.76 388.848L2446.77 391.864L2435.71 397.895C2433.7 398.901 2432.7 398.901 2431.69 398.901C2421.64 398.901 2417.62 393.874 2417.62 383.822V347.634H2408.57V345.623L2411.59 341.602H2416.61V333.56L2427.67 323.508H2429.68L2428.68 324.513Z" fill="#342A7B"/>
<path d="M2471.89 317.487C2471.89 321.508 2467.87 325.529 2463.84 325.529C2459.82 325.529 2455.8 321.508 2455.8 317.487C2455.8 313.466 2459.82 309.445 2463.84 309.445C2467.87 309.445 2471.89 313.466 2471.89 317.487ZM2470.88 384.838C2470.88 391.875 2470.88 392.88 2479.93 393.885V397.906H2448.77V393.885C2456.81 393.885 2457.81 391.875 2457.81 384.838V356.692C2457.81 348.65 2457.81 348.65 2449.77 347.644V344.629C2455.8 343.623 2464.85 341.613 2470.88 339.602V384.838Z" fill="#342A7B"/>
<path d="M2523.13 370.764C2523.13 354.68 2518.1 344.628 2508.05 344.628C2498 344.628 2495.99 352.67 2495.99 366.743C2495.99 380.816 2502.02 393.884 2511.07 393.884C2520.11 393.884 2523.13 388.858 2523.13 370.764ZM2539.21 367.748C2539.21 387.853 2524.13 397.905 2511.07 397.905C2498 397.905 2481.91 383.832 2481.91 369.759C2481.91 349.654 2498 339.602 2511.07 339.602C2524.13 339.602 2539.21 352.67 2539.21 367.748Z" fill="#342A7B"/>
<path d="M2564.33 348.62C2567.35 346.61 2569.36 345.604 2571.37 343.594C2575.39 340.578 2578.4 339.573 2582.43 339.573C2592.48 339.573 2598.51 346.61 2598.51 356.662V384.809C2598.51 391.845 2598.51 392.851 2606.55 392.851V396.872H2577.4V392.851C2584.44 392.851 2585.44 391.845 2585.44 384.809V359.678C2585.44 351.636 2581.42 347.615 2575.39 347.615C2569.36 347.615 2567.35 349.625 2563.33 352.641V383.803C2563.33 390.84 2563.33 391.845 2570.36 391.845V395.866H2541.21V391.845C2549.25 391.845 2550.26 390.84 2550.26 383.803V354.652C2550.26 346.61 2550.26 346.61 2542.22 345.604V342.589C2548.25 341.583 2557.29 339.573 2563.33 337.562V346.61L2564.33 348.62Z" fill="#342A7B"/>
<path d="M2640.79 365.678C2637.77 366.683 2632.75 369.699 2630.74 370.704C2626.72 372.714 2624.71 375.73 2624.71 380.756C2624.71 387.793 2628.73 390.809 2632.75 390.809C2636.77 390.809 2638.78 388.798 2641.79 386.788V366.683L2640.79 365.678ZM2663.91 391.814L2650.84 398.851C2644.81 398.851 2642.8 393.825 2641.79 390.809C2636.77 393.825 2629.73 398.851 2626.72 398.851C2616.66 398.851 2610.63 390.809 2610.63 383.772C2610.63 376.735 2613.65 372.714 2620.69 370.704C2626.72 367.688 2636.77 364.673 2641.79 361.657V358.641C2641.79 350.599 2638.78 347.584 2632.75 347.584C2626.72 347.584 2628.73 348.589 2627.72 349.594C2625.71 351.605 2624.71 354.62 2623.7 358.641C2623.7 360.652 2621.69 361.657 2619.68 361.657C2617.67 361.657 2612.64 358.641 2612.64 355.625C2612.64 352.61 2613.65 351.605 2616.66 349.594C2620.68 346.578 2628.73 341.552 2637.77 340.547C2641.8 340.547 2645.82 341.552 2648.83 343.563C2653.86 347.584 2653.86 351.604 2653.86 355.625V382.767C2653.86 387.793 2655.87 389.804 2657.88 389.804C2659.89 389.804 2660.89 389.804 2662.91 387.793V390.809L2663.91 391.814Z" fill="#342A7B"/>
<path d="M2688.04 384.784C2688.04 391.82 2688.04 392.825 2697.09 393.831V397.852H2665.93V393.831C2673.97 393.831 2674.98 391.82 2674.98 384.784V321.454C2674.98 313.412 2674.98 313.412 2665.93 313.412V310.396C2670.96 310.396 2681.01 307.38 2688.04 306.375V384.784Z" fill="#342A7B"/>
<path d="M382.977 358.702H403.082L393.03 330.555L382.977 358.702ZM400.066 309.445L409.114 333.571C415.145 349.655 420.171 364.733 425.197 377.802C429.218 388.859 431.229 389.864 439.271 390.87V394.891H405.093V390.87H409.114C414.14 389.864 414.14 387.854 413.134 383.833C412.129 379.812 409.114 371.77 406.098 365.739H381.972C379.962 369.76 377.951 376.796 375.941 381.822C373.93 388.859 374.935 389.864 379.962 390.87H383.983V394.891H355.836V390.87C363.878 389.864 364.883 388.859 369.909 377.802L396.045 311.456L401.072 309.445H400.066Z" fill="#342A7B"/>
<path d="M458.399 374.756C458.399 383.803 463.425 386.819 468.451 386.819C473.478 386.819 476.493 384.809 480.514 381.793V349.625C480.514 344.599 480.514 344.599 475.488 343.594H471.467V339.573C477.499 339.573 487.551 337.562 493.582 337.562V380.788C493.582 385.814 493.582 386.819 497.603 386.819H502.63V390.84C495.593 390.84 487.551 393.856 481.52 395.866H480.514V386.819C477.499 388.83 475.488 390.84 472.472 392.851C468.451 394.861 465.436 396.872 461.415 396.872C451.362 396.872 444.326 390.84 444.326 379.783V350.631C444.326 345.604 443.32 345.604 440.305 344.599H437.289V340.578C442.315 340.578 452.368 338.568 458.399 338.568V375.762V374.756Z" fill="#342A7B"/>
<path d="M523.745 321.443V337.527H536.814C538.824 339.537 537.819 342.553 536.814 343.558H524.751V375.726C524.751 385.778 529.777 387.788 531.787 387.788C533.798 387.788 536.814 387.788 539.829 385.778L541.84 388.794L530.782 394.825C528.772 395.83 527.766 395.83 526.761 395.83C516.709 395.83 512.688 390.804 512.688 380.752V344.563H503.641V342.553L506.656 338.532H511.683V330.49L522.74 320.438H524.751L523.745 321.443Z" fill="#342A7B"/>
<path d="M564.936 345.569C568.957 341.548 575.993 337.527 582.025 337.527C594.087 337.527 600.119 344.564 600.119 356.627V382.763C600.119 389.799 600.119 390.805 608.161 391.81V395.831H580.014V391.81C587.051 391.81 587.051 390.805 587.051 382.763V359.642C587.051 350.595 583.03 346.574 575.993 346.574C568.957 346.574 567.951 348.585 564.936 351.6V383.768C564.936 390.805 564.936 391.81 571.972 392.815V396.836H542.82V392.815C550.862 392.815 551.867 391.81 551.867 383.768V320.438C551.867 313.401 551.867 312.396 543.826 312.396V309.38C548.852 309.38 558.904 306.365 564.936 305.359V347.579V345.569Z" fill="#342A7B"/>
<path d="M653.376 367.709C653.376 351.625 648.35 341.573 638.298 341.573C628.245 341.573 626.235 349.615 626.235 363.688C626.235 377.762 632.266 390.83 641.313 390.83C650.361 390.83 653.376 385.804 653.376 367.709ZM668.455 364.694C668.455 384.798 653.376 394.851 640.308 394.851C627.24 394.851 611.156 380.777 611.156 366.704C611.156 346.599 627.24 336.547 640.308 336.547C653.376 336.547 668.455 349.615 668.455 364.694Z" fill="#342A7B"/>
<path d="M693.644 349.615C696.66 344.589 701.686 336.547 707.717 336.547C713.749 336.547 715.759 340.568 715.759 343.584C715.759 346.599 713.749 350.62 710.733 351.625C709.728 351.625 707.717 351.625 706.712 351.625C704.702 349.615 702.691 348.61 700.681 348.61C698.67 348.61 695.654 350.62 692.639 355.646V381.783C692.639 388.819 692.639 389.824 702.691 390.83V394.851H670.523V390.83C678.565 390.83 678.565 388.819 678.565 381.783V353.636C678.565 345.594 678.565 345.594 670.523 344.589V341.573C676.555 340.568 685.602 338.557 691.634 336.547V349.615H693.644Z" fill="#342A7B"/>
<path d="M742.894 315.456C742.894 319.477 738.873 323.498 734.852 323.498C730.831 323.498 726.81 319.477 726.81 315.456C726.81 311.435 730.831 307.414 734.852 307.414C738.873 307.414 742.894 311.435 742.894 315.456ZM741.889 381.802C741.889 388.838 741.889 389.844 750.936 390.849V394.87H719.773V390.849C727.815 390.849 728.821 388.838 728.821 381.802V353.655C728.821 345.613 728.821 345.613 720.779 344.608V341.592C726.81 340.587 735.857 338.576 741.889 336.566V381.802Z" fill="#342A7B"/>
<path d="M771.988 321.443V337.527H785.056C787.066 339.537 786.061 342.553 785.056 343.558H772.993V375.726C772.993 385.778 778.019 387.788 780.029 387.788C782.04 387.788 785.056 387.788 788.071 385.778L790.082 388.794L779.024 394.825C777.014 395.83 776.008 395.83 775.003 395.83C764.951 395.83 760.93 390.804 760.93 380.752V344.563H751.883V342.553L754.898 338.532H759.925V330.49L770.982 320.438H772.993L771.988 321.443Z" fill="#342A7B"/>
<path d="M818.293 338.568V342.589H814.272C811.256 343.594 811.256 345.604 812.261 348.62L823.319 376.767C825.329 371.741 833.371 351.636 834.376 347.615C836.387 343.594 835.382 342.589 832.366 342.589H827.34V338.568H850.46V342.589C843.424 343.594 842.418 343.594 839.403 351.636C836.387 358.673 831.361 369.73 823.319 386.819C815.277 406.924 812.261 414.966 809.246 422.003C809.246 425.018 806.23 425.018 805.225 425.018C801.204 425.018 798.188 420.997 798.188 418.987C798.188 416.976 799.193 415.971 801.204 413.961C805.225 410.945 808.24 407.929 810.251 402.903C811.256 400.893 813.266 396.872 813.266 394.861C813.266 393.856 813.266 392.851 813.266 390.84C807.235 374.756 800.198 357.667 797.183 350.631C794.167 343.594 793.162 342.589 786.125 341.583V337.562H815.277L818.293 338.568Z" fill="#342A7B"/>
</svg>
