<svg width="2228" height="386" viewBox="0 0 2228 386" fill="none" xmlns="http://www.w3.org/2000/svg">
<path d="M205.879 324.181H145.292L161.827 247.35H220.035C257.761 247.35 266.697 266.015 266.697 280.796C266.697 301.653 253.272 324.181 205.879 324.181ZM369.625 277.352H309.1L325.635 200.583H383.717C421.465 200.583 430.4 219.248 430.4 233.905C430.4 254.845 416.976 277.352 369.625 277.352ZM392.194 157.011H331.648L348.183 80.2013H406.328C444.013 80.2013 452.99 98.887 452.99 113.606C452.99 134.484 439.503 157.011 392.194 157.011ZM228.469 203.882H167.777L184.312 127.03H242.562C280.226 127.03 289.203 145.716 289.203 160.498C289.203 181.355 275.758 203.882 228.469 203.882ZM71.7804 203.882H11.2344L27.7279 127.03H85.8521C123.599 127.03 132.577 145.716 132.577 160.498C132.577 181.355 119.111 203.882 71.7804 203.882ZM249.389 88.3646H188.78L205.295 11.5547H263.544C301.229 11.5547 310.144 30.2195 310.144 44.9385C310.144 65.8164 296.698 88.3646 249.389 88.3646ZM92.7835 88.3646H32.2167L48.752 11.5547H106.814C144.582 11.5547 153.58 30.2195 153.58 44.9385C153.58 65.8164 140.093 88.3646 92.7835 88.3646Z" fill="#1475DC"/>
<path d="M2190.47 110.032H2185.83V81.8047H2193.01L2201.47 103.184L2209.65 81.8047H2216.79V110.032H2212.16V86.4605H2212.04L2202.83 110.032H2199.83L2190.64 86.4605H2190.47L2190.47 110.032ZM2181.76 85.5001H2173.01V110.032H2168.38V85.5001H2159.8V81.8047H2181.76L2181.76 85.5001Z" fill="#1475DC"/>
<path d="M1632.93 370.91V82.8157L1805.74 226.853L1632.93 370.91ZM997.869 231.821L958.368 207.353H791.846L931.895 291.825C902.374 300.572 864.689 301.428 829.927 301.428C787.253 301.428 715.015 298.046 687.519 283.411C661.088 269.318 660.962 246.248 660.962 225.099C660.962 203.97 661.046 176.745 687.519 162.695C715.015 148.059 787.274 144.656 829.927 144.656C872.56 144.656 944.422 148.873 972.336 162.695C1001.52 177.142 997.869 231.821 997.869 231.821ZM2136.8 81.6048H1980.01L1884.12 161.505L1788.27 81.6048H1521.7V277.377L1292.87 81.6048H1140.34V320.156L1093.74 291.261C1100.53 269.047 1100.71 244.849 1100.71 225.099C1100.71 187.289 1100.56 128.977 1053.24 103.798C1004.05 77.638 906.194 71.5625 829.927 71.5625C753.66 71.5625 655.805 77.638 606.596 103.798C559.287 128.977 559.141 187.289 559.141 225.099C559.141 262.909 559.371 317.17 606.596 342.287C655.826 368.551 753.598 374.585 829.927 374.585C894.106 374.585 973.317 370.242 1026.22 353.289L1055.87 371.766H1251.08V176.537L1479.27 371.766H1788.7L1884.12 292.18L1979.55 371.766H2136.34L1962.51 226.853L2136.8 81.6048Z" fill="#1475DC"/>
</svg>
