<svg width="1029" height="314" viewBox="0 0 1029 314" fill="none" xmlns="http://www.w3.org/2000/svg">
<line x1="767" y1="223.391" x2="767" y2="92.3165" stroke="black" stroke-width="3"/>
<path d="M815.259 122V95.0909H831.499V97.9815H818.517V107.074H830.658V109.964H818.517V119.109H831.709V122H815.259ZM840.052 109.859V122H836.951V101.818H839.947V104.972H840.21C840.683 103.947 841.401 103.123 842.365 102.501C843.328 101.871 844.572 101.555 846.096 101.555C847.463 101.555 848.658 101.836 849.683 102.396C850.708 102.948 851.505 103.789 852.075 104.919C852.644 106.04 852.929 107.459 852.929 109.176V122H849.828V109.386C849.828 107.801 849.416 106.566 848.593 105.681C847.769 104.788 846.639 104.341 845.203 104.341C844.213 104.341 843.328 104.556 842.549 104.985C841.778 105.414 841.169 106.04 840.722 106.864C840.276 107.687 840.052 108.686 840.052 109.859ZM866.741 129.989C865.243 129.989 863.956 129.796 862.878 129.411C861.801 129.034 860.903 128.535 860.185 127.913C859.475 127.299 858.91 126.643 858.49 125.942L860.96 124.207C861.24 124.575 861.595 124.996 862.024 125.469C862.453 125.951 863.04 126.367 863.785 126.717C864.538 127.076 865.524 127.256 866.741 127.256C868.37 127.256 869.715 126.862 870.775 126.073C871.835 125.285 872.365 124.05 872.365 122.368V118.268H872.102C871.874 118.636 871.55 119.092 871.13 119.635C870.718 120.169 870.122 120.647 869.343 121.067C868.572 121.479 867.53 121.685 866.216 121.685C864.586 121.685 863.124 121.299 861.827 120.528C860.54 119.758 859.519 118.636 858.766 117.165C858.021 115.693 857.649 113.906 857.649 111.804C857.649 109.737 858.012 107.937 858.739 106.404C859.466 104.862 860.478 103.671 861.775 102.83C863.071 101.98 864.569 101.555 866.268 101.555C867.582 101.555 868.624 101.774 869.395 102.212C870.175 102.642 870.771 103.132 871.182 103.684C871.603 104.227 871.927 104.674 872.155 105.024H872.47V101.818H875.466V122.578C875.466 124.312 875.071 125.723 874.283 126.809C873.504 127.904 872.452 128.705 871.13 129.213C869.816 129.73 868.353 129.989 866.741 129.989ZM866.636 118.899C867.88 118.899 868.931 118.614 869.79 118.045C870.648 117.476 871.301 116.657 871.747 115.588C872.194 114.519 872.417 113.241 872.417 111.751C872.417 110.297 872.198 109.014 871.76 107.902C871.322 106.789 870.674 105.918 869.816 105.287C868.957 104.656 867.897 104.341 866.636 104.341C865.322 104.341 864.227 104.674 863.351 105.339C862.484 106.005 861.832 106.899 861.394 108.02C860.964 109.141 860.75 110.385 860.75 111.751C860.75 113.153 860.969 114.392 861.407 115.47C861.853 116.538 862.51 117.379 863.378 117.993C864.254 118.597 865.34 118.899 866.636 118.899ZM881.142 122V101.818H884.243V122H881.142ZM882.718 98.4545C882.114 98.4545 881.593 98.2487 881.155 97.837C880.726 97.4253 880.511 96.9304 880.511 96.3523C880.511 95.7741 880.726 95.2792 881.155 94.8675C881.593 94.4558 882.114 94.25 882.718 94.25C883.323 94.25 883.84 94.4558 884.269 94.8675C884.707 95.2792 884.926 95.7741 884.926 96.3523C884.926 96.9304 884.707 97.4253 884.269 97.837C883.84 98.2487 883.323 98.4545 882.718 98.4545ZM893.023 109.859V122H889.922V101.818H892.918V104.972H893.181C893.654 103.947 894.372 103.123 895.335 102.501C896.299 101.871 897.543 101.555 899.067 101.555C900.433 101.555 901.629 101.836 902.654 102.396C903.679 102.948 904.476 103.789 905.045 104.919C905.615 106.04 905.899 107.459 905.899 109.176V122H902.798V109.386C902.798 107.801 902.387 106.566 901.563 105.681C900.74 104.788 899.61 104.341 898.173 104.341C897.184 104.341 896.299 104.556 895.519 104.985C894.749 105.414 894.14 106.04 893.693 106.864C893.246 107.687 893.023 108.686 893.023 109.859ZM920.027 122.42C918.083 122.42 916.405 121.991 914.995 121.133C913.593 120.266 912.512 119.057 911.75 117.506C910.996 115.947 910.62 114.134 910.62 112.067C910.62 110 910.996 108.178 911.75 106.601C912.512 105.015 913.572 103.78 914.929 102.896C916.296 102.002 917.89 101.555 919.712 101.555C920.763 101.555 921.801 101.731 922.826 102.081C923.851 102.431 924.784 103.001 925.625 103.789C926.465 104.569 927.136 105.602 927.635 106.89C928.134 108.178 928.384 109.763 928.384 111.646V112.96H912.827V110.28H925.23C925.23 109.141 925.003 108.125 924.547 107.232C924.1 106.338 923.461 105.633 922.629 105.116C921.805 104.599 920.833 104.341 919.712 104.341C918.477 104.341 917.408 104.647 916.506 105.261C915.612 105.865 914.925 106.653 914.443 107.626C913.961 108.598 913.72 109.64 913.72 110.753V112.54C913.72 114.064 913.983 115.356 914.509 116.416C915.043 117.467 915.783 118.268 916.729 118.82C917.675 119.363 918.775 119.635 920.027 119.635C920.842 119.635 921.578 119.521 922.235 119.293C922.9 119.057 923.474 118.706 923.956 118.242C924.438 117.769 924.81 117.182 925.073 116.482L928.068 117.322C927.753 118.339 927.223 119.232 926.479 120.003C925.734 120.765 924.814 121.361 923.719 121.79C922.624 122.21 921.394 122.42 920.027 122.42ZM941.562 122.42C939.618 122.42 937.94 121.991 936.53 121.133C935.129 120.266 934.047 119.057 933.285 117.506C932.531 115.947 932.155 114.134 932.155 112.067C932.155 110 932.531 108.178 933.285 106.601C934.047 105.015 935.107 103.78 936.464 102.896C937.831 102.002 939.425 101.555 941.247 101.555C942.298 101.555 943.336 101.731 944.361 102.081C945.386 102.431 946.319 103.001 947.16 103.789C948.001 104.569 948.671 105.602 949.17 106.89C949.669 108.178 949.919 109.763 949.919 111.646V112.96H934.362V110.28H946.766C946.766 109.141 946.538 108.125 946.082 107.232C945.636 106.338 944.996 105.633 944.164 105.116C943.341 104.599 942.368 104.341 941.247 104.341C940.012 104.341 938.943 104.647 938.041 105.261C937.148 105.865 936.46 106.653 935.978 107.626C935.496 108.598 935.256 109.64 935.256 110.753V112.54C935.256 114.064 935.518 115.356 936.044 116.416C936.578 117.467 937.318 118.268 938.264 118.82C939.21 119.363 940.31 119.635 941.562 119.635C942.377 119.635 943.113 119.521 943.77 119.293C944.436 119.057 945.009 118.706 945.491 118.242C945.973 117.769 946.345 117.182 946.608 116.482L949.604 117.322C949.288 118.339 948.758 119.232 948.014 120.003C947.269 120.765 946.349 121.361 945.255 121.79C944.16 122.21 942.929 122.42 941.562 122.42ZM954.636 122V101.818H957.632V104.866H957.842C958.21 103.868 958.876 103.058 959.839 102.436C960.803 101.814 961.889 101.503 963.098 101.503C963.325 101.503 963.61 101.507 963.952 101.516C964.293 101.525 964.552 101.538 964.727 101.555V104.709C964.622 104.683 964.381 104.643 964.004 104.591C963.636 104.529 963.246 104.499 962.835 104.499C961.854 104.499 960.978 104.704 960.207 105.116C959.445 105.519 958.84 106.08 958.394 106.798C957.956 107.507 957.737 108.318 957.737 109.229V122H954.636ZM968.403 122V101.818H971.503V122H968.403ZM969.979 98.4545C969.375 98.4545 968.854 98.2487 968.416 97.837C967.986 97.4253 967.772 96.9304 967.772 96.3523C967.772 95.7741 967.986 95.2792 968.416 94.8675C968.854 94.4558 969.375 94.25 969.979 94.25C970.584 94.25 971.1 94.4558 971.53 94.8675C971.968 95.2792 972.187 95.7741 972.187 96.3523C972.187 96.9304 971.968 97.4253 971.53 97.837C971.1 98.2487 970.584 98.4545 969.979 98.4545ZM980.284 109.859V122H977.183V101.818H980.179V104.972H980.441C980.914 103.947 981.633 103.123 982.596 102.501C983.56 101.871 984.804 101.555 986.328 101.555C987.694 101.555 988.89 101.836 989.915 102.396C990.94 102.948 991.737 103.789 992.306 104.919C992.875 106.04 993.16 107.459 993.16 109.176V122H990.059V109.386C990.059 107.801 989.648 106.566 988.824 105.681C988.001 104.788 986.871 104.341 985.434 104.341C984.444 104.341 983.56 104.556 982.78 104.985C982.009 105.414 981.4 106.04 980.954 106.864C980.507 107.687 980.284 108.686 980.284 109.859ZM1006.97 129.989C1005.47 129.989 1004.19 129.796 1003.11 129.411C1002.03 129.034 1001.13 128.535 1000.42 127.913C999.707 127.299 999.142 126.643 998.721 125.942L1001.19 124.207C1001.47 124.575 1001.83 124.996 1002.26 125.469C1002.68 125.951 1003.27 126.367 1004.02 126.717C1004.77 127.076 1005.76 127.256 1006.97 127.256C1008.6 127.256 1009.95 126.862 1011.01 126.073C1012.07 125.285 1012.6 124.05 1012.6 122.368V118.268H1012.33C1012.11 118.636 1011.78 119.092 1011.36 119.635C1010.95 120.169 1010.35 120.647 1009.57 121.067C1008.8 121.479 1007.76 121.685 1006.45 121.685C1004.82 121.685 1003.35 121.299 1002.06 120.528C1000.77 119.758 999.75 118.636 998.997 117.165C998.253 115.693 997.88 113.906 997.88 111.804C997.88 109.737 998.244 107.937 998.971 106.404C999.698 104.862 1000.71 103.671 1002.01 102.83C1003.3 101.98 1004.8 101.555 1006.5 101.555C1007.81 101.555 1008.86 101.774 1009.63 102.212C1010.41 102.642 1011 103.132 1011.41 103.684C1011.83 104.227 1012.16 104.674 1012.39 105.024H1012.7V101.818H1015.7V122.578C1015.7 124.312 1015.3 125.723 1014.51 126.809C1013.73 127.904 1012.68 128.705 1011.36 129.213C1010.05 129.73 1008.58 129.989 1006.97 129.989ZM1006.87 118.899C1008.11 118.899 1009.16 118.614 1010.02 118.045C1010.88 117.476 1011.53 116.657 1011.98 115.588C1012.43 114.519 1012.65 113.241 1012.65 111.751C1012.65 110.297 1012.43 109.014 1011.99 107.902C1011.55 106.789 1010.91 105.918 1010.05 105.287C1009.19 104.656 1008.13 104.341 1006.87 104.341C1005.55 104.341 1004.46 104.674 1003.58 105.339C1002.72 106.005 1002.06 106.899 1001.62 108.02C1001.2 109.141 1000.98 110.385 1000.98 111.751C1000.98 113.153 1001.2 114.392 1001.64 115.47C1002.08 116.538 1002.74 117.379 1003.61 117.993C1004.48 118.597 1005.57 118.899 1006.87 118.899ZM815.259 170V143.091H831.499V145.982H818.517V155.074H830.658V157.964H818.517V167.109H831.709V170H815.259ZM840.052 157.859V170H836.951V149.818H839.947V152.972H840.21C840.683 151.947 841.401 151.123 842.365 150.501C843.328 149.871 844.572 149.555 846.096 149.555C847.463 149.555 848.658 149.836 849.683 150.396C850.708 150.948 851.505 151.789 852.075 152.919C852.644 154.04 852.929 155.459 852.929 157.176V170H849.828V157.386C849.828 155.801 849.416 154.566 848.593 153.681C847.769 152.788 846.639 152.341 845.203 152.341C844.213 152.341 843.328 152.556 842.549 152.985C841.778 153.414 841.169 154.04 840.722 154.864C840.276 155.687 840.052 156.686 840.052 157.859ZM866.216 170.42C864.534 170.42 863.049 169.996 861.761 169.146C860.474 168.288 859.466 167.079 858.739 165.52C858.012 163.952 857.649 162.099 857.649 159.962C857.649 157.842 858.012 156.002 858.739 154.443C859.466 152.884 860.478 151.68 861.775 150.83C863.071 149.98 864.569 149.555 866.268 149.555C867.582 149.555 868.62 149.774 869.382 150.212C870.153 150.642 870.74 151.132 871.143 151.684C871.555 152.227 871.874 152.674 872.102 153.024H872.365V143.091H875.466V170H872.47V166.899H872.102C871.874 167.267 871.55 167.731 871.13 168.292C870.709 168.844 870.109 169.339 869.33 169.777C868.55 170.206 867.512 170.42 866.216 170.42ZM866.636 167.635C867.88 167.635 868.931 167.311 869.79 166.663C870.648 166.006 871.301 165.099 871.747 163.943C872.194 162.778 872.417 161.433 872.417 159.909C872.417 158.402 872.198 157.084 871.76 155.954C871.322 154.815 870.674 153.931 869.816 153.3C868.957 152.661 867.897 152.341 866.636 152.341C865.322 152.341 864.227 152.678 863.351 153.353C862.484 154.018 861.832 154.925 861.394 156.072C860.964 157.211 860.75 158.49 860.75 159.909C860.75 161.346 860.969 162.651 861.407 163.825C861.853 164.99 862.51 165.918 863.378 166.61C864.254 167.293 865.34 167.635 866.636 167.635ZM889.774 170.42C887.952 170.42 886.354 169.987 884.978 169.12C883.612 168.252 882.543 167.039 881.772 165.48C881.01 163.921 880.629 162.099 880.629 160.014C880.629 157.912 881.01 156.077 881.772 154.509C882.543 152.941 883.612 151.723 884.978 150.856C886.354 149.989 887.952 149.555 889.774 149.555C891.596 149.555 893.19 149.989 894.557 150.856C895.932 151.723 897.001 152.941 897.763 154.509C898.534 156.077 898.919 157.912 898.919 160.014C898.919 162.099 898.534 163.921 897.763 165.48C897.001 167.039 895.932 168.252 894.557 169.12C893.19 169.987 891.596 170.42 889.774 170.42ZM889.774 167.635C891.158 167.635 892.297 167.28 893.19 166.571C894.084 165.861 894.745 164.928 895.174 163.772C895.604 162.616 895.818 161.363 895.818 160.014C895.818 158.665 895.604 157.408 895.174 156.243C894.745 155.078 894.084 154.137 893.19 153.418C892.297 152.7 891.158 152.341 889.774 152.341C888.39 152.341 887.252 152.7 886.358 153.418C885.465 154.137 884.803 155.078 884.374 156.243C883.945 157.408 883.73 158.665 883.73 160.014C883.73 161.363 883.945 162.616 884.374 163.772C884.803 164.928 885.465 165.861 886.358 166.571C887.252 167.28 888.39 167.635 889.774 167.635ZM907.538 170L901.389 149.818H904.648L909.01 165.27H909.22L913.53 149.818H916.841L921.098 165.217H921.308L925.671 149.818H928.929L922.78 170H919.732L915.317 154.496H915.002L910.587 170H907.538ZM933.028 170V149.818H936.024V152.972H936.287C936.707 151.894 937.386 151.058 938.324 150.462C939.261 149.858 940.386 149.555 941.7 149.555C943.032 149.555 944.14 149.858 945.025 150.462C945.918 151.058 946.614 151.894 947.114 152.972H947.324C947.841 151.929 948.616 151.101 949.65 150.488C950.683 149.866 951.923 149.555 953.368 149.555C955.172 149.555 956.648 150.12 957.796 151.25C958.943 152.372 959.517 154.119 959.517 156.493V170H956.416V156.493C956.416 155.004 956.009 153.94 955.194 153.3C954.38 152.661 953.421 152.341 952.317 152.341C950.898 152.341 949.799 152.77 949.019 153.629C948.239 154.478 947.85 155.556 947.85 156.861V170H944.696V156.178C944.696 155.03 944.324 154.106 943.579 153.405C942.835 152.696 941.876 152.341 940.702 152.341C939.896 152.341 939.143 152.556 938.442 152.985C937.75 153.414 937.189 154.01 936.76 154.772C936.34 155.525 936.129 156.397 936.129 157.386V170H933.028ZM973.648 170.42C971.704 170.42 970.026 169.991 968.616 169.133C967.215 168.266 966.133 167.057 965.371 165.506C964.617 163.947 964.241 162.134 964.241 160.067C964.241 158 964.617 156.178 965.371 154.601C966.133 153.015 967.193 151.78 968.55 150.896C969.917 150.002 971.511 149.555 973.333 149.555C974.384 149.555 975.422 149.731 976.447 150.081C977.472 150.431 978.405 151.001 979.246 151.789C980.087 152.569 980.757 153.602 981.256 154.89C981.755 156.178 982.005 157.763 982.005 159.646V160.96H966.448V158.28H978.851C978.851 157.141 978.624 156.125 978.168 155.232C977.722 154.338 977.082 153.633 976.25 153.116C975.427 152.599 974.454 152.341 973.333 152.341C972.098 152.341 971.029 152.647 970.127 153.261C969.234 153.865 968.546 154.653 968.064 155.626C967.582 156.598 967.342 157.64 967.342 158.753V160.54C967.342 162.064 967.604 163.356 968.13 164.416C968.664 165.467 969.404 166.268 970.35 166.82C971.296 167.363 972.396 167.635 973.648 167.635C974.463 167.635 975.199 167.521 975.856 167.293C976.521 167.057 977.095 166.706 977.577 166.242C978.059 165.769 978.431 165.182 978.694 164.482L981.69 165.322C981.374 166.339 980.844 167.232 980.1 168.003C979.355 168.765 978.435 169.361 977.34 169.79C976.246 170.21 975.015 170.42 973.648 170.42ZM989.823 157.859V170H986.722V149.818H989.718V152.972H989.98C990.453 151.947 991.172 151.123 992.135 150.501C993.099 149.871 994.343 149.555 995.867 149.555C997.233 149.555 998.429 149.836 999.454 150.396C1000.48 150.948 1001.28 151.789 1001.85 152.919C1002.41 154.04 1002.7 155.459 1002.7 157.176V170H999.598V157.386C999.598 155.801 999.187 154.566 998.363 153.681C997.54 152.788 996.41 152.341 994.973 152.341C993.983 152.341 993.099 152.556 992.319 152.985C991.548 153.414 990.94 154.04 990.493 154.864C990.046 155.687 989.823 156.686 989.823 157.859ZM1017.14 149.818V152.446H1006.68V149.818H1017.14ZM1009.73 144.983H1012.83V164.219C1012.83 165.095 1012.96 165.752 1013.21 166.19C1013.48 166.619 1013.81 166.908 1014.21 167.057C1014.62 167.197 1015.06 167.267 1015.51 167.267C1015.85 167.267 1016.14 167.25 1016.35 167.214C1016.57 167.171 1016.75 167.136 1016.88 167.109L1017.51 169.895C1017.3 169.974 1017.01 170.053 1016.63 170.131C1016.25 170.219 1015.78 170.263 1015.2 170.263C1014.32 170.263 1013.46 170.074 1012.62 169.698C1011.79 169.321 1011.1 168.747 1010.55 167.977C1010 167.206 1009.73 166.233 1009.73 165.06V144.983ZM815.259 218V191.091H831.393V193.982H818.517V203.074H830.185V205.964H818.517V218H815.259ZM848.008 209.749V197.818H851.109V218H848.008V214.584H847.798C847.325 215.609 846.589 216.48 845.59 217.199C844.592 217.908 843.33 218.263 841.806 218.263C840.545 218.263 839.424 217.987 838.443 217.435C837.462 216.874 836.691 216.033 836.13 214.912C835.57 213.782 835.289 212.359 835.289 210.642V197.818H838.39V210.432C838.39 211.903 838.802 213.077 839.625 213.953C840.457 214.829 841.517 215.267 842.805 215.267C843.576 215.267 844.36 215.07 845.157 214.676C845.963 214.282 846.637 213.677 847.18 212.863C847.732 212.048 848.008 211.01 848.008 209.749ZM859.889 205.859V218H856.788V197.818H859.784V200.972H860.047C860.52 199.947 861.238 199.123 862.202 198.501C863.165 197.871 864.409 197.555 865.933 197.555C867.3 197.555 868.495 197.836 869.52 198.396C870.545 198.948 871.342 199.789 871.911 200.919C872.481 202.04 872.766 203.459 872.766 205.176V218H869.665V205.386C869.665 203.801 869.253 202.566 868.43 201.681C867.606 200.788 866.476 200.341 865.04 200.341C864.05 200.341 863.165 200.556 862.386 200.985C861.615 201.414 861.006 202.04 860.559 202.864C860.112 203.687 859.889 204.686 859.889 205.859ZM886.053 218.42C884.371 218.42 882.886 217.996 881.598 217.146C880.311 216.288 879.303 215.079 878.576 213.52C877.849 211.952 877.486 210.099 877.486 207.962C877.486 205.842 877.849 204.002 878.576 202.443C879.303 200.884 880.315 199.68 881.612 198.83C882.908 197.98 884.406 197.555 886.105 197.555C887.419 197.555 888.457 197.774 889.219 198.212C889.99 198.642 890.577 199.132 890.98 199.684C891.391 200.227 891.711 200.674 891.939 201.024H892.202V191.091H895.303V218H892.307V214.899H891.939C891.711 215.267 891.387 215.731 890.967 216.292C890.546 216.844 889.946 217.339 889.167 217.777C888.387 218.206 887.349 218.42 886.053 218.42ZM886.473 215.635C887.717 215.635 888.768 215.311 889.626 214.663C890.485 214.006 891.137 213.099 891.584 211.943C892.031 210.778 892.254 209.433 892.254 207.909C892.254 206.402 892.035 205.084 891.597 203.954C891.159 202.815 890.511 201.931 889.653 201.3C888.794 200.661 887.734 200.341 886.473 200.341C885.159 200.341 884.064 200.678 883.188 201.353C882.321 202.018 881.668 202.925 881.23 204.072C880.801 205.211 880.587 206.49 880.587 207.909C880.587 209.346 880.806 210.651 881.244 211.825C881.69 212.99 882.347 213.918 883.214 214.61C884.09 215.293 885.177 215.635 886.473 215.635Z" fill="black"/>
<path d="M618.475 93.595C617.142 94.795 617.408 219.728 618.608 221.728C619.408 222.928 623.142 223.328 632.342 223.062L644.875 222.662L645.275 195.595L645.542 168.662H673.542H701.542V156.662V144.662H673.542H645.542V130.662V116.662L677.942 116.395L710.208 115.995L710.608 104.262L711.008 92.6617H665.142C639.942 92.6617 618.875 93.0617 618.475 93.595Z" fill="black"/>
<path d="M493.144 93.5948C491.944 94.6615 491.944 218.395 493.011 221.195C493.677 223.061 499.277 223.328 541.677 223.328H589.544V211.328V199.328H554.877H520.211V183.328V167.328L550.611 167.061L580.877 166.661V155.328V143.995L550.611 143.595L520.211 143.328V129.328V115.328H554.211H588.211V103.995V92.6615H541.144C515.144 92.6615 493.544 93.0615 493.144 93.5948Z" fill="black"/>
<path d="M367.808 93.5948C366.608 94.6615 366.608 218.395 367.675 221.195C368.341 223.061 373.941 223.328 416.341 223.328H464.208V211.328V199.328H429.541H394.875V183.328V167.328L425.275 167.061L455.541 166.661V155.328V143.995L425.275 143.595L394.875 143.328V129.328V115.328H428.875H462.875V103.995V92.6615H415.808C389.808 92.6615 368.208 93.0615 367.808 93.5948Z" fill="black"/>
<path d="M98.6078 27.9948L83.0078 55.3281H145.808C180.341 55.3281 208.341 55.0615 208.074 54.7948C207.408 54.1281 114.874 0.661455 114.474 0.661455C114.341 0.794789 107.141 13.0615 98.6078 27.9948Z" fill="#E04527"/>
<path d="M257.547 146.926C257.68 200.659 257.947 210.259 259.414 208.259C262.214 204.659 312.214 117.459 312.347 116.126C312.48 115.059 300.747 107.859 264.614 87.1925L257.547 83.1925V146.926Z" fill="#E04527"/>
<path d="M31.5448 144.262C19.1448 165.995 6.87812 187.195 4.47812 191.462L0.078125 199.195L13.1448 206.795C20.3448 210.929 32.6115 218.129 40.6115 222.795L54.8781 231.195V167.862C54.8781 133.062 54.7448 104.662 54.6115 104.662C54.3448 104.795 44.0781 122.529 31.5448 144.262Z" fill="#E04527"/>
<path d="M107.547 261.195C111.813 263.995 196.613 312.795 197.947 313.061C198.88 313.328 227.013 266.395 229.147 260.928C229.68 259.728 216.747 259.328 167.413 259.328C114.48 259.328 105.413 259.595 107.547 261.195Z" fill="#E04527"/>
<path fill-rule="evenodd" clip-rule="evenodd" d="M222 222.008V92.0078H92V222.008H222ZM139.095 126.179H130.458V130.673H122V197.093H192V130.673H183.542V126.179H174.905C171.216 120.157 164.918 116.922 157 116.922C149.082 116.922 142.784 120.157 139.095 126.179ZM140.175 129.864H141.255L141.794 128.876C145.483 122.045 152.141 120.607 157 120.607C161.859 120.607 168.517 122.045 172.206 128.876L172.745 129.864H179.853V134.358H188.311V193.408H125.869V134.448H134.326V129.954L140.175 129.864ZM129.648 183.431H184.353V185.498H129.648V183.431ZM185.972 187.027H128.028V189.094H185.972V187.027ZM156.37 138.582L129.018 148.379L130.278 151.884L157 142.267L183.722 151.884L184.982 148.379L157 138.312L156.37 138.582ZM180.033 156.917L180.573 177.768V177.678H182.462V181.094H131.447V177.678H133.336L133.786 157.007C133.606 157.096 133.426 157.096 133.246 157.096C132.617 157.096 132.077 156.557 132.077 155.928C132.077 155.658 132.257 155.299 132.437 155.119H131.537V153.052H182.282V155.119H181.383C181.653 155.299 181.743 155.658 181.743 155.928C181.743 156.557 181.203 157.096 180.573 157.096C180.483 157.052 180.393 157.029 180.303 157.007L180.303 157.007L180.303 157.007C180.213 156.984 180.123 156.962 180.033 156.917ZM138.195 177.768H144.043L144.493 156.917C144.313 157.007 144.133 157.007 143.953 157.007C143.324 157.007 142.784 156.467 142.784 155.838C142.784 155.569 142.964 155.209 143.144 155.029H139.005C139.275 155.209 139.365 155.569 139.365 155.838C139.365 156.467 138.825 157.007 138.195 157.007C138.015 157.007 137.835 157.007 137.655 156.917L138.195 177.768ZM148.722 177.768H154.57L155.02 157.007C154.84 157.096 154.66 157.096 154.48 157.096C153.851 157.096 153.311 156.557 153.311 155.928C153.311 155.658 153.491 155.299 153.671 155.119H149.532C149.802 155.479 149.892 155.928 149.712 156.377C149.442 156.917 148.722 157.186 148.182 156.917L148.722 177.768ZM159.339 177.768H165.187L165.727 156.917C165.547 157.007 165.367 157.007 165.187 157.007C164.557 157.007 164.018 156.467 164.018 155.838C164.018 155.569 164.198 155.209 164.378 155.029H160.149C160.419 155.209 160.509 155.569 160.509 155.838C160.509 156.467 159.969 157.007 159.339 157.007C159.159 157.007 158.979 157.007 158.799 156.917L159.339 177.768ZM169.956 177.768H175.804L176.344 156.917C176.164 157.007 175.984 157.007 175.804 157.007C175.174 157.007 174.635 156.467 174.635 155.838C174.635 155.569 174.815 155.209 174.994 155.029H170.766C171.036 155.209 171.126 155.569 171.126 155.838C171.126 156.467 170.586 157.007 169.956 157.007C169.776 157.007 169.596 157.007 169.416 156.917L169.956 177.768Z" fill="#E04527"/>
</svg>
