<svg width="1079" height="946" viewBox="0 0 1079 946" fill="none" xmlns="http://www.w3.org/2000/svg">
<g clip-path="url(#clip0_909_1037)">
<path d="M385.659 251.942C377.79 254.838 369.428 256.155 361.051 255.816C352.673 255.478 344.444 253.491 336.835 249.969C329.226 246.448 322.386 241.46 316.707 235.293C311.027 229.125 306.619 221.898 303.735 214.025C300.852 206.152 299.548 197.788 299.9 189.411C300.252 181.034 302.252 172.809 305.785 165.205C309.319 157.602 314.317 150.77 320.494 145.1C326.671 139.43 333.905 135.034 341.782 132.162L691.367 4.4611C699.235 1.46005 707.625 0.0651289 716.041 0.358632C724.457 0.652135 732.728 2.62812 740.368 6.17001C748.008 9.7119 754.861 14.748 760.524 20.9811C766.186 27.2143 770.542 34.5183 773.336 42.4623C776.242 50.1849 777.561 58.414 777.215 66.6579C776.869 74.9018 774.864 82.9914 771.322 90.4432C767.779 97.895 762.77 104.556 756.595 110.029C750.419 115.501 743.204 119.673 735.381 122.294L385.659 251.942Z" fill="#0050CA"/>
<path d="M385.686 441.479C377.82 444.367 369.462 445.677 361.089 445.334C352.716 444.99 344.493 443 336.889 439.477C329.286 435.955 322.451 430.968 316.776 424.802C311.101 418.637 306.696 411.414 303.814 403.545C300.931 395.676 299.628 387.317 299.977 378.944C300.327 370.572 302.324 362.35 305.852 354.75C309.381 347.149 314.373 340.318 320.542 334.647C326.712 328.977 333.939 324.577 341.81 321.701L691.395 194.146C699.252 191.11 707.639 189.684 716.057 189.954C724.476 190.224 732.755 192.183 740.401 195.715C748.047 199.248 754.906 204.281 760.568 210.516C766.231 216.752 770.583 224.062 773.364 232.012C776.279 239.73 777.606 247.958 777.264 256.201C776.922 264.444 774.919 272.533 771.374 279.983C767.829 287.433 762.817 294.091 756.637 299.556C750.456 305.022 743.236 309.183 735.408 311.79L385.686 441.479Z" fill="#0050CA"/>
<path d="M385.66 630.957C377.79 633.863 369.424 635.188 361.041 634.855C352.659 634.523 344.424 632.54 336.809 629.02C329.193 625.5 322.347 620.513 316.663 614.343C310.978 608.173 306.567 600.942 303.681 593.065C300.795 585.188 299.492 576.818 299.846 568.436C300.2 560.055 302.204 551.825 305.743 544.219C309.283 536.613 314.288 529.779 320.472 524.111C326.657 518.442 333.899 514.049 341.784 511.184L691.369 383.642C699.223 380.602 707.608 379.172 716.026 379.437C724.444 379.703 732.722 381.658 740.369 385.187C748.016 388.716 754.875 393.747 760.539 399.98C766.203 406.213 770.555 413.521 773.338 421.47C776.253 429.189 777.58 437.418 777.238 445.663C776.896 453.907 774.893 461.998 771.348 469.449C767.804 476.901 762.791 483.56 756.611 489.028C750.431 494.495 743.21 498.658 735.382 501.268L385.66 630.957Z" fill="#0050CA"/>
<path d="M0 788.57H115.924V820.457H40.0731V846.398H113.919V880.255H40.0731V908.183H117.895V942.209H0V788.57Z" fill="#0050CA"/>
<path d="M341.772 788.57H299.711V942.212H341.772V788.57Z" fill="#0050CA"/>
<path d="M493.64 792.546L491.647 824.43C457.702 806.591 405.711 812.533 405.711 862.432C403.717 914.304 457.702 922.235 493.641 904.226L495.625 938.096C433.693 956.102 361.656 938.096 361.656 862.432C361.656 790.565 435.676 770.57 493.64 792.546Z" fill="#0050CA"/>
<path d="M617.487 790.555L615.503 822.44C593.475 810.542 553.569 810.542 553.569 828.389C553.569 856.306 625.436 836.48 625.436 894.305C625.436 950.145 557.545 952.127 513.492 938.086L515.647 904.216C543.468 916.277 583.543 920.242 583.543 898.27C583.543 872.331 511.508 886.375 511.508 832.349C511.508 786.586 567.479 774.527 617.487 790.555Z" fill="#0050CA"/>
<path d="M743.321 790.555L741.37 822.44C719.363 810.542 679.389 810.542 679.389 828.389C679.389 856.306 751.263 836.48 751.263 894.305C751.263 950.145 683.427 952.127 639.515 938.086L641.501 904.216C669.49 916.277 709.403 920.242 709.403 898.27C709.403 872.331 637.531 886.375 637.531 832.349C637.531 786.586 693.319 774.527 743.321 790.555Z" fill="#0050CA"/>
<path d="M937.266 788.57H989.079L1039.07 886.37V788.57H1078.98V942.209H1029.12L975.149 840.451V942.209H937.266V788.57Z" fill="#0050CA"/>
<path d="M807.244 864.399C807.244 888.354 817.339 914.291 839.21 914.291C863.235 914.291 873.128 888.354 873.128 864.399C873.128 844.411 863.235 814.507 839.21 814.507C817.338 814.507 807.244 840.443 807.244 864.399ZM839.21 784.602C883.291 784.602 917.208 808.558 917.208 864.399C917.208 918.256 883.291 944.193 839.21 944.193C797.284 944.193 763.367 918.256 763.367 864.399C763.366 808.558 797.284 784.602 839.21 784.602Z" fill="#0050CA"/>
<path d="M147.883 788.57H221.905C243.762 788.57 271.744 796.499 271.744 828.386C272.281 836.996 269.771 845.52 264.656 852.466C259.54 859.413 252.144 864.338 243.762 866.38C247.042 867.408 250.029 869.204 252.477 871.617C254.924 874.031 256.76 876.993 257.834 880.258C257.834 882.241 279.86 940.229 279.86 942.213H235.814L219.912 894.302C218.858 891.398 216.949 888.881 214.438 887.083C211.926 885.284 208.929 884.287 205.841 884.224C197.891 884.224 187.954 882.241 187.954 884.224V942.213H147.883V788.57ZM187.953 852.34H209.811C212.318 852.579 214.848 852.298 217.242 851.515C219.636 850.732 221.842 849.463 223.723 847.788C225.604 846.113 227.12 844.068 228.174 841.781C229.229 839.493 229.8 837.013 229.852 834.495C229.852 824.417 221.905 818.468 209.812 818.468H187.953L187.953 852.34Z" fill="#0050CA"/>
</g>
<defs>
<clipPath id="clip0_909_1037">
<rect width="1079" height="944.836" fill="white" transform="translate(0 0.570312)"/>
</clipPath>
</defs>
</svg>
