<svg width="9037" height="2022" viewBox="0 0 9037 2022" fill="none" xmlns="http://www.w3.org/2000/svg">
<path fill-rule="evenodd" clip-rule="evenodd" d="M0.376953 421.548C0.376953 620.305 40.5306 858.176 347.266 858.176C587.875 858.176 1097.53 858.176 1097.53 858.176V325.741H509.995V545.927H870.962V648.739C870.962 648.739 499.35 648.739 396.678 648.739C218.621 648.739 244.558 475.988 244.558 425.189C244.558 298.625 268.137 229.934 386.102 229.934H1097.49V1.00977H389.673C110.158 1.00977 0.376953 166.028 0.376953 421.548Z" fill="#003087"/>
<path fill-rule="evenodd" clip-rule="evenodd" d="M1310.64 858.175H2266.11V648.704H1549.52V545.892H2266.11V338.189H1549.52V247.653H2266.11V1.00928H1310.64V858.175Z" fill="#003087"/>
<path fill-rule="evenodd" clip-rule="evenodd" d="M3285.98 632.718L2804.73 1.00928H2479.1V858.175H2702.06V226.327L3183.31 858.175H3508.95V1.00928H3285.98V632.718Z" fill="#003087"/>
<path fill-rule="evenodd" clip-rule="evenodd" d="M3750.42 858.175H4705.89V648.704H3989.3V545.892H4705.89V338.189H3989.3V247.653H4705.89V1.00928H3750.42V858.175Z" fill="#003087"/>
<path fill-rule="evenodd" clip-rule="evenodd" d="M5987.76 306.22C5987.76 187.284 5985.41 0.975586 5701.14 0.975586H4919.01V858.176H5149.08V607.927H5506.48L5706.48 858.176H6003.71L5789.63 583.065C5946.43 559.798 5987.76 448.387 5987.76 306.22ZM5635.61 398.143H5148.91V236.627H5639.11C5704.61 236.627 5750.59 256.114 5750.59 309.444C5750.59 362.636 5739.94 398.143 5635.61 398.143Z" fill="#003087"/>
<path fill-rule="evenodd" clip-rule="evenodd" d="M7628.96 1.00928H7390.15V858.175H8250.05V648.704H7628.96V1.00928Z" fill="#003087"/>
<path fill-rule="evenodd" clip-rule="evenodd" d="M6508.58 1.00928L6027.32 858.21H6289.22L6383.64 689.585H6943.85L7037.65 858.21H7299.55L6818.23 1.00928H6508.58ZM6501.89 478.033L6663.4 189.676L6825.33 478.033H6501.89Z" fill="#003087"/>
<path fill-rule="evenodd" clip-rule="evenodd" d="M707.717 1164H0V1392.92V2021.2C0 2021.2 509.618 2021.2 750.263 2021.2C1038.1 2021.2 1097.01 1840.09 1097.01 1584.57C1097.01 1329.05 987.301 1164 707.717 1164ZM700.609 1811.69C597.936 1811.69 226.393 1811.69 226.393 1811.69V1392.89H711.219C843.366 1392.89 852.763 1475.8 852.763 1588.14C852.798 1691.03 855.155 1811.69 700.609 1811.69Z" fill="#003087"/>
<path fill-rule="evenodd" clip-rule="evenodd" d="M3157.34 1795.71L2676.08 1164H2350.45V2021.17H2573.48V1389.32L3054.74 2021.17H3380.33V1164H3157.34V1795.71Z" fill="#003087"/>
<path fill-rule="evenodd" clip-rule="evenodd" d="M3965.21 1164L3483.89 2021.2H3745.79L3840.21 1852.58H4400.49L4494.22 2021.2H4756.12L4274.76 1164H3965.21ZM3958.42 1641.02L4119.93 1352.67L4281.87 1641.02H3958.42Z" fill="#003087"/>
<path fill-rule="evenodd" clip-rule="evenodd" d="M1678.76 1533.08L1373.2 1164H1061.72L1553.69 1724.87V2021.17H1797.9V1724.87L2289.77 1164H1978.32L1678.76 1533.08Z" fill="#003087"/>
<path fill-rule="evenodd" clip-rule="evenodd" d="M5495.64 1761.1L5212.55 1164H4844.54V2021.17H5067.5V1367.16L5393.03 2021.17H5598.31L5923.94 1367.16V2021.17H6146.76V1164H5778.79L5495.64 1761.1Z" fill="#003087"/>
<path fill-rule="evenodd" clip-rule="evenodd" d="M6404.65 1164V2021.17H6645.36L6643.59 1164H6404.65Z" fill="#003087"/>
<path fill-rule="evenodd" clip-rule="evenodd" d="M6813.23 1584.54C6813.23 1840.06 6872.14 2021.17 7160.12 2021.17C7400.73 2021.17 7835.93 2021.17 7835.93 2021.17V1812.63C7835.93 1812.63 7312.17 1811.69 7209.57 1811.69C7055.09 1811.69 7057.45 1691.03 7057.45 1588.14C7057.45 1475.73 7066.84 1392.89 7198.92 1392.89H7835.93V1164H7202.49C6922.94 1164 6813.23 1329.02 6813.23 1584.54Z" fill="#003087"/>
<path fill-rule="evenodd" clip-rule="evenodd" d="M8783.07 1499.41H8266.34C8229.24 1499.41 8187.59 1488.77 8187.59 1447.95C8187.59 1407.14 8229.24 1396.5 8266.34 1396.5C8369.01 1396.5 9007.73 1395.63 9007.73 1395.63V1187.09C9007.73 1187.09 8450.43 1187.09 8209.65 1187.09C8006.28 1187.09 7956.76 1291.81 7956.76 1447.95C7956.76 1604.1 8006.28 1708.88 8209.65 1708.88H8726.37C8763.61 1708.88 8805.12 1719.39 8805.12 1760.34C8805.12 1801.19 8763.61 1811.66 8726.37 1811.66C8623.84 1811.66 7984.99 1812.6 7984.99 1812.6V2021.13C7984.99 2021.13 8542.42 2021.13 8783.07 2021.13C8986.51 2021.13 9036.02 1916.38 9036.02 1760.34C9036.02 1604.13 8986.51 1499.41 8783.07 1499.41Z" fill="#003087"/>
</svg>
