<svg width="1929" height="379" viewBox="0 0 1929 379" fill="none" xmlns="http://www.w3.org/2000/svg">
<rect width="306.857" height="148.135" transform="translate(0 110.469)" fill="white"/>
<path d="M72.7572 110.469H0V258.603H72.7572V110.469Z" fill="#EE1B2E"/>
<path d="M306.859 110.469H234.102V258.603H306.859V110.469Z" fill="#EE1B2E"/>
<path d="M143.293 141.31L153.672 120.148L163.951 140.504C165.261 142.621 166.269 142.52 168.385 141.411L177.253 137.078L171.509 165.495C170.3 171.038 173.524 172.751 176.951 168.922L189.547 155.418L192.873 163.077C193.981 165.395 195.694 165.093 197.911 164.588L211.012 161.868L206.679 178.395V178.697C206.074 180.813 205.066 182.627 207.485 183.735L212.12 186.053L185.214 208.827C182.493 211.649 183.4 212.556 184.408 215.68L186.927 223.339L161.835 218.804C158.711 217.998 156.595 217.998 156.494 220.517L157.502 249.338H149.944L150.952 220.618C150.952 217.796 148.836 217.897 143.696 218.905L120.518 223.44L123.542 215.781C124.55 212.858 124.852 210.843 122.534 208.928L95.0234 186.456L100.062 183.332C101.473 182.224 101.573 181.014 100.868 178.495L95.7287 161.767L109.03 164.588C112.759 165.395 113.767 164.588 114.674 162.473L118.402 154.915L131.503 169.728C133.82 172.449 137.146 170.635 136.037 166.705L129.789 135.869L139.463 141.411C141.076 142.318 142.689 142.621 143.595 140.807" fill="#EE1B2E"/>
<path d="M417.074 19.1882V74.4609H410.381V19.1882H417.074ZM436 49.5234V74.4609H429.63V33.0064H435.784V39.4837H436.324C437.295 37.3786 438.77 35.6873 440.75 34.4098C442.729 33.1143 445.284 32.4666 448.414 32.4666C451.221 32.4666 453.677 33.0424 455.782 34.1939C457.887 35.3274 459.525 37.0547 460.694 39.3757C461.864 41.6787 462.449 44.5935 462.449 48.12V74.4609H456.079V48.5518C456.079 45.2952 455.234 42.7583 453.542 40.941C451.851 39.1058 449.53 38.1882 446.579 38.1882C444.546 38.1882 442.729 38.629 441.127 39.5107C439.544 40.3923 438.294 41.6787 437.376 43.37C436.458 45.0613 436 47.1125 436 49.5234ZM480.457 49.5234V74.4609H474.087V33.0064H480.241V39.4837H480.781C481.752 37.3786 483.228 35.6873 485.207 34.4098C487.186 33.1143 489.741 32.4666 492.871 32.4666C495.678 32.4666 498.134 33.0424 500.239 34.1939C502.344 35.3274 503.982 37.0547 505.151 39.3757C506.321 41.6787 506.906 44.5935 506.906 48.12V74.4609H500.536V48.5518C500.536 45.2952 499.691 42.7583 497.999 40.941C496.308 39.1058 493.987 38.1882 491.036 38.1882C489.003 38.1882 487.186 38.629 485.585 39.5107C484.001 40.3923 482.751 41.6787 481.833 43.37C480.915 45.0613 480.457 47.1125 480.457 49.5234ZM535.385 75.3246C531.643 75.3246 528.359 74.4339 525.534 72.6527C522.728 70.8714 520.533 68.3795 518.949 65.1768C517.384 61.9742 516.601 58.2318 516.601 53.9496C516.601 49.6314 517.384 45.862 518.949 42.6413C520.533 39.4207 522.728 36.9197 525.534 35.1385C528.359 33.3572 531.643 32.4666 535.385 32.4666C539.128 32.4666 542.402 33.3572 545.209 35.1385C548.034 36.9197 550.229 39.4207 551.794 42.6413C553.378 45.862 554.169 49.6314 554.169 53.9496C554.169 58.2318 553.378 61.9742 551.794 65.1768C550.229 68.3795 548.034 70.8714 545.209 72.6527C542.402 74.4339 539.128 75.3246 535.385 75.3246ZM535.385 69.603C538.228 69.603 540.567 68.8743 542.402 67.4169C544.238 65.9595 545.596 64.0433 546.478 61.6683C547.359 59.2933 547.8 56.7204 547.8 53.9496C547.8 51.1787 547.359 48.5968 546.478 46.2038C545.596 43.8108 544.238 41.8767 542.402 40.4013C540.567 38.9259 538.228 38.1882 535.385 38.1882C532.542 38.1882 530.203 38.9259 528.368 40.4013C526.533 41.8767 525.175 43.8108 524.293 46.2038C523.411 48.5968 522.971 51.1787 522.971 53.9496C522.971 56.7204 523.411 59.2933 524.293 61.6683C525.175 64.0433 526.533 65.9595 528.368 67.4169C530.203 68.8743 532.542 69.603 535.385 69.603ZM596.305 33.0064L580.976 74.4609H574.499L559.169 33.0064H566.078L577.521 66.0405H577.953L589.396 33.0064H596.305ZM615.65 75.4325C613.023 75.4325 610.639 74.9377 608.498 73.9482C606.356 72.9406 604.656 71.4922 603.397 69.603C602.137 67.6958 601.507 65.3928 601.507 62.6939C601.507 60.3189 601.975 58.3937 602.911 56.9183C603.846 55.425 605.097 54.2554 606.662 53.4098C608.228 52.5642 609.955 51.9344 611.844 51.5206C613.751 51.0888 615.667 50.7469 617.593 50.495C620.112 50.1712 622.154 49.9283 623.719 49.7663C625.302 49.5864 626.454 49.2895 627.174 48.8757C627.911 48.4619 628.28 47.7422 628.28 46.7166V46.5007C628.28 43.8378 627.551 41.7687 626.094 40.2933C624.655 38.8179 622.469 38.0803 619.536 38.0803C616.495 38.0803 614.111 38.746 612.384 40.0774C610.657 41.4089 609.442 42.8303 608.74 44.3416L602.695 42.1825C603.775 39.6636 605.214 37.7024 607.013 36.299C608.83 34.8776 610.81 33.888 612.951 33.3303C615.11 32.7545 617.233 32.4666 619.32 32.4666C620.651 32.4666 622.181 32.6286 623.908 32.9524C625.653 33.2583 627.336 33.897 628.955 34.8686C630.592 35.8402 631.951 37.3066 633.03 39.2678C634.11 41.2289 634.65 43.8558 634.65 47.1484V74.4609H628.28V68.8473H627.956C627.525 69.7469 626.805 70.7095 625.797 71.7351C624.79 72.7607 623.449 73.6333 621.776 74.353C620.103 75.0727 618.06 75.4325 615.65 75.4325ZM616.621 69.7109C619.14 69.7109 621.263 69.2161 622.99 68.2266C624.736 67.237 626.049 65.9595 626.931 64.3942C627.83 62.8288 628.28 61.1825 628.28 59.4553V53.6257C628.01 53.9496 627.417 54.2464 626.499 54.5163C625.599 54.7682 624.556 54.9931 623.368 55.191C622.199 55.371 621.056 55.5329 619.941 55.6768C618.843 55.8028 617.953 55.9107 617.269 56.0007C615.614 56.2166 614.066 56.5675 612.627 57.0533C611.205 57.5211 610.054 58.2318 609.172 59.1854C608.309 60.121 607.877 61.3984 607.877 63.0178C607.877 65.2308 608.695 66.9041 610.333 68.0376C611.988 69.1532 614.084 69.7109 616.621 69.7109ZM664.303 33.0064V38.4041H642.82V33.0064H664.303ZM649.082 23.0746H655.451V62.5859C655.451 64.3852 655.712 65.7346 656.234 66.6342C656.773 67.5159 657.457 68.1096 658.285 68.4155C659.13 68.7034 660.021 68.8473 660.957 68.8473C661.658 68.8473 662.234 68.8113 662.684 68.7393C663.134 68.6494 663.494 68.5774 663.763 68.5234L665.059 74.245C664.627 74.407 664.024 74.5689 663.251 74.7308C662.477 74.9107 661.496 75.0007 660.309 75.0007C658.51 75.0007 656.746 74.6139 655.019 73.8402C653.31 73.0665 651.888 71.888 650.755 70.3047C649.639 68.7214 649.082 66.7242 649.082 64.3132V23.0746ZM673.884 74.4609V33.0064H680.254V74.4609H673.884ZM677.123 26.0973C675.881 26.0973 674.811 25.6745 673.911 24.8288C673.03 23.9832 672.589 22.9666 672.589 21.7791C672.589 20.5916 673.03 19.575 673.911 18.7294C674.811 17.8838 675.881 17.4609 677.123 17.4609C678.364 17.4609 679.426 17.8838 680.308 18.7294C681.207 19.575 681.657 20.5916 681.657 21.7791C681.657 22.9666 681.207 23.9832 680.308 24.8288C679.426 25.6745 678.364 26.0973 677.123 26.0973ZM708.76 75.3246C705.018 75.3246 701.734 74.4339 698.909 72.6527C696.103 70.8714 693.908 68.3795 692.324 65.1768C690.759 61.9742 689.976 58.2318 689.976 53.9496C689.976 49.6314 690.759 45.862 692.324 42.6413C693.908 39.4207 696.103 36.9197 698.909 35.1385C701.734 33.3572 705.018 32.4666 708.76 32.4666C712.503 32.4666 715.777 33.3572 718.584 35.1385C721.409 36.9197 723.604 39.4207 725.169 42.6413C726.753 45.862 727.544 49.6314 727.544 53.9496C727.544 58.2318 726.753 61.9742 725.169 65.1768C723.604 68.3795 721.409 70.8714 718.584 72.6527C715.777 74.4339 712.503 75.3246 708.76 75.3246ZM708.76 69.603C711.603 69.603 713.942 68.8743 715.777 67.4169C717.613 65.9595 718.971 64.0433 719.853 61.6683C720.734 59.2933 721.175 56.7204 721.175 53.9496C721.175 51.1787 720.734 48.5968 719.853 46.2038C718.971 43.8108 717.613 41.8767 715.777 40.4013C713.942 38.9259 711.603 38.1882 708.76 38.1882C705.917 38.1882 703.578 38.9259 701.743 40.4013C699.908 41.8767 698.55 43.8108 697.668 46.2038C696.786 48.5968 696.346 51.1787 696.346 53.9496C696.346 56.7204 696.786 59.2933 697.668 61.6683C698.55 64.0433 699.908 65.9595 701.743 67.4169C703.578 68.8743 705.917 69.603 708.76 69.603ZM743.636 49.5234V74.4609H737.267V33.0064H743.42V39.4837H743.96C744.932 37.3786 746.407 35.6873 748.386 34.4098C750.366 33.1143 752.92 32.4666 756.051 32.4666C758.858 32.4666 761.314 33.0424 763.419 34.1939C765.524 35.3274 767.161 37.0547 768.331 39.3757C769.5 41.6787 770.085 44.5935 770.085 48.12V74.4609H763.716V48.5518C763.716 45.2952 762.87 42.7583 761.179 40.941C759.488 39.1058 757.167 38.1882 754.216 38.1882C752.183 38.1882 750.366 38.629 748.764 39.5107C747.181 40.3923 745.93 41.6787 745.013 43.37C744.095 45.0613 743.636 47.1125 743.636 49.5234ZM791.224 66.9041L790.792 69.8189C790.486 71.87 790.019 74.0651 789.389 76.4041C788.777 78.7431 788.138 80.9472 787.473 83.0163C786.807 85.0855 786.258 86.7318 785.826 87.9553H780.968C781.202 86.8037 781.508 85.2834 781.886 83.3942C782.264 81.505 782.642 79.3909 783.02 77.0518C783.415 74.7308 783.739 72.3558 783.991 69.9268L784.315 66.9041H791.224ZM855.491 33.0064C855.167 30.2715 853.853 28.1484 851.55 26.6371C849.247 25.1257 846.423 24.37 843.076 24.37C840.629 24.37 838.488 24.7659 836.653 25.5575C834.835 26.3492 833.414 27.4377 832.388 28.8232C831.381 30.2086 830.877 31.7829 830.877 33.5462C830.877 35.0215 831.228 36.29 831.93 37.3516C832.649 38.3951 833.567 39.2678 834.683 39.9695C835.798 40.6532 836.968 41.2199 838.191 41.6697C839.415 42.1016 840.539 42.4524 841.565 42.7223L847.178 44.2337C848.618 44.6115 850.219 45.1333 851.982 45.799C853.763 46.4647 855.464 47.3733 857.083 48.5249C858.72 49.6584 860.07 51.1158 861.131 52.897C862.193 54.6783 862.724 56.8643 862.724 59.4553C862.724 62.442 861.941 65.1409 860.376 67.5518C858.828 69.9628 856.561 71.879 853.575 73.3004C850.606 74.7218 846.998 75.4325 842.752 75.4325C838.794 75.4325 835.366 74.7938 832.469 73.5163C829.591 72.2389 827.324 70.4576 825.668 68.1726C824.031 65.8875 823.104 63.2337 822.888 60.2109H829.798C829.978 62.2981 830.679 64.0253 831.903 65.3928C833.144 66.7422 834.71 67.7498 836.599 68.4155C838.506 69.0632 840.557 69.3871 842.752 69.3871C845.307 69.3871 847.601 68.9732 849.634 68.1456C851.667 67.3 853.278 66.1304 854.465 64.6371C855.653 63.1257 856.246 61.3625 856.246 59.3473C856.246 57.5121 855.734 56.0187 854.708 54.8672C853.683 53.7157 852.333 52.7801 850.66 52.0604C848.987 51.3407 847.178 50.7109 845.235 50.1712L838.434 48.228C834.116 46.9865 830.697 45.2143 828.178 42.9112C825.659 40.6082 824.4 37.5945 824.4 33.87C824.4 30.7753 825.237 28.0765 826.91 25.7734C828.601 23.4524 830.868 21.6532 833.711 20.3757C836.572 19.0803 839.765 18.4325 843.292 18.4325C846.854 18.4325 850.021 19.0713 852.792 20.3487C855.563 21.6082 857.758 23.3355 859.377 25.5305C861.014 27.7256 861.878 30.2176 861.968 33.0064H855.491ZM889.706 75.3246C885.819 75.3246 882.473 74.407 879.666 72.5717C876.859 70.7365 874.7 68.2086 873.189 64.9879C871.677 61.7673 870.922 58.0878 870.922 53.9496C870.922 49.7393 871.695 46.0239 873.243 42.8033C874.808 39.5646 876.985 37.0367 879.774 35.2195C882.581 33.3842 885.855 32.4666 889.598 32.4666C892.512 32.4666 895.139 33.0064 897.478 34.0859C899.817 35.1655 901.734 36.6768 903.227 38.62C904.72 40.5632 905.647 42.8303 906.007 45.4212H899.637C899.152 43.532 898.072 41.8587 896.399 40.4013C894.743 38.9259 892.512 38.1882 889.706 38.1882C887.223 38.1882 885.046 38.8359 883.174 40.1314C881.321 41.4089 879.873 43.2171 878.829 45.5561C877.804 47.8771 877.291 50.603 877.291 53.7337C877.291 56.9363 877.795 59.7251 878.802 62.1001C879.828 64.4751 881.267 66.3194 883.12 67.6328C884.992 68.9463 887.187 69.603 889.706 69.603C891.361 69.603 892.863 69.3151 894.213 68.7393C895.562 68.1636 896.705 67.3359 897.64 66.2564C898.576 65.1768 899.242 63.8814 899.637 62.37H906.007C905.647 64.817 904.756 67.0211 903.335 68.9822C901.931 70.9254 900.069 72.4728 897.748 73.6243C895.445 74.7578 892.764 75.3246 889.706 75.3246ZM915.318 74.4609V33.0064H921.687V74.4609H915.318ZM918.556 26.0973C917.315 26.0973 916.244 25.6745 915.345 24.8288C914.463 23.9832 914.022 22.9666 914.022 21.7791C914.022 20.5916 914.463 19.575 915.345 18.7294C916.244 17.8838 917.315 17.4609 918.556 17.4609C919.798 17.4609 920.859 17.8838 921.741 18.7294C922.641 19.575 923.091 20.5916 923.091 21.7791C923.091 22.9666 922.641 23.9832 921.741 24.8288C920.859 25.6745 919.798 26.0973 918.556 26.0973ZM950.734 75.3246C946.739 75.3246 943.294 74.4429 940.397 72.6797C937.518 70.8984 935.296 68.4155 933.731 65.2308C932.183 62.0282 931.41 58.3037 931.41 54.0575C931.41 49.8113 932.183 46.0689 933.731 42.8303C935.296 39.5736 937.473 37.0367 940.262 35.2195C943.069 33.3842 946.344 32.4666 950.086 32.4666C952.245 32.4666 954.377 32.8265 956.482 33.5462C958.587 34.2659 960.504 35.4354 962.231 37.0547C963.958 38.656 965.335 40.7791 966.36 43.424C967.386 46.0689 967.898 49.3255 967.898 53.1939V55.8928H935.944V50.3871H961.421C961.421 48.0481 960.953 45.9609 960.018 44.1257C959.1 42.2905 957.787 40.8421 956.077 39.7805C954.386 38.719 952.389 38.1882 950.086 38.1882C947.549 38.1882 945.354 38.8179 943.501 40.0774C941.665 41.3189 940.253 42.9382 939.263 44.9354C938.274 46.9325 937.779 49.0736 937.779 51.3587V55.0291C937.779 58.1598 938.319 60.8137 939.398 62.9908C940.496 65.1499 942.016 66.7962 943.96 67.9297C945.903 69.0452 948.161 69.603 950.734 69.603C952.407 69.603 953.918 69.3691 955.268 68.9013C956.635 68.4155 957.814 67.6958 958.803 66.7422C959.793 65.7706 960.558 64.5651 961.097 63.1257L967.251 64.853C966.603 66.9401 965.514 68.7753 963.985 70.3587C962.456 71.924 960.567 73.1475 958.317 74.0291C956.068 74.8928 953.54 75.3246 950.734 75.3246ZM983.957 49.5234V74.4609H977.587V33.0064H983.741V39.4837H984.281C985.252 37.3786 986.728 35.6873 988.707 34.4098C990.686 33.1143 993.241 32.4666 996.371 32.4666C999.178 32.4666 1001.63 33.0424 1003.74 34.1939C1005.84 35.3274 1007.48 37.0547 1008.65 39.3757C1009.82 41.6787 1010.41 44.5935 1010.41 48.12V74.4609H1004.04V48.5518C1004.04 45.2952 1003.19 42.7583 1001.5 40.941C999.808 39.1058 997.487 38.1882 994.536 38.1882C992.503 38.1882 990.686 38.629 989.085 39.5107C987.501 40.3923 986.251 41.6787 985.333 43.37C984.415 45.0613 983.957 47.1125 983.957 49.5234ZM1038.89 75.3246C1035 75.3246 1031.65 74.407 1028.85 72.5717C1026.04 70.7365 1023.88 68.2086 1022.37 64.9879C1020.86 61.7673 1020.1 58.0878 1020.1 53.9496C1020.1 49.7393 1020.87 46.0239 1022.42 42.8033C1023.99 39.5646 1026.16 37.0367 1028.95 35.2195C1031.76 33.3842 1035.03 32.4666 1038.78 32.4666C1041.69 32.4666 1044.32 33.0064 1046.66 34.0859C1049 35.1655 1050.91 36.6768 1052.41 38.62C1053.9 40.5632 1054.83 42.8303 1055.19 45.4212H1048.82C1048.33 43.532 1047.25 41.8587 1045.58 40.4013C1043.92 38.9259 1041.69 38.1882 1038.89 38.1882C1036.4 38.1882 1034.23 38.8359 1032.35 40.1314C1030.5 41.4089 1029.05 43.2171 1028.01 45.5561C1026.98 47.8771 1026.47 50.603 1026.47 53.7337C1026.47 56.9363 1026.97 59.7251 1027.98 62.1001C1029.01 64.4751 1030.45 66.3194 1032.3 67.6328C1034.17 68.9463 1036.37 69.603 1038.89 69.603C1040.54 69.603 1042.04 69.3151 1043.39 68.7393C1044.74 68.1636 1045.88 67.3359 1046.82 66.2564C1047.76 65.1768 1048.42 63.8814 1048.82 62.37H1055.19C1054.83 64.817 1053.94 67.0211 1052.51 68.9822C1051.11 70.9254 1049.25 72.4728 1046.93 73.6243C1044.62 74.7578 1041.94 75.3246 1038.89 75.3246ZM1081.88 75.3246C1077.88 75.3246 1074.44 74.4429 1071.54 72.6797C1068.66 70.8984 1066.44 68.4155 1064.88 65.2308C1063.33 62.0282 1062.55 58.3037 1062.55 54.0575C1062.55 49.8113 1063.33 46.0689 1064.88 42.8303C1066.44 39.5736 1068.62 37.0367 1071.41 35.2195C1074.21 33.3842 1077.49 32.4666 1081.23 32.4666C1083.39 32.4666 1085.52 32.8265 1087.63 33.5462C1089.73 34.2659 1091.65 35.4354 1093.38 37.0547C1095.1 38.656 1096.48 40.7791 1097.5 43.424C1098.53 46.0689 1099.04 49.3255 1099.04 53.1939V55.8928H1067.09V50.3871H1092.57C1092.57 48.0481 1092.1 45.9609 1091.16 44.1257C1090.24 42.2905 1088.93 40.8421 1087.22 39.7805C1085.53 38.719 1083.53 38.1882 1081.23 38.1882C1078.69 38.1882 1076.5 38.8179 1074.65 40.0774C1072.81 41.3189 1071.4 42.9382 1070.41 44.9354C1069.42 46.9325 1068.92 49.0736 1068.92 51.3587V55.0291C1068.92 58.1598 1069.46 60.8137 1070.54 62.9908C1071.64 65.1499 1073.16 66.7962 1075.1 67.9297C1077.05 69.0452 1079.31 69.603 1081.88 69.603C1083.55 69.603 1085.06 69.3691 1086.41 68.9013C1087.78 68.4155 1088.96 67.6958 1089.95 66.7422C1090.94 65.7706 1091.7 64.5651 1092.24 63.1257L1098.4 64.853C1097.75 66.9401 1096.66 68.7753 1095.13 70.3587C1093.6 71.924 1091.71 73.1475 1089.46 74.0291C1087.21 74.8928 1084.69 75.3246 1081.88 75.3246ZM1118.23 66.9041L1117.8 69.8189C1117.49 71.87 1117.03 74.0651 1116.4 76.4041C1115.78 78.7431 1115.15 80.9472 1114.48 83.0163C1113.81 85.0855 1113.27 86.7318 1112.83 87.9553H1107.98C1108.21 86.8037 1108.52 85.2834 1108.89 83.3942C1109.27 81.505 1109.65 79.3909 1110.03 77.0518C1110.42 74.7308 1110.75 72.3558 1111 69.9268L1111.32 66.9041H1118.23ZM1163.61 75.4325C1160.98 75.4325 1158.6 74.9377 1156.45 73.9482C1154.31 72.9406 1152.61 71.4922 1151.35 69.603C1150.09 67.6958 1149.46 65.3928 1149.46 62.6939C1149.46 60.3189 1149.93 58.3937 1150.87 56.9183C1151.8 55.425 1153.05 54.2554 1154.62 53.4098C1156.18 52.5642 1157.91 51.9344 1159.8 51.5206C1161.71 51.0888 1163.62 50.7469 1165.55 50.495C1168.07 50.1712 1170.11 49.9283 1171.68 49.7663C1173.26 49.5864 1174.41 49.2895 1175.13 48.8757C1175.87 48.4619 1176.24 47.7422 1176.24 46.7166V46.5007C1176.24 43.8378 1175.51 41.7687 1174.05 40.2933C1172.61 38.8179 1170.43 38.0803 1167.49 38.0803C1164.45 38.0803 1162.07 38.746 1160.34 40.0774C1158.61 41.4089 1157.4 42.8303 1156.7 44.3416L1150.65 42.1825C1151.73 39.6636 1153.17 37.7024 1154.97 36.299C1156.79 34.8776 1158.77 33.888 1160.91 33.3303C1163.07 32.7545 1165.19 32.4666 1167.28 32.4666C1168.61 32.4666 1170.14 32.6286 1171.87 32.9524C1173.61 33.2583 1175.29 33.897 1176.91 34.8686C1178.55 35.8402 1179.91 37.3066 1180.99 39.2678C1182.07 41.2289 1182.61 43.8558 1182.61 47.1484V74.4609H1176.24V68.8473H1175.91C1175.48 69.7469 1174.76 70.7095 1173.75 71.7351C1172.75 72.7607 1171.41 73.6333 1169.73 74.353C1168.06 75.0727 1166.02 75.4325 1163.61 75.4325ZM1164.58 69.7109C1167.1 69.7109 1169.22 69.2161 1170.95 68.2266C1172.69 67.237 1174.01 65.9595 1174.89 64.3942C1175.79 62.8288 1176.24 61.1825 1176.24 59.4553V53.6257C1175.97 53.9496 1175.37 54.2464 1174.46 54.5163C1173.56 54.7682 1172.51 54.9931 1171.33 55.191C1170.16 55.371 1169.01 55.5329 1167.9 55.6768C1166.8 55.8028 1165.91 55.9107 1165.23 56.0007C1163.57 56.2166 1162.02 56.5675 1160.58 57.0533C1159.16 57.5211 1158.01 58.2318 1157.13 59.1854C1156.27 60.121 1155.83 61.3984 1155.83 63.0178C1155.83 65.2308 1156.65 66.9041 1158.29 68.0376C1159.95 69.1532 1162.04 69.7109 1164.58 69.7109ZM1200.6 49.5234V74.4609H1194.23V33.0064H1200.39V39.4837H1200.93C1201.9 37.3786 1203.37 35.6873 1205.35 34.4098C1207.33 33.1143 1209.89 32.4666 1213.02 32.4666C1215.82 32.4666 1218.28 33.0424 1220.38 34.1939C1222.49 35.3274 1224.13 37.0547 1225.3 39.3757C1226.47 41.6787 1227.05 44.5935 1227.05 48.12V74.4609H1220.68V48.5518C1220.68 45.2952 1219.84 42.7583 1218.14 40.941C1216.45 39.1058 1214.13 38.1882 1211.18 38.1882C1209.15 38.1882 1207.33 38.629 1205.73 39.5107C1204.15 40.3923 1202.9 41.6787 1201.98 43.37C1201.06 45.0613 1200.6 47.1125 1200.6 49.5234ZM1254.34 75.3246C1250.89 75.3246 1247.84 74.4519 1245.19 72.7067C1242.55 70.9434 1240.48 68.4605 1238.99 65.2578C1237.49 62.0372 1236.75 58.2318 1236.75 53.8416C1236.75 49.4875 1237.49 45.709 1238.99 42.5064C1240.48 39.3037 1242.56 36.8298 1245.22 35.0845C1247.88 33.3393 1250.96 32.4666 1254.45 32.4666C1257.15 32.4666 1259.28 32.9164 1260.85 33.8161C1262.43 34.6977 1263.64 35.7053 1264.46 36.8388C1265.31 37.9543 1265.97 38.8719 1266.43 39.5916H1266.97V19.1882H1273.34V74.4609H1267.19V68.0916H1266.43C1265.97 68.8473 1265.3 69.8009 1264.44 70.9524C1263.57 72.0859 1262.34 73.1025 1260.74 74.0021C1259.14 74.8838 1257.01 75.3246 1254.34 75.3246ZM1255.21 69.603C1257.76 69.603 1259.92 68.9373 1261.68 67.6058C1263.45 66.2564 1264.79 64.3942 1265.7 62.0192C1266.62 59.6262 1267.08 56.8643 1267.08 53.7337C1267.08 50.639 1266.63 47.9311 1265.73 45.6101C1264.83 43.2711 1263.5 41.4538 1261.74 40.1584C1259.97 38.8449 1257.8 38.1882 1255.21 38.1882C1252.51 38.1882 1250.26 38.8809 1248.46 40.2663C1246.68 41.6338 1245.34 43.496 1244.44 45.853C1243.56 48.192 1243.12 50.8189 1243.12 53.7337C1243.12 56.6844 1243.56 59.3653 1244.46 61.7763C1245.38 64.1693 1246.73 66.0765 1248.51 67.4979C1250.31 68.9013 1252.54 69.603 1255.21 69.603ZM1308.13 74.4609V19.1882H1341.49V25.1257H1314.82V43.8018H1339.76V49.7393H1314.82V68.5234H1341.92V74.4609H1308.13ZM1369.53 75.3246C1365.64 75.3246 1362.3 74.407 1359.49 72.5717C1356.68 70.7365 1354.52 68.2086 1353.01 64.9879C1351.5 61.7673 1350.75 58.0878 1350.75 53.9496C1350.75 49.7393 1351.52 46.0239 1353.07 42.8033C1354.63 39.5646 1356.81 37.0367 1359.6 35.2195C1362.4 33.3842 1365.68 32.4666 1369.42 32.4666C1372.34 32.4666 1374.96 33.0064 1377.3 34.0859C1379.64 35.1655 1381.56 36.6768 1383.05 38.62C1384.54 40.5632 1385.47 42.8303 1385.83 45.4212H1379.46C1378.98 43.532 1377.9 41.8587 1376.22 40.4013C1374.57 38.9259 1372.34 38.1882 1369.53 38.1882C1367.05 38.1882 1364.87 38.8359 1363 40.1314C1361.15 41.4089 1359.7 43.2171 1358.65 45.5561C1357.63 47.8771 1357.12 50.603 1357.12 53.7337C1357.12 56.9363 1357.62 59.7251 1358.63 62.1001C1359.65 64.4751 1361.09 66.3194 1362.94 67.6328C1364.82 68.9463 1367.01 69.603 1369.53 69.603C1371.19 69.603 1372.69 69.3151 1374.04 68.7393C1375.39 68.1636 1376.53 67.3359 1377.46 66.2564C1378.4 65.1768 1379.07 63.8814 1379.46 62.37H1385.83C1385.47 64.817 1384.58 67.0211 1383.16 68.9822C1381.76 70.9254 1379.89 72.4728 1377.57 73.6243C1375.27 74.7578 1372.59 75.3246 1369.53 75.3246ZM1411.98 75.3246C1408.24 75.3246 1404.96 74.4339 1402.13 72.6527C1399.33 70.8714 1397.13 68.3795 1395.55 65.1768C1393.98 61.9742 1393.2 58.2318 1393.2 53.9496C1393.2 49.6314 1393.98 45.862 1395.55 42.6413C1397.13 39.4207 1399.33 36.9197 1402.13 35.1385C1404.96 33.3572 1408.24 32.4666 1411.98 32.4666C1415.73 32.4666 1419 33.3572 1421.81 35.1385C1424.63 36.9197 1426.83 39.4207 1428.39 42.6413C1429.98 45.862 1430.77 49.6314 1430.77 53.9496C1430.77 58.2318 1429.98 61.9742 1428.39 65.1768C1426.83 68.3795 1424.63 70.8714 1421.81 72.6527C1419 74.4339 1415.73 75.3246 1411.98 75.3246ZM1411.98 69.603C1414.83 69.603 1417.16 68.8743 1419 67.4169C1420.84 65.9595 1422.19 64.0433 1423.08 61.6683C1423.96 59.2933 1424.4 56.7204 1424.4 53.9496C1424.4 51.1787 1423.96 48.5968 1423.08 46.2038C1422.19 43.8108 1420.84 41.8767 1419 40.4013C1417.16 38.9259 1414.83 38.1882 1411.98 38.1882C1409.14 38.1882 1406.8 38.9259 1404.97 40.4013C1403.13 41.8767 1401.77 43.8108 1400.89 46.2038C1400.01 48.5968 1399.57 51.1787 1399.57 53.9496C1399.57 56.7204 1400.01 59.2933 1400.89 61.6683C1401.77 64.0433 1403.13 65.9595 1404.97 67.4169C1406.8 68.8743 1409.14 69.603 1411.98 69.603ZM1446.86 49.5234V74.4609H1440.49V33.0064H1446.64V39.4837H1447.18C1448.15 37.3786 1449.63 35.6873 1451.61 34.4098C1453.59 33.1143 1456.14 32.4666 1459.27 32.4666C1462.08 32.4666 1464.54 33.0424 1466.64 34.1939C1468.75 35.3274 1470.38 37.0547 1471.55 39.3757C1472.72 41.6787 1473.31 44.5935 1473.31 48.12V74.4609H1466.94V48.5518C1466.94 45.2952 1466.09 42.7583 1464.4 40.941C1462.71 39.1058 1460.39 38.1882 1457.44 38.1882C1455.41 38.1882 1453.59 38.629 1451.99 39.5107C1450.4 40.3923 1449.15 41.6787 1448.24 43.37C1447.32 45.0613 1446.86 47.1125 1446.86 49.5234ZM1501.79 75.3246C1498.05 75.3246 1494.76 74.4339 1491.94 72.6527C1489.13 70.8714 1486.93 68.3795 1485.35 65.1768C1483.79 61.9742 1483 58.2318 1483 53.9496C1483 49.6314 1483.79 45.862 1485.35 42.6413C1486.93 39.4207 1489.13 36.9197 1491.94 35.1385C1494.76 33.3572 1498.05 32.4666 1501.79 32.4666C1505.53 32.4666 1508.8 33.3572 1511.61 35.1385C1514.44 36.9197 1516.63 39.4207 1518.2 42.6413C1519.78 45.862 1520.57 49.6314 1520.57 53.9496C1520.57 58.2318 1519.78 61.9742 1518.2 65.1768C1516.63 68.3795 1514.44 70.8714 1511.61 72.6527C1508.8 74.4339 1505.53 75.3246 1501.79 75.3246ZM1501.79 69.603C1504.63 69.603 1506.97 68.8743 1508.8 67.4169C1510.64 65.9595 1512 64.0433 1512.88 61.6683C1513.76 59.2933 1514.2 56.7204 1514.2 53.9496C1514.2 51.1787 1513.76 48.5968 1512.88 46.2038C1512 43.8108 1510.64 41.8767 1508.8 40.4013C1506.97 38.9259 1504.63 38.1882 1501.79 38.1882C1498.94 38.1882 1496.61 38.9259 1494.77 40.4013C1492.94 41.8767 1491.58 43.8108 1490.7 46.2038C1489.81 48.5968 1489.37 51.1787 1489.37 53.9496C1489.37 56.7204 1489.81 59.2933 1490.7 61.6683C1491.58 64.0433 1492.94 65.9595 1494.77 67.4169C1496.61 68.8743 1498.94 69.603 1501.79 69.603ZM1530.29 74.4609V33.0064H1536.45V39.4837H1536.99C1537.85 37.2706 1539.25 35.5523 1541.17 34.3288C1543.1 33.0874 1545.41 32.4666 1548.11 32.4666C1550.84 32.4666 1553.12 33.0874 1554.94 34.3288C1556.77 35.5523 1558.2 37.2706 1559.23 39.4837H1559.66C1560.72 37.3426 1562.31 35.6423 1564.44 34.3828C1566.56 33.1054 1569.1 32.4666 1572.07 32.4666C1575.78 32.4666 1578.81 33.6271 1581.17 35.9482C1583.52 38.2512 1584.7 41.8407 1584.7 46.7166V74.4609H1578.33V46.7166C1578.33 43.6579 1577.5 41.4718 1575.82 40.1584C1574.15 38.8449 1572.18 38.1882 1569.91 38.1882C1567 38.1882 1564.74 39.0698 1563.14 40.8331C1561.54 42.5784 1560.74 44.7914 1560.74 47.4723V74.4609H1554.26V46.0689C1554.26 43.7119 1553.5 41.8137 1551.97 40.3743C1550.44 38.9169 1548.47 38.1882 1546.06 38.1882C1544.4 38.1882 1542.85 38.629 1541.41 39.5107C1539.99 40.3923 1538.84 41.6158 1537.96 43.1811C1537.1 44.7285 1536.66 46.5187 1536.66 48.5518V74.4609H1530.29ZM1596.35 74.4609V33.0064H1602.72V74.4609H1596.35ZM1599.59 26.0973C1598.35 26.0973 1597.28 25.6745 1596.38 24.8288C1595.49 23.9832 1595.05 22.9666 1595.05 21.7791C1595.05 20.5916 1595.49 19.575 1596.38 18.7294C1597.28 17.8838 1598.35 17.4609 1599.59 17.4609C1600.83 17.4609 1601.89 17.8838 1602.77 18.7294C1603.67 19.575 1604.12 20.5916 1604.12 21.7791C1604.12 22.9666 1603.67 23.9832 1602.77 24.8288C1601.89 25.6745 1600.83 26.0973 1599.59 26.0973ZM1631.23 75.3246C1627.34 75.3246 1623.99 74.407 1621.19 72.5717C1618.38 70.7365 1616.22 68.2086 1614.71 64.9879C1613.2 61.7673 1612.44 58.0878 1612.44 53.9496C1612.44 49.7393 1613.21 46.0239 1614.76 42.8033C1616.33 39.5646 1618.5 37.0367 1621.29 35.2195C1624.1 33.3842 1627.37 32.4666 1631.12 32.4666C1634.03 32.4666 1636.66 33.0064 1639 34.0859C1641.34 35.1655 1643.25 36.6768 1644.75 38.62C1646.24 40.5632 1647.17 42.8303 1647.53 45.4212H1641.16C1640.67 43.532 1639.59 41.8587 1637.92 40.4013C1636.26 38.9259 1634.03 38.1882 1631.23 38.1882C1628.74 38.1882 1626.57 38.8359 1624.69 40.1314C1622.84 41.4089 1621.39 43.2171 1620.35 45.5561C1619.32 47.8771 1618.81 50.603 1618.81 53.7337C1618.81 56.9363 1619.31 59.7251 1620.32 62.1001C1621.35 64.4751 1622.79 66.3194 1624.64 67.6328C1626.51 68.9463 1628.71 69.603 1631.23 69.603C1632.88 69.603 1634.38 69.3151 1635.73 68.7393C1637.08 68.1636 1638.22 67.3359 1639.16 66.2564C1640.1 65.1768 1640.76 63.8814 1641.16 62.37H1647.53C1647.17 64.817 1646.28 67.0211 1644.85 68.9822C1643.45 70.9254 1641.59 72.4728 1639.27 73.6243C1636.96 74.7578 1634.28 75.3246 1631.23 75.3246ZM427.438 166.461H410.381V111.188H428.193C433.555 111.188 438.143 112.295 441.957 114.508C445.772 116.703 448.696 119.861 450.729 123.981C452.762 128.083 453.778 132.995 453.778 138.717C453.778 144.474 452.753 149.431 450.702 153.587C448.651 157.726 445.664 160.91 441.741 163.141C437.819 165.354 433.051 166.461 427.438 166.461ZM417.074 160.523H427.006C431.576 160.523 435.363 159.642 438.368 157.879C441.373 156.115 443.613 153.605 445.088 150.349C446.563 147.092 447.301 143.215 447.301 138.717C447.301 134.254 446.572 130.413 445.115 127.192C443.658 123.954 441.481 121.471 438.584 119.744C435.687 117.998 432.08 117.126 427.761 117.126H417.074V160.523ZM481.523 167.325C477.528 167.325 474.083 166.443 471.186 164.68C468.307 162.898 466.085 160.415 464.52 157.231C462.973 154.028 462.199 150.304 462.199 146.058C462.199 141.811 462.973 138.069 464.52 134.83C466.085 131.574 468.262 129.037 471.051 127.219C473.858 125.384 477.133 124.467 480.875 124.467C483.034 124.467 485.166 124.826 487.271 125.546C489.376 126.266 491.293 127.435 493.02 129.055C494.747 130.656 496.124 132.779 497.149 135.424C498.175 138.069 498.688 141.326 498.688 145.194V147.893H466.733V142.387H492.21C492.21 140.048 491.742 137.961 490.807 136.126C489.889 134.29 488.576 132.842 486.866 131.781C485.175 130.719 483.178 130.188 480.875 130.188C478.338 130.188 476.143 130.818 474.29 132.077C472.455 133.319 471.042 134.938 470.053 136.935C469.063 138.933 468.568 141.074 468.568 143.359V147.029C468.568 150.16 469.108 152.814 470.188 154.991C471.285 157.15 472.805 158.796 474.749 159.93C476.692 161.045 478.95 161.603 481.523 161.603C483.196 161.603 484.707 161.369 486.057 160.901C487.424 160.415 488.603 159.696 489.592 158.742C490.582 157.771 491.347 156.565 491.886 155.126L498.04 156.853C497.392 158.94 496.304 160.775 494.774 162.359C493.245 163.924 491.356 165.147 489.107 166.029C486.857 166.893 484.33 167.325 481.523 167.325ZM541.012 125.006L525.683 166.461H519.206L503.876 125.006H510.785L522.228 158.04H522.66L534.103 125.006H541.012ZM565.316 167.325C561.321 167.325 557.876 166.443 554.979 164.68C552.1 162.898 549.878 160.415 548.313 157.231C546.766 154.028 545.992 150.304 545.992 146.058C545.992 141.811 546.766 138.069 548.313 134.83C549.878 131.574 552.055 129.037 554.844 127.219C557.651 125.384 560.926 124.467 564.668 124.467C566.827 124.467 568.959 124.826 571.064 125.546C573.169 126.266 575.086 127.435 576.813 129.055C578.54 130.656 579.917 132.779 580.942 135.424C581.968 138.069 582.48 141.326 582.48 145.194V147.893H550.526V142.387H576.003C576.003 140.048 575.535 137.961 574.6 136.126C573.682 134.29 572.369 132.842 570.659 131.781C568.968 130.719 566.971 130.188 564.668 130.188C562.131 130.188 559.936 130.818 558.083 132.077C556.248 133.319 554.835 134.938 553.846 136.935C552.856 138.933 552.361 141.074 552.361 143.359V147.029C552.361 150.16 552.901 152.814 553.98 154.991C555.078 157.15 556.598 158.796 558.542 159.93C560.485 161.045 562.743 161.603 565.316 161.603C566.989 161.603 568.5 161.369 569.85 160.901C571.217 160.415 572.396 159.696 573.385 158.742C574.375 157.771 575.14 156.565 575.679 155.126L581.833 156.853C581.185 158.94 580.096 160.775 578.567 162.359C577.038 163.924 575.149 165.147 572.9 166.029C570.65 166.893 568.123 167.325 565.316 167.325ZM598.539 111.188V166.461H592.169V111.188H598.539ZM627.045 167.325C623.303 167.325 620.019 166.434 617.195 164.653C614.388 162.871 612.193 160.379 610.609 157.177C609.044 153.974 608.261 150.232 608.261 145.95C608.261 141.631 609.044 137.862 610.609 134.641C612.193 131.421 614.388 128.92 617.195 127.138C620.019 125.357 623.303 124.467 627.045 124.467C630.788 124.467 634.063 125.357 636.869 127.138C639.694 128.92 641.889 131.421 643.455 134.641C645.038 137.862 645.83 141.631 645.83 145.95C645.83 150.232 645.038 153.974 643.455 157.177C641.889 160.379 639.694 162.871 636.869 164.653C634.063 166.434 630.788 167.325 627.045 167.325ZM627.045 161.603C629.888 161.603 632.227 160.874 634.062 159.417C635.898 157.96 637.256 156.043 638.138 153.668C639.019 151.293 639.46 148.72 639.46 145.95C639.46 143.179 639.019 140.597 638.138 138.204C637.256 135.811 635.898 133.877 634.062 132.401C632.227 130.926 629.888 130.188 627.045 130.188C624.203 130.188 621.864 130.926 620.028 132.401C618.193 133.877 616.835 135.811 615.953 138.204C615.071 140.597 614.631 143.179 614.631 145.95C614.631 148.72 615.071 151.293 615.953 153.668C616.835 156.043 618.193 157.96 620.028 159.417C621.864 160.874 624.203 161.603 627.045 161.603ZM655.552 182.006V125.006H661.706V131.592H662.461C662.929 130.872 663.577 129.954 664.404 128.839C665.25 127.705 666.456 126.698 668.021 125.816C669.604 124.916 671.745 124.467 674.444 124.467C677.935 124.467 681.011 125.339 683.674 127.085C686.337 128.83 688.415 131.304 689.909 134.506C691.402 137.709 692.149 141.487 692.149 145.842C692.149 150.232 691.402 154.037 689.909 157.258C688.415 160.46 686.346 162.943 683.701 164.707C681.056 166.452 678.007 167.325 674.552 167.325C671.889 167.325 669.757 166.884 668.156 166.002C666.555 165.103 665.322 164.086 664.458 162.952C663.595 161.801 662.929 160.847 662.461 160.092H661.922V182.006H655.552ZM661.814 145.734C661.814 148.864 662.272 151.626 663.19 154.019C664.108 156.394 665.448 158.256 667.211 159.606C668.975 160.937 671.134 161.603 673.689 161.603C676.351 161.603 678.574 160.901 680.355 159.498C682.154 158.076 683.503 156.169 684.403 153.776C685.321 151.365 685.779 148.684 685.779 145.734C685.779 142.819 685.33 140.192 684.43 137.853C683.548 135.496 682.208 133.634 680.409 132.266C678.627 130.881 676.387 130.188 673.689 130.188C671.098 130.188 668.921 130.845 667.157 132.158C665.394 133.454 664.063 135.271 663.163 137.61C662.263 139.931 661.814 142.639 661.814 145.734ZM701.865 166.461V125.006H708.018V131.484H708.558C709.422 129.271 710.816 127.552 712.741 126.329C714.666 125.087 716.978 124.467 719.677 124.467C722.412 124.467 724.688 125.087 726.505 126.329C728.341 127.552 729.771 129.271 730.797 131.484H731.228C732.29 129.343 733.882 127.642 736.005 126.383C738.128 125.105 740.674 124.467 743.643 124.467C747.35 124.467 750.381 125.627 752.738 127.948C755.095 130.251 756.274 133.841 756.274 138.717V166.461H749.904V138.717C749.904 135.658 749.068 133.472 747.395 132.158C745.721 130.845 743.751 130.188 741.484 130.188C738.569 130.188 736.311 131.07 734.71 132.833C733.109 134.578 732.308 136.791 732.308 139.472V166.461H725.831V138.069C725.831 135.712 725.066 133.814 723.537 132.374C722.007 130.917 720.037 130.188 717.626 130.188C715.971 130.188 714.423 130.629 712.984 131.511C711.563 132.392 710.411 133.616 709.529 135.181C708.666 136.728 708.234 138.519 708.234 140.552V166.461H701.865ZM785.3 167.325C781.306 167.325 777.86 166.443 774.963 164.68C772.085 162.898 769.863 160.415 768.297 157.231C766.75 154.028 765.976 150.304 765.976 146.058C765.976 141.811 766.75 138.069 768.297 134.83C769.863 131.574 772.04 129.037 774.828 127.219C777.635 125.384 780.91 124.467 784.652 124.467C786.811 124.467 788.944 124.826 791.049 125.546C793.154 126.266 795.07 127.435 796.797 129.055C798.525 130.656 799.901 132.779 800.926 135.424C801.952 138.069 802.465 141.326 802.465 145.194V147.893H770.51V142.387H795.988C795.988 140.048 795.52 137.961 794.584 136.126C793.667 134.29 792.353 132.842 790.644 131.781C788.953 130.719 786.955 130.188 784.652 130.188C782.115 130.188 779.92 130.818 778.067 132.077C776.232 133.319 774.819 134.938 773.83 136.935C772.84 138.933 772.346 141.074 772.346 143.359V147.029C772.346 150.16 772.885 152.814 773.965 154.991C775.062 157.15 776.583 158.796 778.526 159.93C780.469 161.045 782.727 161.603 785.3 161.603C786.973 161.603 788.485 161.369 789.834 160.901C791.202 160.415 792.38 159.696 793.37 158.742C794.359 157.771 795.124 156.565 795.664 155.126L801.817 156.853C801.169 158.94 800.081 160.775 798.551 162.359C797.022 163.924 795.133 165.147 792.884 166.029C790.635 166.893 788.107 167.325 785.3 167.325ZM818.523 141.523V166.461H812.154V125.006H818.307V131.484H818.847C819.819 129.379 821.294 127.687 823.273 126.41C825.252 125.114 827.807 124.467 830.938 124.467C833.745 124.467 836.201 125.042 838.306 126.194C840.411 127.327 842.048 129.055 843.218 131.376C844.387 133.679 844.972 136.594 844.972 140.12V166.461H838.603V140.552C838.603 137.295 837.757 134.758 836.066 132.941C834.374 131.106 832.053 130.188 829.103 130.188C827.069 130.188 825.252 130.629 823.651 131.511C822.068 132.392 820.817 133.679 819.9 135.37C818.982 137.061 818.523 139.112 818.523 141.523ZM874.639 125.006V130.404H853.156V125.006H874.639ZM859.418 115.075H865.787V154.586C865.787 156.385 866.048 157.735 866.57 158.634C867.109 159.516 867.793 160.11 868.621 160.415C869.466 160.703 870.357 160.847 871.293 160.847C871.994 160.847 872.57 160.811 873.02 160.739C873.47 160.649 873.83 160.577 874.099 160.523L875.395 166.245C874.963 166.407 874.36 166.569 873.587 166.731C872.813 166.911 871.832 167.001 870.645 167.001C868.846 167.001 867.082 166.614 865.355 165.84C863.646 165.067 862.224 163.888 861.091 162.305C859.975 160.721 859.418 158.724 859.418 156.313V115.075ZM950.936 128.461H944.243C943.847 126.536 943.154 124.844 942.165 123.387C941.193 121.93 940.006 120.706 938.602 119.717C937.217 118.709 935.679 117.953 933.987 117.45C932.296 116.946 930.533 116.694 928.697 116.694C925.351 116.694 922.319 117.54 919.602 119.231C916.903 120.922 914.753 123.414 913.152 126.707C911.569 129.999 910.777 134.039 910.777 138.825C910.777 143.611 911.569 147.65 913.152 150.942C914.753 154.235 916.903 156.727 919.602 158.418C922.319 160.11 925.351 160.955 928.697 160.955C930.533 160.955 932.296 160.703 933.987 160.2C935.679 159.696 937.217 158.949 938.602 157.96C940.006 156.952 941.193 155.719 942.165 154.262C943.154 152.787 943.847 151.095 944.243 149.188H950.936C950.432 152.013 949.515 154.541 948.183 156.772C946.852 159.003 945.196 160.901 943.217 162.467C941.238 164.014 939.016 165.192 936.551 166.002C934.104 166.812 931.486 167.217 928.697 167.217C923.983 167.217 919.791 166.065 916.121 163.762C912.45 161.459 909.563 158.184 907.457 153.938C905.352 149.692 904.3 144.654 904.3 138.825C904.3 132.995 905.352 127.957 907.457 123.711C909.563 119.465 912.45 116.19 916.121 113.887C919.791 111.584 923.983 110.433 928.697 110.433C931.486 110.433 934.104 110.837 936.551 111.647C939.016 112.457 941.238 113.644 943.217 115.21C945.196 116.757 946.852 118.646 948.183 120.877C949.515 123.09 950.432 125.618 950.936 128.461ZM973.087 167.433C970.46 167.433 968.076 166.938 965.935 165.948C963.794 164.941 962.094 163.492 960.834 161.603C959.575 159.696 958.945 157.393 958.945 154.694C958.945 152.319 959.413 150.394 960.348 148.918C961.284 147.425 962.534 146.255 964.1 145.41C965.665 144.564 967.392 143.934 969.282 143.521C971.189 143.089 973.105 142.747 975.03 142.495C977.549 142.171 979.591 141.928 981.157 141.766C982.74 141.586 983.891 141.29 984.611 140.876C985.349 140.462 985.718 139.742 985.718 138.717V138.501C985.718 135.838 984.989 133.769 983.532 132.293C982.092 130.818 979.906 130.08 976.973 130.08C973.933 130.08 971.549 130.746 969.821 132.077C968.094 133.409 966.88 134.83 966.178 136.342L960.132 134.183C961.212 131.664 962.651 129.702 964.451 128.299C966.268 126.878 968.247 125.888 970.388 125.33C972.547 124.754 974.67 124.467 976.757 124.467C978.089 124.467 979.618 124.629 981.346 124.952C983.091 125.258 984.773 125.897 986.392 126.869C988.03 127.84 989.388 129.307 990.468 131.268C991.547 133.229 992.087 135.856 992.087 139.148V166.461H985.718V160.847H985.394C984.962 161.747 984.242 162.71 983.235 163.735C982.227 164.761 980.887 165.633 979.213 166.353C977.54 167.073 975.498 167.433 973.087 167.433ZM974.059 161.711C976.578 161.711 978.701 161.216 980.428 160.227C982.173 159.237 983.487 157.96 984.368 156.394C985.268 154.829 985.718 153.183 985.718 151.455V145.626C985.448 145.95 984.854 146.246 983.936 146.516C983.037 146.768 981.993 146.993 980.806 147.191C979.636 147.371 978.494 147.533 977.378 147.677C976.281 147.803 975.39 147.911 974.706 148.001C973.051 148.217 971.504 148.567 970.064 149.053C968.643 149.521 967.491 150.232 966.61 151.185C965.746 152.121 965.314 153.398 965.314 155.018C965.314 157.231 966.133 158.904 967.77 160.038C969.426 161.153 971.522 161.711 974.059 161.711ZM1010.08 141.523V166.461H1003.71V125.006H1009.87V131.484H1010.41C1011.38 129.379 1012.85 127.687 1014.83 126.41C1016.81 125.114 1019.37 124.467 1022.5 124.467C1025.3 124.467 1027.76 125.042 1029.86 126.194C1031.97 127.327 1033.61 129.055 1034.78 131.376C1035.95 133.679 1036.53 136.594 1036.53 140.12V166.461H1030.16V140.552C1030.16 137.295 1029.32 134.758 1027.62 132.941C1025.93 131.106 1023.61 130.188 1020.66 130.188C1018.63 130.188 1016.81 130.629 1015.21 131.511C1013.63 132.392 1012.38 133.679 1011.46 135.37C1010.54 137.061 1010.08 139.112 1010.08 141.523ZM1060.37 167.433C1057.74 167.433 1055.36 166.938 1053.22 165.948C1051.08 164.941 1049.37 163.492 1048.12 161.603C1046.86 159.696 1046.23 157.393 1046.23 154.694C1046.23 152.319 1046.69 150.394 1047.63 148.918C1048.57 147.425 1049.82 146.255 1051.38 145.41C1052.95 144.564 1054.67 143.934 1056.56 143.521C1058.47 143.089 1060.39 142.747 1062.31 142.495C1064.83 142.171 1066.87 141.928 1068.44 141.766C1070.02 141.586 1071.17 141.29 1071.89 140.876C1072.63 140.462 1073 139.742 1073 138.717V138.501C1073 135.838 1072.27 133.769 1070.81 132.293C1069.37 130.818 1067.19 130.08 1064.25 130.08C1061.21 130.08 1058.83 130.746 1057.1 132.077C1055.38 133.409 1054.16 134.83 1053.46 136.342L1047.41 134.183C1048.49 131.664 1049.93 129.702 1051.73 128.299C1053.55 126.878 1055.53 125.888 1057.67 125.33C1059.83 124.754 1061.95 124.467 1064.04 124.467C1065.37 124.467 1066.9 124.629 1068.63 124.952C1070.37 125.258 1072.05 125.897 1073.67 126.869C1075.31 127.84 1076.67 129.307 1077.75 131.268C1078.83 133.229 1079.37 135.856 1079.37 139.148V166.461H1073V160.847H1072.68C1072.24 161.747 1071.52 162.71 1070.52 163.735C1069.51 164.761 1068.17 165.633 1066.49 166.353C1064.82 167.073 1062.78 167.433 1060.37 167.433ZM1061.34 161.711C1063.86 161.711 1065.98 161.216 1067.71 160.227C1069.45 159.237 1070.77 157.96 1071.65 156.394C1072.55 154.829 1073 153.183 1073 151.455V145.626C1072.73 145.95 1072.14 146.246 1071.22 146.516C1070.32 146.768 1069.27 146.993 1068.09 147.191C1066.92 147.371 1065.77 147.533 1064.66 147.677C1063.56 147.803 1062.67 147.911 1061.99 148.001C1060.33 148.217 1058.78 148.567 1057.35 149.053C1055.92 149.521 1054.77 150.232 1053.89 151.185C1053.03 152.121 1052.6 153.398 1052.6 155.018C1052.6 157.231 1053.41 158.904 1055.05 160.038C1056.71 161.153 1058.8 161.711 1061.34 161.711ZM1106.65 167.325C1103.19 167.325 1100.14 166.452 1097.5 164.707C1094.85 162.943 1092.78 160.46 1091.29 157.258C1089.8 154.037 1089.05 150.232 1089.05 145.842C1089.05 141.487 1089.8 137.709 1091.29 134.506C1092.78 131.304 1094.86 128.83 1097.52 127.085C1100.19 125.339 1103.26 124.467 1106.75 124.467C1109.45 124.467 1111.59 124.916 1113.15 125.816C1114.73 126.698 1115.94 127.705 1116.77 128.839C1117.61 129.954 1118.27 130.872 1118.74 131.592H1119.28V111.188H1125.65V166.461H1119.49V160.092H1118.74C1118.27 160.847 1117.6 161.801 1116.74 162.952C1115.88 164.086 1114.64 165.103 1113.04 166.002C1111.44 166.884 1109.31 167.325 1106.65 167.325ZM1107.51 161.603C1110.07 161.603 1112.22 160.937 1113.99 159.606C1115.75 158.256 1117.09 156.394 1118.01 154.019C1118.93 151.626 1119.39 148.864 1119.39 145.734C1119.39 142.639 1118.94 139.931 1118.04 137.61C1117.14 135.271 1115.81 133.454 1114.04 132.158C1112.28 130.845 1110.1 130.188 1107.51 130.188C1104.81 130.188 1102.56 130.881 1100.76 132.266C1098.98 133.634 1097.64 135.496 1096.74 137.853C1095.86 140.192 1095.42 142.819 1095.42 145.734C1095.42 148.684 1095.87 151.365 1096.77 153.776C1097.69 156.169 1099.04 158.076 1100.82 159.498C1102.62 160.901 1104.85 161.603 1107.51 161.603ZM1150.4 167.433C1147.77 167.433 1145.38 166.938 1143.24 165.948C1141.1 164.941 1139.4 163.492 1138.14 161.603C1136.88 159.696 1136.25 157.393 1136.25 154.694C1136.25 152.319 1136.72 150.394 1137.66 148.918C1138.59 147.425 1139.84 146.255 1141.41 145.41C1142.97 144.564 1144.7 143.934 1146.59 143.521C1148.5 143.089 1150.41 142.747 1152.34 142.495C1154.86 142.171 1156.9 141.928 1158.47 141.766C1160.05 141.586 1161.2 141.29 1161.92 140.876C1162.66 140.462 1163.03 139.742 1163.03 138.717V138.501C1163.03 135.838 1162.3 133.769 1160.84 132.293C1159.4 130.818 1157.21 130.08 1154.28 130.08C1151.24 130.08 1148.86 130.746 1147.13 132.077C1145.4 133.409 1144.19 134.83 1143.49 136.342L1137.44 134.183C1138.52 131.664 1139.96 129.702 1141.76 128.299C1143.58 126.878 1145.56 125.888 1147.7 125.33C1149.86 124.754 1151.98 124.467 1154.07 124.467C1155.4 124.467 1156.93 124.629 1158.65 124.952C1160.4 125.258 1162.08 125.897 1163.7 126.869C1165.34 127.84 1166.7 129.307 1167.78 131.268C1168.86 133.229 1169.4 135.856 1169.4 139.148V166.461H1163.03V160.847H1162.7C1162.27 161.747 1161.55 162.71 1160.54 163.735C1159.54 164.761 1158.2 165.633 1156.52 166.353C1154.85 167.073 1152.81 167.433 1150.4 167.433ZM1151.37 161.711C1153.89 161.711 1156.01 161.216 1157.74 160.227C1159.48 159.237 1160.8 157.96 1161.68 156.394C1162.58 154.829 1163.03 153.183 1163.03 151.455V145.626C1162.76 145.95 1162.16 146.246 1161.25 146.516C1160.35 146.768 1159.3 146.993 1158.11 147.191C1156.94 147.371 1155.8 147.533 1154.69 147.677C1153.59 147.803 1152.7 147.911 1152.01 148.001C1150.36 148.217 1148.81 148.567 1147.37 149.053C1145.95 149.521 1144.8 150.232 1143.92 151.185C1143.05 152.121 1142.62 153.398 1142.62 155.018C1142.62 157.231 1143.44 158.904 1145.08 160.038C1146.73 161.153 1148.83 161.711 1151.37 161.711Z" fill="white"/>
<path d="M417.074 213.188V268.461H410.381V213.188H417.074ZM436 243.523V268.461H429.63V227.006H435.784V233.484H436.324C437.295 231.379 438.77 229.687 440.75 228.41C442.729 227.114 445.284 226.467 448.414 226.467C451.221 226.467 453.677 227.042 455.782 228.194C457.887 229.327 459.525 231.055 460.694 233.376C461.864 235.679 462.449 238.594 462.449 242.12V268.461H456.079V242.552C456.079 239.295 455.234 236.758 453.542 234.941C451.851 233.106 449.53 232.188 446.579 232.188C444.546 232.188 442.729 232.629 441.127 233.511C439.544 234.392 438.294 235.679 437.376 237.37C436.458 239.061 436 241.112 436 243.523ZM480.457 243.523V268.461H474.087V227.006H480.241V233.484H480.781C481.752 231.379 483.228 229.687 485.207 228.41C487.186 227.114 489.741 226.467 492.871 226.467C495.678 226.467 498.134 227.042 500.239 228.194C502.344 229.327 503.982 231.055 505.151 233.376C506.321 235.679 506.906 238.594 506.906 242.12V268.461H500.536V242.552C500.536 239.295 499.691 236.758 497.999 234.941C496.308 233.106 493.987 232.188 491.036 232.188C489.003 232.188 487.186 232.629 485.585 233.511C484.001 234.392 482.751 235.679 481.833 237.37C480.915 239.061 480.457 241.112 480.457 243.523ZM535.385 269.325C531.643 269.325 528.359 268.434 525.534 266.653C522.728 264.871 520.533 262.379 518.949 259.177C517.384 255.974 516.601 252.232 516.601 247.95C516.601 243.631 517.384 239.862 518.949 236.641C520.533 233.421 522.728 230.92 525.534 229.138C528.359 227.357 531.643 226.467 535.385 226.467C539.128 226.467 542.402 227.357 545.209 229.138C548.034 230.92 550.229 233.421 551.794 236.641C553.378 239.862 554.169 243.631 554.169 247.95C554.169 252.232 553.378 255.974 551.794 259.177C550.229 262.379 548.034 264.871 545.209 266.653C542.402 268.434 539.128 269.325 535.385 269.325ZM535.385 263.603C538.228 263.603 540.567 262.874 542.402 261.417C544.238 259.96 545.596 258.043 546.478 255.668C547.359 253.293 547.8 250.72 547.8 247.95C547.8 245.179 547.359 242.597 546.478 240.204C545.596 237.811 544.238 235.877 542.402 234.401C540.567 232.926 538.228 232.188 535.385 232.188C532.542 232.188 530.203 232.926 528.368 234.401C526.533 235.877 525.175 237.811 524.293 240.204C523.411 242.597 522.971 245.179 522.971 247.95C522.971 250.72 523.411 253.293 524.293 255.668C525.175 258.043 526.533 259.96 528.368 261.417C530.203 262.874 532.542 263.603 535.385 263.603ZM596.305 227.006L580.976 268.461H574.499L559.169 227.006H566.078L577.521 260.04H577.953L589.396 227.006H596.305ZM615.65 269.433C613.023 269.433 610.639 268.938 608.498 267.948C606.356 266.941 604.656 265.492 603.397 263.603C602.137 261.696 601.507 259.393 601.507 256.694C601.507 254.319 601.975 252.394 602.911 250.918C603.846 249.425 605.097 248.255 606.662 247.41C608.228 246.564 609.955 245.934 611.844 245.521C613.751 245.089 615.667 244.747 617.593 244.495C620.112 244.171 622.154 243.928 623.719 243.766C625.302 243.586 626.454 243.29 627.174 242.876C627.911 242.462 628.28 241.742 628.28 240.717V240.501C628.28 237.838 627.551 235.769 626.094 234.293C624.655 232.818 622.469 232.08 619.536 232.08C616.495 232.08 614.111 232.746 612.384 234.077C610.657 235.409 609.442 236.83 608.74 238.342L602.695 236.183C603.775 233.664 605.214 231.702 607.013 230.299C608.83 228.878 610.81 227.888 612.951 227.33C615.11 226.754 617.233 226.467 619.32 226.467C620.651 226.467 622.181 226.629 623.908 226.952C625.653 227.258 627.336 227.897 628.955 228.869C630.592 229.84 631.951 231.307 633.03 233.268C634.11 235.229 634.65 237.856 634.65 241.148V268.461H628.28V262.847H627.956C627.525 263.747 626.805 264.71 625.797 265.735C624.79 266.761 623.449 267.633 621.776 268.353C620.103 269.073 618.06 269.433 615.65 269.433ZM616.621 263.711C619.14 263.711 621.263 263.216 622.99 262.227C624.736 261.237 626.049 259.96 626.931 258.394C627.83 256.829 628.28 255.183 628.28 253.455V247.626C628.01 247.95 627.417 248.246 626.499 248.516C625.599 248.768 624.556 248.993 623.368 249.191C622.199 249.371 621.056 249.533 619.941 249.677C618.843 249.803 617.953 249.911 617.269 250.001C615.614 250.217 614.066 250.567 612.627 251.053C611.205 251.521 610.054 252.232 609.172 253.185C608.309 254.121 607.877 255.398 607.877 257.018C607.877 259.231 608.695 260.904 610.333 262.038C611.988 263.153 614.084 263.711 616.621 263.711ZM664.303 227.006V232.404H642.82V227.006H664.303ZM649.082 217.075H655.451V256.586C655.451 258.385 655.712 259.735 656.234 260.634C656.773 261.516 657.457 262.11 658.285 262.415C659.13 262.703 660.021 262.847 660.957 262.847C661.658 262.847 662.234 262.811 662.684 262.739C663.134 262.649 663.494 262.577 663.763 262.523L665.059 268.245C664.627 268.407 664.024 268.569 663.251 268.731C662.477 268.911 661.496 269.001 660.309 269.001C658.51 269.001 656.746 268.614 655.019 267.84C653.31 267.067 651.888 265.888 650.755 264.305C649.639 262.721 649.082 260.724 649.082 258.313V217.075ZM673.884 268.461V227.006H680.254V268.461H673.884ZM677.123 220.097C675.881 220.097 674.811 219.674 673.911 218.829C673.03 217.983 672.589 216.967 672.589 215.779C672.589 214.592 673.03 213.575 673.911 212.729C674.811 211.884 675.881 211.461 677.123 211.461C678.364 211.461 679.426 211.884 680.308 212.729C681.207 213.575 681.657 214.592 681.657 215.779C681.657 216.967 681.207 217.983 680.308 218.829C679.426 219.674 678.364 220.097 677.123 220.097ZM708.76 269.325C705.018 269.325 701.734 268.434 698.909 266.653C696.103 264.871 693.908 262.379 692.324 259.177C690.759 255.974 689.976 252.232 689.976 247.95C689.976 243.631 690.759 239.862 692.324 236.641C693.908 233.421 696.103 230.92 698.909 229.138C701.734 227.357 705.018 226.467 708.76 226.467C712.503 226.467 715.777 227.357 718.584 229.138C721.409 230.92 723.604 233.421 725.169 236.641C726.753 239.862 727.544 243.631 727.544 247.95C727.544 252.232 726.753 255.974 725.169 259.177C723.604 262.379 721.409 264.871 718.584 266.653C715.777 268.434 712.503 269.325 708.76 269.325ZM708.76 263.603C711.603 263.603 713.942 262.874 715.777 261.417C717.613 259.96 718.971 258.043 719.853 255.668C720.734 253.293 721.175 250.72 721.175 247.95C721.175 245.179 720.734 242.597 719.853 240.204C718.971 237.811 717.613 235.877 715.777 234.401C713.942 232.926 711.603 232.188 708.76 232.188C705.917 232.188 703.578 232.926 701.743 234.401C699.908 235.877 698.55 237.811 697.668 240.204C696.786 242.597 696.346 245.179 696.346 247.95C696.346 250.72 696.786 253.293 697.668 255.668C698.55 258.043 699.908 259.96 701.743 261.417C703.578 262.874 705.917 263.603 708.76 263.603ZM743.636 243.523V268.461H737.267V227.006H743.42V233.484H743.96C744.932 231.379 746.407 229.687 748.386 228.41C750.366 227.114 752.92 226.467 756.051 226.467C758.858 226.467 761.314 227.042 763.419 228.194C765.524 229.327 767.161 231.055 768.331 233.376C769.5 235.679 770.085 238.594 770.085 242.12V268.461H763.716V242.552C763.716 239.295 762.87 236.758 761.179 234.941C759.488 233.106 757.167 232.188 754.216 232.188C752.183 232.188 750.366 232.629 748.764 233.511C747.181 234.392 745.93 235.679 745.013 237.37C744.095 239.061 743.636 241.112 743.636 243.523ZM791.224 260.904L790.792 263.819C790.486 265.87 790.019 268.065 789.389 270.404C788.777 272.743 788.138 274.947 787.473 277.016C786.807 279.085 786.258 280.732 785.826 281.955H780.968C781.202 280.804 781.508 279.283 781.886 277.394C782.264 275.505 782.642 273.391 783.02 271.052C783.415 268.731 783.739 266.356 783.991 263.927L784.315 260.904H791.224ZM855.491 227.006C855.167 224.272 853.853 222.148 851.55 220.637C849.247 219.126 846.423 218.37 843.076 218.37C840.629 218.37 838.488 218.766 836.653 219.558C834.835 220.349 833.414 221.438 832.388 222.823C831.381 224.209 830.877 225.783 830.877 227.546C830.877 229.022 831.228 230.29 831.93 231.352C832.649 232.395 833.567 233.268 834.683 233.969C835.798 234.653 836.968 235.22 838.191 235.67C839.415 236.102 840.539 236.452 841.565 236.722L847.178 238.234C848.618 238.612 850.219 239.133 851.982 239.799C853.763 240.465 855.464 241.373 857.083 242.525C858.72 243.658 860.07 245.116 861.131 246.897C862.193 248.678 862.724 250.864 862.724 253.455C862.724 256.442 861.941 259.141 860.376 261.552C858.828 263.963 856.561 265.879 853.575 267.3C850.606 268.722 846.998 269.433 842.752 269.433C838.794 269.433 835.366 268.794 832.469 267.516C829.591 266.239 827.324 264.458 825.668 262.173C824.031 259.888 823.104 257.234 822.888 254.211H829.798C829.978 256.298 830.679 258.025 831.903 259.393C833.144 260.742 834.71 261.75 836.599 262.415C838.506 263.063 840.557 263.387 842.752 263.387C845.307 263.387 847.601 262.973 849.634 262.146C851.667 261.3 853.278 260.13 854.465 258.637C855.653 257.126 856.246 255.362 856.246 253.347C856.246 251.512 855.734 250.019 854.708 248.867C853.683 247.716 852.333 246.78 850.66 246.06C848.987 245.341 847.178 244.711 845.235 244.171L838.434 242.228C834.116 240.987 830.697 239.214 828.178 236.911C825.659 234.608 824.4 231.594 824.4 227.87C824.4 224.775 825.237 222.076 826.91 219.773C828.601 217.452 830.868 215.653 833.711 214.376C836.572 213.08 839.765 212.433 843.292 212.433C846.854 212.433 850.021 213.071 852.792 214.349C855.563 215.608 857.758 217.335 859.377 219.531C861.014 221.726 861.878 224.218 861.968 227.006H855.491ZM889.706 269.325C885.819 269.325 882.473 268.407 879.666 266.572C876.859 264.737 874.7 262.209 873.189 258.988C871.677 255.767 870.922 252.088 870.922 247.95C870.922 243.739 871.695 240.024 873.243 236.803C874.808 233.565 876.985 231.037 879.774 229.219C882.581 227.384 885.855 226.467 889.598 226.467C892.512 226.467 895.139 227.006 897.478 228.086C899.817 229.165 901.734 230.677 903.227 232.62C904.72 234.563 905.647 236.83 906.007 239.421H899.637C899.152 237.532 898.072 235.859 896.399 234.401C894.743 232.926 892.512 232.188 889.706 232.188C887.223 232.188 885.046 232.836 883.174 234.131C881.321 235.409 879.873 237.217 878.829 239.556C877.804 241.877 877.291 244.603 877.291 247.734C877.291 250.936 877.795 253.725 878.802 256.1C879.828 258.475 881.267 260.319 883.12 261.633C884.992 262.946 887.187 263.603 889.706 263.603C891.361 263.603 892.863 263.315 894.213 262.739C895.562 262.164 896.705 261.336 897.64 260.256C898.576 259.177 899.242 257.881 899.637 256.37H906.007C905.647 258.817 904.756 261.021 903.335 262.982C901.931 264.925 900.069 266.473 897.748 267.624C895.445 268.758 892.764 269.325 889.706 269.325ZM915.318 268.461V227.006H921.687V268.461H915.318ZM918.556 220.097C917.315 220.097 916.244 219.674 915.345 218.829C914.463 217.983 914.022 216.967 914.022 215.779C914.022 214.592 914.463 213.575 915.345 212.729C916.244 211.884 917.315 211.461 918.556 211.461C919.798 211.461 920.859 211.884 921.741 212.729C922.641 213.575 923.091 214.592 923.091 215.779C923.091 216.967 922.641 217.983 921.741 218.829C920.859 219.674 919.798 220.097 918.556 220.097ZM950.734 269.325C946.739 269.325 943.294 268.443 940.397 266.68C937.518 264.898 935.296 262.415 933.731 259.231C932.183 256.028 931.41 252.304 931.41 248.058C931.41 243.811 932.183 240.069 933.731 236.83C935.296 233.574 937.473 231.037 940.262 229.219C943.069 227.384 946.344 226.467 950.086 226.467C952.245 226.467 954.377 226.826 956.482 227.546C958.587 228.266 960.504 229.435 962.231 231.055C963.958 232.656 965.335 234.779 966.36 237.424C967.386 240.069 967.898 243.326 967.898 247.194V249.893H935.944V244.387H961.421C961.421 242.048 960.953 239.961 960.018 238.126C959.1 236.29 957.787 234.842 956.077 233.781C954.386 232.719 952.389 232.188 950.086 232.188C947.549 232.188 945.354 232.818 943.501 234.077C941.665 235.319 940.253 236.938 939.263 238.935C938.274 240.933 937.779 243.074 937.779 245.359V249.029C937.779 252.16 938.319 254.814 939.398 256.991C940.496 259.15 942.016 260.796 943.96 261.93C945.903 263.045 948.161 263.603 950.734 263.603C952.407 263.603 953.918 263.369 955.268 262.901C956.635 262.415 957.814 261.696 958.803 260.742C959.793 259.771 960.558 258.565 961.097 257.126L967.251 258.853C966.603 260.94 965.514 262.775 963.985 264.359C962.456 265.924 960.567 267.147 958.317 268.029C956.068 268.893 953.54 269.325 950.734 269.325ZM983.957 243.523V268.461H977.587V227.006H983.741V233.484H984.281C985.252 231.379 986.728 229.687 988.707 228.41C990.686 227.114 993.241 226.467 996.371 226.467C999.178 226.467 1001.63 227.042 1003.74 228.194C1005.84 229.327 1007.48 231.055 1008.65 233.376C1009.82 235.679 1010.41 238.594 1010.41 242.12V268.461H1004.04V242.552C1004.04 239.295 1003.19 236.758 1001.5 234.941C999.808 233.106 997.487 232.188 994.536 232.188C992.503 232.188 990.686 232.629 989.085 233.511C987.501 234.392 986.251 235.679 985.333 237.37C984.415 239.061 983.957 241.112 983.957 243.523ZM1038.89 269.325C1035 269.325 1031.65 268.407 1028.85 266.572C1026.04 264.737 1023.88 262.209 1022.37 258.988C1020.86 255.767 1020.1 252.088 1020.1 247.95C1020.1 243.739 1020.87 240.024 1022.42 236.803C1023.99 233.565 1026.16 231.037 1028.95 229.219C1031.76 227.384 1035.03 226.467 1038.78 226.467C1041.69 226.467 1044.32 227.006 1046.66 228.086C1049 229.165 1050.91 230.677 1052.41 232.62C1053.9 234.563 1054.83 236.83 1055.19 239.421H1048.82C1048.33 237.532 1047.25 235.859 1045.58 234.401C1043.92 232.926 1041.69 232.188 1038.89 232.188C1036.4 232.188 1034.23 232.836 1032.35 234.131C1030.5 235.409 1029.05 237.217 1028.01 239.556C1026.98 241.877 1026.47 244.603 1026.47 247.734C1026.47 250.936 1026.97 253.725 1027.98 256.1C1029.01 258.475 1030.45 260.319 1032.3 261.633C1034.17 262.946 1036.37 263.603 1038.89 263.603C1040.54 263.603 1042.04 263.315 1043.39 262.739C1044.74 262.164 1045.88 261.336 1046.82 260.256C1047.76 259.177 1048.42 257.881 1048.82 256.37H1055.19C1054.83 258.817 1053.94 261.021 1052.51 262.982C1051.11 264.925 1049.25 266.473 1046.93 267.624C1044.62 268.758 1041.94 269.325 1038.89 269.325ZM1081.88 269.325C1077.88 269.325 1074.44 268.443 1071.54 266.68C1068.66 264.898 1066.44 262.415 1064.88 259.231C1063.33 256.028 1062.55 252.304 1062.55 248.058C1062.55 243.811 1063.33 240.069 1064.88 236.83C1066.44 233.574 1068.62 231.037 1071.41 229.219C1074.21 227.384 1077.49 226.467 1081.23 226.467C1083.39 226.467 1085.52 226.826 1087.63 227.546C1089.73 228.266 1091.65 229.435 1093.38 231.055C1095.1 232.656 1096.48 234.779 1097.5 237.424C1098.53 240.069 1099.04 243.326 1099.04 247.194V249.893H1067.09V244.387H1092.57C1092.57 242.048 1092.1 239.961 1091.16 238.126C1090.24 236.29 1088.93 234.842 1087.22 233.781C1085.53 232.719 1083.53 232.188 1081.23 232.188C1078.69 232.188 1076.5 232.818 1074.65 234.077C1072.81 235.319 1071.4 236.938 1070.41 238.935C1069.42 240.933 1068.92 243.074 1068.92 245.359V249.029C1068.92 252.16 1069.46 254.814 1070.54 256.991C1071.64 259.15 1073.16 260.796 1075.1 261.93C1077.05 263.045 1079.31 263.603 1081.88 263.603C1083.55 263.603 1085.06 263.369 1086.41 262.901C1087.78 262.415 1088.96 261.696 1089.95 260.742C1090.94 259.771 1091.7 258.565 1092.24 257.126L1098.4 258.853C1097.75 260.94 1096.66 262.775 1095.13 264.359C1093.6 265.924 1091.71 267.147 1089.46 268.029C1087.21 268.893 1084.69 269.325 1081.88 269.325ZM1138.1 236.29L1132.37 237.91C1132.01 236.956 1131.48 236.03 1130.78 235.13C1130.1 234.212 1129.16 233.457 1127.97 232.863C1126.79 232.269 1125.27 231.972 1123.41 231.972C1120.88 231.972 1118.76 232.557 1117.07 233.727C1115.4 234.878 1114.56 236.344 1114.56 238.126C1114.56 239.709 1115.14 240.96 1116.29 241.877C1117.44 242.795 1119.24 243.559 1121.69 244.171L1127.84 245.683C1131.55 246.582 1134.31 247.959 1136.13 249.812C1137.94 251.647 1138.85 254.013 1138.85 256.91C1138.85 259.285 1138.17 261.408 1136.8 263.279C1135.45 265.15 1133.56 266.626 1131.13 267.705C1128.7 268.785 1125.88 269.325 1122.66 269.325C1118.43 269.325 1114.93 268.407 1112.16 266.572C1109.39 264.737 1107.63 262.056 1106.9 258.529L1112.94 257.018C1113.52 259.249 1114.61 260.922 1116.21 262.038C1117.83 263.153 1119.94 263.711 1122.55 263.711C1125.52 263.711 1127.88 263.081 1129.62 261.822C1131.38 260.544 1132.27 259.015 1132.27 257.234C1132.27 255.794 1131.76 254.589 1130.75 253.617C1129.75 252.628 1128.2 251.89 1126.11 251.404L1119.2 249.785C1115.41 248.885 1112.62 247.491 1110.84 245.602C1109.07 243.694 1108.19 241.31 1108.19 238.45C1108.19 236.111 1108.85 234.041 1110.16 232.242C1111.49 230.443 1113.3 229.031 1115.59 228.005C1117.89 226.979 1120.5 226.467 1123.41 226.467C1127.52 226.467 1130.74 227.366 1133.08 229.165C1135.43 230.965 1137.11 233.34 1138.1 236.29ZM1187.19 269.325C1183.2 269.325 1179.75 268.443 1176.86 266.68C1173.98 264.898 1171.76 262.415 1170.19 259.231C1168.64 256.028 1167.87 252.304 1167.87 248.058C1167.87 243.811 1168.64 240.069 1170.19 236.83C1171.76 233.574 1173.93 231.037 1176.72 229.219C1179.53 227.384 1182.8 226.467 1186.55 226.467C1188.71 226.467 1190.84 226.826 1192.94 227.546C1195.05 228.266 1196.96 229.435 1198.69 231.055C1200.42 232.656 1201.8 234.779 1202.82 237.424C1203.85 240.069 1204.36 243.326 1204.36 247.194V249.893H1172.4V244.387H1197.88C1197.88 242.048 1197.41 239.961 1196.48 238.126C1195.56 236.29 1194.25 234.842 1192.54 233.781C1190.85 232.719 1188.85 232.188 1186.55 232.188C1184.01 232.188 1181.81 232.818 1179.96 234.077C1178.13 235.319 1176.71 236.938 1175.72 238.935C1174.73 240.933 1174.24 243.074 1174.24 245.359V249.029C1174.24 252.16 1174.78 254.814 1175.86 256.991C1176.96 259.15 1178.48 260.796 1180.42 261.93C1182.36 263.045 1184.62 263.603 1187.19 263.603C1188.87 263.603 1190.38 263.369 1191.73 262.901C1193.1 262.415 1194.27 261.696 1195.26 260.742C1196.25 259.771 1197.02 258.565 1197.56 257.126L1203.71 258.853C1203.06 260.94 1201.98 262.775 1200.45 264.359C1198.92 265.924 1197.03 267.147 1194.78 268.029C1192.53 268.893 1190 269.325 1187.19 269.325ZM1232.08 227.006V232.404H1210.59V227.006H1232.08ZM1216.86 217.075H1223.22V256.586C1223.22 258.385 1223.49 259.735 1224.01 260.634C1224.55 261.516 1225.23 262.11 1226.06 262.415C1226.9 262.703 1227.79 262.847 1228.73 262.847C1229.43 262.847 1230.01 262.811 1230.46 262.739C1230.91 262.649 1231.27 262.577 1231.54 262.523L1232.83 268.245C1232.4 268.407 1231.8 268.569 1231.02 268.731C1230.25 268.911 1229.27 269.001 1228.08 269.001C1226.28 269.001 1224.52 268.614 1222.79 267.84C1221.08 267.067 1219.66 265.888 1218.53 264.305C1217.41 262.721 1216.86 260.724 1216.86 258.313V217.075ZM1280.95 268.461H1263.9V213.188H1281.71C1287.07 213.188 1291.66 214.295 1295.47 216.508C1299.29 218.703 1302.21 221.861 1304.24 225.981C1306.28 230.083 1307.29 234.995 1307.29 240.717C1307.29 246.474 1306.27 251.431 1304.22 255.587C1302.17 259.726 1299.18 262.91 1295.26 265.141C1291.33 267.354 1286.57 268.461 1280.95 268.461ZM1270.59 262.523H1280.52C1285.09 262.523 1288.88 261.642 1291.88 259.879C1294.89 258.115 1297.13 255.605 1298.6 252.349C1300.08 249.092 1300.82 245.215 1300.82 240.717C1300.82 236.254 1300.09 232.413 1298.63 229.192C1297.17 225.954 1295 223.471 1292.1 221.744C1289.2 219.998 1285.6 219.126 1281.28 219.126H1270.59V262.523ZM1335.04 269.325C1331.04 269.325 1327.6 268.443 1324.7 266.68C1321.82 264.898 1319.6 262.415 1318.04 259.231C1316.49 256.028 1315.71 252.304 1315.71 248.058C1315.71 243.811 1316.49 240.069 1318.04 236.83C1319.6 233.574 1321.78 231.037 1324.57 229.219C1327.37 227.384 1330.65 226.467 1334.39 226.467C1336.55 226.467 1338.68 226.826 1340.79 227.546C1342.89 228.266 1344.81 229.435 1346.54 231.055C1348.26 232.656 1349.64 234.779 1350.66 237.424C1351.69 240.069 1352.2 243.326 1352.2 247.194V249.893H1320.25V244.387H1345.73C1345.73 242.048 1345.26 239.961 1344.32 238.126C1343.4 236.29 1342.09 234.842 1340.38 233.781C1338.69 232.719 1336.69 232.188 1334.39 232.188C1331.85 232.188 1329.66 232.818 1327.81 234.077C1325.97 235.319 1324.56 236.938 1323.57 238.935C1322.58 240.933 1322.08 243.074 1322.08 245.359V249.029C1322.08 252.16 1322.62 254.814 1323.7 256.991C1324.8 259.15 1326.32 260.796 1328.26 261.93C1330.21 263.045 1332.47 263.603 1335.04 263.603C1336.71 263.603 1338.22 263.369 1339.57 262.901C1340.94 262.415 1342.12 261.696 1343.11 260.742C1344.1 259.771 1344.86 258.565 1345.4 257.126L1351.56 258.853C1350.91 260.94 1349.82 262.775 1348.29 264.359C1346.76 265.924 1344.87 267.147 1342.62 268.029C1340.37 268.893 1337.85 269.325 1335.04 269.325ZM1331.15 221.393L1337.74 208.87H1345.19L1336.77 221.393H1331.15ZM1394.53 227.006L1379.2 268.461H1372.72L1357.39 227.006H1364.3L1375.74 260.04H1376.18L1387.62 227.006H1394.53ZM1418.83 269.325C1414.84 269.325 1411.39 268.443 1408.49 266.68C1405.62 264.898 1403.39 262.415 1401.83 259.231C1400.28 256.028 1399.51 252.304 1399.51 248.058C1399.51 243.811 1400.28 240.069 1401.83 236.83C1403.39 233.574 1405.57 231.037 1408.36 229.219C1411.17 227.384 1414.44 226.467 1418.18 226.467C1420.34 226.467 1422.47 226.826 1424.58 227.546C1426.69 228.266 1428.6 229.435 1430.33 231.055C1432.06 232.656 1433.43 234.779 1434.46 237.424C1435.48 240.069 1436 243.326 1436 247.194V249.893H1404.04V244.387H1429.52C1429.52 242.048 1429.05 239.961 1428.12 238.126C1427.2 236.29 1425.88 234.842 1424.18 233.781C1422.48 232.719 1420.49 232.188 1418.18 232.188C1415.65 232.188 1413.45 232.818 1411.6 234.077C1409.76 235.319 1408.35 236.938 1407.36 238.935C1406.37 240.933 1405.88 243.074 1405.88 245.359V249.029C1405.88 252.16 1406.42 254.814 1407.5 256.991C1408.59 259.15 1410.11 260.796 1412.06 261.93C1414 263.045 1416.26 263.603 1418.83 263.603C1420.5 263.603 1422.02 263.369 1423.37 262.901C1424.73 262.415 1425.91 261.696 1426.9 260.742C1427.89 259.771 1428.66 258.565 1429.19 257.126L1435.35 258.853C1434.7 260.94 1433.61 262.775 1432.08 264.359C1430.55 265.924 1428.66 267.147 1426.42 268.029C1424.17 268.893 1421.64 269.325 1418.83 269.325ZM1452.05 213.188V268.461H1445.69V213.188H1452.05ZM1480.56 269.325C1476.82 269.325 1473.54 268.434 1470.71 266.653C1467.9 264.871 1465.71 262.379 1464.12 259.177C1462.56 255.974 1461.78 252.232 1461.78 247.95C1461.78 243.631 1462.56 239.862 1464.12 236.641C1465.71 233.421 1467.9 230.92 1470.71 229.138C1473.54 227.357 1476.82 226.467 1480.56 226.467C1484.3 226.467 1487.58 227.357 1490.38 229.138C1493.21 230.92 1495.4 233.421 1496.97 236.641C1498.55 239.862 1499.35 243.631 1499.35 247.95C1499.35 252.232 1498.55 255.974 1496.97 259.177C1495.4 262.379 1493.21 264.871 1490.38 266.653C1487.58 268.434 1484.3 269.325 1480.56 269.325ZM1480.56 263.603C1483.4 263.603 1485.74 262.874 1487.58 261.417C1489.41 259.96 1490.77 258.043 1491.65 255.668C1492.54 253.293 1492.98 250.72 1492.98 247.95C1492.98 245.179 1492.54 242.597 1491.65 240.204C1490.77 237.811 1489.41 235.877 1487.58 234.401C1485.74 232.926 1483.4 232.188 1480.56 232.188C1477.72 232.188 1475.38 232.926 1473.54 234.401C1471.71 235.877 1470.35 237.811 1469.47 240.204C1468.59 242.597 1468.15 245.179 1468.15 247.95C1468.15 250.72 1468.59 253.293 1469.47 255.668C1470.35 258.043 1471.71 259.96 1473.54 261.417C1475.38 262.874 1477.72 263.603 1480.56 263.603ZM1509.07 284.006V227.006H1515.22V233.592H1515.98C1516.44 232.872 1517.09 231.954 1517.92 230.839C1518.77 229.705 1519.97 228.698 1521.54 227.816C1523.12 226.916 1525.26 226.467 1527.96 226.467C1531.45 226.467 1534.53 227.339 1537.19 229.085C1539.85 230.83 1541.93 233.304 1543.42 236.506C1544.92 239.709 1545.66 243.487 1545.66 247.842C1545.66 252.232 1544.92 256.037 1543.42 259.258C1541.93 262.46 1539.86 264.943 1537.22 266.707C1534.57 268.452 1531.52 269.325 1528.07 269.325C1525.4 269.325 1523.27 268.884 1521.67 268.002C1520.07 267.103 1518.84 266.086 1517.97 264.952C1517.11 263.801 1516.44 262.847 1515.98 262.092H1515.44V284.006H1509.07ZM1515.33 247.734C1515.33 250.864 1515.79 253.626 1516.71 256.019C1517.62 258.394 1518.96 260.256 1520.73 261.606C1522.49 262.937 1524.65 263.603 1527.2 263.603C1529.87 263.603 1532.09 262.901 1533.87 261.498C1535.67 260.076 1537.02 258.169 1537.92 255.776C1538.84 253.365 1539.3 250.684 1539.3 247.734C1539.3 244.819 1538.85 242.192 1537.95 239.853C1537.06 237.496 1535.72 235.634 1533.92 234.266C1532.14 232.881 1529.9 232.188 1527.2 232.188C1524.61 232.188 1522.44 232.845 1520.67 234.158C1518.91 235.454 1517.58 237.271 1516.68 239.61C1515.78 241.931 1515.33 244.639 1515.33 247.734ZM1555.38 284.006V227.006H1561.53V233.592H1562.29C1562.76 232.872 1563.4 231.954 1564.23 230.839C1565.08 229.705 1566.28 228.698 1567.85 227.816C1569.43 226.916 1571.57 226.467 1574.27 226.467C1577.76 226.467 1580.84 227.339 1583.5 229.085C1586.17 230.83 1588.24 233.304 1589.74 236.506C1591.23 239.709 1591.98 243.487 1591.98 247.842C1591.98 252.232 1591.23 256.037 1589.74 259.258C1588.24 262.46 1586.17 264.943 1583.53 266.707C1580.88 268.452 1577.83 269.325 1574.38 269.325C1571.72 269.325 1569.59 268.884 1567.98 268.002C1566.38 267.103 1565.15 266.086 1564.29 264.952C1563.42 263.801 1562.76 262.847 1562.29 262.092H1561.75V284.006H1555.38ZM1561.64 247.734C1561.64 250.864 1562.1 253.626 1563.02 256.019C1563.94 258.394 1565.28 260.256 1567.04 261.606C1568.8 262.937 1570.96 263.603 1573.52 263.603C1576.18 263.603 1578.4 262.901 1580.18 261.498C1581.98 260.076 1583.33 258.169 1584.23 255.776C1585.15 253.365 1585.61 250.684 1585.61 247.734C1585.61 244.819 1585.16 242.192 1584.26 239.853C1583.38 237.496 1582.04 235.634 1580.24 234.266C1578.46 232.881 1576.22 232.188 1573.52 232.188C1570.93 232.188 1568.75 232.845 1566.99 234.158C1565.22 235.454 1563.89 237.271 1562.99 239.61C1562.09 241.931 1561.64 244.639 1561.64 247.734ZM1619.07 269.325C1615.08 269.325 1611.63 268.443 1608.74 266.68C1605.86 264.898 1603.64 262.415 1602.07 259.231C1600.52 256.028 1599.75 252.304 1599.75 248.058C1599.75 243.811 1600.52 240.069 1602.07 236.83C1603.64 233.574 1605.81 231.037 1608.6 229.219C1611.41 227.384 1614.68 226.467 1618.43 226.467C1620.58 226.467 1622.72 226.826 1624.82 227.546C1626.93 228.266 1628.84 229.435 1630.57 231.055C1632.3 232.656 1633.67 234.779 1634.7 237.424C1635.73 240.069 1636.24 243.326 1636.24 247.194V249.893H1604.28V244.387H1629.76C1629.76 242.048 1629.29 239.961 1628.36 238.126C1627.44 236.29 1626.13 234.842 1624.42 233.781C1622.73 232.719 1620.73 232.188 1618.43 232.188C1615.89 232.188 1613.69 232.818 1611.84 234.077C1610.01 235.319 1608.59 236.938 1607.6 238.935C1606.61 240.933 1606.12 243.074 1606.12 245.359V249.029C1606.12 252.16 1606.66 254.814 1607.74 256.991C1608.84 259.15 1610.36 260.796 1612.3 261.93C1614.24 263.045 1616.5 263.603 1619.07 263.603C1620.75 263.603 1622.26 263.369 1623.61 262.901C1624.98 262.415 1626.15 261.696 1627.14 260.742C1628.13 259.771 1628.9 258.565 1629.44 257.126L1635.59 258.853C1634.94 260.94 1633.85 262.775 1632.32 264.359C1630.8 265.924 1628.91 267.147 1626.66 268.029C1624.41 268.893 1621.88 269.325 1619.07 269.325ZM1645.93 268.461V227.006H1652.08V233.484H1652.62C1653.48 231.271 1654.88 229.552 1656.8 228.329C1658.73 227.087 1661.04 226.467 1663.74 226.467C1666.47 226.467 1668.75 227.087 1670.57 228.329C1672.4 229.552 1673.83 231.271 1674.86 233.484H1675.29C1676.35 231.343 1677.94 229.642 1680.07 228.383C1682.19 227.105 1684.74 226.467 1687.71 226.467C1691.41 226.467 1694.44 227.627 1696.8 229.948C1699.16 232.251 1700.34 235.841 1700.34 240.717V268.461H1693.97V240.717C1693.97 237.658 1693.13 235.472 1691.46 234.158C1689.78 232.845 1687.81 232.188 1685.55 232.188C1682.63 232.188 1680.37 233.07 1678.77 234.833C1677.17 236.578 1676.37 238.791 1676.37 241.472V268.461H1669.89V240.069C1669.89 237.712 1669.13 235.814 1667.6 234.374C1666.07 232.917 1664.1 232.188 1661.69 232.188C1660.03 232.188 1658.49 232.629 1657.05 233.511C1655.63 234.392 1654.47 235.616 1653.59 237.181C1652.73 238.728 1652.3 240.519 1652.3 242.552V268.461H1645.93ZM1729.36 269.325C1725.37 269.325 1721.92 268.443 1719.03 266.68C1716.15 264.898 1713.93 262.415 1712.36 259.231C1710.81 256.028 1710.04 252.304 1710.04 248.058C1710.04 243.811 1710.81 240.069 1712.36 236.83C1713.93 233.574 1716.1 231.037 1718.89 229.219C1721.7 227.384 1724.97 226.467 1728.71 226.467C1730.87 226.467 1733.01 226.826 1735.11 227.546C1737.22 228.266 1739.13 229.435 1740.86 231.055C1742.59 232.656 1743.96 234.779 1744.99 237.424C1746.01 240.069 1746.53 243.326 1746.53 247.194V249.893H1714.57V244.387H1740.05C1740.05 242.048 1739.58 239.961 1738.65 238.126C1737.73 236.29 1736.42 234.842 1734.71 233.781C1733.02 232.719 1731.02 232.188 1728.71 232.188C1726.18 232.188 1723.98 232.818 1722.13 234.077C1720.29 235.319 1718.88 236.938 1717.89 238.935C1716.9 240.933 1716.41 243.074 1716.41 245.359V249.029C1716.41 252.16 1716.95 254.814 1718.03 256.991C1719.12 259.15 1720.65 260.796 1722.59 261.93C1724.53 263.045 1726.79 263.603 1729.36 263.603C1731.04 263.603 1732.55 263.369 1733.9 262.901C1735.26 262.415 1736.44 261.696 1737.43 260.742C1738.42 259.771 1739.19 258.565 1739.73 257.126L1745.88 258.853C1745.23 260.94 1744.14 262.775 1742.61 264.359C1741.08 265.924 1739.2 267.147 1736.95 268.029C1734.7 268.893 1732.17 269.325 1729.36 269.325ZM1762.59 243.523V268.461H1756.22V227.006H1762.37V233.484H1762.91C1763.88 231.379 1765.36 229.687 1767.34 228.41C1769.31 227.114 1771.87 226.467 1775 226.467C1777.81 226.467 1780.26 227.042 1782.37 228.194C1784.47 229.327 1786.11 231.055 1787.28 233.376C1788.45 235.679 1789.03 238.594 1789.03 242.12V268.461H1782.67V242.552C1782.67 239.295 1781.82 236.758 1780.13 234.941C1778.44 233.106 1776.12 232.188 1773.17 232.188C1771.13 232.188 1769.31 232.629 1767.71 233.511C1766.13 234.392 1764.88 235.679 1763.96 237.37C1763.04 239.061 1762.59 241.112 1762.59 243.523ZM1818.7 227.006V232.404H1797.22V227.006H1818.7ZM1803.48 217.075H1809.85V256.586C1809.85 258.385 1810.11 259.735 1810.63 260.634C1811.17 261.516 1811.86 262.11 1812.68 262.415C1813.53 262.703 1814.42 262.847 1815.36 262.847C1816.06 262.847 1816.63 262.811 1817.08 262.739C1817.53 262.649 1817.89 262.577 1818.16 262.523L1819.46 268.245C1819.03 268.407 1818.42 268.569 1817.65 268.731C1816.88 268.911 1815.89 269.001 1814.71 269.001C1812.91 269.001 1811.14 268.614 1809.42 267.84C1807.71 267.067 1806.29 265.888 1805.15 264.305C1804.04 262.721 1803.48 260.724 1803.48 258.313V217.075ZM426.898 361.325C422.903 361.325 419.458 360.443 416.561 358.68C413.682 356.898 411.46 354.415 409.895 351.231C408.348 348.028 407.574 344.304 407.574 340.058C407.574 335.811 408.348 332.069 409.895 328.83C411.46 325.574 413.637 323.037 416.426 321.219C419.233 319.384 422.508 318.467 426.25 318.467C428.409 318.467 430.541 318.826 432.646 319.546C434.751 320.266 436.668 321.435 438.395 323.055C440.122 324.656 441.499 326.779 442.524 329.424C443.55 332.069 444.062 335.326 444.062 339.194V341.893H412.108V336.387H437.585C437.585 334.048 437.117 331.961 436.182 330.126C435.264 328.29 433.951 326.842 432.241 325.781C430.55 324.719 428.553 324.188 426.25 324.188C423.713 324.188 421.518 324.818 419.665 326.077C417.83 327.319 416.417 328.938 415.428 330.935C414.438 332.933 413.943 335.074 413.943 337.359V341.029C413.943 344.16 414.483 346.814 415.562 348.991C416.66 351.15 418.18 352.796 420.124 353.93C422.067 355.045 424.325 355.603 426.898 355.603C428.571 355.603 430.082 355.369 431.432 354.901C432.799 354.415 433.978 353.696 434.967 352.742C435.957 351.771 436.722 350.565 437.261 349.126L443.415 350.853C442.767 352.94 441.679 354.775 440.149 356.359C438.62 357.924 436.731 359.147 434.482 360.029C432.232 360.893 429.705 361.325 426.898 361.325ZM423.011 313.393L429.597 300.87H437.045L428.625 313.393H423.011ZM470.592 361.325C466.706 361.325 463.359 360.407 460.553 358.572C457.746 356.737 455.587 354.209 454.075 350.988C452.564 347.767 451.808 344.088 451.808 339.95C451.808 335.739 452.582 332.024 454.129 328.803C455.695 325.565 457.872 323.037 460.661 321.219C463.467 319.384 466.742 318.467 470.484 318.467C473.399 318.467 476.026 319.006 478.365 320.086C480.704 321.165 482.62 322.677 484.114 324.62C485.607 326.563 486.534 328.83 486.893 331.421H480.524C480.038 329.532 478.959 327.859 477.286 326.401C475.63 324.926 473.399 324.188 470.592 324.188C468.109 324.188 465.932 324.836 464.061 326.131C462.208 327.409 460.759 329.217 459.716 331.556C458.69 333.877 458.178 336.603 458.178 339.734C458.178 342.936 458.681 345.725 459.689 348.1C460.714 350.475 462.154 352.319 464.007 353.633C465.878 354.946 468.073 355.603 470.592 355.603C472.248 355.603 473.75 355.315 475.099 354.739C476.449 354.164 477.591 353.336 478.527 352.256C479.463 351.177 480.128 349.881 480.524 348.37H486.893C486.534 350.817 485.643 353.021 484.222 354.982C482.818 356.925 480.956 358.473 478.635 359.624C476.332 360.758 473.651 361.325 470.592 361.325ZM513.045 361.325C509.303 361.325 506.019 360.434 503.195 358.653C500.388 356.871 498.193 354.379 496.609 351.177C495.044 347.974 494.261 344.232 494.261 339.95C494.261 335.631 495.044 331.862 496.609 328.641C498.193 325.421 500.388 322.92 503.195 321.138C506.019 319.357 509.303 318.467 513.045 318.467C516.788 318.467 520.063 319.357 522.869 321.138C525.694 322.92 527.889 325.421 529.455 328.641C531.038 331.862 531.83 335.631 531.83 339.95C531.83 344.232 531.038 347.974 529.455 351.177C527.889 354.379 525.694 356.871 522.869 358.653C520.063 360.434 516.788 361.325 513.045 361.325ZM513.045 355.603C515.888 355.603 518.227 354.874 520.062 353.417C521.898 351.96 523.256 350.043 524.138 347.668C525.019 345.293 525.46 342.72 525.46 339.95C525.46 337.179 525.019 334.597 524.138 332.204C523.256 329.811 521.898 327.877 520.062 326.401C518.227 324.926 515.888 324.188 513.045 324.188C510.203 324.188 507.864 324.926 506.028 326.401C504.193 327.877 502.835 329.811 501.953 332.204C501.071 334.597 500.631 337.179 500.631 339.95C500.631 342.72 501.071 345.293 501.953 347.668C502.835 350.043 504.193 351.96 506.028 353.417C507.864 354.874 510.203 355.603 513.045 355.603ZM547.922 335.523V360.461H541.552V319.006H547.706V325.484H548.245C549.217 323.379 550.692 321.687 552.672 320.41C554.651 319.114 557.206 318.467 560.336 318.467C563.143 318.467 565.599 319.042 567.704 320.194C569.809 321.327 571.447 323.055 572.616 325.376C573.786 327.679 574.37 330.594 574.37 334.12V360.461H568.001V334.552C568.001 331.295 567.155 328.758 565.464 326.941C563.773 325.106 561.452 324.188 558.501 324.188C556.468 324.188 554.651 324.629 553.049 325.511C551.466 326.392 550.216 327.679 549.298 329.37C548.38 331.061 547.922 333.112 547.922 335.523ZM602.85 361.325C599.108 361.325 595.824 360.434 592.999 358.653C590.192 356.871 587.997 354.379 586.414 351.177C584.849 347.974 584.066 344.232 584.066 339.95C584.066 335.631 584.849 331.862 586.414 328.641C587.997 325.421 590.192 322.92 592.999 321.138C595.824 319.357 599.108 318.467 602.85 318.467C606.593 318.467 609.867 319.357 612.674 321.138C615.499 322.92 617.694 325.421 619.259 328.641C620.843 331.862 621.634 335.631 621.634 339.95C621.634 344.232 620.843 347.974 619.259 351.177C617.694 354.379 615.499 356.871 612.674 358.653C609.867 360.434 606.593 361.325 602.85 361.325ZM602.85 355.603C605.693 355.603 608.032 354.874 609.867 353.417C611.702 351.96 613.061 350.043 613.942 347.668C614.824 345.293 615.265 342.72 615.265 339.95C615.265 337.179 614.824 334.597 613.942 332.204C613.061 329.811 611.702 327.877 609.867 326.401C608.032 324.926 605.693 324.188 602.85 324.188C600.007 324.188 597.668 324.926 595.833 326.401C593.998 327.877 592.639 329.811 591.758 332.204C590.876 334.597 590.435 337.179 590.435 339.95C590.435 342.72 590.876 345.293 591.758 347.668C592.639 350.043 593.998 351.96 595.833 353.417C597.668 354.874 600.007 355.603 602.85 355.603ZM631.357 360.461V319.006H637.51V325.484H638.05C638.914 323.271 640.308 321.552 642.233 320.329C644.158 319.087 646.471 318.467 649.169 318.467C651.904 318.467 654.18 319.087 655.998 320.329C657.833 321.552 659.263 323.271 660.289 325.484H660.721C661.782 323.343 663.374 321.642 665.498 320.383C667.621 319.105 670.167 318.467 673.135 318.467C676.842 318.467 679.873 319.627 682.23 321.948C684.587 324.251 685.766 327.841 685.766 332.717V360.461H679.397V332.717C679.397 329.658 678.56 327.472 676.887 326.158C675.213 324.845 673.243 324.188 670.976 324.188C668.061 324.188 665.803 325.07 664.202 326.833C662.601 328.578 661.8 330.791 661.8 333.472V360.461H655.323V332.069C655.323 329.712 654.558 327.814 653.029 326.374C651.499 324.917 649.529 324.188 647.118 324.188C645.463 324.188 643.916 324.629 642.476 325.511C641.055 326.392 639.903 327.616 639.022 329.181C638.158 330.728 637.726 332.519 637.726 334.552V360.461H631.357ZM697.412 360.461V319.006H703.781V360.461H697.412ZM700.65 312.097C699.409 312.097 698.338 311.674 697.439 310.829C696.557 309.983 696.116 308.967 696.116 307.779C696.116 306.592 696.557 305.575 697.439 304.729C698.338 303.884 699.409 303.461 700.65 303.461C701.892 303.461 702.953 303.884 703.835 304.729C704.734 305.575 705.184 306.592 705.184 307.779C705.184 308.967 704.734 309.983 703.835 310.829C702.953 311.674 701.892 312.097 700.65 312.097ZM743.731 376.006V354.092H743.191C742.723 354.847 742.058 355.801 741.194 356.952C740.33 358.086 739.098 359.103 737.496 360.002C735.895 360.884 733.763 361.325 731.1 361.325C727.646 361.325 724.596 360.452 721.951 358.707C719.306 356.943 717.237 354.46 715.744 351.258C714.25 348.037 713.504 344.232 713.504 339.842C713.504 335.487 714.25 331.709 715.744 328.506C717.237 325.304 719.315 322.83 721.978 321.085C724.641 319.339 727.718 318.467 731.208 318.467C733.907 318.467 736.039 318.916 737.604 319.816C739.188 320.698 740.393 321.705 741.221 322.839C742.067 323.954 742.723 324.872 743.191 325.592H743.947V319.006H750.1V376.006H743.731ZM731.964 355.603C734.519 355.603 736.678 354.937 738.441 353.606C740.204 352.256 741.545 350.394 742.462 348.019C743.38 345.626 743.839 342.864 743.839 339.734C743.839 336.639 743.389 333.931 742.489 331.61C741.59 329.271 740.258 327.454 738.495 326.158C736.732 324.845 734.555 324.188 731.964 324.188C729.265 324.188 727.016 324.881 725.217 326.266C723.435 327.634 722.095 329.496 721.195 331.853C720.314 334.192 719.873 336.819 719.873 339.734C719.873 342.684 720.323 345.365 721.222 347.776C722.14 350.169 723.489 352.076 725.271 353.498C727.07 354.901 729.301 355.603 731.964 355.603ZM787.884 343.512V319.006H794.254V360.461H787.884V353.444H787.452C786.481 355.549 784.969 357.339 782.918 358.815C780.867 360.272 778.276 361.001 775.146 361.001C772.555 361.001 770.252 360.434 768.237 359.3C766.221 358.149 764.638 356.422 763.487 354.119C762.335 351.798 761.759 348.874 761.759 345.347V319.006H768.129V344.915C768.129 347.938 768.974 350.349 770.665 352.148C772.375 353.948 774.552 354.847 777.197 354.847C778.78 354.847 780.39 354.442 782.028 353.633C783.683 352.823 785.068 351.582 786.184 349.908C787.317 348.235 787.884 346.103 787.884 343.512ZM823.3 361.325C819.306 361.325 815.86 360.443 812.963 358.68C810.085 356.898 807.863 354.415 806.297 351.231C804.75 348.028 803.976 344.304 803.976 340.058C803.976 335.811 804.75 332.069 806.297 328.83C807.863 325.574 810.04 323.037 812.828 321.219C815.635 319.384 818.91 318.467 822.652 318.467C824.811 318.467 826.944 318.826 829.049 319.546C831.154 320.266 833.07 321.435 834.797 323.055C836.525 324.656 837.901 326.779 838.926 329.424C839.952 332.069 840.465 335.326 840.465 339.194V341.893H808.51V336.387H833.988C833.988 334.048 833.52 331.961 832.584 330.126C831.667 328.29 830.353 326.842 828.644 325.781C826.953 324.719 824.955 324.188 822.652 324.188C820.115 324.188 817.92 324.818 816.067 326.077C814.232 327.319 812.819 328.938 811.83 330.935C810.84 332.933 810.346 335.074 810.346 337.359V341.029C810.346 344.16 810.885 346.814 811.965 348.991C813.062 351.15 814.583 352.796 816.526 353.93C818.469 355.045 820.727 355.603 823.3 355.603C824.973 355.603 826.485 355.369 827.834 354.901C829.202 354.415 830.38 353.696 831.37 352.742C832.359 351.771 833.124 350.565 833.664 349.126L839.817 350.853C839.169 352.94 838.081 354.775 836.551 356.359C835.022 357.924 833.133 359.147 830.884 360.029C828.635 360.893 826.107 361.325 823.3 361.325ZM916.87 322.461H910.176C909.781 320.536 909.088 318.844 908.098 317.387C907.127 315.93 905.939 314.706 904.536 313.717C903.15 312.709 901.612 311.953 899.921 311.45C898.23 310.946 896.466 310.694 894.631 310.694C891.284 310.694 888.253 311.54 885.536 313.231C882.837 314.922 880.687 317.414 879.086 320.707C877.502 323.999 876.711 328.039 876.711 332.825C876.711 337.611 877.502 341.65 879.086 344.942C880.687 348.235 882.837 350.727 885.536 352.418C888.253 354.11 891.284 354.955 894.631 354.955C896.466 354.955 898.23 354.703 899.921 354.2C901.612 353.696 903.15 352.949 904.536 351.96C905.939 350.952 907.127 349.719 908.098 348.262C909.088 346.787 909.781 345.095 910.176 343.188H916.87C916.366 346.013 915.448 348.541 914.117 350.772C912.785 353.003 911.13 354.901 909.151 356.467C907.172 358.014 904.95 359.192 902.485 360.002C900.038 360.812 897.42 361.217 894.631 361.217C889.917 361.217 885.725 360.065 882.054 357.762C878.384 355.459 875.496 352.184 873.391 347.938C871.286 343.692 870.233 338.654 870.233 332.825C870.233 326.995 871.286 321.957 873.391 317.711C875.496 313.465 878.384 310.19 882.054 307.887C885.725 305.584 889.917 304.433 894.631 304.433C897.42 304.433 900.038 304.837 902.485 305.647C904.95 306.457 907.172 307.644 909.151 309.21C911.13 310.757 912.785 312.646 914.117 314.877C915.448 317.09 916.366 319.618 916.87 322.461ZM939.021 361.433C936.394 361.433 934.01 360.938 931.869 359.948C929.728 358.941 928.027 357.492 926.768 355.603C925.508 353.696 924.879 351.393 924.879 348.694C924.879 346.319 925.346 344.394 926.282 342.918C927.218 341.425 928.468 340.255 930.033 339.41C931.599 338.564 933.326 337.934 935.215 337.521C937.122 337.089 939.039 336.747 940.964 336.495C943.483 336.171 945.525 335.928 947.09 335.766C948.674 335.586 949.825 335.29 950.545 334.876C951.282 334.462 951.651 333.742 951.651 332.717V332.501C951.651 329.838 950.923 327.769 949.465 326.293C948.026 324.818 945.84 324.08 942.907 324.08C939.866 324.08 937.482 324.746 935.755 326.077C934.028 327.409 932.813 328.83 932.112 330.342L926.066 328.183C927.146 325.664 928.585 323.702 930.384 322.299C932.201 320.878 934.181 319.888 936.322 319.33C938.481 318.754 940.604 318.467 942.691 318.467C944.022 318.467 945.552 318.629 947.279 318.952C949.024 319.258 950.707 319.897 952.326 320.869C953.963 321.84 955.322 323.307 956.401 325.268C957.481 327.229 958.021 329.856 958.021 333.148V360.461H951.651V354.847H951.327C950.896 355.747 950.176 356.71 949.168 357.735C948.161 358.761 946.82 359.633 945.147 360.353C943.474 361.073 941.432 361.433 939.021 361.433ZM939.992 355.711C942.511 355.711 944.634 355.216 946.362 354.227C948.107 353.237 949.42 351.96 950.302 350.394C951.201 348.829 951.651 347.183 951.651 345.455V339.626C951.381 339.95 950.788 340.246 949.87 340.516C948.97 340.768 947.927 340.993 946.739 341.191C945.57 341.371 944.427 341.533 943.312 341.677C942.214 341.803 941.324 341.911 940.64 342.001C938.985 342.217 937.437 342.567 935.998 343.053C934.576 343.521 933.425 344.232 932.543 345.185C931.68 346.121 931.248 347.398 931.248 349.018C931.248 351.231 932.067 352.904 933.704 354.038C935.359 355.153 937.455 355.711 939.992 355.711ZM976.015 335.523V360.461H969.646V319.006H975.799V325.484H976.339C977.311 323.379 978.786 321.687 980.765 320.41C982.744 319.114 985.299 318.467 988.43 318.467C991.237 318.467 993.693 319.042 995.798 320.194C997.903 321.327 999.54 323.055 1000.71 325.376C1001.88 327.679 1002.46 330.594 1002.46 334.12V360.461H996.095V334.552C996.095 331.295 995.249 328.758 993.558 326.941C991.867 325.106 989.546 324.188 986.595 324.188C984.562 324.188 982.744 324.629 981.143 325.511C979.56 326.392 978.309 327.679 977.392 329.37C976.474 331.061 976.015 333.112 976.015 335.523ZM1026.3 361.433C1023.67 361.433 1021.29 360.938 1019.15 359.948C1017.01 358.941 1015.31 357.492 1014.05 355.603C1012.79 353.696 1012.16 351.393 1012.16 348.694C1012.16 346.319 1012.63 344.394 1013.56 342.918C1014.5 341.425 1015.75 340.255 1017.31 339.41C1018.88 338.564 1020.61 337.934 1022.5 337.521C1024.4 337.089 1026.32 336.747 1028.25 336.495C1030.76 336.171 1032.81 335.928 1034.37 335.766C1035.95 335.586 1037.11 335.29 1037.83 334.876C1038.56 334.462 1038.93 333.742 1038.93 332.717V332.501C1038.93 329.838 1038.2 327.769 1036.75 326.293C1035.31 324.818 1033.12 324.08 1030.19 324.08C1027.15 324.08 1024.76 324.746 1023.04 326.077C1021.31 327.409 1020.09 328.83 1019.39 330.342L1013.35 328.183C1014.43 325.664 1015.87 323.702 1017.67 322.299C1019.48 320.878 1021.46 319.888 1023.6 319.33C1025.76 318.754 1027.89 318.467 1029.97 318.467C1031.3 318.467 1032.83 318.629 1034.56 318.952C1036.31 319.258 1037.99 319.897 1039.61 320.869C1041.24 321.84 1042.6 323.307 1043.68 325.268C1044.76 327.229 1045.3 329.856 1045.3 333.148V360.461H1038.93V354.847H1038.61C1038.18 355.747 1037.46 356.71 1036.45 357.735C1035.44 358.761 1034.1 359.633 1032.43 360.353C1030.75 361.073 1028.71 361.433 1026.3 361.433ZM1027.27 355.711C1029.79 355.711 1031.92 355.216 1033.64 354.227C1035.39 353.237 1036.7 351.96 1037.58 350.394C1038.48 348.829 1038.93 347.183 1038.93 345.455V339.626C1038.66 339.95 1038.07 340.246 1037.15 340.516C1036.25 340.768 1035.21 340.993 1034.02 341.191C1032.85 341.371 1031.71 341.533 1030.59 341.677C1029.5 341.803 1028.6 341.911 1027.92 342.001C1026.27 342.217 1024.72 342.567 1023.28 343.053C1021.86 343.521 1020.71 344.232 1019.82 345.185C1018.96 346.121 1018.53 347.398 1018.53 349.018C1018.53 351.231 1019.35 352.904 1020.99 354.038C1022.64 355.153 1024.74 355.711 1027.27 355.711ZM1072.58 361.325C1069.13 361.325 1066.08 360.452 1063.43 358.707C1060.79 356.943 1058.72 354.46 1057.22 351.258C1055.73 348.037 1054.98 344.232 1054.98 339.842C1054.98 335.487 1055.73 331.709 1057.22 328.506C1058.72 325.304 1060.8 322.83 1063.46 321.085C1066.12 319.339 1069.2 318.467 1072.69 318.467C1075.39 318.467 1077.52 318.916 1079.08 319.816C1080.67 320.698 1081.87 321.705 1082.7 322.839C1083.55 323.954 1084.2 324.872 1084.67 325.592H1085.21V305.188H1091.58V360.461H1085.43V354.092H1084.67C1084.2 354.847 1083.54 355.801 1082.67 356.952C1081.81 358.086 1080.58 359.103 1078.98 360.002C1077.38 360.884 1075.24 361.325 1072.58 361.325ZM1073.44 355.603C1076 355.603 1078.16 354.937 1079.92 353.606C1081.68 352.256 1083.03 350.394 1083.94 348.019C1084.86 345.626 1085.32 342.864 1085.32 339.734C1085.32 336.639 1084.87 333.931 1083.97 331.61C1083.07 329.271 1081.74 327.454 1079.98 326.158C1078.21 324.845 1076.04 324.188 1073.44 324.188C1070.75 324.188 1068.5 324.881 1066.7 326.266C1064.92 327.634 1063.58 329.496 1062.68 331.853C1061.79 334.192 1061.35 336.819 1061.35 339.734C1061.35 342.684 1061.8 345.365 1062.7 347.776C1063.62 350.169 1064.97 352.076 1066.75 353.498C1068.55 354.901 1070.78 355.603 1073.44 355.603ZM1116.33 361.433C1113.7 361.433 1111.32 360.938 1109.18 359.948C1107.04 358.941 1105.34 357.492 1104.08 355.603C1102.82 353.696 1102.19 351.393 1102.19 348.694C1102.19 346.319 1102.65 344.394 1103.59 342.918C1104.53 341.425 1105.78 340.255 1107.34 339.41C1108.91 338.564 1110.63 337.934 1112.52 337.521C1114.43 337.089 1116.35 336.747 1118.27 336.495C1120.79 336.171 1122.83 335.928 1124.4 335.766C1125.98 335.586 1127.13 335.29 1127.85 334.876C1128.59 334.462 1128.96 333.742 1128.96 332.717V332.501C1128.96 329.838 1128.23 327.769 1126.77 326.293C1125.33 324.818 1123.15 324.08 1120.22 324.08C1117.17 324.08 1114.79 324.746 1113.06 326.077C1111.34 327.409 1110.12 328.83 1109.42 330.342L1103.37 328.183C1104.45 325.664 1105.89 323.702 1107.69 322.299C1109.51 320.878 1111.49 319.888 1113.63 319.33C1115.79 318.754 1117.91 318.467 1120 318.467C1121.33 318.467 1122.86 318.629 1124.59 318.952C1126.33 319.258 1128.02 319.897 1129.63 320.869C1131.27 321.84 1132.63 323.307 1133.71 325.268C1134.79 327.229 1135.33 329.856 1135.33 333.148V360.461H1128.96V354.847H1128.64C1128.2 355.747 1127.48 356.71 1126.48 357.735C1125.47 358.761 1124.13 359.633 1122.46 360.353C1120.78 361.073 1118.74 361.433 1116.33 361.433ZM1117.3 355.711C1119.82 355.711 1121.94 355.216 1123.67 354.227C1125.42 353.237 1126.73 351.96 1127.61 350.394C1128.51 348.829 1128.96 347.183 1128.96 345.455V339.626C1128.69 339.95 1128.1 340.246 1127.18 340.516C1126.28 340.768 1125.24 340.993 1124.05 341.191C1122.88 341.371 1121.74 341.533 1120.62 341.677C1119.52 341.803 1118.63 341.911 1117.95 342.001C1116.29 342.217 1114.75 342.567 1113.31 343.053C1111.89 343.521 1110.73 344.232 1109.85 345.185C1108.99 346.121 1108.56 347.398 1108.56 349.018C1108.56 351.231 1109.38 352.904 1111.01 354.038C1112.67 355.153 1114.76 355.711 1117.3 355.711Z" fill="white"/>
</svg>
