<svg width="5266" height="1239" viewBox="0 0 5266 1239" fill="none" xmlns="http://www.w3.org/2000/svg">
<g clip-path="url(#clip0_164_4326)">
<path d="M3640 37.6798V1201.32H3814.51V37.6798H3640ZM1775.55 17.8023C1435.58 17.8007 1171.79 265.249 1171.79 619.5C1171.79 989.704 1435.58 1221.2 1775.55 1221.2C2115.53 1221.19 2379.85 989.704 2379.31 619.5C2378.82 283.86 2115.53 17.8038 1775.55 17.8023ZM2205.11 619.5C2205.11 881.753 2012.79 1055.55 1775.55 1055.55C1538.31 1055.55 1345.99 881.753 1345.99 619.5C1345.99 362.005 1538.31 183.454 1775.55 183.454C2012.79 183.454 2205.11 362.005 2205.11 619.5ZM0 0.000105006V1201.32H178.104V407.417L1103.63 1239V989.933L0 0.000105006ZM2510.56 619.5L3158.24 1201.32H3417.94L2769.28 619.5L3417.94 37.6792H3158.24L2510.56 619.5ZM5265.75 1201.32H5073.77L4933.39 943.635H4297.53L4157.12 1201.32H3965.14L4197.64 771.823H4842.07L4520.74 174.943L4615.46 0L5265.75 1201.32Z" fill="#005AFF"/>
</g>
<defs>
<clipPath id="clip0_164_4326">
<rect width="5265.75" height="1239" fill="white"/>
</clipPath>
</defs>
</svg>
