<svg width="8022" height="1730" viewBox="0 0 8022 1730" fill="none" xmlns="http://www.w3.org/2000/svg">
<rect width="1441.9" height="696.074" transform="translate(0 516.913)" fill="white"/>
<path d="M341.881 516.913H0V1212.99H341.881V516.913Z" fill="#EE1B2E"/>
<path d="M1441.9 516.913H1100.02V1212.99H1441.9V516.913Z" fill="#EE1B2E"/>
<path d="M673.339 661.825L722.111 562.388L770.41 658.038C776.567 667.982 781.3 667.509 791.245 662.299L832.915 641.938L805.923 775.47C800.242 801.515 815.395 809.564 831.494 791.57L890.685 728.119L906.311 764.106C911.518 774.999 919.568 773.577 929.987 771.208L991.545 758.425L971.183 836.083V837.502C968.34 847.447 963.607 855.97 974.971 861.177L996.754 872.07L870.324 979.084C857.539 992.343 861.8 996.605 866.534 1011.28L878.374 1047.27L760.467 1025.96C745.787 1022.18 735.844 1022.18 735.37 1034.01L740.106 1169.44H704.59L709.326 1034.49C709.326 1021.23 699.383 1021.7 675.232 1026.44L566.323 1047.75L580.529 1011.76C585.265 998.026 586.684 988.555 575.794 979.557L446.523 873.963L470.199 859.284C476.827 854.075 477.301 848.392 473.987 836.554L449.838 757.951L512.341 771.208C529.862 774.999 534.597 771.208 538.859 761.266L556.38 725.752L617.938 795.36C628.828 808.143 644.454 799.619 639.244 781.153L609.886 636.257L655.344 662.299C662.92 666.561 670.498 667.982 674.76 659.459" fill="#EE1B2E"/>
<path d="M2032.18 1035.92C2067.02 1035.92 2094.06 1045.1 2113.3 1063.46C2132.54 1081.82 2143.21 1102.68 2145.34 1126.04H2108.99C2104.88 1108.3 2096.62 1094.25 2084.25 1083.88C2072.02 1073.52 2054.77 1068.33 2032.54 1068.33C2005.45 1068.33 1983.53 1077.89 1966.78 1097C1950.17 1115.99 1941.87 1145.15 1941.87 1184.5C1941.87 1216.73 1949.36 1242.89 1964.34 1263C1979.46 1282.99 2001.93 1292.98 2031.8 1292.98C2059.27 1292.98 2080.2 1282.43 2094.56 1261.32C2102.17 1250.2 2107.87 1235.59 2111.62 1217.47H2147.95C2144.72 1246.45 2133.97 1270.75 2115.74 1290.36C2093.87 1313.96 2064.39 1325.77 2027.3 1325.77C1995.33 1325.77 1968.48 1316.09 1946.73 1296.73C1918.13 1271.12 1903.82 1231.59 1903.82 1178.13C1903.82 1137.53 1914.57 1104.24 1936.05 1078.26C1959.29 1050.03 1991.33 1035.92 2032.18 1035.92ZM2271.3 1296.91C2293.68 1296.91 2308.97 1288.48 2317.2 1271.62C2325.57 1254.63 2329.76 1235.77 2329.76 1215.04C2329.76 1196.3 2326.77 1181.06 2320.76 1169.32C2311.29 1150.84 2294.92 1141.59 2271.69 1141.59C2251.08 1141.59 2236.08 1149.46 2226.72 1165.2C2217.34 1180.94 2212.65 1199.92 2212.65 1222.16C2212.65 1243.52 2217.34 1261.32 2226.72 1275.56C2236.08 1289.8 2250.94 1296.91 2271.3 1296.91ZM2272.62 1112.18C2298.46 1112.18 2320.33 1120.8 2338.19 1138.03C2356.06 1155.27 2364.99 1180.63 2364.99 1214.1C2364.99 1246.45 2357.11 1273.18 2341.39 1294.29C2325.65 1315.4 2301.21 1325.95 2268.12 1325.95C2240.51 1325.95 2218.59 1316.65 2202.36 1298.04C2186.11 1279.3 2178 1254.2 2178 1222.72C2178 1188.99 2186.55 1162.14 2203.68 1142.15C2220.79 1122.17 2243.76 1112.18 2272.62 1112.18ZM2407.96 1117.98H2441.3V1146.46C2449.31 1136.6 2456.54 1129.41 2463.05 1124.92C2474.15 1117.3 2486.76 1113.49 2500.88 1113.49C2516.86 1113.49 2529.74 1117.42 2539.48 1125.29C2544.98 1129.79 2549.98 1136.41 2554.48 1145.15C2561.97 1134.41 2570.78 1126.48 2580.9 1121.36C2591 1116.11 2602.39 1113.49 2615 1113.49C2641.97 1113.49 2660.34 1123.23 2670.08 1142.72C2675.32 1153.21 2677.96 1167.32 2677.96 1185.06V1318.65H2642.9V1179.25C2642.9 1165.89 2639.53 1156.71 2632.8 1151.71C2626.17 1146.71 2618.06 1144.21 2608.44 1144.21C2595.18 1144.21 2583.77 1148.65 2574.15 1157.52C2564.65 1166.39 2559.91 1181.19 2559.91 1201.92V1318.65H2525.62V1187.68C2525.62 1174.07 2524 1164.14 2520.74 1157.89C2515.62 1148.52 2506.07 1143.84 2492.07 1143.84C2479.34 1143.84 2467.71 1148.77 2457.23 1158.64C2446.87 1168.51 2441.68 1186.37 2441.68 1212.23V1318.65H2407.96V1117.98ZM2730.29 1117.98H2763.62V1146.46C2771.61 1136.6 2778.87 1129.41 2785.37 1124.92C2796.48 1117.3 2809.09 1113.49 2823.21 1113.49C2839.19 1113.49 2852.06 1117.42 2861.8 1125.29C2867.31 1129.79 2872.31 1136.41 2876.81 1145.15C2884.3 1134.41 2893.1 1126.48 2903.23 1121.36C2913.32 1116.11 2924.69 1113.49 2937.32 1113.49C2964.29 1113.49 2982.65 1123.23 2992.41 1142.72C2997.65 1153.21 3000.26 1167.32 3000.26 1185.06V1318.65H2965.23V1179.25C2965.23 1165.89 2961.85 1156.71 2955.1 1151.71C2948.5 1146.71 2940.39 1144.21 2930.77 1144.21C2917.51 1144.21 2906.1 1148.65 2896.48 1157.52C2886.98 1166.39 2882.24 1181.19 2882.24 1201.92V1318.65H2847.95V1187.68C2847.95 1174.07 2846.32 1164.14 2843.07 1157.89C2837.95 1148.52 2828.4 1143.84 2814.4 1143.84C2801.67 1143.84 2790.04 1148.77 2779.56 1158.64C2769.2 1168.51 2764.01 1186.37 2764.01 1212.23V1318.65H2730.29V1117.98ZM3052.62 1118.92H3086.88V1318.65H3052.62V1118.92ZM3052.62 1043.42H3086.88V1081.64H3052.62V1043.42ZM3160.78 1255.7C3161.78 1266.94 3164.58 1275.56 3169.2 1281.55C3177.69 1292.42 3192.43 1297.85 3213.42 1297.85C3225.91 1297.85 3236.92 1295.17 3246.39 1289.8C3255.89 1284.3 3260.63 1275.87 3260.63 1264.5C3260.63 1255.88 3256.83 1249.32 3249.22 1244.83C3244.34 1242.08 3234.72 1238.9 3220.36 1235.27L3193.56 1228.53C3176.45 1224.28 3163.84 1219.53 3155.73 1214.29C3141.22 1205.17 3133.97 1192.55 3133.97 1176.44C3133.97 1157.45 3140.79 1142.09 3154.41 1130.35C3168.15 1118.61 3186.57 1112.74 3209.69 1112.74C3239.91 1112.74 3261.71 1121.61 3275.06 1139.34C3283.44 1150.58 3287.5 1162.7 3287.24 1175.69H3255.39C3254.77 1168.07 3252.09 1161.14 3247.33 1154.89C3239.6 1146.03 3226.17 1141.59 3207.05 1141.59C3194.32 1141.59 3184.63 1144.03 3178 1148.9C3171.52 1153.77 3168.27 1160.2 3168.27 1168.2C3168.27 1176.94 3172.57 1183.93 3181.21 1189.18C3186.19 1192.31 3193.56 1195.05 3203.3 1197.43L3225.6 1202.86C3249.84 1208.73 3266.06 1214.41 3274.32 1219.91C3287.43 1228.53 3293.99 1242.08 3293.99 1260.57C3293.99 1278.43 3287.19 1293.85 3273.58 1306.84C3260.08 1319.84 3239.48 1326.33 3211.74 1326.33C3181.88 1326.33 3160.7 1319.58 3148.21 1306.1C3135.86 1292.48 3129.24 1275.68 3128.37 1255.7H3160.78ZM3355.32 1255.7C3356.32 1266.94 3359.12 1275.56 3363.74 1281.55C3372.24 1292.42 3386.98 1297.85 3407.96 1297.85C3420.46 1297.85 3431.46 1295.17 3440.94 1289.8C3450.44 1284.3 3455.18 1275.87 3455.18 1264.5C3455.18 1255.88 3451.37 1249.32 3443.76 1244.83C3438.88 1242.08 3429.26 1238.9 3414.9 1235.27L3388.1 1228.53C3370.99 1224.28 3358.38 1219.53 3350.27 1214.29C3335.77 1205.17 3328.52 1192.55 3328.52 1176.44C3328.52 1157.45 3335.34 1142.09 3348.95 1130.35C3362.69 1118.61 3381.12 1112.74 3404.23 1112.74C3434.45 1112.74 3456.25 1121.61 3469.61 1139.34C3477.98 1150.58 3482.05 1162.7 3481.79 1175.69H3449.94C3449.31 1168.07 3446.63 1161.14 3441.87 1154.89C3434.14 1146.03 3420.72 1141.59 3401.6 1141.59C3388.87 1141.59 3379.18 1144.03 3372.55 1148.9C3366.06 1153.77 3362.81 1160.2 3362.81 1168.2C3362.81 1176.94 3367.12 1183.93 3375.76 1189.18C3380.73 1192.31 3388.1 1195.05 3397.84 1197.43L3420.14 1202.86C3444.38 1208.73 3460.61 1214.41 3468.86 1219.91C3481.98 1228.53 3488.53 1242.08 3488.53 1260.57C3488.53 1278.43 3481.74 1293.85 3468.12 1306.84C3454.63 1319.84 3434.02 1326.33 3406.29 1326.33C3376.43 1326.33 3355.25 1319.58 3342.76 1306.1C3330.41 1292.48 3323.78 1275.68 3322.92 1255.7H3355.32ZM3529.81 1118.92H3564.1V1318.65H3529.81V1118.92ZM3529.81 1043.42H3564.1V1081.64H3529.81V1043.42ZM3697.58 1296.91C3719.93 1296.91 3735.22 1288.48 3743.48 1271.62C3751.85 1254.63 3756.04 1235.77 3756.04 1215.04C3756.04 1196.3 3753.02 1181.06 3747.04 1169.32C3737.54 1150.84 3721.17 1141.59 3697.94 1141.59C3677.33 1141.59 3662.36 1149.46 3652.97 1165.2C3643.62 1180.94 3638.93 1199.92 3638.93 1222.16C3638.93 1243.52 3643.62 1261.32 3652.97 1275.56C3662.36 1289.8 3677.22 1296.91 3697.58 1296.91ZM3698.87 1112.18C3724.74 1112.18 3746.59 1120.8 3764.46 1138.03C3782.31 1155.27 3791.26 1180.63 3791.26 1214.1C3791.26 1246.45 3783.39 1273.18 3767.64 1294.29C3751.9 1315.4 3727.49 1325.95 3694.4 1325.95C3666.78 1325.95 3644.86 1316.65 3628.61 1298.04C3612.39 1279.3 3604.26 1254.2 3604.26 1222.72C3604.26 1188.99 3612.82 1162.14 3629.93 1142.15C3647.04 1122.17 3670.04 1112.18 3698.87 1112.18ZM3834.21 1117.98H3866.26V1146.46C3875.76 1134.72 3885.81 1126.29 3896.43 1121.17C3907.03 1116.05 3918.85 1113.49 3931.85 1113.49C3960.32 1113.49 3979.56 1123.42 3989.54 1143.28C3995.04 1154.15 3997.79 1169.7 3997.79 1189.93V1318.65H3963.5V1192.18C3963.5 1179.94 3961.69 1170.07 3958.07 1162.58C3952.07 1150.08 3941.2 1143.84 3925.46 1143.84C3917.46 1143.84 3910.91 1144.65 3905.79 1146.28C3896.55 1149.02 3888.44 1154.52 3881.43 1162.76C3875.8 1169.38 3872.12 1176.25 3870.37 1183.37C3868.77 1190.37 3867.96 1200.42 3867.96 1213.54V1318.65H3834.21V1117.98ZM4181.33 1220.66C4181.33 1242.14 4185.9 1260.13 4195.02 1274.62C4204.14 1289.11 4218.76 1296.35 4238.86 1296.35C4254.48 1296.35 4267.29 1289.67 4277.26 1276.3C4287.39 1262.82 4292.44 1243.52 4292.44 1218.41C4292.44 1193.05 4287.27 1174.32 4276.91 1162.2C4266.52 1149.96 4253.72 1143.84 4238.48 1143.84C4221.51 1143.84 4207.7 1150.34 4197.08 1163.33C4186.6 1176.32 4181.33 1195.43 4181.33 1220.66ZM4232.11 1114.43C4247.47 1114.43 4260.35 1117.67 4270.71 1124.17C4276.71 1127.91 4283.51 1134.47 4291.14 1143.84V1042.48H4323.54V1318.65H4293.2V1290.73C4285.33 1303.1 4276.02 1312.03 4265.28 1317.52C4254.53 1323.02 4242.23 1325.77 4228.38 1325.77C4206 1325.77 4186.64 1316.4 4170.28 1297.66C4153.93 1278.8 4145.75 1253.76 4145.75 1222.53C4145.75 1193.3 4153.17 1168.01 4168.03 1146.65C4183.03 1125.17 4204.38 1114.43 4232.11 1114.43ZM4459.82 1113.49C4474.06 1113.49 4487.86 1116.86 4501.22 1123.6C4514.59 1130.23 4524.76 1138.85 4531.77 1149.46C4538.52 1159.58 4543.02 1171.38 4545.25 1184.87C4547.26 1194.12 4548.26 1208.85 4548.26 1229.09H4401.17C4401.79 1249.45 4406.6 1265.81 4415.6 1278.18C4424.6 1290.42 4438.52 1296.54 4457.38 1296.54C4474.99 1296.54 4489.06 1290.73 4499.54 1279.12C4505.55 1272.37 4509.78 1264.56 4512.27 1255.7H4545.44C4544.58 1263.06 4541.63 1271.31 4536.63 1280.43C4531.78 1289.42 4526.27 1296.79 4520.15 1302.54C4509.9 1312.53 4497.22 1319.27 4482.12 1322.77C4474.01 1324.77 4464.82 1325.77 4454.58 1325.77C4429.6 1325.77 4408.42 1316.71 4391.07 1298.6C4373.7 1280.36 4365.01 1254.88 4365.01 1222.16C4365.01 1189.93 4373.77 1163.76 4391.24 1143.65C4408.73 1123.54 4431.58 1113.49 4459.82 1113.49ZM4513.59 1202.3C4512.22 1187.68 4509.04 1176 4504.04 1167.26C4494.8 1151.02 4479.37 1142.9 4457.76 1142.9C4442.28 1142.9 4429.29 1148.52 4418.78 1159.77C4408.3 1170.88 4402.75 1185.06 4402.1 1202.3H4513.59ZM4702.96 1043.42H4736.68V1318.65H4702.96V1043.42ZM4816.01 1265.25C4816.01 1274.99 4819.55 1282.68 4826.68 1288.3C4833.79 1293.92 4842.23 1296.73 4851.97 1296.73C4863.84 1296.73 4875.33 1293.98 4886.45 1288.48C4905.19 1279.36 4914.55 1264.44 4914.55 1243.71V1216.54C4910.43 1219.16 4905.12 1221.35 4898.63 1223.1C4892.12 1224.84 4885.76 1226.09 4879.51 1226.84L4859.1 1229.47C4846.85 1231.09 4837.66 1233.65 4831.56 1237.15C4821.18 1243.02 4816.01 1252.38 4816.01 1265.25ZM4897.68 1197.05C4905.43 1196.05 4910.62 1192.8 4913.23 1187.31C4914.74 1184.31 4915.48 1180 4915.48 1174.38C4915.48 1162.89 4911.36 1154.58 4903.13 1149.46C4895 1144.21 4883.32 1141.59 4868.08 1141.59C4850.46 1141.59 4837.97 1146.34 4830.6 1155.83C4826.49 1161.08 4823.81 1168.88 4822.56 1179.25H4791.07C4791.69 1154.52 4799.69 1137.34 4815.07 1127.73C4830.55 1117.98 4848.48 1113.11 4868.84 1113.11C4892.44 1113.11 4911.6 1117.61 4926.34 1126.6C4940.96 1135.6 4948.29 1149.59 4948.29 1168.57V1284.17C4948.29 1287.67 4948.96 1290.48 4950.34 1292.6C4951.83 1294.73 4954.89 1295.79 4959.51 1295.79C4961.02 1295.79 4962.69 1295.73 4964.58 1295.6C4966.45 1295.35 4968.46 1295.04 4970.56 1294.67V1319.58C4965.32 1321.09 4961.33 1322.02 4958.58 1322.4C4955.82 1322.77 4952.09 1322.96 4947.33 1322.96C4935.72 1322.96 4927.3 1318.84 4922.04 1310.59C4919.31 1306.22 4917.37 1300.04 4916.25 1292.04C4909.38 1301.04 4899.5 1308.84 4886.65 1315.46C4873.77 1322.08 4859.58 1325.39 4844.1 1325.39C4825.48 1325.39 4810.26 1319.77 4798.39 1308.53C4786.64 1297.17 4780.78 1282.99 4780.78 1266C4780.78 1247.39 4786.57 1232.96 4798.2 1222.72C4809.81 1212.48 4825.05 1206.17 4843.91 1203.8L4897.68 1197.05ZM5124.33 1087.45C5124.84 1073.45 5127.28 1063.21 5131.63 1056.72C5139.5 1045.22 5154.68 1039.48 5177.17 1039.48C5179.3 1039.48 5181.48 1039.54 5183.73 1039.67C5185.98 1039.79 5188.54 1039.98 5191.41 1040.23V1070.96C5187.91 1070.71 5185.35 1070.58 5183.73 1070.58C5182.22 1070.46 5180.78 1070.4 5179.42 1070.4C5169.18 1070.4 5163.05 1073.08 5161.07 1078.45C5159.06 1083.7 5158.05 1097.19 5158.05 1118.92H5191.41V1145.53H5157.69V1318.65H5124.33V1145.53H5096.41V1118.92H5124.33V1087.45ZM5305.02 1296.91C5327.37 1296.91 5342.66 1288.48 5350.92 1271.62C5359.29 1254.63 5363.48 1235.77 5363.48 1215.04C5363.48 1196.3 5360.47 1181.06 5354.49 1169.32C5344.99 1150.84 5328.62 1141.59 5305.38 1141.59C5284.78 1141.59 5269.8 1149.46 5260.42 1165.2C5251.06 1180.94 5246.37 1199.92 5246.37 1222.16C5246.37 1243.52 5251.06 1261.32 5260.42 1275.56C5269.8 1289.8 5284.66 1296.91 5305.02 1296.91ZM5306.32 1112.18C5332.18 1112.18 5354.03 1120.8 5371.91 1138.03C5389.76 1155.27 5398.71 1180.63 5398.71 1214.1C5398.71 1246.45 5390.83 1273.18 5375.09 1294.29C5359.34 1315.4 5334.93 1325.95 5301.82 1325.95C5274.23 1325.95 5252.31 1316.65 5236.06 1298.04C5219.84 1279.3 5211.7 1254.2 5211.7 1222.72C5211.7 1188.99 5220.27 1162.14 5237.38 1142.15C5254.48 1122.17 5277.48 1112.18 5306.32 1112.18ZM5441.66 1117.98H5473.7V1146.46C5483.2 1134.72 5493.25 1126.29 5503.87 1121.17C5514.48 1116.05 5526.3 1113.49 5539.29 1113.49C5567.77 1113.49 5587.01 1123.42 5596.98 1143.28C5602.49 1154.15 5605.24 1169.7 5605.24 1189.93V1318.65H5570.95V1192.18C5570.95 1179.94 5569.13 1170.07 5565.52 1162.58C5559.51 1150.08 5548.65 1143.84 5532.9 1143.84C5524.91 1143.84 5518.35 1144.65 5513.23 1146.28C5503.99 1149.02 5495.88 1154.52 5488.87 1162.76C5483.25 1169.38 5479.56 1176.25 5477.82 1183.37C5476.19 1190.37 5475.4 1200.42 5475.4 1213.54V1318.65H5441.66V1117.98ZM5735.32 1112.18C5757.93 1112.18 5776.28 1117.67 5790.4 1128.66C5804.64 1139.66 5813.21 1158.58 5816.08 1185.44H5783.3C5781.29 1173.07 5776.74 1162.83 5769.61 1154.71C5762.48 1146.46 5751.06 1142.34 5735.32 1142.34C5713.83 1142.34 5698.47 1152.83 5689.23 1173.82C5683.22 1187.43 5680.23 1204.23 5680.23 1224.22C5680.23 1244.33 5684.49 1261.25 5692.99 1274.99C5701.48 1288.73 5714.83 1295.6 5733.07 1295.6C5747.07 1295.6 5758.12 1291.36 5766.24 1282.86C5774.49 1274.24 5780.16 1262.5 5783.3 1247.64H5816.08C5812.32 1274.24 5802.97 1293.73 5787.96 1306.1C5772.98 1318.34 5753.82 1324.46 5730.46 1324.46C5704.21 1324.46 5683.3 1314.9 5667.69 1295.79C5652.07 1276.56 5644.27 1252.57 5644.27 1223.84C5644.27 1188.62 5652.81 1161.2 5669.94 1141.59C5687.05 1121.98 5708.85 1112.18 5735.32 1112.18ZM5859.22 1061.96H5893.32V1117.98H5925.36V1145.53H5893.32V1276.49C5893.32 1283.49 5895.72 1288.17 5900.45 1290.54C5903.06 1291.92 5907.44 1292.6 5913.57 1292.6H5918.81C5920.7 1292.48 5922.88 1292.29 5925.36 1292.04V1318.65C5921.49 1319.77 5917.44 1320.59 5913.18 1321.09C5909.07 1321.59 5904.57 1321.83 5899.71 1321.83C5883.97 1321.83 5873.29 1317.84 5867.67 1309.84C5862.05 1301.72 5859.22 1291.23 5859.22 1278.37V1145.53H5832.06V1117.98H5859.22V1061.96ZM5961.98 1118.92H5996.27V1318.65H5961.98V1118.92ZM5961.98 1043.42H5996.27V1081.64H5961.98V1043.42ZM6129.72 1296.91C6152.07 1296.91 6167.38 1288.48 6175.62 1271.62C6183.99 1254.63 6188.18 1235.77 6188.18 1215.04C6188.18 1196.3 6185.19 1181.06 6179.18 1169.32C6169.68 1150.84 6153.34 1141.59 6130.1 1141.59C6109.48 1141.59 6094.5 1149.46 6085.14 1165.2C6075.76 1180.94 6071.07 1199.92 6071.07 1222.16C6071.07 1243.52 6075.76 1261.32 6085.14 1275.56C6094.5 1289.8 6109.36 1296.91 6129.72 1296.91ZM6131.04 1112.18C6156.88 1112.18 6178.75 1120.8 6196.6 1138.03C6214.48 1155.27 6223.4 1180.63 6223.4 1214.1C6223.4 1246.45 6215.53 1273.18 6199.78 1294.29C6184.06 1315.4 6159.63 1325.95 6126.54 1325.95C6098.92 1325.95 6077 1316.65 6060.78 1298.04C6044.53 1279.3 6036.42 1254.2 6036.42 1222.72C6036.42 1188.99 6044.96 1162.14 6062.07 1142.15C6079.2 1122.17 6102.18 1112.18 6131.04 1112.18ZM6266.38 1117.98H6298.42V1146.46C6307.9 1134.72 6317.95 1126.29 6328.57 1121.17C6339.2 1116.05 6350.99 1113.49 6363.99 1113.49C6392.46 1113.49 6411.7 1123.42 6421.7 1143.28C6427.18 1154.15 6429.94 1169.7 6429.94 1189.93V1318.65H6395.65V1192.18C6395.65 1179.94 6393.83 1170.07 6390.21 1162.58C6384.23 1150.08 6373.34 1143.84 6357.62 1143.84C6349.63 1143.84 6343.07 1144.65 6337.95 1146.28C6328.69 1149.02 6320.58 1154.52 6313.59 1162.76C6307.97 1169.38 6304.28 1176.25 6302.54 1183.37C6300.91 1190.37 6300.1 1200.42 6300.1 1213.54V1318.65H6266.38V1117.98ZM6676.81 1295.98C6692.56 1295.98 6705.6 1289.42 6715.98 1276.3C6726.47 1263.06 6731.71 1243.33 6731.71 1217.1C6731.71 1201.11 6729.41 1187.37 6724.79 1175.88C6716.03 1153.77 6700.05 1142.72 6676.81 1142.72C6653.46 1142.72 6637.47 1154.39 6628.86 1177.75C6624.24 1190.24 6621.92 1206.11 6621.92 1225.34C6621.92 1240.83 6624.24 1254.01 6628.86 1264.88C6637.59 1285.61 6653.58 1295.98 6676.81 1295.98ZM6589.52 1118.92H6622.3V1145.53C6629.05 1136.41 6636.42 1129.35 6644.41 1124.35C6655.78 1116.86 6669.13 1113.11 6684.49 1113.11C6707.23 1113.11 6726.54 1121.86 6742.4 1139.34C6758.27 1156.71 6766.19 1181.56 6766.19 1213.91C6766.19 1257.63 6754.75 1288.86 6731.9 1307.59C6717.42 1319.46 6700.55 1325.39 6681.31 1325.39C6666.21 1325.39 6653.53 1322.08 6643.29 1315.46C6637.28 1311.72 6630.61 1305.28 6623.24 1296.17V1398.65H6589.52V1118.92ZM6842.14 1117.98V1251.2C6842.14 1261.44 6843.77 1269.81 6847 1276.3C6853 1288.3 6864.18 1294.29 6880.55 1294.29C6904.02 1294.29 6920.01 1283.8 6928.5 1262.82C6933.12 1251.57 6935.44 1236.15 6935.44 1216.54V1117.98H6969.16V1318.65H6937.31L6937.69 1289.05C6933.31 1296.67 6927.88 1303.1 6921.39 1308.34C6908.52 1318.84 6892.92 1324.08 6874.54 1324.08C6845.94 1324.08 6826.47 1314.53 6816.08 1295.42C6810.48 1285.17 6807.66 1271.5 6807.66 1254.38V1117.98H6842.14ZM7022.06 1042.48H7054.85V1142.34C7062.22 1132.72 7071.02 1125.42 7081.26 1120.42C7091.51 1115.3 7102.63 1112.74 7114.62 1112.74C7139.6 1112.74 7159.85 1121.36 7175.33 1138.59C7190.93 1155.71 7198.76 1181 7198.76 1214.48C7198.76 1246.2 7191.07 1272.56 7175.69 1293.54C7160.33 1314.53 7139.03 1325.02 7111.82 1325.02C7096.58 1325.02 7083.7 1321.33 7073.22 1313.96C7066.98 1309.59 7060.28 1302.6 7053.17 1292.98V1318.65H7022.06V1042.48ZM7109.74 1295.23C7127.97 1295.23 7141.59 1287.98 7150.59 1273.49C7159.7 1259.01 7164.27 1239.89 7164.27 1216.16C7164.27 1195.05 7159.7 1177.57 7150.59 1163.7C7141.59 1149.84 7128.31 1142.9 7110.7 1142.9C7095.31 1142.9 7081.84 1148.59 7070.21 1159.95C7058.72 1171.32 7052.98 1190.06 7052.98 1216.16C7052.98 1235.02 7055.35 1250.32 7060.09 1262.07C7068.96 1284.17 7085.52 1295.23 7109.74 1295.23ZM7241.9 1043.42H7275.62V1318.65H7241.9V1043.42ZM7329.1 1118.92H7363.37V1318.65H7329.1V1118.92ZM7329.1 1043.42H7363.37V1081.64H7329.1V1043.42ZM7438.93 1221.03C7438.93 1238.4 7441.37 1252.95 7446.26 1264.69C7454.87 1285.55 7470.31 1295.98 7492.54 1295.98C7516.01 1295.98 7532.19 1284.99 7541.06 1263C7545.92 1250.89 7548.36 1235.4 7548.36 1216.54C7548.36 1199.18 7545.68 1184.69 7540.3 1173.07C7531.18 1153.21 7515.15 1143.28 7492.15 1143.28C7477.53 1143.28 7464.99 1149.65 7454.49 1162.39C7444.13 1175 7438.93 1194.55 7438.93 1221.03ZM7488.78 1113.49C7505.39 1113.49 7519.38 1117.67 7530.75 1126.04C7537 1130.54 7543 1137.16 7548.75 1145.9V1117.98H7580.79V1398.65H7546.86V1295.6C7541.26 1304.6 7533.43 1311.78 7523.45 1317.15C7513.57 1322.4 7501.22 1325.02 7486.34 1325.02C7464.99 1325.02 7445.87 1316.65 7429 1299.91C7412.16 1283.17 7403.71 1257.69 7403.71 1223.47C7403.71 1191.37 7411.58 1165.01 7427.33 1144.4C7443.19 1123.79 7463.68 1113.49 7488.78 1113.49ZM7667.22 1117.98V1251.2C7667.22 1261.44 7668.85 1269.81 7672.08 1276.3C7678.08 1288.3 7689.26 1294.29 7705.62 1294.29C7729.1 1294.29 7745.08 1283.8 7753.58 1262.82C7758.22 1251.57 7760.52 1236.15 7760.52 1216.54V1117.98H7794.23V1318.65H7762.38L7762.77 1289.05C7758.39 1296.67 7752.96 1303.1 7746.47 1308.34C7733.6 1318.84 7718 1324.08 7699.62 1324.08C7671.02 1324.08 7651.55 1314.53 7641.16 1295.42C7635.56 1285.17 7632.74 1271.5 7632.74 1254.38V1117.98H7667.22ZM7933.34 1113.49C7947.57 1113.49 7961.38 1116.86 7974.73 1123.6C7988.11 1130.23 7998.28 1138.85 8005.27 1149.46C8012.01 1159.58 8016.51 1171.38 8018.76 1184.87C8020.77 1194.12 8021.78 1208.85 8021.78 1229.09H7874.68C7875.31 1249.45 7880.12 1265.81 7889.11 1278.18C7898.11 1290.42 7912.04 1296.54 7930.89 1296.54C7948.51 1296.54 7962.55 1290.73 7973.06 1279.12C7979.04 1272.37 7983.3 1264.56 7985.79 1255.7H8018.95C8018.09 1263.06 8015.15 1271.31 8010.15 1280.43C8005.27 1289.42 7999.79 1296.79 7993.66 1302.54C7983.42 1312.53 7970.74 1319.27 7955.64 1322.77C7947.5 1324.77 7938.34 1325.77 7928.09 1325.77C7903.11 1325.77 7881.94 1316.71 7864.56 1298.6C7847.21 1280.36 7838.53 1254.88 7838.53 1222.16C7838.53 1189.93 7847.26 1163.76 7864.75 1143.65C7882.25 1123.54 7905.1 1113.49 7933.34 1113.49ZM7987.1 1202.3C7985.74 1187.68 7982.53 1176 7977.56 1167.26C7968.3 1151.02 7952.88 1142.9 7931.28 1142.9C7915.77 1142.9 7902.8 1148.52 7892.3 1159.77C7881.82 1170.88 7876.24 1185.06 7875.62 1202.3H7987.1Z" fill="white"/>
<path d="M1948.31 1624.79C1948.31 1646.28 1952.88 1664.26 1962 1678.75C1971.11 1693.24 1985.73 1700.49 2005.83 1700.49C2021.46 1700.49 2034.26 1693.8 2044.24 1680.44C2054.36 1666.95 2059.41 1647.65 2059.41 1622.55C2059.41 1597.19 2054.24 1578.45 2043.88 1566.34C2033.5 1554.1 2020.69 1547.97 2005.45 1547.97C1988.48 1547.97 1974.68 1554.47 1964.05 1567.46C1953.57 1580.45 1948.31 1599.56 1948.31 1624.79ZM1999.09 1518.56C2014.45 1518.56 2027.32 1521.81 2037.68 1528.3C2043.69 1532.05 2050.49 1538.61 2058.12 1547.97V1446.61H2090.52V1722.78H2060.18V1694.87C2052.3 1707.23 2043 1716.16 2032.25 1721.66C2021.51 1727.15 2009.21 1729.9 1995.35 1729.9C1972.98 1729.9 1953.62 1720.54 1937.25 1701.8C1920.91 1682.94 1912.72 1657.89 1912.72 1626.67C1912.72 1597.44 1920.14 1572.14 1935 1550.78C1950.01 1529.3 1971.35 1518.56 1999.09 1518.56ZM2176.95 1522.12V1655.33C2176.95 1665.57 2178.58 1673.94 2181.83 1680.44C2187.84 1692.43 2199.01 1698.42 2215.38 1698.42C2238.86 1698.42 2254.84 1687.93 2263.34 1666.95C2267.95 1655.71 2270.28 1640.28 2270.28 1620.67V1522.12H2303.99V1722.78H2272.14L2272.52 1693.18C2268.15 1700.8 2262.71 1707.23 2256.2 1712.48C2243.35 1722.97 2227.73 1728.22 2209.38 1728.22C2180.78 1728.22 2161.28 1718.66 2150.92 1699.55C2145.29 1689.31 2142.49 1675.63 2142.49 1658.52V1522.12H2176.95ZM2589.47 1440.05C2624.31 1440.05 2651.37 1449.24 2670.59 1467.6C2689.83 1485.96 2700.52 1506.82 2702.63 1530.17H2666.28C2662.16 1512.44 2653.93 1498.39 2641.56 1488.02C2629.31 1477.65 2612.08 1472.47 2589.85 1472.47C2562.74 1472.47 2540.82 1482.02 2524.09 1501.13C2507.46 1520.12 2499.16 1549.29 2499.16 1588.63C2499.16 1620.86 2506.65 1647.03 2521.65 1667.14C2536.75 1687.12 2559.24 1697.11 2589.08 1697.11C2616.58 1697.11 2637.49 1686.56 2651.85 1665.45C2659.48 1654.33 2665.15 1639.72 2668.91 1621.61H2705.26C2702.01 1650.59 2691.26 1674.88 2673.03 1694.49C2651.18 1718.1 2621.7 1729.9 2584.61 1729.9C2552.62 1729.9 2525.77 1720.22 2504.04 1700.86C2475.42 1675.25 2461.13 1635.72 2461.13 1582.26C2461.13 1541.67 2471.88 1508.38 2493.34 1482.4C2516.58 1454.17 2548.62 1440.05 2589.47 1440.05ZM2774.82 1669.38C2774.82 1679.13 2778.39 1686.81 2785.52 1692.43C2792.63 1698.05 2801.07 1700.86 2810.81 1700.86C2822.68 1700.86 2834.17 1698.11 2845.27 1692.62C2864.01 1683.5 2873.39 1668.57 2873.39 1647.84V1620.67C2869.27 1623.29 2863.96 1625.48 2857.45 1627.23C2850.97 1628.98 2844.6 1630.23 2838.35 1630.98L2817.92 1633.6C2805.69 1635.22 2796.5 1637.78 2790.38 1641.28C2780.01 1647.15 2774.82 1656.52 2774.82 1669.38ZM2856.52 1601.19C2864.27 1600.19 2869.46 1596.94 2872.07 1591.44C2873.58 1588.44 2874.32 1584.13 2874.32 1578.51C2874.32 1567.02 2870.2 1558.72 2861.95 1553.6C2853.84 1548.35 2842.16 1545.73 2826.92 1545.73C2809.3 1545.73 2796.81 1550.47 2789.44 1559.97C2785.33 1565.21 2782.65 1573.02 2781.4 1583.38H2749.91C2750.53 1558.65 2758.53 1541.48 2773.89 1531.86C2789.4 1522.12 2807.32 1517.25 2827.66 1517.25C2851.28 1517.25 2870.44 1521.74 2885.18 1530.74C2899.8 1539.73 2907.1 1553.72 2907.1 1572.71V1688.31C2907.1 1691.81 2907.8 1694.62 2909.16 1696.74C2910.67 1698.86 2913.73 1699.92 2918.35 1699.92C2919.86 1699.92 2921.53 1699.86 2923.42 1699.74C2925.29 1699.49 2927.28 1699.18 2929.4 1698.8V1723.72C2924.16 1725.22 2920.17 1726.16 2917.42 1726.53C2914.66 1726.9 2910.93 1727.09 2906.17 1727.09C2894.56 1727.09 2886.12 1722.97 2880.88 1714.72C2878.12 1710.35 2876.19 1704.17 2875.06 1696.18C2868.19 1705.17 2858.34 1712.98 2845.46 1719.6C2832.61 1726.22 2818.42 1729.53 2802.94 1729.53C2784.32 1729.53 2769.08 1723.91 2757.21 1712.66C2745.49 1701.3 2739.6 1687.12 2739.6 1670.13C2739.6 1651.52 2745.41 1637.1 2757.04 1626.85C2768.65 1616.61 2783.89 1610.3 2802.75 1607.93L2856.52 1601.19ZM2965.25 1522.12H2997.29V1550.6C3006.79 1538.85 3016.84 1530.42 3027.47 1525.3C3038.07 1520.18 3049.89 1517.62 3062.88 1517.62C3091.36 1517.62 3110.6 1527.55 3120.58 1547.41C3126.08 1558.28 3128.83 1573.83 3128.83 1594.06V1722.78H3094.54V1596.31C3094.54 1584.07 3092.72 1574.21 3089.11 1566.71C3083.1 1554.22 3072.24 1547.97 3056.49 1547.97C3048.5 1547.97 3041.94 1548.79 3036.82 1550.41C3027.59 1553.16 3019.47 1558.65 3012.46 1566.9C3006.84 1573.52 3003.15 1580.39 3001.41 1587.51C2999.8 1594.5 2998.99 1604.56 2998.99 1617.67V1722.78H2965.25V1522.12ZM3207.39 1669.38C3207.39 1679.13 3210.96 1686.81 3218.06 1692.43C3225.19 1698.05 3233.62 1700.86 3243.36 1700.86C3255.23 1700.86 3266.71 1698.11 3277.84 1692.62C3296.57 1683.5 3305.93 1668.57 3305.93 1647.84V1620.67C3301.82 1623.29 3296.5 1625.48 3290.02 1627.23C3283.53 1628.98 3277.14 1630.23 3270.9 1630.98L3250.49 1633.6C3238.24 1635.22 3229.07 1637.78 3222.94 1641.28C3212.58 1647.15 3207.39 1656.52 3207.39 1669.38ZM3289.08 1601.19C3296.81 1600.19 3302.01 1596.94 3304.64 1591.44C3306.12 1588.44 3306.89 1584.13 3306.89 1578.51C3306.89 1567.02 3302.75 1558.72 3294.52 1553.6C3286.41 1548.35 3274.73 1545.73 3259.48 1545.73C3241.87 1545.73 3229.38 1550.47 3222.01 1559.97C3217.87 1565.21 3215.19 1573.02 3213.95 1583.38H3182.48C3183.1 1558.65 3191.09 1541.48 3206.46 1531.86C3221.94 1522.12 3239.86 1517.25 3260.23 1517.25C3283.84 1517.25 3303.01 1521.74 3317.75 1530.74C3332.35 1539.73 3339.67 1553.72 3339.67 1572.71V1688.31C3339.67 1691.81 3340.37 1694.62 3341.73 1696.74C3343.24 1698.86 3346.3 1699.92 3350.92 1699.92C3352.4 1699.92 3354.1 1699.86 3355.97 1699.74C3357.83 1699.49 3359.84 1699.18 3361.97 1698.8V1723.72C3356.71 1725.22 3352.71 1726.16 3349.96 1726.53C3347.23 1726.9 3343.48 1727.09 3338.74 1727.09C3327.11 1727.09 3318.69 1722.97 3313.44 1714.72C3310.69 1710.35 3308.75 1704.17 3307.63 1696.18C3300.76 1705.17 3290.88 1712.98 3278.03 1719.6C3265.16 1726.22 3250.99 1729.53 3235.48 1729.53C3216.89 1729.53 3201.65 1723.91 3189.78 1712.66C3178.03 1701.3 3172.17 1687.12 3172.17 1670.13C3172.17 1651.52 3177.98 1637.1 3189.59 1626.85C3201.22 1616.61 3216.44 1610.3 3235.32 1607.93L3289.08 1601.19ZM3419.16 1624.79C3419.16 1646.28 3423.73 1664.26 3432.85 1678.75C3441.97 1693.24 3456.59 1700.49 3476.69 1700.49C3492.32 1700.49 3505.12 1693.8 3515.1 1680.44C3525.22 1666.95 3530.27 1647.65 3530.27 1622.55C3530.27 1597.19 3525.1 1578.45 3514.74 1566.34C3504.35 1554.1 3491.55 1547.97 3476.31 1547.97C3459.34 1547.97 3445.53 1554.47 3434.91 1567.46C3424.43 1580.45 3419.16 1599.56 3419.16 1624.79ZM3469.94 1518.56C3485.3 1518.56 3498.18 1521.81 3508.54 1528.3C3514.55 1532.05 3521.34 1538.61 3528.97 1547.97V1446.61H3561.38V1722.78H3531.03V1694.87C3523.16 1707.23 3513.85 1716.16 3503.11 1721.66C3492.36 1727.15 3480.06 1729.9 3466.21 1729.9C3443.84 1729.9 3424.48 1720.54 3408.11 1701.8C3391.76 1682.94 3383.58 1657.89 3383.58 1626.67C3383.58 1597.44 3391 1572.14 3405.86 1550.78C3420.86 1529.3 3442.21 1518.56 3469.94 1518.56ZM3639.96 1669.38C3639.96 1679.13 3643.5 1686.81 3650.63 1692.43C3657.74 1698.05 3666.19 1700.86 3675.92 1700.86C3687.79 1700.86 3699.28 1698.11 3710.41 1692.62C3729.14 1683.5 3738.5 1668.57 3738.5 1647.84V1620.67C3734.38 1623.29 3729.07 1625.48 3722.56 1627.23C3716.08 1628.98 3709.71 1630.23 3703.47 1630.98L3683.03 1633.6C3670.8 1635.22 3661.61 1637.78 3655.49 1641.28C3645.13 1647.15 3639.96 1656.52 3639.96 1669.38ZM3721.63 1601.19C3729.38 1600.19 3734.58 1596.94 3737.18 1591.44C3738.69 1588.44 3739.43 1584.13 3739.43 1578.51C3739.43 1567.02 3735.32 1558.72 3727.06 1553.6C3718.95 1548.35 3707.27 1545.73 3692.03 1545.73C3674.42 1545.73 3661.93 1550.47 3654.56 1559.97C3650.44 1565.21 3647.76 1573.02 3646.52 1583.38H3615.02C3615.65 1558.65 3623.64 1541.48 3639 1531.86C3654.51 1522.12 3672.43 1517.25 3692.79 1517.25C3716.39 1517.25 3735.56 1521.74 3750.3 1530.74C3764.92 1539.73 3772.22 1553.72 3772.22 1572.71V1688.31C3772.22 1691.81 3772.91 1694.62 3774.27 1696.74C3775.78 1698.86 3778.84 1699.92 3783.46 1699.92C3784.97 1699.92 3786.64 1699.86 3788.54 1699.74C3790.4 1699.49 3792.39 1699.18 3794.52 1698.8V1723.72C3789.28 1725.22 3785.28 1726.16 3782.53 1726.53C3779.78 1726.9 3776.04 1727.09 3771.28 1727.09C3759.68 1727.09 3751.23 1722.97 3745.99 1714.72C3743.24 1710.35 3741.3 1704.17 3740.17 1696.18C3733.31 1705.17 3723.45 1712.98 3710.57 1719.6C3697.72 1726.22 3683.53 1729.53 3668.05 1729.53C3649.43 1729.53 3634.19 1723.91 3622.35 1712.66C3610.6 1701.3 3604.71 1687.12 3604.71 1670.13C3604.71 1651.52 3610.53 1637.1 3622.16 1626.85C3633.76 1616.61 3649 1610.3 3667.86 1607.93L3721.63 1601.19Z" fill="white"/>
<path d="M1903.42 7.49467H2027.27C2051.75 7.49467 2071.48 14.4269 2086.47 28.2915C2101.46 42.0317 2108.96 61.3904 2108.96 86.3725C2108.96 107.856 2102.27 126.593 2088.91 142.582C2075.54 158.445 2055 166.377 2027.27 166.377H1940.71V282.728H1903.42V7.49467ZM2071.3 86.5591C2071.3 66.3245 2063.8 52.5844 2048.81 45.341C2040.57 41.4693 2029.27 39.5334 2014.9 39.5334H1940.71V134.899H2014.9C2031.64 134.899 2045.19 131.34 2055.56 124.219C2066.05 117.1 2071.3 104.547 2071.3 86.5591ZM2187.72 82.0628V215.277C2187.72 225.521 2189.35 233.889 2192.58 240.383C2198.58 252.377 2209.76 258.371 2226.13 258.371C2249.6 258.371 2265.59 247.878 2274.08 226.894C2278.7 215.652 2281.02 200.225 2281.02 180.615V82.0628H2314.74V282.728H2282.89L2283.27 253.125C2278.89 260.745 2273.46 267.177 2266.97 272.422C2254.1 282.915 2238.5 288.163 2220.12 288.163C2191.52 288.163 2172.05 278.605 2161.66 259.495C2156.04 249.254 2153.24 235.576 2153.24 218.464V82.0628H2187.72ZM2367.64 6.55656H2400.43V106.42C2407.8 96.8032 2416.6 89.4952 2426.84 84.4988C2437.09 79.378 2448.21 76.8176 2460.2 76.8176C2485.18 76.8176 2505.4 85.4368 2520.91 102.673C2536.51 119.785 2544.31 145.08 2544.31 178.555C2544.31 210.28 2536.63 236.636 2521.27 257.622C2505.91 278.605 2484.61 289.098 2457.38 289.098C2442.16 289.098 2429.29 285.413 2418.78 278.043C2412.53 273.671 2405.86 266.677 2398.75 257.059V282.728H2367.64V6.55656ZM2455.32 259.309C2473.55 259.309 2487.17 252.063 2496.17 237.574C2505.28 223.085 2509.85 203.973 2509.85 180.242C2509.85 159.132 2505.28 141.644 2496.17 127.78C2487.17 113.915 2473.87 106.983 2456.25 106.983C2440.89 106.983 2427.42 112.666 2415.79 124.032C2404.3 135.399 2398.56 154.135 2398.56 180.242C2398.56 199.103 2400.93 214.403 2405.67 226.145C2414.54 248.254 2431.1 259.309 2455.32 259.309ZM2587.48 7.49467H2621.2V282.728H2587.48V7.49467ZM2674.66 83.0009H2708.95V282.728H2674.66V83.0009ZM2674.66 7.49467H2708.95V45.7144H2674.66V7.49467ZM2840.17 76.2552C2862.79 76.2552 2881.14 81.7518 2895.26 92.7425C2909.5 103.736 2918.04 122.659 2920.91 149.514H2888.13C2886.14 137.148 2881.57 126.906 2874.46 118.787C2867.33 110.543 2855.92 106.42 2840.17 106.42C2818.69 106.42 2803.32 116.913 2794.09 137.897C2788.08 151.513 2785.09 168.313 2785.09 188.297C2785.09 208.409 2789.32 225.332 2797.82 239.072C2806.31 252.812 2819.69 259.682 2837.92 259.682C2851.92 259.682 2862.95 255.435 2871.09 246.942C2879.32 238.323 2885.02 226.581 2888.13 211.718H2920.91C2917.18 238.323 2907.8 257.808 2892.82 270.175C2877.84 282.415 2858.65 288.536 2835.29 288.536C2809.07 288.536 2788.15 278.981 2772.53 259.869C2756.92 240.634 2749.12 216.653 2749.12 187.923C2749.12 152.699 2757.67 125.281 2774.78 105.671C2791.88 86.0614 2813.68 76.2552 2840.17 76.2552ZM3095.67 193.918C3096.55 209.531 3100.24 222.209 3106.72 231.953C3119.09 250.189 3140.89 259.309 3172.12 259.309C3186.09 259.309 3198.85 257.308 3210.33 253.312C3232.56 245.569 3243.69 231.704 3243.69 211.718C3243.69 196.729 3239 186.05 3229.62 179.68C3220.15 173.434 3205.29 168 3185.04 163.379L3147.76 154.946C3123.4 149.452 3106.17 143.393 3096.05 136.772C3078.56 125.281 3069.82 108.107 3069.82 85.2478C3069.82 60.517 3078.36 40.2202 3095.47 24.3551C3112.58 8.49246 3136.82 0.562301 3168.17 0.562301C3197.03 0.562301 3221.51 7.5568 3241.63 21.5458C3261.85 35.4104 3271.98 57.6431 3271.98 88.2461H3236.94C3235.08 73.5082 3231.08 62.2039 3224.96 54.3336C3213.59 39.9689 3194.28 32.7878 3167.05 32.7878C3145.08 32.7878 3129.26 37.4085 3119.64 46.6524C3110.02 55.8962 3105.21 66.638 3105.21 78.8778C3105.21 92.3691 3110.84 102.235 3122.08 108.481C3129.45 112.479 3146.13 117.476 3172.12 123.47L3210.72 132.276C3229.31 136.523 3243.69 142.331 3253.81 149.701C3271.28 162.568 3280.04 181.24 3280.04 205.722C3280.04 236.2 3268.91 257.995 3246.68 271.111C3224.57 284.226 3198.85 290.785 3169.49 290.785C3135.27 290.785 3108.47 282.042 3089.11 264.554C3069.75 247.191 3060.25 223.647 3060.63 193.918H3095.67ZM3408.99 77.5665C3423.23 77.5665 3437.04 80.9405 3450.42 87.6838C3463.77 94.305 3473.96 102.924 3480.95 113.539C3487.7 123.659 3492.2 135.461 3494.45 148.952C3496.43 158.196 3497.44 172.934 3497.44 193.168H3350.37C3350.99 213.53 3355.8 229.893 3364.77 242.257C3373.77 254.499 3387.7 260.62 3406.55 260.62C3424.17 260.62 3438.24 254.81 3448.72 243.195C3454.72 236.449 3458.96 228.644 3461.47 219.775H3494.64C3493.75 227.143 3490.81 235.387 3485.83 244.506C3480.95 253.499 3475.45 260.869 3469.32 266.614C3459.08 276.607 3446.42 283.353 3431.3 286.849C3423.18 288.849 3414 289.847 3403.75 289.847C3378.77 289.847 3357.59 280.792 3340.25 262.68C3322.87 244.444 3314.19 218.962 3314.19 186.236C3314.19 154.011 3322.95 127.842 3340.44 107.732C3357.91 87.6216 3380.78 77.5665 3408.99 77.5665ZM3462.76 166.377C3461.4 151.761 3458.22 140.084 3453.22 131.34C3443.98 115.102 3428.54 106.983 3406.94 106.983C3391.45 106.983 3378.46 112.604 3367.98 123.846C3357.48 134.963 3351.92 149.139 3351.3 166.377H3462.76ZM3542.66 82.0628H3574.68V116.727C3577.31 109.981 3583.75 101.8 3593.99 92.1801C3604.23 82.4385 3616.03 77.5665 3629.41 77.5665C3630.03 77.5665 3631.08 77.6287 3632.59 77.7531C3634.1 77.8799 3636.66 78.1289 3640.27 78.5046V114.102C3638.26 113.728 3636.39 113.477 3634.65 113.353C3633.02 113.228 3631.2 113.166 3629.22 113.166C3612.23 113.166 3599.18 118.663 3590.07 129.653C3580.93 140.519 3576.38 153.073 3576.38 167.313V282.728H3542.66V82.0628ZM3688.68 82.0628L3742.26 245.442L3798.28 82.0628H3835.2L3759.49 282.728H3723.52L3649.51 82.0628H3688.68ZM3866.74 83.0009H3901V282.728H3866.74V83.0009ZM3866.74 7.49467H3901V45.7144H3866.74V7.49467ZM4032.23 76.2552C4054.84 76.2552 4073.2 81.7518 4087.32 92.7425C4101.55 103.736 4110.12 122.659 4112.99 149.514H4080.18C4078.2 137.148 4073.63 126.906 4066.52 118.787C4059.39 110.543 4047.98 106.42 4032.23 106.42C4010.74 106.42 3995.38 116.913 3986.14 137.897C3980.14 151.513 3977.15 168.313 3977.15 188.297C3977.15 208.409 3981.41 225.332 3989.88 239.072C3998.37 252.812 4011.75 259.682 4029.98 259.682C4043.98 259.682 4055.04 255.435 4063.15 246.942C4071.38 238.323 4077.07 226.581 4080.18 211.718H4112.99C4109.23 238.323 4099.88 257.808 4084.87 270.175C4069.9 282.415 4050.73 288.536 4027.35 288.536C4001.12 288.536 3980.21 278.981 3964.58 259.869C3948.98 240.634 3941.18 216.653 3941.18 187.923C3941.18 152.699 3949.72 125.281 3966.83 105.671C3983.97 86.0614 4005.74 76.2552 4032.23 76.2552ZM4232.95 77.5665C4247.19 77.5665 4260.99 80.9405 4274.37 87.6838C4287.72 94.305 4297.92 102.924 4304.9 113.539C4311.65 123.659 4316.15 135.461 4318.4 148.952C4320.39 158.196 4321.39 172.934 4321.39 193.168H4174.32C4174.94 213.53 4179.75 229.893 4188.75 242.257C4197.73 254.499 4211.65 260.62 4230.53 260.62C4248.14 260.62 4262.19 254.81 4272.67 243.195C4278.68 236.449 4282.91 228.644 4285.43 219.775H4318.59C4317.71 227.143 4314.76 235.387 4309.79 244.506C4304.9 253.499 4299.4 260.869 4293.3 266.614C4283.06 276.607 4270.37 283.353 4255.25 286.849C4247.14 288.849 4237.95 289.847 4227.71 289.847C4202.73 289.847 4181.55 280.792 4164.2 262.68C4146.83 244.444 4138.14 218.962 4138.14 186.236C4138.14 154.011 4146.9 127.842 4164.39 107.732C4181.86 87.6216 4204.74 77.5665 4232.95 77.5665ZM4286.74 166.377C4285.35 151.761 4282.17 140.084 4277.17 131.34C4267.93 115.102 4252.5 106.983 4230.89 106.983C4215.41 106.983 4202.42 112.604 4191.93 123.846C4181.43 134.963 4175.88 149.139 4175.26 166.377H4286.74ZM4595.62 0C4630.48 0 4657.52 9.17927 4676.76 27.5425C4696 45.9034 4706.68 66.7625 4708.81 90.1198H4672.46C4668.32 72.3835 4660.09 58.3322 4647.71 47.9637C4635.49 37.5975 4618.23 32.4121 4596 32.4121C4568.89 32.4121 4546.97 41.9671 4530.25 61.0793C4513.64 80.0648 4505.31 109.232 4505.31 148.576C4505.31 180.804 4512.83 206.971 4527.8 227.081C4542.93 247.067 4565.4 257.059 4595.26 257.059C4622.73 257.059 4643.65 246.504 4658.03 225.396C4665.64 214.279 4671.33 199.665 4675.06 181.553H4711.41C4708.16 210.532 4697.44 234.827 4679.18 254.437C4657.33 278.043 4627.85 289.847 4590.76 289.847C4558.79 289.847 4531.92 280.168 4510.19 260.807C4481.6 235.2 4467.29 195.667 4467.29 142.206C4467.29 101.611 4478.03 68.3227 4499.52 42.3427C4522.76 14.1135 4554.77 0 4595.62 0ZM4834.77 260.993C4857.12 260.993 4872.43 252.563 4880.66 235.7C4889.04 218.713 4893.23 199.852 4893.23 179.117C4893.23 160.381 4890.24 145.143 4884.23 133.4C4874.73 114.915 4858.36 105.671 4835.15 105.671C4814.52 105.671 4799.54 113.539 4790.16 129.28C4780.81 145.018 4776.12 164.004 4776.12 186.236C4776.12 207.595 4780.81 225.396 4790.16 239.634C4799.54 253.875 4814.4 260.993 4834.77 260.993ZM4836.08 76.2552C4861.93 76.2552 4883.8 84.8745 4901.65 102.111C4919.53 119.349 4928.45 144.705 4928.45 178.179C4928.45 210.531 4920.58 237.26 4904.83 258.371C4889.11 279.481 4864.68 290.034 4831.59 290.034C4803.97 290.034 4782.05 280.73 4765.8 262.118C4749.58 243.382 4741.47 218.275 4741.47 186.799C4741.47 153.073 4750.01 126.219 4767.12 106.234C4784.23 86.248 4807.23 76.2552 4836.08 76.2552ZM4971.4 82.0628H5004.76V110.543C5012.75 100.675 5020 93.4938 5026.49 88.9951C5037.62 81.3761 5050.23 77.5665 5064.35 77.5665C5080.33 77.5665 5093.2 81.5004 5102.94 89.3707C5108.45 93.867 5113.42 100.488 5117.92 109.232C5125.44 98.4878 5134.24 90.5577 5144.34 85.4368C5154.46 80.1892 5165.83 77.5665 5178.44 77.5665C5205.43 77.5665 5223.79 87.3105 5233.52 106.796C5238.79 117.287 5241.4 131.402 5241.4 149.139V282.728H5206.36V143.331C5206.36 129.967 5202.99 120.785 5196.24 115.789C5189.64 110.792 5181.5 108.294 5171.88 108.294C5158.65 108.294 5147.21 112.728 5137.62 121.596C5128.12 130.464 5123.35 145.267 5123.35 166.002V282.728H5089.09V151.761C5089.09 138.148 5087.46 128.217 5084.21 121.972C5079.09 112.604 5069.54 107.918 5055.54 107.918C5042.81 107.918 5031.18 112.853 5020.7 122.721C5010.31 132.589 5005.14 150.45 5005.14 176.306V282.728H4971.4V82.0628ZM5293.73 82.0628H5327.09V110.543C5335.08 100.675 5342.33 93.4938 5348.82 88.9951C5359.94 81.3761 5372.55 77.5665 5386.67 77.5665C5402.66 77.5665 5415.53 81.5004 5425.27 89.3707C5430.77 93.867 5435.75 100.488 5440.25 109.232C5447.76 98.4878 5456.57 90.5577 5466.67 85.4368C5476.79 80.1892 5488.16 77.5665 5500.77 77.5665C5527.76 77.5665 5546.11 87.3105 5555.85 106.796C5561.12 117.287 5563.72 131.402 5563.72 149.139V282.728H5528.69V143.331C5528.69 129.967 5525.32 120.785 5518.57 115.789C5511.96 110.792 5503.83 108.294 5494.21 108.294C5480.98 108.294 5469.54 112.728 5459.92 121.596C5450.44 130.464 5445.68 145.267 5445.68 166.002V282.728H5411.41V151.761C5411.41 138.148 5409.79 128.217 5406.53 121.972C5401.41 112.604 5391.86 107.918 5377.87 107.918C5365.14 107.918 5353.51 112.853 5343.02 122.721C5332.64 132.589 5327.47 150.45 5327.47 176.306V282.728H5293.73V82.0628ZM5616.06 83.0009H5650.35V282.728H5616.06V83.0009ZM5616.06 7.49467H5650.35V45.7144H5616.06V7.49467ZM5724.24 219.775C5725.25 231.017 5728.05 239.634 5732.66 245.631C5741.16 256.497 5755.9 261.931 5776.88 261.931C5789.38 261.931 5800.36 259.244 5809.86 253.875C5819.36 248.378 5824.1 239.948 5824.1 228.581C5824.1 219.962 5820.29 213.403 5812.66 208.907C5807.8 206.16 5798.18 202.975 5783.82 199.352L5757.02 192.606C5739.91 188.361 5727.3 183.614 5719.17 178.368C5704.69 169.249 5697.44 156.633 5697.44 140.519C5697.44 121.534 5704.26 106.172 5717.88 94.4295C5731.61 82.6874 5750.04 76.8176 5773.13 76.8176C5803.37 76.8176 5825.15 85.6857 5838.53 103.422C5846.9 114.664 5850.95 126.782 5850.71 139.77H5818.86C5818.23 132.151 5815.55 125.219 5810.79 118.974C5803.06 110.105 5789.62 105.671 5770.52 105.671C5757.77 105.671 5748.1 108.107 5741.47 112.979C5734.99 117.849 5731.73 124.284 5731.73 132.276C5731.73 141.02 5736.04 148.014 5744.65 153.262C5749.65 156.385 5757.02 159.132 5766.76 161.505L5789.06 166.937C5813.31 172.81 5829.53 178.493 5837.78 183.989C5850.9 192.606 5857.45 206.16 5857.45 224.645C5857.45 242.508 5850.63 257.933 5837.02 270.924C5823.55 283.915 5802.92 290.41 5775.21 290.41C5745.35 290.41 5724.17 283.664 5711.68 270.175C5699.31 256.559 5692.7 239.759 5691.82 219.775H5724.24ZM5918.79 219.775C5919.79 231.017 5922.59 239.634 5927.21 245.631C5935.7 256.497 5950.44 261.931 5971.43 261.931C5983.92 261.931 5994.9 259.244 6004.4 253.875C6013.9 248.378 6018.64 239.948 6018.64 228.581C6018.64 219.962 6014.84 213.403 6007.2 208.907C6002.35 206.16 5992.73 202.975 5978.37 199.352L5951.57 192.606C5934.46 188.361 5921.85 183.614 5913.71 178.368C5899.24 169.249 5891.98 156.633 5891.98 140.519C5891.98 121.534 5898.8 106.172 5912.42 94.4295C5926.16 82.6874 5944.58 76.8176 5967.67 76.8176C5997.92 76.8176 6019.69 85.6857 6033.07 103.422C6041.45 114.664 6045.49 126.782 6045.25 139.77H6013.4C6012.78 132.151 6010.1 125.219 6005.34 118.974C5997.61 110.105 5984.16 105.671 5965.06 105.671C5952.31 105.671 5942.64 108.107 5936.01 112.979C5929.53 117.849 5926.27 124.284 5926.27 132.276C5926.27 141.02 5930.58 148.014 5939.2 153.262C5944.2 156.385 5951.57 159.132 5961.31 161.505L5983.61 166.937C6007.85 172.81 6024.07 178.493 6032.33 183.989C6045.44 192.606 6052 206.16 6052 224.645C6052 242.508 6045.18 257.933 6031.56 270.924C6018.09 283.915 5997.46 290.41 5969.75 290.41C5939.89 290.41 5918.71 283.664 5906.22 270.175C5893.85 256.559 5887.25 239.759 5886.36 219.775H5918.79ZM6093.28 83.0009H6127.57V282.728H6093.28V83.0009ZM6093.28 7.49467H6127.57V45.7144H6093.28V7.49467ZM6261.02 260.993C6283.39 260.993 6298.69 252.563 6306.94 235.7C6315.29 218.713 6319.48 199.852 6319.48 179.117C6319.48 160.381 6316.49 145.143 6310.48 133.4C6301.01 114.915 6284.64 105.671 6261.4 105.671C6240.8 105.671 6225.8 113.539 6216.44 129.28C6207.06 145.018 6202.39 164.004 6202.39 186.236C6202.39 207.595 6207.06 225.396 6216.44 239.634C6225.8 253.875 6240.66 260.993 6261.02 260.993ZM6262.34 76.2552C6288.2 76.2552 6310.05 84.8745 6327.93 102.111C6345.78 119.349 6354.7 144.705 6354.7 178.179C6354.7 210.531 6346.83 237.26 6331.11 258.371C6315.36 279.481 6290.96 290.034 6257.84 290.034C6230.25 290.034 6208.33 280.73 6192.08 262.118C6175.83 243.382 6167.72 218.275 6167.72 186.799C6167.72 153.073 6176.29 126.219 6193.4 106.234C6210.51 86.248 6233.48 76.2552 6262.34 76.2552ZM6397.68 82.0628H6429.72V110.543C6439.22 98.8012 6449.27 90.371 6459.87 85.2478C6470.5 80.1269 6482.29 77.5665 6495.29 77.5665C6523.76 77.5665 6543 87.4971 6553 107.358C6558.51 118.225 6561.24 133.776 6561.24 154.011V282.728H6526.95V156.258C6526.95 144.018 6525.15 134.15 6521.51 126.655C6515.53 114.164 6504.67 107.918 6488.92 107.918C6480.93 107.918 6474.37 108.732 6469.25 110.354C6460.02 113.104 6451.88 118.6 6444.89 126.844C6439.27 133.463 6435.58 140.333 6433.84 147.452C6432.21 154.449 6431.4 164.504 6431.4 177.617V282.728H6397.68V82.0628Z" fill="white"/>
<path d="M1990.21 665.129C2012.57 665.129 2027.87 656.696 2036.11 639.833C2044.48 622.846 2048.66 603.985 2048.66 583.25C2048.66 564.514 2045.67 549.275 2039.67 537.533C2030.18 519.048 2013.82 509.804 1990.58 509.804C1969.97 509.804 1954.98 517.674 1945.62 533.413C1936.25 549.151 1931.56 568.136 1931.56 590.369C1931.56 611.728 1936.25 629.529 1945.62 643.769C1954.98 658.007 1969.85 665.129 1990.21 665.129ZM1991.52 480.388C2017.37 480.388 2039.23 489.007 2057.1 506.246C2074.96 523.482 2083.89 548.838 2083.89 582.314C2083.89 614.664 2076.02 641.396 2060.28 662.504C2044.54 683.614 2020.12 694.169 1987.02 694.169C1959.42 694.169 1937.5 684.863 1921.26 666.251C1905.02 647.514 1896.9 622.41 1896.9 590.931C1896.9 557.208 1905.46 530.352 1922.57 510.366C1939.68 490.381 1962.67 480.388 1991.52 480.388ZM2135.29 455.657C2135.79 441.668 2138.22 431.424 2142.6 424.93C2150.46 413.439 2165.63 407.693 2188.13 407.693C2190.26 407.693 2192.44 407.756 2194.68 407.88C2196.93 408.004 2199.49 408.191 2202.37 408.442V439.17C2198.87 438.919 2196.31 438.794 2194.68 438.794C2193.18 438.67 2191.74 438.608 2190.38 438.608C2180.14 438.608 2174.01 441.292 2172 446.665C2170.01 451.91 2169.01 465.399 2169.01 487.134H2202.37V513.738H2168.65V686.861H2135.29V513.738H2107.37V487.134H2135.29V455.657ZM2466.31 404.133C2501.15 404.133 2528.19 413.314 2547.43 431.675C2566.66 450.036 2577.34 470.895 2579.47 494.253H2543.12C2539 476.516 2530.75 462.465 2518.38 452.096C2506.15 441.73 2488.89 436.547 2466.66 436.547C2439.58 436.547 2417.63 446.102 2400.91 465.212C2384.3 484.197 2376 513.365 2376 552.712C2376 584.937 2383.49 611.106 2398.47 631.216C2413.59 651.199 2436.06 661.192 2465.92 661.192C2493.39 661.192 2514.33 650.637 2528.69 629.529C2536.3 618.412 2541.99 603.798 2545.73 585.686H2582.07C2578.84 614.664 2568.1 638.96 2549.87 658.57C2527.99 682.178 2498.51 693.98 2461.42 693.98C2429.45 693.98 2402.58 684.301 2380.85 664.94C2352.26 639.333 2337.95 599.802 2337.95 546.339C2337.95 505.746 2348.69 472.458 2370.18 446.476C2393.42 418.246 2425.46 404.133 2466.31 404.133ZM2651.66 633.463C2651.66 643.207 2655.23 650.888 2662.33 656.509C2669.46 662.13 2677.89 664.94 2687.63 664.94C2699.5 664.94 2710.98 662.193 2722.11 656.696C2740.85 647.579 2750.2 632.652 2750.2 611.917V584.75C2746.09 587.373 2740.77 589.558 2734.29 591.307C2727.78 593.056 2721.41 594.305 2715.17 595.054L2694.76 597.677C2682.51 599.302 2673.34 601.862 2667.21 605.358C2656.85 611.23 2651.66 620.599 2651.66 633.463ZM2733.36 565.265C2741.08 564.265 2746.28 561.017 2748.91 555.521C2750.39 552.522 2751.16 548.213 2751.16 542.592C2751.16 531.101 2747.02 522.795 2738.79 517.674C2730.65 512.427 2718.97 509.804 2703.75 509.804C2686.14 509.804 2673.65 514.552 2666.28 524.044C2662.14 529.29 2659.46 537.098 2658.22 547.464H2626.75C2627.37 522.733 2635.37 505.557 2650.73 495.94C2666.21 486.198 2684.13 481.326 2704.5 481.326C2728.09 481.326 2747.28 485.822 2762.02 494.815C2776.62 503.81 2783.94 517.799 2783.94 536.784V652.386C2783.94 655.885 2784.61 658.694 2786 660.819C2787.51 662.942 2790.55 664.004 2795.19 664.004C2796.67 664.004 2798.37 663.942 2800.24 663.815C2802.1 663.566 2804.11 663.255 2806.24 662.879V687.799C2800.98 689.297 2796.98 690.235 2794.23 690.608C2791.5 690.984 2787.75 691.171 2783.01 691.171C2771.38 691.171 2762.96 687.048 2757.72 678.804C2754.96 674.432 2753.03 668.249 2751.9 660.257C2745.03 669.249 2735.15 677.057 2722.3 683.676C2709.43 690.297 2695.26 693.607 2679.75 693.607C2661.16 693.607 2645.92 687.986 2634.05 676.744C2622.3 665.377 2616.44 651.199 2616.44 634.212C2616.44 615.602 2622.25 601.175 2633.86 590.931C2645.49 580.69 2660.71 574.382 2679.59 572.008L2733.36 565.265ZM2842.09 486.198H2874.13V514.676C2883.61 502.934 2893.66 494.504 2904.28 489.383C2914.91 484.262 2926.7 481.699 2939.7 481.699C2968.17 481.699 2987.41 491.63 2997.41 511.491C3002.89 522.357 3005.65 537.909 3005.65 558.144V686.861H2971.36V560.393C2971.36 548.151 2969.56 538.285 2965.92 530.79C2959.94 518.299 2949.05 512.053 2933.33 512.053C2925.34 512.053 2918.78 512.865 2913.66 514.489C2904.4 517.237 2896.29 522.733 2889.3 530.977C2883.68 537.596 2879.99 544.466 2878.25 551.587C2876.62 558.581 2875.81 568.636 2875.81 581.752V686.861H2842.09V486.198ZM3084.21 633.463C3084.21 643.207 3087.77 650.888 3094.9 656.509C3102.01 662.13 3110.46 664.94 3120.19 664.94C3132.06 664.94 3143.55 662.193 3154.65 656.696C3173.39 647.579 3182.77 632.652 3182.77 611.917V584.75C3178.65 587.373 3173.34 589.558 3166.83 591.307C3160.35 593.056 3153.98 594.305 3147.74 595.054L3127.3 597.677C3115.07 599.302 3105.88 601.862 3099.76 605.358C3089.4 611.23 3084.21 620.599 3084.21 633.463ZM3165.9 565.265C3173.65 564.265 3178.85 561.017 3181.45 555.521C3182.96 552.522 3183.7 548.213 3183.7 542.592C3183.7 531.101 3179.59 522.795 3171.33 517.674C3163.22 512.427 3151.54 509.804 3136.3 509.804C3118.69 509.804 3106.2 514.552 3098.83 524.044C3094.71 529.29 3092.03 537.098 3090.76 547.464H3059.29C3059.92 522.733 3067.91 505.557 3083.27 495.94C3098.78 486.198 3116.7 481.326 3137.04 481.326C3160.66 481.326 3179.83 485.822 3194.57 494.815C3209.19 503.81 3216.49 517.799 3216.49 536.784V652.386C3216.49 655.885 3217.18 658.694 3218.54 660.819C3220.05 662.942 3223.11 664.004 3227.73 664.004C3229.24 664.004 3230.92 663.942 3232.78 663.815C3234.67 663.566 3236.66 663.255 3238.79 662.879V687.799C3233.55 689.297 3229.55 690.235 3226.8 690.608C3224.05 690.984 3220.31 691.171 3215.55 691.171C3203.95 691.171 3195.5 687.048 3190.26 678.804C3187.51 674.432 3185.57 668.249 3184.44 660.257C3177.58 669.249 3167.72 677.057 3154.84 683.676C3141.99 690.297 3127.8 693.607 3112.32 693.607C3093.71 693.607 3078.46 687.986 3066.59 676.744C3054.87 665.377 3048.98 651.199 3048.98 634.212C3048.98 615.602 3054.8 601.175 3066.43 590.931C3078.03 580.69 3093.27 574.382 3112.13 572.008L3165.9 565.265ZM3296 588.871C3296 610.355 3300.55 628.342 3309.67 642.831C3318.78 657.321 3333.4 664.566 3353.53 664.566C3369.13 664.566 3381.93 657.883 3391.93 644.518C3402.03 631.027 3407.11 611.728 3407.11 586.624C3407.11 561.266 3401.91 542.53 3391.55 530.414C3381.19 518.175 3368.39 512.053 3353.15 512.053C3336.16 512.053 3322.35 518.548 3311.72 531.539C3301.24 544.528 3296 563.64 3296 588.871ZM3346.78 482.637C3362.14 482.637 3374.99 485.884 3385.38 492.379C3391.36 496.126 3398.18 502.685 3405.79 512.053V410.689H3438.21V686.861H3407.85V658.945C3399.97 671.31 3390.67 680.242 3379.95 685.736C3369.2 691.233 3356.88 693.98 3343.02 693.98C3320.67 693.98 3301.31 684.614 3284.95 665.878C3268.58 647.017 3260.4 621.972 3260.4 590.745C3260.4 561.517 3267.84 536.222 3282.7 514.863C3297.68 493.379 3319.05 482.637 3346.78 482.637ZM3516.77 633.463C3516.77 643.207 3520.34 650.888 3527.45 656.509C3534.58 662.13 3543 664.94 3552.74 664.94C3564.61 664.94 3576.09 662.193 3587.22 656.696C3605.96 647.579 3615.31 632.652 3615.31 611.917V584.75C3611.2 587.373 3605.89 589.558 3599.4 591.307C3592.89 593.056 3586.53 594.305 3580.28 595.054L3559.87 597.677C3547.62 599.302 3538.45 601.862 3532.33 605.358C3521.97 611.23 3516.77 620.599 3516.77 633.463ZM3598.47 565.265C3606.2 564.265 3611.39 561.017 3614.02 555.521C3615.51 552.522 3616.27 548.213 3616.27 542.592C3616.27 531.101 3612.13 522.795 3603.9 517.674C3595.79 512.427 3584.09 509.804 3568.87 509.804C3551.26 509.804 3538.76 514.552 3531.39 524.044C3527.25 529.29 3524.57 537.098 3523.33 547.464H3491.86C3492.49 522.733 3500.48 505.557 3515.84 495.94C3531.32 486.198 3549.25 481.326 3569.61 481.326C3593.23 481.326 3612.39 485.822 3627.13 494.815C3641.73 503.81 3649.05 517.799 3649.05 536.784V652.386C3649.05 655.885 3649.75 658.694 3651.11 660.819C3652.62 662.942 3655.66 664.004 3660.3 664.004C3661.78 664.004 3663.48 663.942 3665.35 663.815C3667.22 663.566 3669.23 663.255 3671.36 662.879V687.799C3666.09 689.297 3662.1 690.235 3659.34 690.608C3656.62 690.984 3652.86 691.171 3648.12 691.171C3636.49 691.171 3628.07 687.048 3622.83 678.804C3620.08 674.432 3618.14 668.249 3617.01 660.257C3610.14 669.249 3600.26 677.057 3587.41 683.676C3574.54 690.297 3560.37 693.607 3544.87 693.607C3526.27 693.607 3511.03 687.986 3499.16 676.744C3487.41 665.377 3481.55 651.199 3481.55 634.212C3481.55 615.602 3487.36 601.175 3498.97 590.931C3510.6 580.69 3525.82 574.382 3544.7 572.008L3598.47 565.265Z" fill="white"/>
</svg>
