<svg width="1133" height="575" viewBox="0 0 1133 575" fill="none" xmlns="http://www.w3.org/2000/svg">
<g clip-path="url(#clip0_465_193)">
<path d="M0.078125 0.625L74.7923 75.3391V363.125L0.078125 438.564V0.625ZM209.608 76.0637H424.733V4.81157H140.449L209.608 76.0637ZM140.449 252.785H424.733V185.72H140.449V252.785ZM131.351 438.564H428.919V362.441H209.608L131.391 438.564H131.351ZM561.763 76.0637H776.888V4.81157H492.604L561.763 76.0637ZM492.604 252.785H776.888V185.72H492.604V252.785ZM483.506 438.564H781.034V362.441H561.722L483.506 438.564ZM913.233 76.0637H1128.36V4.81157H844.074L913.233 76.0637ZM844.074 252.785H1128.36V185.72H844.074V252.785ZM834.976 438.564H1132.5V362.441H913.193L834.976 438.564ZM276.955 571.286L290.078 558.042V507.562L276.955 494.439V571.246V571.286ZM351.428 494.479L338.304 507.723V558.203L351.428 571.327V494.519V494.479ZM343.417 574.748L333.313 564.725H294.748L284.724 574.748H343.417ZM776.847 493.15L763.966 506.153V555.748L776.847 568.629V493.191V493.15ZM703.703 568.589L716.585 555.587V505.992L703.703 493.11V568.549V568.589ZM767.79 573.5L757.847 563.678H719.966L710.144 573.5H767.79ZM746.052 556.432V522.698H734.499V556.432H746.052ZM691.908 497.216L678.986 510.259V560.095L691.908 573.017V497.216ZM618.402 573.017L631.324 559.974V510.138L618.402 497.216V573.017ZM626.292 492.265L636.275 502.168H674.357L684.26 492.265H626.332H626.292ZM637.523 540.934H672.747V529.34H637.523V540.934ZM429.725 574.305L419.62 564.282H381.056L371.032 574.305H429.725ZM363.263 571.769L376.386 558.646V508.166L363.263 494.922V571.729V571.769ZM437.735 494.962L424.612 508.085V558.566L437.735 571.81V495.002V494.962ZM371.032 491.5L381.056 501.524H419.62L429.725 491.5H371.032ZM491.114 574.305V509.977H478.675V574.305H491.114ZM448.121 491.5L460.681 502.49H508.988L521.668 491.5H448.162H448.121ZM533.704 491.5L546.304 502.168H594.893L607.613 491.5H533.664H533.704ZM576.939 574.305V509.414H564.419V574.305H576.939ZM863.558 497.458L850.636 510.501V560.337L863.558 573.259V497.458ZM790.051 573.259L802.973 560.216V510.38L790.051 497.458V573.259ZM797.941 492.506L807.925 502.409H846.006L855.909 492.506H797.982H797.941ZM809.173 541.175H844.396V529.582H809.173V541.175Z" fill="url(#paint0_linear_465_193)"/>
</g>
<defs>
<linearGradient id="paint0_linear_465_193" x1="0.078125" y1="287.687" x2="1132.54" y2="287.687" gradientUnits="userSpaceOnUse">
<stop stop-color="#0F71A3"/>
<stop offset="1" stop-color="#38B6FF"/>
</linearGradient>
<clipPath id="clip0_465_193">
<rect width="1132.47" height="574.123" fill="white" transform="translate(0.078125 0.625)"/>
</clipPath>
</defs>
</svg>
