<svg width="1166" height="1138" viewBox="0 0 1166 1138" fill="none" xmlns="http://www.w3.org/2000/svg">
<path d="M9 384.395C387.51 384.395 766.02 384.395 1156 384.395C1156 391.655 1156 398.915 1156 406.395C1120.94 406.4 1085.88 406.405 1050.82 406.41C1050.13 406.411 1049.44 406.411 1048.74 406.411C975.25 406.421 901.762 406.431 828.274 406.437C826.642 406.437 825.011 406.437 823.379 406.437C789.131 406.44 754.883 406.443 720.635 406.445C703.432 406.447 686.228 406.448 669.025 406.449C666.43 406.449 663.835 406.45 661.24 406.45C621.264 406.453 581.287 406.457 541.311 406.463C540.021 406.463 540.021 406.463 538.705 406.464C524.838 406.466 510.972 406.468 497.105 406.47C457.182 406.477 417.259 406.483 377.335 406.486C376.515 406.486 375.695 406.486 374.849 406.486C356.843 406.487 338.836 406.488 320.829 406.489C313.584 406.489 306.34 406.489 299.095 406.489C297.906 406.489 297.906 406.489 296.693 406.49C271.115 406.491 245.537 406.495 219.959 406.501C194.208 406.507 168.458 406.51 142.708 406.508C139.155 406.508 135.602 406.508 132.049 406.508C131.004 406.508 131.004 406.508 129.939 406.508C118.879 406.507 107.82 406.51 96.7604 406.515C85.9038 406.519 75.0472 406.519 64.1906 406.516C58.3755 406.515 52.5603 406.515 46.7451 406.519C41.4674 406.523 36.1896 406.523 30.9119 406.519C29.0025 406.518 27.0931 406.519 25.1837 406.522C22.6132 406.525 20.0428 406.523 17.4724 406.519C16.3429 406.522 16.3429 406.522 15.1906 406.526C10.1142 406.509 10.1142 406.509 9 405.395C9 398.465 9 391.535 9 384.395Z" fill="#0D78B9"/>
<path d="M14.8264 2.2607C15.5219 2.26293 16.2174 2.26516 16.9339 2.26746C17.668 2.2659 18.402 2.26434 19.1583 2.26273C21.6375 2.25872 24.1166 2.26191 26.5959 2.26505C28.3665 2.2637 30.1371 2.26192 31.9077 2.25974C36.7374 2.25516 41.567 2.25696 46.3967 2.26012C51.4602 2.26265 56.5238 2.2603 61.5874 2.25873C70.1128 2.25691 78.6383 2.25932 87.1637 2.26407C96.9762 2.26948 106.789 2.26778 116.601 2.26225C125.043 2.25768 133.485 2.25708 141.927 2.25969C146.96 2.26123 151.993 2.26148 157.026 2.25815C161.779 2.25522 166.532 2.25734 171.286 2.26304C173.014 2.26435 174.742 2.26402 176.471 2.26178C185.528 2.25114 194.561 2.39545 203.61 2.82441C204.412 2.86105 205.215 2.89769 206.041 2.93544C227.642 4.06596 249.707 9.01634 265.001 25.3944C290.372 57.7316 287.005 113.102 282.36 151.741C279.603 172.095 273.917 195.027 257.001 208.394C234.754 224.268 209.385 225.556 183.029 225.524C181.138 225.525 179.246 225.527 177.354 225.529C172.252 225.534 167.149 225.532 162.047 225.529C156.701 225.526 151.355 225.529 146.009 225.53C137.046 225.532 128.082 225.53 119.119 225.525C108.746 225.519 98.3718 225.521 87.9981 225.527C79.0858 225.531 70.1735 225.532 61.2613 225.529C55.94 225.528 50.6187 225.527 45.2975 225.531C40.3061 225.534 35.3149 225.532 30.3235 225.526C28.4873 225.525 26.651 225.525 24.8147 225.527C22.3196 225.53 19.8245 225.526 17.3295 225.521C16.5935 225.524 15.8575 225.526 15.0993 225.528C10.115 225.509 10.115 225.509 9.00089 224.394C8.90074 221.552 8.8665 218.734 8.8739 215.891C8.87234 214.988 8.87078 214.086 8.86917 213.156C8.86516 210.107 8.86836 207.058 8.87149 204.01C8.87014 201.834 8.86836 199.658 8.86618 197.482C8.8616 191.555 8.8634 185.627 8.86656 179.7C8.86908 173.511 8.86675 167.323 8.86517 161.135C8.86323 150.074 8.86635 139.013 8.87143 127.952C8.8759 117.914 8.87512 107.875 8.87051 97.8363C8.86519 86.1923 8.86317 74.5482 8.86613 62.9041C8.86769 56.7354 8.86788 50.5667 8.86459 44.3979C8.86171 38.5999 8.86368 32.802 8.86948 27.004C8.87081 24.8694 8.87042 22.7348 8.86822 20.6002C8.86551 17.6994 8.86889 14.7987 8.8739 11.898C8.87167 11.0417 8.86944 10.1854 8.86714 9.30312C8.89087 2.28538 8.89087 2.28538 14.8264 2.2607ZM40.0009 28.3944C40.0009 84.8244 40.0009 141.254 40.0009 199.394C67.5559 199.477 95.1109 199.559 123.501 199.644C132.178 199.681 140.856 199.717 149.796 199.755C157.623 199.768 157.623 199.768 165.451 199.776C168.918 199.78 172.384 199.795 175.851 199.817C180.292 199.844 184.732 199.852 189.173 199.847C190.791 199.848 192.409 199.856 194.027 199.871C209.427 200.013 224.904 198.237 236.95 187.687C254.283 169.828 253.354 140.206 253.262 117.09C253.251 113.898 253.262 110.707 253.274 107.516C253.4 71.2994 253.4 71.2994 237.251 40.0194C224.735 28.4722 208.027 27.9376 191.898 28.0539C190.204 28.0548 188.51 28.0544 186.816 28.0528C182.323 28.0521 177.83 28.0694 173.337 28.0906C169.105 28.1078 164.873 28.1085 160.64 28.1106C148.302 28.1263 135.964 28.1682 123.626 28.2069C82.2315 28.2998 82.2315 28.2998 40.0009 28.3944Z" fill="#144A64"/>
<path d="M601.879 2.26062C602.972 2.25723 602.972 2.25723 604.087 2.25376C606.547 2.24739 609.008 2.24825 611.468 2.24907C613.226 2.24608 614.983 2.24268 616.741 2.2389C621.538 2.23002 626.335 2.22772 631.133 2.22708C634.14 2.22637 637.147 2.22424 640.154 2.22158C650.677 2.21231 661.2 2.20825 671.724 2.20903C681.472 2.20963 691.221 2.19918 700.97 2.18329C709.371 2.1701 717.772 2.16486 726.173 2.16549C731.175 2.16574 736.177 2.16305 741.179 2.15231C823.808 1.9877 823.808 1.9877 845.688 21.8318C846.451 22.6775 847.214 23.5231 848 24.3943C848.458 24.8365 848.915 25.2786 849.387 25.7342C857.482 34.0841 861.125 45.663 863.813 56.7068C864.007 57.4985 864.202 58.2901 864.403 59.1058C868.142 75.7241 868.346 92.5151 868.316 109.47C868.313 113.124 868.336 116.779 868.361 120.433C868.436 148.086 866.48 177.699 849 200.394C847.855 201.972 847.855 201.972 846.688 203.582C830.373 220.655 804.919 224.918 782.289 225.572C777.272 225.661 772.257 225.643 767.24 225.621C765.336 225.621 763.432 225.621 761.528 225.622C756.419 225.623 751.311 225.611 746.203 225.597C740.842 225.585 735.481 225.583 730.119 225.581C719.995 225.575 709.87 225.559 699.745 225.538C688.207 225.516 676.668 225.505 665.13 225.495C641.42 225.474 617.71 225.439 594 225.394C593.977 196.466 593.959 167.538 593.948 138.611C593.947 135.941 593.946 133.271 593.945 130.601C593.945 129.937 593.945 129.273 593.944 128.59C593.94 117.83 593.932 107.07 593.923 96.3107C593.914 85.2784 593.908 74.2461 593.906 63.2137C593.905 57.0137 593.902 50.8136 593.894 44.6136C593.888 38.7852 593.886 32.9569 593.887 27.1286C593.887 24.9827 593.885 22.8368 593.881 20.6909C593.876 17.7748 593.877 14.8587 593.88 11.9426C593.876 10.6513 593.876 10.6513 593.871 9.33385C593.89 1.88539 594.588 2.26994 601.879 2.26062ZM625 28.3943C625 84.8243 625 141.254 625 199.394C652.555 199.477 680.11 199.559 708.5 199.644C717.177 199.681 725.855 199.717 734.795 199.755C742.623 199.768 742.623 199.768 750.45 199.776C753.917 199.78 757.384 199.795 760.85 199.817C765.291 199.844 769.731 199.852 774.172 199.847C775.79 199.848 777.408 199.856 779.026 199.871C794.43 200.013 809.501 198.425 821.141 187.359C835.427 172.359 837.148 151.786 837.203 132.027C837.206 131.34 837.209 130.653 837.212 129.944C837.227 126.299 837.236 122.654 837.24 119.009C837.245 116.034 837.259 113.059 837.281 110.084C838.397 72.6441 838.397 72.6441 822 40.3943C821.455 39.8207 820.91 39.2471 820.348 38.6561C808.822 27.7266 792.1 28.0964 777.238 28.1673C775.544 28.1679 773.851 28.1676 772.157 28.1666C767.652 28.1661 763.146 28.1776 758.64 28.1918C754.401 28.2032 750.162 28.2037 745.923 28.2051C733.553 28.2156 721.183 28.2435 708.813 28.2693C667.325 28.3312 667.325 28.3312 625 28.3943Z" fill="#144A64"/>
<path d="M281 581.394C325.952 581.332 325.952 581.332 371.812 581.269C385.931 581.242 385.931 581.242 400.335 581.214C411.956 581.205 411.956 581.205 417.421 581.203C421.184 581.202 424.947 581.194 428.71 581.183C512.256 580.95 512.256 580.95 532.41 600.707C532.935 601.264 533.459 601.821 534 602.394C534.514 602.889 535.029 603.384 535.559 603.894C553.126 622.146 555.099 653.782 555.203 677.746C555.209 678.803 555.215 679.86 555.22 680.949C555.23 683.18 555.236 685.41 555.24 687.64C555.25 690.962 555.281 694.284 555.312 697.605C555.455 726.305 554.211 760.303 533.259 782.334C514.038 801.564 486.894 804.544 460.972 804.644C458.388 804.643 455.803 804.632 453.218 804.621C451.293 804.621 449.369 804.621 447.444 804.622C442.352 804.623 437.261 804.611 432.169 804.597C427.368 804.585 422.567 804.585 417.765 804.584C403.781 804.573 389.797 804.545 375.812 804.519C344.524 804.478 313.236 804.437 281 804.394C281 730.804 281 657.214 281 581.394ZM312 607.394C312 663.824 312 720.254 312 778.394C353.425 778.487 353.425 778.487 395.688 778.582C404.392 778.609 413.097 778.637 422.065 778.665C429.901 778.675 429.901 778.675 437.736 778.681C441.213 778.683 444.69 778.695 448.167 778.711C452.615 778.732 457.063 778.738 461.511 778.734C463.135 778.734 464.76 778.74 466.384 778.752C482.909 778.865 497.225 776.782 509.605 765.125C522.447 750.482 524.14 729.286 524.203 710.719C524.209 709.399 524.215 708.079 524.22 706.719C524.231 703.928 524.237 701.137 524.24 698.345C524.245 695.523 524.258 692.7 524.281 689.878C525.278 652.174 525.278 652.174 509.117 619.359C496.423 607.635 480.363 606.935 463.897 607.054C462.203 607.055 460.509 607.054 458.816 607.053C454.322 607.052 449.83 607.069 445.336 607.091C441.104 607.108 436.872 607.108 432.639 607.111C420.301 607.126 407.963 607.168 395.625 607.207C354.231 607.3 354.231 607.3 312 607.394Z" fill="#144A64"/>
<path d="M585 581.394C614.989 581.353 644.978 581.312 675.875 581.269C690.007 581.242 690.007 581.242 704.425 581.214C716.051 581.205 716.051 581.205 721.517 581.203C725.283 581.201 729.05 581.194 732.816 581.183C816.42 580.95 816.42 580.95 837.891 601.988C858.98 626.045 859.225 661.718 859.188 691.957C859.187 693.205 859.187 693.205 859.187 694.478C859.167 707.53 858.829 720.45 857 733.394C856.898 734.121 856.796 734.849 856.691 735.598C853.553 756.863 845.993 776.966 828.188 790.207C807.361 803.835 781.405 804.723 757.332 804.621C755.407 804.621 753.482 804.621 751.558 804.622C746.462 804.622 741.366 804.611 736.271 804.597C731.467 804.585 726.663 804.585 721.86 804.583C707.865 804.573 693.87 804.545 679.875 804.519C632.912 804.457 632.912 804.457 585 804.394C585 730.804 585 657.214 585 581.394ZM615 607.394C615 663.824 615 720.254 615 778.394C642.555 778.477 670.11 778.559 698.5 778.644C707.177 778.681 715.855 778.717 724.795 778.755C732.622 778.768 732.622 778.768 740.45 778.776C743.917 778.78 747.383 778.795 750.85 778.816C755.291 778.844 759.731 778.852 764.172 778.846C765.79 778.848 767.408 778.855 769.026 778.871C784.324 779.012 800.189 777.355 811.984 766.582C829.288 748.243 828.346 719.879 828.261 696.401C828.25 692.9 828.261 689.399 828.273 685.898C828.514 650.084 828.514 650.084 812.785 618.988C802.677 609.964 789.96 607.264 776.742 607.274C775.701 607.273 775.701 607.273 774.638 607.271C772.323 607.27 770.007 607.275 767.692 607.281C765.999 607.281 764.306 607.281 762.613 607.28C758.09 607.28 753.568 607.286 749.045 607.293C744.797 607.299 740.55 607.299 736.302 607.3C723.889 607.305 711.476 607.319 699.062 607.332C671.322 607.352 643.581 607.373 615 607.394Z" fill="#124863"/>
<path d="M313 2.39461C342.514 2.35336 372.029 2.31211 402.438 2.26961C411.712 2.25141 420.986 2.2332 430.541 2.21444C441.981 2.2054 441.981 2.2054 447.358 2.20373C451.066 2.20188 454.773 2.19447 458.48 2.18346C534.628 1.96757 534.628 1.96757 552.477 18.6407C565.053 33.1201 565.366 52.4257 565.316 70.6202C565.312 73.0246 565.336 75.4278 565.361 77.8321C565.419 91.8651 564.123 104.117 554.688 115.082C546.838 121.836 538.912 124.084 529 126.395C529.834 126.686 530.668 126.977 531.527 127.277C542.442 131.253 552.879 135.967 558.219 146.887C560.908 153.361 562.127 158.985 562.114 166.021C562.114 166.665 562.114 167.31 562.114 167.974C562.113 170.089 562.106 172.205 562.098 174.32C562.096 175.793 562.094 177.266 562.093 178.738C562.09 182.603 562.08 186.468 562.069 190.333C562.057 194.976 562.052 199.619 562.046 204.262C562.037 211.307 562.017 218.351 562 225.395C552.43 225.395 542.86 225.395 533 225.395C532.944 219.341 532.944 219.341 532.887 213.164C532.849 209.91 532.807 206.656 532.764 203.401C532.72 199.986 532.681 196.571 532.654 193.156C532.622 189.221 532.567 185.286 532.512 181.352C532.502 179.549 532.502 179.549 532.492 177.71C532.323 167.784 531.824 156.193 525 148.395C513.077 137.002 495.709 138.098 480.23 138.076C478.731 138.066 477.231 138.056 475.731 138.045C471.715 138.018 467.7 138.003 463.684 137.99C459.467 137.974 455.25 137.947 451.032 137.922C443.072 137.875 435.111 137.838 427.15 137.805C418.076 137.767 409.002 137.717 399.928 137.667C381.285 137.564 362.643 137.475 344 137.395C344.002 138.482 344.004 139.57 344.007 140.691C344.027 150.918 344.042 161.146 344.052 171.373C344.057 176.632 344.064 181.89 344.075 187.149C344.086 192.219 344.092 197.29 344.095 202.36C344.097 204.299 344.1 206.238 344.106 208.177C344.113 210.883 344.114 213.589 344.114 216.295C344.117 217.105 344.121 217.915 344.124 218.749C344.114 224.281 344.114 224.281 343 225.395C333.1 225.395 323.2 225.395 313 225.395C313 151.805 313 78.2146 313 2.39461ZM344 28.3946C344 56.1146 344 83.8346 344 112.395C371.158 112.482 371.158 112.482 398.316 112.541C409.401 112.559 420.485 112.58 431.57 112.621C439.645 112.651 447.72 112.67 455.794 112.677C460.064 112.681 464.333 112.69 468.603 112.712C472.635 112.732 476.666 112.738 480.698 112.734C482.165 112.735 483.632 112.741 485.1 112.752C499.163 112.858 515.537 112.284 526.832 102.867C534.768 94.661 534.482 83.4292 534.391 72.7181C534.375 70.4645 534.391 68.2126 534.41 65.9591C534.423 56.7122 534.174 47.5394 529.188 39.4571C524.493 35.0308 519.915 32.7915 513.688 31.2071C512.454 30.8836 511.22 30.56 509.949 30.2266C500.678 28.141 491.386 28.2562 481.933 28.2811C480.425 28.2814 478.916 28.2812 477.407 28.2806C473.336 28.2804 469.264 28.2862 465.192 28.2932C460.928 28.2995 456.664 28.3001 452.4 28.3012C444.336 28.3043 436.272 28.3125 428.208 28.3226C417.304 28.3359 406.4 28.3413 395.495 28.3471C378.33 28.3565 361.165 28.3764 344 28.3946Z" fill="#124963"/>
<path d="M0 581.394C44.7666 581.363 44.7666 581.363 90.4375 581.332C104.536 581.318 104.536 581.318 118.92 581.304C130.459 581.3 130.459 581.3 135.873 581.299C139.628 581.298 143.383 581.294 147.138 581.289C151.948 581.282 156.757 581.28 161.566 581.281C163.319 581.281 165.072 581.279 166.825 581.275C219.933 581.162 219.933 581.162 238.59 596.527C250.231 608.624 252.115 625.364 252.203 641.382C252.209 642.207 252.215 643.031 252.22 643.881C252.23 645.613 252.236 647.345 252.24 649.076C252.25 651.69 252.281 654.302 252.312 656.916C252.398 670.209 251.556 682.529 243 693.394C235.666 700.713 225.916 703.475 216 705.394C216.834 705.685 217.668 705.977 218.527 706.277C229.527 710.284 239.474 714.967 245.219 725.664C248.109 731.888 249.126 737.225 249.114 744.112C249.114 744.766 249.114 745.421 249.114 746.095C249.113 748.243 249.106 750.391 249.098 752.539C249.096 754.034 249.094 755.529 249.093 757.024C249.09 760.948 249.08 764.872 249.069 768.796C249.057 773.51 249.052 778.224 249.046 782.938C249.037 790.09 249.017 797.242 249 804.394C239.43 804.394 229.86 804.394 220 804.394C219.944 798.214 219.944 798.214 219.887 791.91C219.849 788.593 219.807 785.275 219.764 781.958C219.72 778.475 219.681 774.991 219.654 771.507C219.622 767.495 219.567 763.484 219.512 759.472C219.502 757.629 219.502 757.629 219.492 755.749C219.319 745.399 218.44 733.351 211 725.394C198.641 716.155 182.46 717.249 167.798 717.189C166.299 717.179 164.8 717.169 163.301 717.159C159.264 717.132 155.228 717.111 151.191 717.091C146.961 717.069 142.73 717.041 138.499 717.015C130.503 716.965 122.506 716.92 114.51 716.877C103.693 716.818 92.8771 716.752 82.0608 716.686C65.0406 716.583 48.0203 716.489 31 716.394C31 745.434 31 774.474 31 804.394C20.77 804.394 10.54 804.394 0 804.394C0 730.804 0 657.214 0 581.394ZM31 607.394C31 635.114 31 662.834 31 691.394C58.1582 691.482 58.1582 691.482 85.3164 691.541C96.4009 691.558 107.485 691.579 118.57 691.62C126.645 691.65 134.72 691.67 142.794 691.676C147.064 691.68 151.333 691.689 155.603 691.711C159.635 691.732 163.666 691.738 167.698 691.733C169.165 691.734 170.632 691.74 172.1 691.752C186.163 691.858 202.537 691.284 213.832 681.867C221.887 673.537 221.48 662.093 221.391 651.235C221.375 648.898 221.391 646.563 221.41 644.226C221.424 634.799 221.04 626.276 215.938 618.082C203.428 606.637 185.753 607.239 169.842 607.281C168.323 607.281 166.804 607.281 165.286 607.28C161.187 607.28 157.089 607.286 152.99 607.293C148.698 607.299 144.406 607.3 140.114 607.301C131.997 607.304 123.88 607.312 115.763 607.322C104.787 607.335 93.8107 607.341 82.8346 607.347C65.5564 607.356 48.2782 607.376 31 607.394Z" fill="#124863"/>
<path d="M977.588 0.233674C978.94 0.229036 980.291 0.22401 981.643 0.218629C985.292 0.205597 988.941 0.199078 992.591 0.194618C994.88 0.191671 997.17 0.187564 999.459 0.183114C1006.65 0.16946 1013.84 0.159785 1021.03 0.155912C1029.28 0.151444 1037.53 0.133942 1045.78 0.104912C1052.19 0.083152 1058.6 0.0732005 1065.01 0.0718713C1068.82 0.0708329 1072.63 0.0651367 1076.45 0.0470517C1128.76 -0.186775 1128.76 -0.186775 1147.18 16.3557C1156.38 25.9901 1161.3 37.8958 1161.2 51.1761C1161.19 52.2245 1161.19 52.2245 1161.19 53.2941C1161.18 55.4945 1161.15 57.6945 1161.13 59.8948C1161.12 61.4 1161.11 62.9052 1161.1 64.4104C1161.08 68.0722 1161.04 71.733 1161 75.3948C1152.09 75.3948 1143.18 75.3948 1134 75.3948C1133.92 72.1979 1133.84 69.0011 1133.75 65.7073C1133.29 54.5771 1132.4 43.4361 1124.19 35.0471C1116.57 29.3027 1107.46 27.2821 1098.08 27.2544C1096.92 27.2487 1095.76 27.2429 1094.57 27.2371C1093.31 27.2359 1092.05 27.2348 1090.75 27.2337C1089.4 27.229 1088.05 27.224 1086.7 27.2186C1083.04 27.2056 1079.38 27.1991 1075.72 27.1946C1073.43 27.1917 1071.14 27.1876 1068.85 27.1831C1061.66 27.1695 1054.48 27.1598 1047.29 27.1559C1039.03 27.1514 1030.76 27.1339 1022.5 27.1049C1016.09 27.0832 1009.69 27.0732 1003.28 27.0719C999.464 27.0708 995.646 27.065 991.828 27.0471C988.231 27.0304 984.635 27.0285 981.038 27.0372C979.108 27.0383 977.178 27.0247 975.248 27.0104C963.092 27.0679 950.195 29.1091 940.743 37.3675C927.426 51.2984 928.693 70.5651 928.735 88.5511C928.734 90.5864 928.732 92.6218 928.729 94.6571C928.726 98.9032 928.731 103.149 928.74 107.395C928.751 112.805 928.745 118.214 928.733 123.624C928.726 127.821 928.728 132.018 928.733 136.215C928.734 138.208 928.733 140.201 928.728 142.194C928.286 167.764 928.286 167.764 939.688 189.832C955.3 203.793 977.429 201.844 996.976 201.765C1000.47 201.753 1003.97 201.758 1007.47 201.76C1013.34 201.76 1019.2 201.75 1025.07 201.731C1031.81 201.71 1038.56 201.706 1045.3 201.713C1051.84 201.718 1058.38 201.713 1064.92 201.701C1067.68 201.697 1070.44 201.696 1073.2 201.698C1103.15 203.055 1103.15 203.055 1129.19 190.631C1135.47 182.884 1135.63 172.166 1135.75 162.645C1135.83 158.602 1135.92 154.56 1136 150.395C1145.57 150.395 1155.14 150.395 1165 150.395C1165.78 184.787 1165.78 184.787 1161 197.395C1160.71 198.189 1160.42 198.983 1160.13 199.801C1156.09 209.176 1148.15 216.231 1139 220.395C1124.26 225.994 1109.74 227.699 1094 227.669C1092.56 227.674 1091.12 227.679 1089.68 227.685C1085.8 227.698 1081.93 227.699 1078.05 227.696C1074.8 227.695 1071.54 227.7 1068.29 227.705C1060.6 227.716 1052.91 227.717 1045.22 227.71C1037.33 227.704 1029.45 227.717 1021.56 227.738C1014.74 227.756 1007.93 227.762 1001.12 227.758C997.066 227.757 993.015 227.759 988.964 227.773C936.384 227.94 936.384 227.94 916.563 210.215C893.565 186.518 896.653 149.278 896.74 118.755C896.751 114.708 896.745 110.661 896.733 106.614C896.571 39.51 896.571 39.51 916.001 18.3948C933.577 3.25482 955.16 0.253757 977.588 0.233674Z" fill="#124862"/>
<path d="M983.806 578.992C987.65 579 991.495 578.993 995.34 578.988C1001.79 578.982 1008.24 578.99 1014.69 579.004C1022.09 579.02 1029.5 579.015 1036.9 578.998C1043.32 578.985 1049.73 578.983 1056.15 578.991C1059.95 578.995 1063.76 578.996 1067.57 578.986C1119.27 578.868 1119.27 578.868 1139.19 597.02C1150.7 609.106 1152.51 625.254 1152.19 641.208C1152.13 645.559 1152.06 649.911 1152 654.395C1143.09 654.395 1134.18 654.395 1125 654.395C1124.75 650.848 1124.51 647.3 1124.25 643.645C1123.19 627.638 1123.19 627.638 1115 614.395C1099.2 601.705 1073.38 605.233 1054.41 605.227C1051.94 605.224 1049.47 605.22 1047 605.217C1041.84 605.211 1036.68 605.209 1031.52 605.21C1024.96 605.21 1018.39 605.196 1011.82 605.179C1006.72 605.168 1001.62 605.166 996.526 605.166C994.106 605.165 991.686 605.161 989.266 605.153C957.693 604.239 957.693 604.239 930 617.395C921.47 627.288 919.854 638.806 919.839 651.433C919.834 652.429 919.829 653.425 919.824 654.451C919.809 657.737 919.803 661.023 919.797 664.309C919.791 666.603 919.786 668.898 919.78 671.192C919.769 676.002 919.763 680.812 919.76 685.622C919.755 691.762 919.73 697.901 919.702 704.041C919.683 708.781 919.678 713.522 919.677 718.263C919.674 720.525 919.666 722.787 919.652 725.049C919.479 748.73 919.479 748.73 930.524 769.172C941.897 780.074 959.058 780.708 973.896 780.654C975.113 780.657 976.329 780.661 977.583 780.664C980.878 780.672 984.174 780.67 987.469 780.664C990.947 780.659 994.425 780.663 997.902 780.666C1003.74 780.67 1009.58 780.665 1015.42 780.656C1022.13 780.645 1028.84 780.648 1035.55 780.659C1041.35 780.669 1047.15 780.67 1052.95 780.665C1056.4 780.661 1059.84 780.661 1063.29 780.668C1091.59 781.847 1091.59 781.847 1117.44 772.145C1128.01 760.802 1126.45 743.852 1127 729.395C1136.57 729.395 1146.14 729.395 1156 729.395C1156.46 774.638 1156.46 774.638 1142.06 790.958C1127.04 805.142 1104.12 806.541 1084.66 806.556C1083.23 806.561 1081.8 806.566 1080.37 806.571C1076.5 806.584 1072.63 806.591 1068.76 806.595C1066.34 806.598 1063.91 806.602 1061.49 806.607C1053.87 806.62 1046.26 806.63 1038.64 806.634C1029.9 806.638 1021.16 806.656 1012.42 806.685C1005.63 806.707 998.839 806.717 992.051 806.718C988.011 806.719 983.971 806.725 979.932 806.743C926.135 806.969 926.135 806.969 906.25 788.145C888.55 769.385 887.513 742.253 887.602 717.864C887.6 715.851 887.597 713.839 887.593 711.827C887.589 707.641 887.595 703.457 887.609 699.271C887.626 693.964 887.616 688.656 887.598 683.348C887.587 679.202 887.591 675.057 887.599 670.911C887.601 668.956 887.598 667.001 887.591 665.046C887.522 640.561 889.834 615.292 907.531 596.68C928.09 577.65 957.68 578.923 983.806 578.992Z" fill="#104762"/>
<path d="M815 761.395C815.66 762.055 816.32 762.715 817 763.395C814.36 765.705 811.72 768.015 809 770.395C808.34 770.065 807.68 769.735 807 769.395C808.497 768.19 809.995 766.986 811.492 765.781C813.253 764.272 813.253 764.272 815 761.395Z" fill="#446E83"/>
<g clip-path="url(#clip0_164_4403)">
<path d="M974.203 934.207H1005.55V996.896H974.203V934.207ZM919.953 965.551L918.144 966.154C918.144 966.154 928.994 975.196 928.994 975.799C929.597 976.401 930.2 976.401 929.597 978.21C928.994 980.018 928.391 981.826 928.391 981.826C928.391 981.826 938.036 980.018 939.241 979.415C940.447 979.415 941.05 979.415 941.05 980.621C941.05 981.826 940.447 992.074 940.447 992.074H943.461C943.461 992.074 942.858 981.224 942.858 980.621C942.858 979.415 943.461 979.415 944.666 979.415C945.872 979.415 955.516 981.826 955.516 981.826C955.516 981.826 954.914 979.415 954.311 978.21C953.708 976.401 954.311 976.401 954.914 975.799C955.516 975.196 965.764 966.154 965.764 966.154L963.955 965.551C962.75 964.949 963.353 964.346 963.353 963.743C963.353 963.14 965.161 957.113 965.161 957.113C965.161 957.113 960.339 958.318 959.736 958.318C959.133 958.318 958.53 958.318 958.53 957.715C958.53 957.113 957.325 954.701 957.325 954.701C957.325 954.701 951.9 960.729 951.297 961.332C950.091 962.538 948.886 961.332 949.489 960.126C949.489 958.921 952.503 946.263 952.503 946.263C952.503 946.263 949.489 948.071 948.283 948.674C947.078 949.276 946.475 949.276 946.475 948.071C945.872 946.865 942.255 940.235 942.255 939.632C942.255 939.632 938.639 946.865 938.036 948.071C937.433 949.276 936.83 949.276 936.228 948.674C935.022 948.071 932.008 946.263 932.008 946.263C932.008 946.263 935.022 958.921 935.022 960.126C935.022 961.332 934.419 961.935 933.214 961.332L927.186 954.701C927.186 954.701 926.583 956.51 925.98 957.113C925.98 957.715 925.378 958.318 924.775 957.715C923.569 957.715 918.747 956.51 918.747 956.51C918.747 956.51 920.555 962.538 921.158 963.14C921.158 963.743 921.158 964.949 919.953 965.551ZM879.566 934.207H910.911V996.896H879.566V934.207Z" fill="#FF0000"/>
<path d="M1012.18 1122.27C1009.76 1127.7 1004.94 1129.51 1001.93 1129.51C998.312 1129.51 987.462 1128.9 987.462 1100.57C987.462 1100.57 987.462 1043.31 987.462 1039.69C987.462 1021.01 972.995 1005.94 935.623 1005.94C895.237 1005.94 894.634 1025.83 894.634 1030.65C894.031 1036.07 897.045 1042.1 907.292 1042.1C916.334 1042.1 918.745 1031.86 919.951 1028.24C921.156 1024.02 921.759 1011.96 938.034 1011.96C951.898 1011.96 960.337 1024.02 960.939 1041.5C960.939 1044.51 960.939 1046.32 960.939 1048.13C960.939 1049.34 960.939 1049.94 960.939 1051.14V1051.75C959.734 1057.77 956.72 1060.79 951.295 1063.2C944.062 1066.82 922.964 1069.83 920.553 1070.43C912.114 1072.24 888.606 1078.27 889.209 1102.98C889.812 1127.09 913.923 1135.53 930.801 1134.93C947.076 1134.33 956.72 1127.7 960.939 1124.08C963.351 1122.27 963.35 1122.27 965.159 1124.68C967.57 1127.09 975.406 1134.93 994.092 1134.93C1013.38 1134.93 1015.79 1125.89 1017 1122.87C1017.6 1121.07 1013.38 1119.26 1012.18 1122.27ZM936.828 1128.9C919.951 1128.9 915.731 1115.04 915.731 1107.81C915.731 1101.17 919.348 1087.31 936.226 1077.67C936.226 1077.67 944.062 1072.84 959.131 1066.82C959.734 1066.82 960.337 1066.82 960.337 1066.82C960.337 1066.82 960.939 1067.42 960.939 1068.02V1068.62V1069.23V1094.54C960.939 1114.44 951.295 1128.9 936.828 1128.9ZM881.373 1128.3C878.962 1127.7 863.892 1129.51 863.892 1083.69C863.892 1037.88 863.892 939.63 863.892 939.63C863.892 937.822 863.892 933 858.467 933C853.042 933 816.876 934.808 814.464 935.411C812.053 935.411 810.245 938.425 814.464 938.425C818.684 939.028 837.973 940.233 837.973 972.18C837.973 987.853 837.973 1003.52 837.973 1014.98C837.973 1015.58 837.973 1016.18 837.973 1016.18C837.973 1017.39 837.973 1017.99 837.37 1018.59C837.37 1018.59 837.37 1018.59 837.37 1019.2C836.767 1019.8 836.164 1019.2 834.356 1017.99C831.342 1015.58 817.478 1007.14 799.998 1007.14C771.667 1007.14 736.706 1027.64 736.706 1069.83C736.706 1115.04 768.653 1136.74 801.806 1136.74C818.081 1136.74 829.534 1129.51 833.753 1127.09C838.576 1124.08 837.973 1124.68 838.576 1128.9C839.178 1131.92 838.576 1137.94 847.014 1137.34C856.056 1136.14 877.756 1133.72 881.976 1133.12C886.195 1131.31 884.989 1128.9 881.373 1128.3ZM806.628 1130.11C780.106 1130.11 766.242 1098.76 766.242 1068.62C766.242 1035.47 784.928 1013.17 804.82 1014.37C830.739 1016.18 837.37 1036.68 837.973 1073.45C837.973 1075.86 837.973 1078.27 837.973 1081.28C837.37 1117.45 822.301 1130.11 806.628 1130.11ZM736.103 1122.27C733.692 1127.7 728.87 1129.51 725.856 1129.51C722.239 1129.51 711.389 1128.9 711.389 1100.57C711.389 1100.57 711.389 1043.31 711.389 1039.69C711.389 1021.01 696.923 1005.94 659.551 1005.94C619.164 1005.94 618.562 1025.83 618.562 1030.65C617.959 1036.07 620.973 1042.1 631.22 1042.1C640.262 1042.1 642.673 1031.86 643.878 1028.24C645.084 1024.02 645.687 1011.96 661.962 1011.96C675.826 1011.96 684.867 1024.02 684.867 1042.1V1042.71C684.867 1043.31 684.867 1043.91 684.867 1043.91V1045.72C684.867 1046.32 684.867 1047.53 684.867 1048.13C684.264 1057.17 681.853 1060.19 674.62 1063.8C667.387 1067.42 646.289 1070.43 643.878 1071.04C635.439 1072.84 611.931 1078.87 612.534 1103.59C613.137 1127.7 637.248 1136.14 654.126 1135.53C670.401 1134.93 680.045 1128.3 684.264 1124.68C686.676 1122.87 686.676 1122.87 688.484 1125.29C690.895 1127.7 698.731 1135.53 717.417 1135.53C736.706 1135.53 739.117 1126.49 740.323 1123.48C741.528 1121.07 737.912 1119.26 736.103 1122.27ZM661.359 1128.9C644.481 1128.9 640.262 1115.04 640.262 1107.81C640.262 1101.17 643.878 1087.31 660.756 1077.67C660.756 1077.67 668.592 1072.84 683.662 1066.82C684.264 1066.82 684.867 1066.82 684.867 1066.82V1067.42C684.867 1068.02 684.867 1068.62 684.867 1069.83V1069.23C684.867 1069.23 684.867 1069.23 684.867 1069.83V1095.15C684.867 1114.44 675.223 1128.9 661.359 1128.9ZM603.492 1128.3C598.67 1127.09 590.231 1121.67 590.231 1095.15V1046.92C590.231 1035.47 591.437 1005.94 546.228 1005.94C522.72 1005.94 509.459 1017.99 508.253 1018.59C506.445 1020.4 505.239 1021.01 504.637 1017.99C504.034 1015.58 502.828 1011.96 502.226 1009.55C501.623 1007.74 500.417 1005.94 496.198 1006.54C491.978 1007.14 465.456 1011.36 460.634 1012.57C456.414 1013.77 457.62 1015.58 460.634 1016.18C463.648 1016.79 478.114 1017.99 478.114 1042.71C478.114 1067.42 478.114 1094.54 478.114 1094.54C478.114 1124.68 472.087 1127.09 466.662 1128.9C459.428 1130.71 463.045 1133.12 466.059 1133.12C466.059 1133.12 519.706 1133.12 520.912 1133.12C524.528 1133.12 526.337 1129.51 519.103 1128.3C511.87 1127.09 505.239 1122.87 505.239 1099.37C505.239 1096.96 505.239 1071.04 505.239 1066.21C505.239 1053.56 502.226 1014.98 537.187 1014.37C561.901 1013.77 564.312 1034.27 564.312 1047.53V1098.76C564.312 1119.86 558.284 1126.49 551.051 1127.7C544.42 1128.9 545.626 1131.92 549.242 1131.92C550.448 1131.92 605.301 1131.92 605.301 1131.92C608.314 1133.12 611.328 1130.11 603.492 1128.3ZM457.017 1122.27C454.606 1127.7 449.784 1129.51 446.77 1129.51C443.153 1129.51 432.303 1128.9 432.303 1100.57C432.303 1100.57 432.303 1043.31 432.303 1039.69C432.303 1021.01 417.837 1005.94 380.464 1005.94C340.078 1005.94 339.476 1025.83 339.476 1030.65C338.873 1036.07 341.887 1042.1 352.134 1042.1C361.176 1042.1 363.587 1031.86 364.792 1028.24C365.998 1024.02 366.601 1011.96 382.876 1011.96C396.739 1011.96 405.178 1024.02 405.781 1041.5C405.781 1044.51 405.781 1046.32 405.781 1048.13C405.781 1049.34 405.781 1050.54 405.178 1051.14V1051.75C403.973 1057.77 400.959 1060.79 395.534 1063.2C388.301 1066.82 367.203 1069.83 364.792 1070.43C356.353 1072.24 332.845 1078.27 333.448 1102.98C334.051 1127.09 358.162 1135.53 375.039 1134.93C391.314 1134.33 400.959 1127.7 405.178 1124.08C407.589 1122.27 407.589 1122.27 409.398 1124.68C411.809 1127.09 419.645 1134.93 438.331 1134.93C457.62 1134.93 460.031 1125.89 461.237 1122.87C462.442 1121.07 458.223 1119.26 457.017 1122.27ZM381.67 1128.9C364.792 1128.9 360.573 1115.04 360.573 1107.81C360.573 1100.57 364.189 1087.31 381.067 1077.67C381.067 1077.67 388.903 1072.84 403.973 1066.82C404.576 1066.82 405.178 1066.82 405.178 1066.82C405.178 1066.82 405.781 1067.42 405.781 1068.02C405.781 1068.02 405.781 1068.62 405.781 1069.23V1069.83V1095.15C405.781 1114.44 396.137 1128.9 381.67 1128.9ZM323.803 1076.46C317.776 1095.75 306.323 1127.09 264.731 1128.3C221.331 1128.9 195.412 1099.37 194.206 1044.51C192.398 986.044 217.714 941.439 256.895 940.233C300.898 939.63 316.57 992.072 317.173 999.908C317.776 1005.94 325.612 1005.33 325.612 999.305C325.612 996.292 321.995 944.453 320.789 938.425C319.584 932.397 314.762 934.808 313.556 937.219C312.953 939.028 314.159 935.411 311.748 940.836C309.337 946.261 302.706 943.247 300.295 942.644C293.062 939.63 279.198 932.397 256.895 933C205.659 934.205 153.217 972.18 154.423 1038.49C155.628 1102.98 207.467 1139.15 255.689 1138.55C299.692 1137.94 324.406 1110.22 331.639 1078.27C334.051 1070.43 326.214 1068.62 323.803 1076.46Z" fill="white"/>
</g>
<defs>
<clipPath id="clip0_164_4403">
<rect width="868" height="204.944" fill="white" transform="translate(149 933)"/>
</clipPath>
</defs>
</svg>
