<svg width="3726" height="1294" viewBox="0 0 3726 1294" fill="none" xmlns="http://www.w3.org/2000/svg">
<path d="M214.351 923.715C230.096 965.497 251.893 1001.22 279.748 1030.89C307.603 1060.56 340.603 1083.27 378.748 1099.01C416.897 1114.76 458.374 1122.63 503.184 1122.63C546.783 1122.63 587.653 1114.45 625.802 1098.1C663.951 1081.75 697.253 1058.74 725.711 1029.07C754.169 999.402 776.272 963.982 792.016 922.806C807.761 881.631 815.631 835.616 815.631 784.749V0H1006.37V1271.58H817.447V1153.5C775.062 1198.31 725.104 1232.83 667.581 1257.05C610.054 1281.27 547.993 1293.38 481.386 1293.38C413.565 1293.38 350.29 1281.57 291.554 1257.96C232.821 1234.34 181.954 1200.74 138.966 1157.14C95.9774 1113.54 62.0649 1061.17 37.2406 1000.01C12.4122 938.852 0 870.734 0 795.646V0H190.737V784.749C190.737 835.616 198.607 881.932 214.351 923.715Z" fill="white"/>
<path d="M1335.15 0V463.218C1377.53 420.832 1426.58 387.23 1482.29 362.401C1538 337.573 1598.55 325.161 1663.94 325.161C1731.76 325.161 1795.34 337.874 1854.68 363.306C1914.02 388.737 1965.48 423.252 2009.08 466.852C2052.68 510.451 2087.2 561.917 2112.63 621.256C2138.06 680.6 2150.77 743.573 2150.77 810.18C2150.77 876.783 2138.06 939.455 2112.63 998.188C2087.2 1056.92 2052.68 1108.09 2009.08 1151.68C1965.48 1195.28 1914.02 1229.8 1854.68 1255.23C1795.34 1280.66 1731.76 1293.38 1663.94 1293.38C1598.55 1293.38 1537.69 1280.96 1481.38 1256.13C1425.07 1231.31 1375.72 1197.7 1333.33 1155.32V1271.58H1151.68V0H1335.15ZM1356.04 935.52C1372.38 974.276 1395.09 1008.18 1424.16 1037.25C1453.22 1066.31 1487.13 1089.33 1525.89 1106.28C1564.64 1123.23 1606.42 1131.71 1651.23 1131.71C1694.83 1131.71 1736 1123.23 1774.75 1106.28C1813.5 1089.33 1847.11 1066.32 1875.57 1037.25C1904.03 1008.19 1926.74 974.276 1943.69 935.52C1960.65 896.768 1969.12 854.989 1969.12 810.18C1969.12 765.371 1960.65 723.287 1943.69 683.928C1926.74 644.569 1904.03 610.359 1875.57 581.294C1847.11 552.234 1813.51 529.523 1774.75 513.176C1736 496.829 1694.82 488.649 1651.23 488.649C1607.63 488.649 1566.46 496.825 1527.71 513.176C1488.95 529.527 1455.05 552.234 1425.98 581.294C1396.92 610.359 1373.9 644.569 1356.95 683.928C1340 723.287 1331.52 765.371 1331.52 810.18C1331.51 854.989 1339.69 896.768 1356.04 935.52Z" fill="white"/>
<path d="M2254.3 623.075C2278.51 564.945 2311.82 513.781 2354.21 469.579C2396.59 425.376 2446.85 390.56 2504.98 365.128C2563.11 339.697 2626.08 326.983 2693.9 326.983C2760.51 326.983 2822.27 339.094 2879.19 363.312C2936.11 387.533 2985.15 421.14 3026.33 464.132C3067.5 507.121 3099.6 557.987 3122.6 616.72C3145.61 675.457 3157.12 739.339 3157.12 808.369V868.316H2403.26C2409.31 905.858 2421.42 940.675 2439.59 972.762C2457.76 1004.85 2480.46 1032.71 2507.71 1056.32C2534.95 1079.94 2565.84 1098.41 2600.35 1111.73C2634.87 1125.05 2671.5 1131.71 2710.25 1131.71C2820.46 1131.71 2909.47 1086.3 2977.29 995.469L3109.89 1093.56C3063.87 1155.32 3006.96 1203.77 2939.14 1238.88C2871.32 1274 2795.03 1291.56 2710.26 1291.56C2641.22 1291.56 2576.74 1279.45 2516.79 1255.23C2456.85 1231.01 2404.77 1197.1 2360.57 1153.5C2316.37 1109.9 2281.55 1058.74 2256.12 1000.01C2230.69 941.274 2217.97 877.388 2217.97 808.361C2217.96 742.968 2230.08 681.205 2254.3 623.075ZM2509.52 551.319C2458.05 594.312 2423.84 651.533 2406.89 722.983H2971.84C2956.09 651.533 2922.48 594.312 2871.01 551.319C2819.55 508.331 2759.3 486.834 2690.27 486.834C2621.24 486.834 2560.99 508.331 2509.52 551.319Z" fill="white"/>
<path d="M3500.44 572.209C3461.68 614.594 3442.31 672.117 3442.31 744.781V1271.58H3258.83V345.144H3440.48V459.587C3463.5 422.045 3493.47 392.373 3530.4 370.575C3567.34 348.773 3611.24 337.873 3662.11 337.873H3725.68V508.628H3649.39C3588.84 508.633 3539.19 529.823 3500.44 572.209Z" fill="white"/>
</svg>
