<svg width="1846" height="877" viewBox="0 0 1846 877" fill="none" xmlns="http://www.w3.org/2000/svg">
<g clip-path="url(#clip0_164_4328)">
<path d="M1484.36 876.304C1441.88 876.304 1399.74 876.304 1356.96 876.304C1356.96 790.833 1356.96 705.496 1356.96 620.147C1356.52 619.964 1356.07 619.769 1355.63 619.586C1354.44 621.28 1353.18 622.937 1352.06 624.679C1316.3 679.848 1280.52 734.993 1244.9 790.248C1242.57 793.879 1240.26 795.451 1235.79 795.39C1216.1 795.109 1196.4 795.146 1176.71 795.377C1172.56 795.426 1170.23 794.086 1168 790.626C1132.31 735.176 1096.48 679.812 1060.68 624.435C1059.48 622.571 1058.21 620.744 1056.14 617.673V876.194C1013.2 876.194 970.91 876.194 928.278 876.194C928.278 704.351 928.278 532.702 928.278 360.419H936.344C962.942 360.419 989.54 360.541 1016.14 360.31C1020.94 360.273 1023.73 361.748 1026.41 365.768C1084.81 453.652 1143.35 541.438 1201.87 629.248C1203.21 631.258 1204.58 633.257 1206.32 635.84C1208.06 633.281 1209.51 631.173 1210.94 629.029C1268.96 541.621 1327 454.249 1384.86 366.731C1388.06 361.894 1391.34 360.188 1397.1 360.261C1423.89 360.59 1450.69 360.407 1477.5 360.407H1484.38C1484.36 532.702 1484.36 704.338 1484.36 876.304Z" fill="white"/>
<path d="M415.608 876.351C415.608 704.141 415.608 532.663 415.608 360.418H422.407C489.809 360.418 557.211 360.125 624.613 360.503C686.435 360.856 744.565 375.051 795.933 410.762C857.731 453.711 892.163 513.339 899.9 588.015C906.199 648.789 895.221 706.188 861.69 758.007C824.2 815.942 769.908 850.167 703.846 866.981C677.76 873.621 651.15 876.533 624.284 876.582C556.675 876.716 489.078 876.631 421.469 876.619C419.69 876.619 417.899 876.46 415.608 876.351ZM543.772 761.175C564.692 761.175 584.967 761.48 605.216 761.078C620.398 760.785 635.75 760.858 650.699 758.58C734.355 745.835 788.343 662.667 766.558 580.961C750.328 520.102 694.038 476.97 629.073 475.995C602.085 475.593 575.073 475.886 548.073 475.898C546.709 475.898 545.344 476.19 543.772 476.373V761.175Z" fill="white"/>
<path d="M0 360.75H383.834V473.367C298.801 473.367 213.818 473.367 128.298 473.367V582.853H348.829V693.947C275.64 693.947 202.267 693.947 128.066 693.947V876.196C84.9349 876.196 42.6441 876.196 0 876.196C0 704.474 0 532.984 0 360.75Z" fill="white"/>
<path d="M1544.65 410.056C1544.65 381.228 1544.46 352.389 1544.81 323.561C1544.89 317.25 1543.14 314.435 1536.91 312.449C1481.49 294.758 1426.21 276.665 1370.9 258.693C1369.55 258.255 1368.03 258.06 1366.9 257.292C1365.51 256.354 1364.44 254.953 1363.23 253.747C1364.43 252.553 1365.42 250.786 1366.85 250.262C1373.51 247.813 1380.28 245.693 1387.03 243.5C1437.34 227.161 1487.63 210.761 1538 194.618C1543.19 192.96 1544.8 190.524 1544.78 185.163C1544.59 126.691 1544.65 68.2081 1544.67 9.73688C1544.67 7.90927 1544.45 6.03293 1544.83 4.27843C1545.08 3.04784 1546.02 1.22023 1546.91 1.04966C1548.2 0.805976 1549.95 1.51265 1551.09 2.37772C1552.32 3.32807 1553.07 4.912 1554.02 6.21569C1588.37 53.5141 1622.8 100.739 1656.94 148.184C1660.48 153.094 1663.57 153.813 1669.05 152.01C1724.7 133.722 1780.43 115.677 1836.12 97.5594C1837.67 97.0599 1839.19 96.2557 1840.76 96.1826C1841.99 96.1217 1843.75 96.6213 1844.37 97.5107C1844.97 98.3636 1844.75 100.167 1844.28 101.3C1843.69 102.762 1842.52 104.005 1841.57 105.308C1807.1 152.765 1772.69 200.271 1738.05 247.594C1734.74 252.126 1734.59 255.087 1737.98 259.717C1772.63 307.04 1807.03 354.545 1841.49 402.002C1842.34 403.147 1843.42 404.207 1843.91 405.487C1844.43 406.851 1845.05 409.203 1844.43 409.739C1843.31 410.714 1841.3 410.933 1839.67 410.933C1838.31 410.933 1836.96 410.153 1835.61 409.715C1780.11 391.646 1724.58 373.662 1669.15 355.362C1663.23 353.4 1660.15 354.765 1656.64 359.638C1622.71 406.729 1588.53 453.65 1554.43 500.62C1553.48 501.936 1552.73 503.519 1551.51 504.494C1550.24 505.493 1548.41 506.517 1546.97 506.346C1546.07 506.237 1545.12 504.019 1544.75 502.606C1544.36 501.071 1544.64 499.377 1544.64 497.756C1544.65 468.527 1544.65 439.285 1544.65 410.056Z" fill="white"/>
</g>
<defs>
<clipPath id="clip0_164_4328">
<rect width="1845.03" height="875.667" fill="white" transform="translate(0 0.989258)"/>
</clipPath>
</defs>
</svg>
