<svg width="2417" height="401" viewBox="0 0 2417 401" fill="none" xmlns="http://www.w3.org/2000/svg">
<g clip-path="url(#clip0_166_4476)">
<path d="M2415.76 143.329C2415.76 143.329 2427.95 43.9648 2305.53 43.9648C2183.1 43.9648 2186.99 143.329 2186.99 143.329V241.555C2186.96 248.066 2187.91 254.543 2189.8 260.773C2197.36 285.223 2223.46 339.994 2305.85 339.994C2411.91 339.994 2416.12 269.101 2416.12 239.455H2351.95C2351.95 239.455 2356.65 292.483 2306.45 292.483C2256.26 292.483 2254.15 249.171 2254.15 239.384V141.514C2254.15 88.9849 2307.92 94.6436 2307.92 94.6436C2307.92 94.6436 2351.87 94.3589 2351.87 143.294H2415.76V143.329Z" fill="#00CAFF"/>
<path d="M1913.97 338.748H2174.22L2140.17 233.939C2135.95 235.305 2131.56 236.084 2127.13 236.252L2096.68 172.548C2102.17 164.398 2117.79 165.893 2117.79 165.893L2118.64 167.708L2080.17 49.3385H2006.66L1968.73 167.921L1969.62 166.035C1969.62 166.035 1985.23 164.54 1990.72 172.726L1960.28 236.501C1955.93 236.33 1951.62 235.575 1947.48 234.259M1975 239.348L1981.2 244.936L1985.23 243.299C1989.65 241.59 1992.36 240.629 1995.18 243.512L1997.35 245.149C1998.72 246.523 1999.67 248.252 2000.1 250.14C2000.53 252.028 2000.42 253.998 1999.78 255.826C1999.42 257.392 1999.28 258.495 1999.07 259.385L2002.95 258.246C2009.76 256.324 2011.29 257.356 2013.93 260.025C2015.14 261.085 2015.98 262.502 2016.33 264.07C2016.67 265.638 2016.51 267.276 2015.86 268.745C2015.5 269.898 2015.32 271.097 2015.32 272.304L2015.93 272.126C2022.28 270.346 2025.73 271.378 2028.23 273.87C2029.16 274.978 2029.81 276.295 2030.12 277.708C2030.43 279.121 2030.39 280.588 2030.01 281.984C2030.25 283.986 2029.83 286.013 2028.8 287.749L2029.08 287.998C2030.38 287.289 2031.76 286.728 2033.18 286.326C2034.78 285.659 2036.54 285.496 2038.23 285.859C2039.92 286.221 2041.45 287.092 2042.63 288.354C2043.52 289.132 2044.14 290.173 2044.39 291.324C2044.65 292.476 2044.53 293.68 2044.06 294.76C2043.73 296.5 2043.01 298.142 2041.95 299.565L2042.17 299.743L2045.73 302.234C2050.26 306.184 2063.77 301.273 2057.82 295.686C2057.82 295.686 2044.31 284.724 2040.24 281.45C2036.18 278.176 2041.21 275.72 2045.02 278.461L2070.94 297.323C2075.25 300.419 2088.02 294.12 2079.67 286.646C2079.67 286.646 2050.87 264.901 2049.09 263.478C2047.3 262.054 2049.44 257.143 2054.47 260.737L2087.77 285.365C2094.22 290.134 2104.84 281.308 2096 273.905C2096 273.905 2061.1 248.032 2057.04 244.936C2052.97 241.839 2057.5 238.245 2061.46 241.377C2061.46 241.377 2095.82 266.289 2101.85 271.094C2107.87 275.898 2119.14 263.228 2112.26 256.324C2112.26 256.324 2054.08 205.396 2049.62 201.624C2045.16 197.851 2039.49 200.022 2034.97 202.229C2030.44 204.435 2030.87 207.211 2030.87 207.211C2031.02 211.269 2029.96 215.281 2027.84 218.742C2021.21 232.978 2010.26 228.778 2005.8 228.672C2001.35 228.565 1999.17 224.65 2003.13 220.522C2007.09 216.393 2007.09 208.172 2007.09 202.087C2007.09 196.001 2013.54 188.847 2013.54 188.847H1996.5C1996.5 188.847 1994.93 186.356 1998.99 184.185C2003.06 182.014 2015.86 183.367 2015.86 183.367C2039.03 183.367 2033.43 175.608 2049.55 175.608C2049.55 175.608 2063.81 175.252 2070.94 179.915C2078.07 184.577 2091.47 182.192 2091.47 182.192L2119.85 241.448L2111.97 249.1L2116.04 253.762C2116.04 253.762 2123.92 261.876 2117 269.848C2115.36 272.087 2113.13 273.83 2110.55 274.885C2107.98 275.94 2105.17 276.266 2102.42 275.827C2103.2 277.63 2103.4 279.635 2102.97 281.554C2102.54 283.472 2101.51 285.205 2100.03 286.504C2098.26 288.209 2096.04 289.374 2093.62 289.859C2091.21 290.345 2088.71 290.131 2086.41 289.244C2088.34 292.589 2083.42 297.963 2083.42 297.963C2074.93 307.75 2063.7 298.675 2063.7 298.675C2062.38 305.793 2051.15 312.911 2040.74 303.337L2039.17 302.02C2037.73 303.318 2036.19 304.507 2034.57 305.579C2033.46 306.433 2032.09 306.88 2030.69 306.848C2029.29 306.816 2027.94 306.305 2026.87 305.401C2025.37 304.11 2024.38 302.318 2024.09 300.356C2023.8 298.394 2024.23 296.394 2025.31 294.725C2025.66 294.096 2025.88 293.408 2025.98 292.696C2024.43 294.827 2022.25 296.42 2019.74 297.252C2016.18 298.675 2011.08 299.778 2008.58 297.252C2003.13 292.589 2004.45 287.429 2005.38 283.016C2002.06 285.258 1995.68 290.134 1989.73 284.084C1985.45 279.813 1987.8 274.51 1989.37 270.026C1980.14 275.863 1973.82 273.834 1971.08 271.094C1968.33 268.353 1969.51 261.983 1972.08 257.214C1974.11 253.655 1974.36 250.559 1976.14 248.068C1972.58 245.043 1970.26 242.943 1969.69 242.409C1966.55 239.313 1970.47 235.006 1975.04 239.099L1975 239.348Z" fill="#00CAFF"/>
<path d="M1833.14 49.3387H1710.47V338.749H1777.31V238.245H1840.59C1863.16 238.245 1924.38 227.568 1924.38 137.421C1924.38 47.2745 1833.14 49.3387 1833.14 49.3387ZM1830.18 189.631H1778.77V100.658H1829.86C1829.86 100.658 1866.12 103.932 1866.12 145.144C1866.12 186.356 1830.18 189.595 1830.18 189.595V189.631Z" fill="#00CAFF"/>
<path d="M1670.64 134.432C1670.64 134.432 1671.25 44.2848 1567.25 44.2848C1463.26 44.2848 1453.17 103.007 1453.17 134.432C1453.17 134.432 1441.76 171.836 1530.71 208.635C1579.06 228.672 1607.15 231.554 1607.15 256.004C1607.15 280.454 1594.88 293.194 1567.72 293.194C1540.55 293.194 1513.56 280.738 1513.56 248.032V242.48H1448.04V255.826C1448.04 255.826 1441.58 341.702 1562.12 341.702C1682.66 341.702 1673.32 257.605 1673.32 257.605C1673.32 257.605 1680.23 210.45 1626.54 187.317C1572.85 164.184 1520.69 153.294 1520.69 126.389C1520.69 99.4834 1541.41 93.6824 1560.8 93.6824C1580.2 93.6824 1603.12 98.4158 1603.12 134.467H1670.64V134.432Z" fill="#00CAFF"/>
</g>
<path d="M1399 400.434L1413.43 386L1399 371.566L1384.57 386L1399 400.434ZM1399 13.5662L1384.57 28L1399 42.4338L1413.43 28L1399 13.5662ZM1401.5 386V28H1396.5V386H1401.5Z" fill="url(#paint0_linear_166_4476)"/>
<g clip-path="url(#clip1_166_4476)">
<path d="M440.331 50.8705H521.044V342.175H440.331V50.8705ZM563.397 342.175V50.8705H785.354V107.349H644.107V167.458H774.045V223.947H644.107V285.67H785.354V342.175H563.397ZM830.574 342.175V50.8705H1052.47V107.349H911.266V167.458H1041.16V223.947H911.266V285.67H1052.47V342.175H830.574ZM1097.67 342.175V50.8705H1319.62V107.349H1178.43V167.458H1308.33V223.947H1178.43V285.67H1319.62V342.175H1097.67ZM184.502 225.753C183.435 246.322 183.172 265.359 181.649 285.979C189.792 286.719 198.982 287.43 207.666 286.165L205.068 228.682L204.612 225.946C198.001 226.203 191.745 226.469 184.502 225.753ZM133.644 167.991C123.613 173.017 108.857 180.613 110.485 194.367C112.634 201.876 120.766 206.729 127.202 209.815C162.773 225.485 209.995 226.018 247.55 214.323C256.82 210.75 269.268 205.57 270.971 194.212C270.871 184.83 260.935 178.924 253.798 175.33V174.884C256.287 173.903 259.15 173.017 261.726 172.746V172.496C249.15 170.242 237.003 166.953 224.821 163.733C227.166 169.078 228.861 174.714 230.817 180.271C234.476 179.099 238.23 178.21 242.18 177.669C248.603 180.17 257.805 183.748 258.717 191.778C259.43 199.289 251.208 202.947 246.016 205.997C218.47 216.018 187.475 216.997 158.746 209.377C150.81 206.878 139.359 203.669 138.375 193.565C144.007 180.268 158.576 177.499 170.742 174.271C164.489 170.242 158.13 166.677 152.07 162.195C145.525 162.556 139.547 165.42 133.644 167.991ZM194.504 87.7511L190.938 99.1963L173.056 150.405C177.534 150.861 183.079 150.405 187.475 150.861V151.283L184.86 209.207L185.311 209.815C191.031 210.376 198.173 210.662 204.004 209.668V208.756L201.67 152.574L202.02 150.673L217.753 150.405C209.907 129.676 202.293 108.738 194.965 87.7511H194.504ZM186.195 62.022C199.351 53.0627 211.155 65.5898 221.348 72.7485C260.76 104.464 297.951 140.768 326.294 181.765C329.863 187.053 331.478 195.268 328.276 201.255C320.93 213.506 311.015 224.689 301.618 236.044V236.665C278.186 261.6 253.44 287.237 226.699 308.355C213.649 316.294 201.67 333.633 184.86 322.891C146.584 294.929 109.957 260.163 78.9084 222.875C73.6444 214.678 65.4249 207.96 61.7635 198.661C56.654 186.072 67.9191 177.038 74.3632 167.556C106.022 128.521 145.339 90.2447 186.195 62.022ZM219.183 24.7422L204.615 4.10069C202.827 3.01362 200.603 1.21042 198.627 0.682335C194.332 -1.18011 189.699 1.07389 186.192 3.73232L159.833 38.0575C117.54 90.4224 67.4759 139.318 12.8588 176.798C8.54297 180.17 2.12455 183.462 0.787279 189.021C-0.645333 194.019 1.95965 198.146 5.0645 201.257C48.8004 231.373 90.6141 267.128 127.834 307.904C134.44 314.844 139.797 321.745 146.259 328.259C157.146 342.742 169.933 357.34 179.941 372.876C183.079 376.155 183.618 381.546 188.524 383.144C192.366 384.473 197.109 385.374 200.773 383.144L204.417 379.486C249.67 315.395 307.065 257.832 371.19 211.36C377.605 205.629 389.868 203.499 390.043 192.862C389.587 187.955 386.729 183.12 382.514 180.441L381.465 180.268C348.466 157.826 317.719 132.445 288.753 103.65L256.743 70.2215C243.775 55.8474 231.172 39.9277 219.183 24.7422ZM181.466 54.1446C194.332 44.1343 210.521 52.4471 221.345 61.6563C232.682 70.3193 244.491 80.1365 254.857 90.1674L256.74 91.2493C285.444 117.875 312.1 147.465 333.998 178.748C337.549 184.191 340.687 190.361 338.703 197.587C331.401 215.838 316.562 230.384 303.589 246.325C275.519 276.528 245.908 305.755 212.762 329.073C206.058 333.813 197.011 338.192 188.98 334.431C164.579 321.662 144.005 300.745 122.649 281.688C97.8828 258.728 73.026 231.997 54.2551 204.032C51.4646 200.109 50.6788 195.268 50.7612 190.093C53.1729 180.441 59.7898 172.496 66.0484 164.359C88.2281 136.1 115.396 109.294 142.832 84.8068C143.466 84.1808 144.636 82.8439 145.631 82.2076C157.414 72.0221 169.119 63.0061 181.466 54.1446Z" fill="#006699"/>
</g>
<defs>
<linearGradient id="paint0_linear_166_4476" x1="1399.5" y1="28" x2="1399.5" y2="386" gradientUnits="userSpaceOnUse">
<stop stop-color="#006699"/>
<stop offset="1" stop-color="#00CAFF"/>
</linearGradient>
<clipPath id="clip0_166_4476">
<rect width="968.118" height="297.702" fill="white" transform="translate(1448 44)"/>
</clipPath>
<clipPath id="clip1_166_4476">
<rect width="1320" height="386.4" fill="white"/>
</clipPath>
</defs>
</svg>
