<svg width="600" height="201" viewBox="0 0 600 201" fill="none" xmlns="http://www.w3.org/2000/svg">
<path d="M574.502 4.7C573.102 6 572.102 7.59999 571.302 9.39999C570.502 11.2 570.102 13.1 570.102 15.2C570.102 17.3 570.502 19.3 571.302 21.1C572.102 22.9 573.202 24.5 574.502 25.8C575.902 27.1 577.402 28.2 579.302 28.9C581.102 29.7 583.002 30 585.102 30C587.202 30 589.002 29.6 590.902 28.9C592.702 28.1 594.302 27.1 595.602 25.8C596.902 24.5 598.002 22.9 598.802 21.1C599.602 19.3 600.002 17.3 600.002 15.2C600.002 13.1 599.602 11.2 598.802 9.39999C598.002 7.59999 596.902 6 595.602 4.7C594.202 3.4 592.702 2.30001 590.902 1.60001C589.102 0.800006 587.202 0.5 585.102 0.5C583.002 0.5 581.102 0.900006 579.302 1.60001C577.502 2.30001 575.902 3.4 574.502 4.7ZM576.302 24.3C575.202 23.1 574.302 21.8 573.702 20.3C573.102 18.8 572.702 17.1 572.702 15.3C572.702 13.5 573.002 11.9 573.702 10.4C574.302 8.89999 575.202 7.49999 576.302 6.39999C577.402 5.29999 578.702 4.4 580.202 3.7C581.702 3 583.302 2.7 585.102 2.7C586.902 2.7 588.402 3 589.902 3.7C591.402 4.4 592.702 5.19999 593.702 6.39999C594.802 7.49999 595.702 8.79999 596.302 10.4C596.902 12 597.302 13.6 597.302 15.3C597.302 17.1 597.002 18.8 596.302 20.3C595.702 21.8 594.802 23.2 593.702 24.3C592.602 25.4 591.302 26.3 589.902 27C588.402 27.7 586.902 28 585.102 28C583.402 28 581.702 27.7 580.202 27C578.702 26.3 577.402 25.5 576.302 24.3Z" fill="black"/>
<path d="M590.601 7.80009C589.601 6.90009 588.101 6.6001 586.001 6.6001H579.301V23.9001H582.001V16.4001H584.901L589.601 23.8001H592.501L587.601 16.2001C588.901 16.1001 590.001 15.6001 590.801 14.9001C591.701 14.1001 592.101 13.0001 592.101 11.5001C592.101 9.90009 591.501 8.60009 590.601 7.80009ZM586.501 14.2001C586.001 14.2001 585.401 14.2001 584.801 14.2001H582.001V8.70009H585.601C586.101 8.70009 586.501 8.70009 587.001 8.80009C587.501 8.90009 587.901 9.00009 588.201 9.20009C588.601 9.40009 588.901 9.70009 589.101 10.0001C589.301 10.3001 589.401 10.8001 589.401 11.4001C589.401 12.1001 589.301 12.6001 589.001 13.0001C588.801 13.4001 588.401 13.7001 588.001 13.9001C587.501 14.0001 587.101 14.1001 586.501 14.2001ZM46.5012 142.3L87.7012 18.9001H150.801C162.501 18.9001 171.101 19.9001 176.601 21.9001C182.101 23.9001 185.901 27.7001 187.801 33.1001C189.801 38.6001 189.401 45.2001 186.801 53.1001C184.501 59.9001 181.101 65.8001 176.501 70.8001C171.901 75.8001 166.601 79.8001 160.501 82.9001C156.601 84.9001 151.701 86.5001 145.601 87.8001C149.601 89.3001 152.401 90.9001 154.001 92.4001C157.401 95.4001 159.801 101.5 160.601 106.6L167.001 142.3H124.101L116.501 104.6C115.501 99.7001 114.301 96.5001 112.801 95.1001C110.701 93.2001 107.901 92.2001 104.501 92.2001H101.101L84.4012 142.3H46.5012ZM109.101 68.9001H125.101C132.301 68.9001 138.301 67.7001 143.101 63.4001C145.401 61.3001 147.001 58.9001 147.901 56.2001C149.201 52.2001 149.001 49.2001 147.201 47.0001C145.401 44.8001 141.001 43.8001 134.101 43.8001H117.501C117.401 43.8001 109.101 68.9001 109.101 68.9001ZM192.001 80.8001C198.501 61.3001 208.901 46.2001 223.201 35.3001C237.501 24.5001 254.301 19.0001 273.401 19.0001C292.501 19.0001 306.401 24.3001 313.501 35.0001C320.601 45.7001 320.901 60.6001 314.501 79.8001C309.901 93.8001 303.701 105.2 296.201 114.1C288.601 123 279.601 130 269.101 134.9C258.601 139.8 246.901 142.3 233.801 142.3C220.701 142.3 210.201 140.1 202.901 135.9C195.601 131.6 190.801 124.9 188.501 115.5C186.201 106.2 187.301 94.6001 191.901 80.7001L192.001 80.8001ZM228.401 80.9001C224.401 92.9001 223.701 101.6 226.401 106.9C229.101 112.1 234.201 114.8 241.801 114.8C249.401 114.8 256.501 112.2 262.601 107.1C268.601 102 273.801 92.7001 278.201 79.3001C281.901 68.1001 282.401 59.9001 279.601 54.7001C276.801 49.5001 271.601 46.9001 264.001 46.9001C256.401 46.9001 249.901 49.6001 243.701 54.8001C237.501 60.0001 232.401 68.8001 228.401 80.9001ZM320.401 100.5L356.001 98.3001C354.801 104 354.901 108.3 356.201 111.3C358.401 116.1 363.001 118.5 369.901 118.5C375.101 118.5 379.501 117.3 383.201 114.8C386.801 112.4 389.201 109.5 390.301 106.2C391.301 103.2 390.901 100.4 389.001 97.9001C387.101 95.5001 381.701 93.2001 372.601 91.0001C357.801 87.4001 347.901 82.6001 343.101 76.6001C338.201 70.6001 337.301 62.9001 340.401 53.7001C342.401 47.6001 346.201 41.8001 351.501 36.4001C356.801 31.0001 363.601 26.7001 371.701 23.6001C379.801 20.5001 390.001 19.0001 402.401 19.0001C417.501 19.0001 428.101 21.8001 434.201 27.5001C440.201 33.2001 442.001 42.1001 439.301 54.4001L404.101 56.4001C405.001 51.1001 404.301 47.2001 402.201 44.7001C400.101 42.3001 396.401 41.1001 391.301 41.1001C387.001 41.1001 383.501 42.0001 380.801 43.8001C378.001 45.6001 376.201 47.8001 375.301 50.4001C374.701 52.3001 375.001 54.0001 376.301 55.5001C377.501 57.1001 381.101 58.5001 387.101 59.9001C401.901 63.4001 412.201 66.8001 418.001 70.4001C423.801 73.9001 427.301 78.4001 428.701 83.6001C430.101 88.8001 429.701 94.7001 427.501 101.2C424.901 108.8 420.501 115.8 414.201 122.3C407.801 128.7 400.301 133.6 391.701 136.9C383.001 140.2 373.001 141.8 361.501 141.8C341.301 141.8 328.701 137.9 323.601 130.1C318.501 122.5 317.401 112.6 320.401 100.5ZM439.101 100.5L474.701 98.3001C473.501 104 473.601 108.3 474.901 111.3C477.101 116.1 481.701 118.5 488.601 118.5C493.801 118.5 498.301 117.3 501.901 114.8C505.501 112.3 507.901 109.5 509.001 106.2C510.001 103.2 509.601 100.4 507.701 97.9001C505.801 95.5001 500.401 93.2001 491.301 91.0001C476.501 87.4001 466.601 82.6001 461.801 76.6001C456.901 70.6001 456.001 62.9001 459.101 53.7001C461.101 47.6001 464.901 41.8001 470.201 36.4001C475.501 31.0001 482.301 26.7001 490.401 23.6001C498.501 20.5001 508.701 19.0001 521.101 19.0001C536.201 19.0001 546.801 21.8001 552.901 27.5001C558.901 33.2001 560.701 42.1001 558.001 54.4001L522.801 56.4001C523.701 51.1001 523.001 47.2001 520.901 44.7001C518.801 42.3001 515.101 41.1001 510.001 41.1001C505.701 41.1001 502.201 42.0001 499.501 43.8001C496.701 45.6001 494.901 47.8001 494.001 50.4001C493.401 52.3001 493.701 54.0001 495.001 55.5001C496.201 57.1001 499.801 58.5001 505.801 59.9001C520.601 63.4001 530.901 66.8001 536.701 70.4001C542.501 73.9001 546.001 78.4001 547.401 83.6001C548.801 88.8001 548.401 94.7001 546.201 101.2C543.601 108.8 539.201 115.8 532.901 122.3C526.501 128.7 519.001 133.6 510.401 136.9C501.701 140.2 491.701 141.8 480.201 141.8C460.001 141.8 447.401 137.9 442.301 130.1C437.201 122.5 436.101 112.6 439.101 100.5ZM0.901164 185.3C0.101164 184.8 -0.598836 182.9 0.901164 181.9C1.30116 181.6 1.80116 181.3 2.70116 180.8C5.90117 179 13.9012 175.6 44.4012 172.5C84.3012 168.5 428.101 165.9 505.001 168.2C526.501 168.8 539.101 169.1 546.701 169.3C554.701 169.5 557.101 169.5 558.301 169.8C559.501 170 559.901 171.9 557.601 172.4C557.301 172.5 557.001 172.5 556.701 172.5C553.301 172.7 426.301 177.1 297.201 181.4C283.901 181.9 270.401 182.3 257.201 182.7C181.301 185.1 108.601 187.4 65.9012 191.6C43.1012 193.8 31.9012 197.2 27.5012 200.3C27.5012 200.3 26.5012 201 25.5012 200.4C24.3012 199.7 1.20116 185.7 0.901164 185.3Z" fill="#EF382A"/>
</svg>
