<svg width="1800" height="635" viewBox="0 0 1800 635" fill="none" xmlns="http://www.w3.org/2000/svg">
<path d="M1092.22 490.622C1062.62 461.1 1047.82 425.253 1047.82 383.081C1047.82 340.907 1062.62 305.06 1092.22 275.539C1122.11 245.737 1158.19 230.836 1200.48 230.836C1239.95 230.836 1274.07 243.909 1302.82 270.057C1307.05 273.993 1307.19 277.929 1303.24 281.865L1270.26 316.025C1266.59 319.399 1263.07 319.399 1259.69 316.025C1243.34 301.686 1224.3 294.517 1202.6 294.517C1178.91 294.517 1159.18 303.092 1143.39 320.242C1127.61 337.112 1119.71 357.495 1119.71 381.393C1119.71 405.009 1127.61 425.253 1143.39 442.122C1159.46 458.711 1179.34 467.004 1203.02 467.004C1225.01 467.004 1243.9 460.255 1259.69 446.761C1263.63 443.386 1267.3 443.528 1270.68 447.181L1303.67 482.188C1307.33 485.841 1307.19 489.636 1303.24 493.572C1275.05 520.844 1240.8 534.48 1200.48 534.48C1158.19 534.48 1122.11 519.862 1092.22 490.622ZM1430.08 534.48C1406.11 534.48 1386.1 530.967 1370.03 523.936C1354.24 516.908 1342.54 509.597 1334.93 502.007C1331.26 498.353 1330.7 494.134 1333.23 489.357L1352.69 455.195C1354.38 452.665 1356.63 451.259 1359.45 450.976C1362.56 450.415 1365.09 450.976 1367.07 452.665C1389.9 468.128 1409.92 475.859 1427.12 475.859C1435.57 475.859 1442.48 473.471 1447.84 468.69C1453.48 463.913 1456.3 457.867 1456.3 450.556C1456.3 442.122 1452.77 434.811 1445.72 428.627C1438.68 422.161 1427.68 415.271 1412.74 407.964C1400.05 401.776 1389.76 396.434 1381.87 391.936C1373.97 387.158 1365.66 380.971 1356.92 373.38C1348.18 365.789 1341.55 357.214 1337.04 347.655C1332.81 337.814 1330.7 326.849 1330.7 314.76C1330.7 291.987 1339.3 272.306 1356.5 255.718C1373.69 239.13 1397.65 230.836 1428.38 230.836C1459.96 230.836 1490.13 241.379 1518.89 262.465C1521.14 263.871 1522.41 266.121 1522.69 269.213C1522.97 272.306 1522.55 274.555 1521.42 275.961L1499.85 308.434C1495.63 315.182 1489.42 316.166 1481.25 311.386C1459.26 296.204 1440.23 288.613 1424.16 288.613C1415.7 288.613 1409.22 290.862 1404.7 295.36C1400.48 299.859 1398.36 305.341 1398.36 311.808C1398.36 318.274 1402.03 324.46 1409.36 330.364C1416.69 336.268 1428.38 343.156 1444.45 351.029C1470.96 363.961 1489 374.364 1498.58 382.237C1519.45 399.388 1529.88 421.034 1529.88 447.181C1529.88 470.237 1520.57 490.622 1501.97 508.332C1483.64 525.766 1459.68 534.48 1430.08 534.48ZM1622.41 522.25V297.047H1561.93C1559.68 297.047 1557.7 296.344 1556.01 294.938C1554.6 293.252 1553.9 291.284 1553.9 289.034V243.066C1553.9 240.817 1554.6 238.989 1556.01 237.583C1557.7 235.897 1559.68 235.053 1561.93 235.053H1749.7C1751.95 235.053 1753.78 235.897 1755.19 237.583C1756.89 238.989 1757.73 240.817 1757.73 243.066V289.034C1757.73 291.284 1756.89 293.252 1755.19 294.938C1753.78 296.344 1751.95 297.047 1749.7 297.047H1689.22V522.25C1689.22 524.218 1688.38 526.045 1686.69 527.734C1684.99 529.42 1683.16 530.264 1681.19 530.264H1630.44C1628.47 530.264 1626.63 529.42 1624.94 527.734C1623.25 526.045 1622.41 524.218 1622.41 522.25Z" fill="black"/>
<path d="M60.8881 490.622C31.2856 461.1 16.4844 425.253 16.4844 383.081C16.4844 340.907 31.2856 305.06 60.8881 275.539C90.7723 245.737 126.859 230.836 169.148 230.836C208.618 230.836 242.731 243.909 271.488 270.057C275.717 273.993 275.858 277.929 271.911 281.865L238.925 316.025C235.26 319.399 231.736 319.399 228.353 316.025C212.001 301.686 192.971 294.517 171.263 294.517C147.581 294.517 127.846 303.092 112.058 320.242C96.2697 337.112 88.3761 357.495 88.3761 381.393C88.3761 405.009 96.2697 425.253 112.058 442.122C128.128 458.711 148.003 467.004 171.686 467.004C193.676 467.004 212.565 460.255 228.353 446.761C232.3 443.386 235.965 443.528 239.348 447.181L272.334 482.188C275.999 485.841 275.858 489.636 271.911 493.572C243.718 520.844 209.464 534.48 169.148 534.48C126.859 534.48 90.7723 519.862 60.8881 490.622ZM401.216 534.48C377.254 534.48 357.238 530.967 341.168 523.936C325.38 516.908 313.68 509.597 306.068 502.007C302.403 498.353 301.839 494.134 304.376 489.357L323.829 455.195C325.521 452.665 327.776 451.259 330.596 450.976C333.697 450.415 336.234 450.976 338.208 452.665C361.044 468.128 381.06 475.859 398.259 475.859C406.716 475.859 413.622 473.471 418.98 468.69C424.617 463.913 427.437 457.867 427.437 450.556C427.437 442.122 423.913 434.811 416.866 428.627C409.815 422.161 398.82 415.271 383.881 407.964C371.193 401.776 360.903 396.434 353.009 391.936C345.115 387.158 336.798 380.971 328.058 373.38C319.318 365.789 312.693 357.214 308.182 347.655C303.953 337.814 301.839 326.849 301.839 314.76C301.839 291.987 310.438 272.306 327.635 255.718C344.833 239.13 368.796 230.836 399.527 230.836C431.102 230.836 461.27 241.379 490.024 262.465C492.279 263.871 493.548 266.121 493.831 269.213C494.113 272.306 493.689 274.555 492.562 275.961L470.996 308.434C466.766 315.182 460.563 316.166 452.388 311.386C430.399 296.204 411.367 288.613 395.297 288.613C386.839 288.613 380.356 290.862 375.845 295.36C371.616 299.859 369.501 305.341 369.501 311.808C369.501 318.274 373.166 324.46 380.496 330.364C387.825 336.268 399.527 343.156 415.597 351.029C442.097 363.961 460.143 374.364 469.727 382.237C490.59 399.388 501.019 421.034 501.019 447.181C501.019 470.237 491.717 490.622 473.11 508.332C454.785 525.766 430.819 534.48 401.216 534.48ZM554.679 522.25V243.066C554.679 240.817 555.386 238.989 556.796 237.583C558.485 235.897 560.461 235.053 562.716 235.053H737.794C740.048 235.053 741.879 235.897 743.289 237.583C744.982 238.989 745.827 240.817 745.827 243.066V289.034C745.827 291.284 744.982 293.252 743.289 294.938C741.879 296.344 740.048 297.047 737.794 297.047H620.652V349.342H717.073C719.045 349.342 720.879 350.185 722.568 351.872C724.261 353.278 725.106 355.105 725.106 357.355V403.324C725.106 405.571 724.261 407.539 722.568 409.229C721.158 410.631 719.327 411.334 717.073 411.334H620.652V468.269H737.794C740.048 468.269 741.879 469.114 743.289 470.799C744.982 472.206 745.827 474.032 745.827 476.283V522.25C745.827 524.501 744.982 526.469 743.289 528.155C741.879 529.561 740.048 530.264 737.794 530.264H562.716C560.461 530.264 558.485 529.561 556.796 528.155C555.386 526.469 554.679 524.501 554.679 522.25Z" fill="black"/>
<path d="M894.539 162.312V555.505" stroke="#FBAF1A" stroke-width="32.1019"/>
<path d="M457.414 51.7663C454.754 51.7663 452.362 51.3135 450.229 50.4074C448.097 49.5016 446.285 48.2122 444.78 46.5398C443.278 44.8675 442.124 42.829 441.321 40.4248C440.518 38.0206 440.117 35.3202 440.117 32.3237C440.117 29.3968 440.518 26.7313 441.321 24.327C442.158 21.9228 443.35 19.8671 444.887 18.1597C446.423 16.4176 448.276 15.0761 450.439 14.1353C452.641 13.1597 455.106 12.6719 457.831 12.6719C459.929 12.6719 461.847 12.9506 463.597 13.5081C465.378 14.0656 466.934 14.867 468.26 15.9123C469.586 16.9576 470.671 18.2294 471.508 19.7277C472.383 21.226 472.957 22.9159 473.239 24.7975H468.26C467.698 22.1842 466.494 20.2155 464.645 18.8915C462.825 17.5326 460.54 16.8531 457.777 16.8531C455.889 16.8531 454.162 17.219 452.591 17.9507C451.051 18.6475 449.725 19.658 448.609 20.9821C447.489 22.2713 446.618 23.8567 445.987 25.7382C445.391 27.5849 445.093 29.6581 445.093 31.9578C445.093 34.3969 445.372 36.5922 445.934 38.5433C446.526 40.46 447.363 42.0972 448.448 43.4562C449.564 44.78 450.913 45.808 452.488 46.5398C454.059 47.2365 455.839 47.5851 457.831 47.5851C459.405 47.5851 460.819 47.3241 462.076 46.8013C463.368 46.2784 464.488 45.547 465.428 44.6061C466.372 43.6304 467.106 42.4805 467.629 41.1567C468.191 39.8325 468.524 38.3865 468.627 36.8185H473.606C473.083 41.6967 471.42 45.4075 468.627 47.9512C465.829 50.4949 462.092 51.7663 457.414 51.7663ZM490.945 51.5049C488.954 51.5049 487.135 51.1744 485.492 50.5121C483.887 49.8498 482.503 48.9093 481.353 47.6898C480.233 46.4355 479.358 44.937 478.731 43.1948C478.101 41.4528 477.787 39.5191 477.787 37.3934C477.787 35.2331 478.089 33.2819 478.682 31.5397C479.308 29.7975 480.183 28.3167 481.299 27.0971C482.453 25.8428 483.833 24.8846 485.438 24.2225C487.085 23.5605 488.916 23.2295 490.945 23.2295C492.971 23.2295 494.786 23.5779 496.395 24.2748C498.034 24.9368 499.418 25.8776 500.534 27.0971C501.688 28.3167 502.559 29.7975 503.155 31.5397C503.782 33.2819 504.096 35.2331 504.096 37.3934C504.096 39.4491 503.782 41.3481 503.155 43.0904C502.559 44.7979 501.688 46.2784 500.534 47.5331C499.418 48.7874 498.034 49.763 496.395 50.4597C494.786 51.1564 492.971 51.5049 490.945 51.5049ZM490.945 47.5851C492.164 47.5851 493.288 47.3412 494.297 46.8536C495.348 46.366 496.234 45.6865 496.968 44.8151C497.74 43.9094 498.332 42.829 498.753 41.5748C499.169 40.3205 499.38 38.9263 499.38 37.3934C499.38 35.8603 499.169 34.4665 498.753 33.2122C498.332 31.9578 497.755 30.8951 497.022 30.024C496.288 29.1181 495.397 28.4212 494.35 27.9334C493.299 27.4107 492.149 27.1494 490.888 27.1494C489.703 27.1494 488.583 27.4107 487.536 27.9334C486.524 28.4212 485.633 29.1181 484.865 30.024C484.131 30.9299 483.554 32.0101 483.134 33.2644C482.713 34.5188 482.503 35.8952 482.503 37.3934C482.503 38.892 482.713 40.2681 483.134 41.5224C483.554 42.7767 484.131 43.857 484.865 44.7628C485.599 45.6685 486.474 46.366 487.487 46.8536C488.534 47.3412 489.688 47.5851 490.945 47.5851ZM513.761 23.8567V27.8288H513.868C515.889 24.7626 518.809 23.2295 522.619 23.2295C526.601 23.2295 529.082 24.7626 530.06 27.8288C530.966 26.3654 532.154 25.233 533.622 24.4316C535.127 23.6302 536.786 23.2295 538.605 23.2295C541.678 23.2295 543.932 23.9089 545.362 25.2678C546.829 26.6267 547.563 28.5083 547.563 30.9125V50.8778H543.111V32.9509C543.111 30.9648 542.706 29.5013 541.903 28.5606C541.101 27.6198 539.755 27.1494 537.871 27.1494C535.773 27.1494 534.061 27.7766 532.735 29.031C531.439 30.2505 530.794 31.8707 530.794 33.8917V50.8778H526.341V32.9509C526.341 30.9648 525.936 29.5013 525.134 28.5606C524.331 27.6198 523.036 27.1494 521.255 27.1494C519.959 27.1494 518.794 27.4456 517.747 28.0379C516.696 28.5954 515.82 29.4839 515.125 30.7034C514.391 31.8882 514.02 32.9683 514.02 33.9439V50.8778H509.568V23.8567H513.761ZM558.657 23.8567V27.8288H558.76C560.79 24.7626 563.706 23.2295 567.516 23.2295C571.498 23.2295 573.978 24.7626 574.957 27.8288C575.866 26.3654 577.055 25.233 578.522 24.4316C580.024 23.6302 581.687 23.2295 583.498 23.2295C586.575 23.2295 588.829 23.9089 590.262 25.2678C591.73 26.6267 592.464 28.5083 592.464 30.9125V50.8778H588.008V32.9509C588.008 30.9648 587.606 29.5013 586.804 28.5606C586.001 27.6198 584.652 27.1494 582.764 27.1494C580.67 27.1494 578.958 27.7766 577.628 29.031C576.34 30.2505 575.69 31.8707 575.69 33.8917V50.8778H571.234V32.9509C571.234 30.9648 570.833 29.5013 570.031 28.5606C569.228 27.6198 567.936 27.1494 566.155 27.1494C564.86 27.1494 563.69 27.4456 562.639 28.0379C561.592 28.5954 560.721 29.4839 560.022 30.7034C559.288 31.8882 558.921 32.9683 558.921 33.9439V50.8778H554.465V23.8567H558.657ZM608.69 51.5049C602.476 51.5049 599.362 48.2997 599.362 41.8881V23.8567H603.822V42.2542C603.822 43.8223 604.307 45.1113 605.289 46.1218C606.264 47.0974 607.613 47.5851 609.321 47.5851C611.943 47.5851 613.934 46.836 615.294 45.3379C616.659 43.8047 617.343 41.7838 617.343 39.2749V23.8567H621.795V50.8778H617.603V46.5922H617.496C615.684 49.8677 612.749 51.5049 608.69 51.5049ZM632.893 23.8567V28.1424H633C634.922 24.8671 637.857 23.2295 641.805 23.2295C648.023 23.2295 651.134 26.4525 651.134 32.8986V50.8778H646.682V32.4282C646.682 30.9299 646.208 29.6756 645.264 28.6651C644.32 27.6546 642.944 27.1494 641.125 27.1494C638.572 27.1494 636.6 27.916 635.201 29.4491C633.837 30.9474 633.157 32.9509 633.157 35.4596V50.8778H628.701V23.8567H632.893ZM662.759 13.5604V18.996H658.303V13.5604H662.759ZM662.759 23.8567V50.8778H658.303V23.8567H662.759ZM681.092 51.5049C679.139 51.5049 677.369 51.1916 675.799 50.5644C674.262 49.9373 672.936 49.0312 671.817 47.8465C670.735 46.627 669.894 45.1637 669.298 43.4562C668.706 41.7486 668.411 39.8325 668.411 37.707C668.411 35.477 668.706 33.4735 669.298 31.6965C669.894 29.8846 670.735 28.3515 671.817 27.0971C672.936 25.8428 674.282 24.8846 675.852 24.2225C677.423 23.5605 679.208 23.2295 681.199 23.2295C684.485 23.2295 687.157 23.9961 689.217 25.5291C691.28 27.0623 692.499 29.3968 692.885 32.5328H688.273C687.504 28.9438 685.269 27.1494 681.562 27.1494C678.806 27.1494 676.708 28.0728 675.275 29.9195C673.842 31.7314 673.127 34.3272 673.127 37.707C673.127 40.669 673.808 43.0553 675.168 44.8675C676.567 46.6793 678.524 47.5851 681.038 47.5851C683.239 47.5851 684.955 47.0103 686.174 45.8604C687.432 44.7104 688.204 43.0904 688.483 40.9996H693.042C692.557 44.3799 691.28 46.9751 689.217 48.7874C687.191 50.5992 684.485 51.5049 681.092 51.5049ZM705.738 51.5049C702.906 51.5049 700.704 50.8606 699.134 49.5712C697.559 48.2474 696.776 46.366 696.776 43.9266C696.776 41.4876 697.559 39.5714 699.134 38.1774C700.743 36.749 704.392 35.6687 710.087 34.937C712.043 34.693 713.354 34.3272 714.019 33.8394C714.719 33.3167 715.066 32.5676 715.066 31.592C715.066 28.6302 713.06 27.1494 709.039 27.1494C706.838 27.1494 705.18 27.5675 704.06 28.4038C702.978 29.2052 702.382 30.4944 702.279 32.2714H697.823C698.209 26.2435 702.054 23.2295 709.357 23.2295C716.098 23.2295 719.469 25.6511 719.469 30.4944V46.0694C719.469 47.0798 719.943 47.5851 720.887 47.5851C721.269 47.5851 721.724 47.4979 722.247 47.3241V50.7735C721.341 51.2611 720.275 51.5049 719.048 51.5049C716.534 51.5049 715.276 50.1112 715.276 47.3241C712.899 50.1112 709.72 51.5049 705.738 51.5049ZM706.735 47.5851C707.954 47.5851 709.078 47.4284 710.087 47.1146C711.099 46.8013 711.975 46.366 712.708 45.808C713.442 45.2504 714.004 44.6233 714.386 43.9266C714.806 43.1948 715.017 42.4109 715.017 41.5748V36.923C714.631 37.2017 714.176 37.4284 713.652 37.6025C713.129 37.7766 712.536 37.9161 711.871 38.0206L707.308 38.7001C705.317 38.9787 703.85 39.5015 702.906 40.2681C701.962 41.0348 701.492 42.1495 701.492 43.6128C701.492 44.8675 701.95 45.8432 702.856 46.5398C703.762 47.2365 705.057 47.5851 706.735 47.5851ZM734.526 50.8778C733.372 50.8778 732.394 50.7907 731.591 50.6164C730.823 50.4425 730.192 50.1463 729.703 49.7283C729.214 49.3098 728.866 48.735 728.656 48.0032C728.446 47.2717 728.343 46.348 728.343 45.2332V27.7766H723.73V23.8567H728.343V15.7555H732.795V23.8567H738.195V27.7766H732.795V44.7104C732.795 45.5118 732.955 46.087 733.269 46.4355C733.582 46.7841 734.366 46.9579 735.623 46.9579H738.195V50.8778H734.526ZM748.078 13.5604V18.996H743.622V13.5604H748.078ZM748.078 23.8567V50.8778H743.622V23.8567H748.078ZM766.884 51.5049C764.889 51.5049 763.074 51.1744 761.431 50.5121C759.822 49.8498 758.442 48.9093 757.288 47.6898C756.172 46.4355 755.297 44.937 754.67 43.1948C754.039 41.4528 753.726 39.5191 753.726 37.3934C753.726 35.2331 754.02 33.2819 754.62 31.5397C755.247 29.7975 756.118 28.3167 757.238 27.0971C758.392 25.8428 759.768 24.8846 761.377 24.2225C763.02 23.5605 764.855 23.2295 766.884 23.2295C768.906 23.2295 770.725 23.5779 772.334 24.2748C773.973 24.9368 775.357 25.8776 776.473 27.0971C777.623 28.3167 778.498 29.7975 779.09 31.5397C779.721 33.2819 780.034 35.2331 780.034 37.3934C780.034 39.4491 779.721 41.3481 779.09 43.0904C778.498 44.7979 777.623 46.2784 776.473 47.5331C775.357 48.7874 773.973 49.763 772.334 50.4597C770.725 51.1564 768.906 51.5049 766.884 51.5049ZM766.884 47.5851C768.103 47.5851 769.223 47.3412 770.236 46.8536C771.287 46.366 772.173 45.6865 772.907 44.8151C773.679 43.9094 774.271 42.829 774.688 41.5748C775.108 40.3205 775.318 38.9263 775.318 37.3934C775.318 35.8603 775.108 34.4665 774.688 33.2122C774.271 31.9578 773.694 30.8951 772.96 30.024C772.227 29.1181 771.336 28.4212 770.289 27.9334C769.238 27.4107 768.088 27.1494 766.827 27.1494C765.638 27.1494 764.522 27.4107 763.475 27.9334C762.462 28.4212 761.568 29.1181 760.804 30.024C760.07 30.9299 759.489 32.0101 759.073 33.2644C758.652 34.5188 758.442 35.8952 758.442 37.3934C758.442 38.892 758.652 40.2681 759.073 41.5224C759.489 42.7767 760.07 43.857 760.804 44.7628C761.538 45.6685 762.409 46.366 763.422 46.8536C764.473 47.3412 765.623 47.5851 766.884 47.5851ZM789.696 23.8567V28.1424H789.803C791.725 24.8671 794.66 23.2295 798.608 23.2295C804.825 23.2295 807.936 26.4525 807.936 32.8986V50.8778H803.484V32.4282C803.484 30.9299 803.01 29.6756 802.066 28.6651C801.122 27.6546 799.743 27.1494 797.927 27.1494C795.375 27.1494 793.403 27.916 792.004 29.4491C790.639 30.9474 789.959 32.9509 789.959 35.4596V50.8778H785.503V23.8567H789.696ZM824.591 51.5049C821.098 51.5049 818.339 50.7563 816.31 49.2578C814.318 47.7246 813.256 45.4251 813.115 42.3586H817.567C817.639 44.0313 818.289 45.3204 819.508 46.2265C820.766 47.1322 822.55 47.5851 824.855 47.5851C829.223 47.5851 831.405 46.2437 831.405 43.5609C831.405 42.3414 830.882 41.4005 829.831 40.7386C829.276 40.39 828.436 40.0415 827.316 39.693C826.2 39.31 824.752 38.9439 822.967 38.5955C819.65 37.8988 817.273 36.9753 815.839 35.8255C814.41 34.6408 813.688 33.0031 813.688 30.9125C813.688 29.7627 813.917 28.7174 814.372 27.7766C814.861 26.8358 815.545 26.0344 816.417 25.3724C817.326 24.6755 818.392 24.1529 819.615 23.8044C820.873 23.4211 822.287 23.2295 823.857 23.2295C827.561 23.2295 830.289 23.9438 832.032 25.3724C833.782 26.7661 834.745 28.8742 834.917 31.6965H830.461V31.6442C830.324 30.1808 829.678 29.0658 828.524 28.2992C827.408 27.5327 825.955 27.1494 824.171 27.1494C822.39 27.1494 820.976 27.4456 819.929 28.0379C818.916 28.6302 818.408 29.4839 818.408 30.5989C818.408 31.6094 818.843 32.4282 819.718 33.0554C820.624 33.6477 822.023 34.153 823.911 34.5711L828.103 35.5119C830.725 36.1042 832.716 36.9753 834.08 38.1251C835.441 39.2749 836.121 40.8953 836.121 42.9857C836.121 45.7037 835.089 47.8117 833.029 49.3098C831.004 50.7735 828.191 51.5049 824.591 51.5049Z" fill="black"/>
<path d="M455.248 101.329C452.905 101.329 450.776 101.033 448.854 100.441C446.932 99.8483 445.308 98.9769 443.981 97.8274C442.651 96.6774 441.623 95.2837 440.89 93.6461C440.156 92.0085 439.789 90.1791 439.789 88.1582H444.505C444.539 91.0852 445.556 93.3151 447.547 94.848C449.538 96.3813 452.16 97.1479 455.408 97.1479C458.481 97.1479 460.823 96.5727 462.429 95.4232C464.072 94.2381 464.89 92.5485 464.89 90.3534C464.89 88.5067 464.106 87.0606 462.536 86.0154C461.729 85.4578 460.648 84.9698 459.287 84.5517C457.923 84.1336 456.279 83.7327 454.357 83.3498C451.632 82.827 449.397 82.2522 447.65 81.6251C445.9 80.9628 444.52 80.2309 443.508 79.4299C442.529 78.5937 441.849 77.67 441.467 76.6596C441.115 75.6144 440.943 74.4472 440.943 73.1578C440.943 71.4855 441.257 69.987 441.887 68.6632C442.548 67.3042 443.473 66.1542 444.662 65.2137C445.85 64.2728 447.283 63.541 448.957 63.0186C450.635 62.4958 452.488 62.2344 454.514 62.2344C456.612 62.2344 458.515 62.513 460.227 63.0706C461.939 63.5934 463.388 64.36 464.576 65.3704C465.765 66.3809 466.674 67.6179 467.301 69.0813C467.966 70.5446 468.299 72.1997 468.299 74.0463H463.583C462.987 68.9593 459.895 66.4156 454.304 66.4156C451.579 66.4156 449.5 66.9556 448.071 68.036C446.634 69.116 445.919 70.7016 445.919 72.7921C445.919 74.0815 446.462 75.2135 447.547 76.1895C448.594 77.13 452.053 78.2104 457.923 79.4299C461.939 80.2309 464.928 81.4856 466.885 83.1931C468.876 84.8655 469.873 87.2001 469.873 90.1967C469.873 91.9386 469.487 93.5066 468.719 94.9004C467.951 96.2593 466.9 97.4265 465.574 98.4021C464.244 99.343 462.692 100.057 460.908 100.545C459.127 101.068 457.239 101.329 455.248 101.329ZM486.933 101.068C484.804 101.068 482.916 100.702 481.273 99.9702C479.668 99.2035 478.323 98.1759 477.237 96.8865C476.156 95.597 475.334 94.0814 474.772 92.3395C474.218 90.5972 473.936 88.733 473.936 86.7469C473.936 84.7607 474.249 82.9141 474.88 81.207C475.544 79.4995 476.435 78.0186 477.555 76.7643C478.671 75.51 480.016 74.534 481.586 73.8373C483.157 73.1406 484.854 72.7921 486.673 72.7921C488.595 72.7921 490.304 73.1578 491.809 73.8897C493.346 74.5863 494.637 75.5972 495.688 76.921C496.736 78.2104 497.538 79.7785 498.096 81.6251C498.658 83.4717 498.937 85.5098 498.937 87.7401V88.2625H478.651V88.5763C478.651 91.1895 479.404 93.2804 480.906 94.848C482.412 96.3813 484.472 97.1479 487.094 97.1479C490.969 97.1479 493.311 95.388 494.114 91.869H498.516C497.924 94.9355 496.613 97.235 494.584 98.7679C492.558 100.301 490.009 101.068 486.933 101.068ZM494.221 84.3427C494.152 83.2279 493.904 82.2171 493.487 81.3113C493.067 80.3704 492.505 79.5694 491.809 78.9071C491.144 78.2104 490.342 77.67 489.398 77.2871C488.492 76.9038 487.476 76.712 486.36 76.712C484.262 76.712 482.496 77.4086 481.063 78.8028C479.668 80.1614 478.862 82.008 478.651 84.3427H494.221ZM514.988 101.068C513.027 101.068 511.265 100.754 509.691 100.127C508.158 99.4997 506.825 98.594 505.709 97.4093C504.623 96.1898 503.787 94.7265 503.194 93.019C502.602 91.3114 502.304 89.3953 502.304 87.2697C502.304 85.0393 502.602 83.036 503.194 81.259C503.787 79.4471 504.623 77.9142 505.709 76.6596C506.825 75.4053 508.174 74.4472 509.748 73.7853C511.319 73.123 513.1 72.7921 515.091 72.7921C518.374 72.7921 521.049 73.5587 523.109 75.092C525.169 76.6248 526.395 78.9595 526.778 82.0955H522.165C521.397 78.5062 519.161 76.712 515.458 76.712C512.695 76.712 510.6 77.6356 509.167 79.4823C507.738 81.2941 507.023 83.8898 507.023 87.2697C507.023 90.2314 507.7 92.6181 509.064 94.4299C510.463 96.2421 512.42 97.1479 514.934 97.1479C517.136 97.1479 518.848 96.5727 520.071 95.4232C521.328 94.2732 522.096 92.6528 522.375 90.5624H526.938C526.445 93.9423 525.169 96.5379 523.109 98.3498C521.083 100.162 518.374 101.068 514.988 101.068ZM541.468 101.068C535.246 101.068 532.139 97.8621 532.139 91.4509V73.4192H536.592V91.8167C536.592 93.3847 537.081 94.6741 538.059 95.6846C539.037 96.6602 540.383 97.1479 542.095 97.1479C544.716 97.1479 546.708 96.3988 548.072 94.9004C549.432 93.3675 550.113 91.3462 550.113 88.8377V73.4192H554.569V100.441H550.376V96.1546H550.273C548.454 99.4302 545.519 101.068 541.468 101.068ZM565.51 73.4192V79.1162H565.617C567.643 74.9001 570.753 72.7921 574.946 72.7921H575.572V77.4962C572.186 77.4962 569.702 78.3671 568.132 80.1094C566.557 81.8513 565.774 84.6041 565.774 88.3672V100.441H561.318V73.4192H565.51ZM583.862 63.1229V68.5584H579.409V63.1229H583.862ZM583.862 73.4192V100.441H579.409V73.4192H583.862ZM598.892 100.441C597.742 100.441 596.764 100.353 595.957 100.179C595.193 100.005 594.562 99.7088 594.073 99.2907C593.584 98.8726 593.232 98.2978 593.026 97.566C592.816 96.8341 592.709 95.9108 592.709 94.796V77.3391H588.096V73.4192H592.709V65.3181H597.165V73.4192H602.561V77.3391H597.165V94.2732C597.165 95.0746 597.322 95.6494 597.635 95.9979C597.952 96.3465 598.739 96.5207 599.997 96.5207H602.561V100.441H598.892ZM610.506 111.259C609.356 111.259 608.324 111.103 607.415 110.789V106.712C608.672 107.13 609.547 107.339 610.032 107.339C611.817 107.339 613.074 106.434 613.808 104.622L615.539 100.284L604.793 73.4192H609.826L617.741 95.5275H617.844L625.441 73.4192H630.157L618.627 103.315C618.001 104.953 617.408 106.277 616.846 107.287C616.292 108.333 615.692 109.134 615.065 109.692C614.435 110.284 613.758 110.685 613.025 110.894C612.291 111.138 611.45 111.259 610.506 111.259ZM675.528 63.1229V67.3042H654.669V79.1685H674.11V83.3498H654.669V96.2593H675.685V100.441H649.69V63.1229H675.528ZM690.96 101.068C687.467 101.068 684.704 100.319 682.678 98.8202C680.687 97.2874 679.625 94.9875 679.483 91.9214H683.936C684.008 93.5937 684.654 94.8832 685.877 95.7889C687.134 96.6946 688.915 97.1479 691.223 97.1479C695.588 97.1479 697.77 95.8061 697.77 93.1233C697.77 91.9038 697.246 90.9633 696.199 90.301C695.641 89.9525 694.804 89.6043 693.685 89.2558C692.565 88.8725 691.116 88.5067 689.336 88.1582C686.018 87.4615 683.637 86.5378 682.208 85.3883C680.775 84.2032 680.057 82.5656 680.057 80.4751C680.057 79.3252 680.286 78.28 680.741 77.3391C681.226 76.3986 681.91 75.5972 682.781 74.9349C683.691 74.2382 684.757 73.7154 685.98 73.3669C687.237 72.9839 688.651 72.7921 690.226 72.7921C693.929 72.7921 696.654 73.5063 698.401 74.9349C700.151 76.329 701.11 78.4367 701.286 81.259H696.826V81.207C696.692 79.7433 696.043 78.6285 694.892 77.8619C693.772 77.0953 692.32 76.712 690.539 76.712C688.758 76.712 687.344 77.0081 686.294 77.6005C685.285 78.1928 684.772 79.0466 684.772 80.1614C684.772 81.1718 685.212 81.9908 686.087 82.6179C686.993 83.2103 688.392 83.7155 690.279 84.1336L694.472 85.0745C697.094 85.6669 699.085 86.5378 700.445 87.6877C701.809 88.8377 702.49 90.4577 702.49 92.5485C702.49 95.2661 701.458 97.3741 699.398 98.8726C697.369 100.336 694.56 101.068 690.96 101.068ZM715.548 100.441C714.394 100.441 713.416 100.353 712.613 100.179C711.841 100.005 711.215 99.7088 710.725 99.2907C710.236 98.8726 709.888 98.2978 709.678 97.566C709.468 96.8341 709.361 95.9108 709.361 94.796V77.3391H704.752V73.4192H709.361V65.3181H713.817V73.4192H719.217V77.3391H713.817V94.2732C713.817 95.0746 713.974 95.6494 714.291 95.9979C714.604 96.3465 715.388 96.5207 716.645 96.5207H719.217V100.441H715.548ZM731.878 101.068C729.046 101.068 726.845 100.423 725.274 99.134C723.7 97.8098 722.913 95.9284 722.913 93.4894C722.913 91.05 723.7 89.1339 725.274 87.7401C726.879 86.3116 730.529 85.2312 736.223 84.4997C738.18 84.2555 739.491 83.8898 740.16 83.4021C740.855 82.8793 741.207 82.1303 741.207 81.1546C741.207 78.1928 739.197 76.712 735.176 76.712C732.975 76.712 731.316 77.13 730.201 77.9662C729.115 78.7676 728.523 80.057 728.42 81.8341H723.96C724.346 75.8062 728.19 72.7921 735.49 72.7921C742.235 72.7921 745.609 75.2135 745.609 80.057V95.6322C745.609 96.6427 746.079 97.1479 747.023 97.1479C747.406 97.1479 747.86 97.0607 748.384 96.8865V100.336C747.478 100.824 746.412 101.068 745.189 101.068C742.674 101.068 741.417 99.674 741.417 96.8865C739.036 99.674 735.86 101.068 731.878 101.068ZM732.872 97.1479C734.091 97.1479 735.215 96.9912 736.223 96.6774C737.236 96.3637 738.111 95.9284 738.845 95.3708C739.579 94.8132 740.141 94.1861 740.523 93.4894C740.943 92.7576 741.153 91.9734 741.153 91.1372V86.4858C740.767 86.7644 740.313 86.9911 739.789 87.1649C739.265 87.3392 738.673 87.4787 738.008 87.5834L733.449 88.2625C731.458 88.5411 729.99 89.0639 729.046 89.8305C728.102 90.5972 727.629 91.7123 727.629 93.1757C727.629 94.4299 728.087 95.4056 728.993 96.1027C729.899 96.7993 731.194 97.1479 732.872 97.1479ZM766.22 101.068C764.542 101.068 762.895 100.737 761.293 100.075C759.685 99.3778 758.408 98.2978 757.464 96.8341H757.357V100.441H752.905V63.1229H757.357V77.0777H757.464C758.863 74.2206 761.744 72.7921 766.113 72.7921C768 72.7921 769.709 73.1406 771.249 73.8373C772.785 74.4996 774.092 75.4577 775.178 76.712C776.263 77.9662 777.1 79.4647 777.692 81.207C778.288 82.9489 778.586 84.8827 778.586 87.0083C778.586 89.0991 778.288 91.0153 777.692 92.7576C777.1 94.4995 776.263 95.9807 775.178 97.2002C774.13 98.4193 772.835 99.3778 771.299 100.075C769.797 100.737 768.104 101.068 766.22 101.068ZM765.746 97.1479C768.364 97.1479 770.374 96.2421 771.772 94.4299C773.167 92.6181 773.871 90.0396 773.871 86.6949C773.871 85.2312 773.676 83.8898 773.29 82.6703C772.908 81.416 772.35 80.3532 771.616 79.4823C770.882 78.6109 769.992 77.9314 768.944 77.4438C767.893 76.9562 766.724 76.712 765.429 76.712C764.171 76.712 763.036 76.9562 762.023 77.4438C761.011 77.8967 760.139 78.5762 759.406 79.4823C758.702 80.3532 758.16 81.416 757.778 82.6703C757.395 83.9246 757.204 85.3359 757.204 86.9039C757.204 90.0748 757.938 92.5833 759.406 94.4299C760.904 96.2421 763.021 97.1479 765.746 97.1479ZM788.748 63.1229V100.441H784.292V63.1229H788.748ZM800.584 63.1229V68.5584H796.128V63.1229H800.584ZM800.584 73.4192V100.441H796.128V73.4192H800.584ZM817.449 101.068C813.956 101.068 811.197 100.319 809.167 98.8202C807.176 97.2874 806.11 94.9875 805.972 91.9214H810.425C810.493 93.5937 811.143 94.8832 812.366 95.7889C813.623 96.6946 815.408 97.1479 817.713 97.1479C822.081 97.1479 824.263 95.8061 824.263 93.1233C824.263 91.9038 823.739 90.9633 822.692 90.301C822.13 89.9525 821.293 89.6043 820.174 89.2558C819.058 88.8725 817.609 88.5067 815.825 88.1582C812.504 87.4615 810.13 86.5378 808.697 85.3883C807.264 84.2032 806.55 82.5656 806.55 80.4751C806.55 79.3252 806.775 78.28 807.23 77.3391C807.719 76.3986 808.399 75.5972 809.274 74.9349C810.18 74.2382 811.246 73.7154 812.473 73.3669C813.73 72.9839 815.144 72.7921 816.715 72.7921C820.422 72.7921 823.147 73.5063 824.89 74.9349C826.636 76.329 827.599 78.4367 827.775 81.259H823.319V81.207C823.178 79.7433 822.536 78.6285 821.381 77.8619C820.262 77.0953 818.813 76.712 817.029 76.712C815.248 76.712 813.834 77.0081 812.786 77.6005C811.77 78.1928 811.265 79.0466 811.265 80.1614C811.265 81.1718 811.701 81.9908 812.576 82.6179C813.486 83.2103 814.885 83.7155 816.769 84.1336L820.961 85.0745C823.583 85.6669 825.574 86.5378 826.938 87.6877C828.299 88.8377 828.979 90.4577 828.979 92.5485C828.979 95.2661 827.951 97.3741 825.891 98.8726C823.862 100.336 821.049 101.068 817.449 101.068ZM838.579 63.1229V77.3914H838.686C839.313 75.9281 840.413 74.7954 841.984 73.9944C843.558 73.193 845.301 72.7921 847.223 72.7921C853.445 72.7921 856.556 76.0153 856.556 82.4613V100.441H852.1V81.9908C852.1 80.4923 851.626 79.2381 850.686 78.2276C849.742 77.2172 848.358 76.712 846.547 76.712C844.029 76.712 842.072 77.4786 840.677 79.0118C839.278 80.5099 838.579 82.5136 838.579 85.0221V100.441H834.123V63.1229H838.579ZM867.654 73.4192V77.3914H867.757C869.786 74.3249 872.702 72.7921 876.513 72.7921C880.495 72.7921 882.975 74.3249 883.957 77.3914C884.863 75.9281 886.051 74.7954 887.519 73.9944C889.021 73.193 890.683 72.7921 892.495 72.7921C895.571 72.7921 897.826 73.4716 899.259 74.8306C900.727 76.1895 901.46 78.0709 901.46 80.4751V100.441H897.004V82.5136C897.004 80.5275 896.603 79.0638 895.8 78.1233C894.994 77.1824 893.649 76.712 891.761 76.712C889.667 76.712 887.958 77.3391 886.625 78.5937C885.337 79.8128 884.691 81.4332 884.691 83.4541V100.441H880.231V82.5136C880.231 80.5275 879.83 79.0638 879.027 78.1233C878.225 77.1824 876.933 76.712 875.152 76.712C873.857 76.712 872.687 77.0081 871.636 77.6005C870.589 78.1581 869.718 79.0466 869.018 80.2661C868.285 81.4508 867.918 82.5308 867.918 83.5065V100.441H863.462V73.4192H867.654ZM919.892 101.068C917.76 101.068 915.872 100.702 914.229 99.9702C912.623 99.2035 911.278 98.1759 910.197 96.8865C909.111 95.597 908.293 94.0814 907.732 92.3395C907.17 90.5972 906.891 88.733 906.891 86.7469C906.891 84.7607 907.208 82.9141 907.835 81.207C908.5 79.4995 909.39 78.0186 910.51 76.7643C911.626 75.51 912.971 74.534 914.546 73.8373C916.116 73.1406 917.813 72.7921 919.629 72.7921C921.551 72.7921 923.263 73.1578 924.765 73.8897C926.301 74.5863 927.597 75.5972 928.644 76.921C929.691 78.2104 930.493 79.7785 931.055 81.6251C931.613 83.4717 931.892 85.5098 931.892 87.7401V88.2625H911.611V88.5763C911.611 91.1895 912.36 93.2804 913.865 94.848C915.364 96.3813 917.427 97.1479 920.049 97.1479C923.928 97.1479 926.267 95.388 927.073 91.869H931.476C930.879 94.9355 929.569 97.235 927.543 98.7679C925.514 100.301 922.965 101.068 919.892 101.068ZM927.176 84.3427C927.104 83.2279 926.863 82.2171 926.443 81.3113C926.026 80.3704 925.464 79.5694 924.765 78.9071C924.1 78.2104 923.297 77.67 922.357 77.2871C921.444 76.9038 920.431 76.712 919.315 76.712C917.221 76.712 915.451 77.4086 914.022 78.8028C912.623 80.1614 911.821 82.008 911.611 84.3427H927.176ZM940.919 73.4192V77.7052H941.026C942.948 74.4297 945.883 72.7921 949.827 72.7921C956.049 72.7921 959.16 76.0153 959.16 82.4613V100.441H954.704V81.9908C954.704 80.4923 954.23 79.2381 953.29 78.2276C952.346 77.2172 950.962 76.712 949.151 76.712C946.598 76.712 944.626 77.4786 943.223 79.0118C941.863 80.5099 941.183 82.5136 941.183 85.0221V100.441H936.727V73.4192H940.919ZM973.98 100.441C972.826 100.441 971.848 100.353 971.045 100.179C970.277 100.005 969.646 99.7088 969.157 99.2907C968.668 98.8726 968.32 98.2978 968.11 97.566C967.9 96.8341 967.797 95.9108 967.797 94.796V77.3391H963.184V73.4192H967.797V65.3181H972.249V73.4192H977.649V77.3391H972.249V94.2732C972.249 95.0746 972.409 95.6494 972.723 95.9979C973.036 96.3465 973.823 96.5207 975.081 96.5207H977.649V100.441H973.98Z" fill="black"/>
<path d="M1076.2 51.7639C1073.54 51.7639 1071.14 51.3111 1069.01 50.4053C1066.88 49.4992 1065.07 48.2102 1063.56 46.5374C1062.06 44.8651 1060.91 42.8266 1060.11 40.4224C1059.3 38.0182 1058.9 35.3178 1058.9 32.3213C1058.9 29.3944 1059.3 26.7289 1060.11 24.3247C1060.94 21.9205 1062.13 19.8647 1063.67 18.1573C1065.2 16.4152 1067.06 15.0737 1069.22 14.1329C1071.43 13.1573 1073.89 12.6695 1076.61 12.6695C1078.71 12.6695 1080.63 12.9482 1082.38 13.5057C1084.16 14.0632 1085.71 14.8646 1087.04 15.9099C1088.37 16.9552 1089.46 18.227 1090.29 19.7253C1091.16 21.2236 1091.74 22.9135 1092.02 24.795H1087.04C1086.48 22.1818 1085.28 20.2131 1083.43 18.8891C1081.61 17.5302 1079.32 16.8507 1076.56 16.8507C1074.67 16.8507 1072.94 17.2166 1071.37 17.9483C1069.84 18.6451 1068.51 19.6556 1067.39 20.9797C1066.27 22.2689 1065.4 23.8543 1064.77 25.7358C1064.18 27.5825 1063.88 29.6557 1063.88 31.9554C1063.88 34.3945 1064.16 36.5897 1064.72 38.5409C1065.31 40.4576 1066.15 42.0948 1067.23 43.4538C1068.35 44.778 1069.69 45.806 1071.27 46.5374C1072.84 47.2341 1074.62 47.5827 1076.61 47.5827C1078.19 47.5827 1079.6 47.3217 1080.86 46.7988C1082.15 46.276 1083.27 45.5446 1084.21 44.6037C1085.16 43.628 1085.89 42.4781 1086.41 41.1543C1086.97 39.8301 1087.3 38.3841 1087.41 36.8161H1092.39C1091.87 41.6943 1090.21 45.4051 1087.41 47.9488C1084.61 50.4925 1080.88 51.7639 1076.2 51.7639ZM1109.57 51.5025C1107.44 51.5025 1105.55 51.1368 1103.91 50.4053C1102.3 49.6383 1100.96 48.6107 1099.87 47.3216C1098.79 46.0322 1097.97 44.5166 1097.41 42.7743C1096.85 41.0323 1096.57 39.1681 1096.57 37.182C1096.57 35.1959 1096.89 33.3492 1097.52 31.6418C1098.18 29.9345 1099.07 28.4536 1100.19 27.1993C1101.31 25.9449 1102.65 24.9693 1104.22 24.2724C1105.8 23.5756 1107.49 23.2271 1109.31 23.2271C1111.23 23.2271 1112.94 23.5929 1114.45 24.3247C1115.98 25.0215 1117.27 26.032 1118.33 27.3561C1119.37 28.6453 1120.17 30.2133 1120.73 32.06C1121.29 33.9067 1121.57 35.945 1121.57 38.175V38.6977H1101.29V39.0115C1101.29 41.6247 1102.04 43.7152 1103.54 45.2832C1105.04 46.816 1107.11 47.5827 1109.73 47.5827C1113.61 47.5827 1115.94 45.8232 1116.75 42.3038H1121.15C1120.56 45.3703 1119.25 47.6702 1117.22 49.203C1115.2 50.7359 1112.65 51.5025 1109.57 51.5025ZM1116.86 34.7778C1116.79 33.6628 1116.54 32.6523 1116.12 31.7464C1115.7 30.8056 1115.14 30.0042 1114.45 29.3422C1113.78 28.6453 1112.98 28.1052 1112.03 27.7219C1111.13 27.3387 1110.11 27.147 1109 27.147C1106.9 27.147 1105.13 27.8439 1103.7 29.2376C1102.3 30.5965 1101.5 32.4433 1101.29 34.7778H1116.86ZM1130.6 23.8543V28.1401H1130.7C1132.63 24.8648 1135.56 23.2271 1139.51 23.2271C1145.73 23.2271 1148.84 26.4501 1148.84 32.8962V50.8754H1144.39V32.4258C1144.39 30.9275 1143.91 29.6732 1142.97 28.6627C1142.02 27.6523 1140.64 27.147 1138.83 27.147C1136.28 27.147 1134.3 27.9136 1132.9 29.4467C1131.54 30.945 1130.86 32.9485 1130.86 35.4572V50.8754H1126.4V23.8543H1130.6ZM1163.66 50.8754C1162.51 50.8754 1161.53 50.7883 1160.73 50.6144C1159.95 50.4401 1159.33 50.1439 1158.84 49.7259C1158.35 49.3078 1158 48.7326 1157.79 48.0008C1157.58 47.2693 1157.47 46.3456 1157.47 45.2308V27.7742H1152.87V23.8543H1157.47V15.7531H1161.93V23.8543H1167.33V27.7742H1161.93V44.7084C1161.93 45.5094 1162.09 46.0846 1162.4 46.4331C1162.72 46.7817 1163.5 46.9555 1164.76 46.9555H1167.33V50.8754H1163.66ZM1176.53 23.8543V29.5512H1176.64C1178.66 25.3351 1181.77 23.2271 1185.96 23.2271H1186.6V27.931C1183.2 27.931 1180.73 28.8021 1179.15 30.5443C1177.58 32.2864 1176.79 35.0391 1176.79 38.802V50.8754H1172.34V23.8543H1176.53ZM1200.77 51.5025C1198.64 51.5025 1196.75 51.1368 1195.11 50.4053C1193.5 49.6383 1192.16 48.6107 1191.07 47.3216C1190 46.0322 1189.17 44.5166 1188.61 42.7743C1188.06 41.0323 1187.78 39.1681 1187.78 37.182C1187.78 35.1959 1188.09 33.3492 1188.72 31.6418C1189.38 29.9345 1190.27 28.4536 1191.39 27.1993C1192.51 25.9449 1193.86 24.9693 1195.43 24.2724C1197 23.5756 1198.69 23.2271 1200.51 23.2271C1202.43 23.2271 1204.14 23.5929 1205.65 24.3247C1207.19 25.0215 1208.47 26.032 1209.53 27.3561C1210.57 28.6453 1211.38 30.2133 1211.93 32.06C1212.49 33.9067 1212.77 35.945 1212.77 38.175V38.6977H1192.49V39.0115C1192.49 41.6247 1193.24 43.7152 1194.74 45.2832C1196.25 46.816 1198.31 47.5827 1200.93 47.5827C1204.81 47.5827 1207.15 45.8232 1207.95 42.3038H1212.35C1211.76 45.3703 1210.45 47.6702 1208.42 49.203C1206.4 50.7359 1203.85 51.5025 1200.77 51.5025ZM1208.06 34.7778C1207.99 33.6628 1207.74 32.6523 1207.32 31.7464C1206.9 30.8056 1206.35 30.0042 1205.65 29.3422C1204.99 28.6453 1204.18 28.1052 1203.23 27.7219C1202.33 27.3387 1201.32 27.147 1200.2 27.147C1198.1 27.147 1196.33 27.8439 1194.9 29.2376C1193.5 30.5965 1192.7 32.4433 1192.49 34.7778H1208.06ZM1243.42 51.5025C1241.54 51.5025 1239.82 51.172 1238.28 50.5097C1236.78 49.813 1235.47 48.8373 1234.35 47.5827C1233.27 46.3284 1232.43 44.8299 1231.84 43.088C1231.24 41.3461 1230.95 39.412 1230.95 37.2865C1230.95 35.161 1231.22 33.2447 1231.79 31.5373C1232.38 29.7952 1233.2 28.3143 1234.25 27.0947C1235.33 25.8404 1236.62 24.8822 1238.13 24.2202C1239.66 23.5581 1241.37 23.2271 1243.26 23.2271C1245.04 23.2271 1246.74 23.5929 1248.35 24.3247C1249.99 25.0564 1251.23 26.1017 1252.07 27.4606H1252.17V13.558H1256.63V50.8754H1252.17V47.2169H1252.07C1251.37 48.6107 1250.25 49.6735 1248.71 50.4053C1247.21 51.1368 1245.44 51.5025 1243.42 51.5025ZM1244.05 47.5827C1246.6 47.5827 1248.61 46.6594 1250.07 44.8127C1251.58 42.9313 1252.33 40.4576 1252.33 37.391C1252.33 34.3248 1251.58 31.8509 1250.07 29.9693C1248.61 28.0878 1246.49 27.147 1243.73 27.147C1241.11 27.147 1239.1 28.0704 1237.71 29.9171C1236.34 31.7638 1235.67 34.3248 1235.67 37.6001C1235.67 39.0634 1235.86 40.4224 1236.24 41.6767C1236.66 42.8962 1237.24 43.9414 1237.97 44.8127C1238.7 45.6841 1239.57 46.3636 1240.59 46.8512C1241.64 47.3388 1242.79 47.5827 1244.05 47.5827ZM1275.23 51.5025C1273.09 51.5025 1271.21 51.1368 1269.57 50.4053C1267.96 49.6383 1266.61 48.6107 1265.53 47.3216C1264.45 46.0322 1263.62 44.5166 1263.07 42.7743C1262.51 41.0323 1262.23 39.1681 1262.23 37.182C1262.23 35.1959 1262.54 33.3492 1263.17 31.6418C1263.83 29.9345 1264.73 28.4536 1265.84 27.1993C1266.96 25.9449 1268.31 24.9693 1269.88 24.2724C1271.46 23.5756 1273.15 23.2271 1274.96 23.2271C1276.89 23.2271 1278.6 23.5929 1280.1 24.3247C1281.64 25.0215 1282.93 26.032 1283.98 27.3561C1285.03 28.6453 1285.83 30.2133 1286.39 32.06C1286.95 33.9067 1287.23 35.945 1287.23 38.175V38.6977H1266.95V39.0115C1266.95 41.6247 1267.7 43.7152 1269.2 45.2832C1270.7 46.816 1272.76 47.5827 1275.38 47.5827C1279.26 47.5827 1281.6 45.8232 1282.4 42.3038H1286.81C1286.21 45.3703 1284.9 47.6702 1282.88 49.203C1280.85 50.7359 1278.3 51.5025 1275.23 51.5025ZM1282.51 34.7778C1282.44 33.6628 1282.2 32.6523 1281.78 31.7464C1281.36 30.8056 1280.8 30.0042 1280.1 29.3422C1279.44 28.6453 1278.63 28.1052 1277.69 27.7219C1276.78 27.3387 1275.77 27.147 1274.65 27.147C1272.55 27.147 1270.79 27.8439 1269.36 29.2376C1267.96 30.5965 1267.16 32.4433 1266.95 34.7778H1282.51ZM1311.58 13.558V50.8754H1307.13V13.558H1311.58ZM1326.2 51.5025C1323.36 51.5025 1321.16 50.8582 1319.59 49.5688C1318.02 48.245 1317.23 46.3636 1317.23 43.9242C1317.23 41.4852 1318.02 39.569 1319.59 38.175C1321.2 36.7466 1324.85 35.6663 1330.55 34.9346C1332.5 34.6907 1333.81 34.3248 1334.47 33.837C1335.18 33.3143 1335.53 32.5652 1335.53 31.5896C1335.53 28.6279 1333.52 27.147 1329.5 27.147C1327.3 27.147 1325.64 27.5651 1324.52 28.4014C1323.44 29.2028 1322.84 30.492 1322.73 32.269H1318.28C1318.67 26.2411 1322.51 23.2271 1329.81 23.2271C1336.56 23.2271 1339.93 25.6487 1339.93 30.492V46.067C1339.93 47.0774 1340.4 47.5827 1341.34 47.5827C1341.73 47.5827 1342.18 47.4955 1342.71 47.3216V50.7711C1341.8 51.2587 1340.73 51.5025 1339.51 51.5025C1336.99 51.5025 1335.74 50.1088 1335.74 47.3216C1333.36 50.1088 1330.18 51.5025 1326.2 51.5025ZM1327.19 47.5827C1328.41 47.5827 1329.53 47.426 1330.55 47.1126C1331.56 46.7988 1332.43 46.3636 1333.17 45.806C1333.9 45.248 1334.46 44.6209 1334.84 43.9242C1335.27 43.1924 1335.47 42.4085 1335.47 41.5723V36.9207C1335.09 37.1993 1334.63 37.426 1334.11 37.6001C1333.59 37.7742 1333 37.9137 1332.33 38.0182L1327.77 38.6977C1325.78 38.9763 1324.31 39.4991 1323.36 40.2657C1322.42 41.0323 1321.95 42.1471 1321.95 43.6108C1321.95 44.8651 1322.41 45.8408 1323.31 46.5374C1324.22 47.2341 1325.52 47.5827 1327.19 47.5827ZM1371.62 51.5025C1368.13 51.5025 1365.36 50.7539 1363.34 49.2554C1361.35 47.7222 1360.28 45.4227 1360.14 42.3562H1364.6C1364.67 44.0289 1365.31 45.318 1366.53 46.2241C1367.8 47.1298 1369.58 47.5827 1371.88 47.5827C1376.25 47.5827 1378.43 46.2413 1378.43 43.5585C1378.43 42.339 1377.91 41.3981 1376.86 40.7362C1376.3 40.3876 1375.47 40.0391 1374.35 39.6906C1373.23 39.3076 1371.78 38.9415 1370 38.5931C1366.68 37.8964 1364.3 36.9729 1362.87 35.8231C1361.44 34.6384 1360.72 33.0008 1360.72 30.9101C1360.72 29.7603 1360.94 28.715 1361.4 27.7742C1361.89 26.8334 1362.57 26.032 1363.45 25.37C1364.35 24.6731 1365.42 24.1504 1366.64 23.802C1367.9 23.4188 1369.32 23.2271 1370.89 23.2271C1374.59 23.2271 1377.32 23.9414 1379.07 25.37C1380.81 26.7637 1381.77 28.8718 1381.94 31.6941H1377.49V31.6418C1377.35 30.1784 1376.7 29.0634 1375.55 28.2968C1374.43 27.5303 1372.99 27.147 1371.2 27.147C1369.42 27.147 1368 27.4432 1366.95 28.0355C1365.94 28.6279 1365.44 29.4815 1365.44 30.5965C1365.44 31.607 1365.87 32.4258 1366.74 33.053C1367.65 33.6454 1369.05 34.1506 1370.94 34.5687L1375.13 35.5095C1377.75 36.1018 1379.74 36.9729 1381.11 38.1228C1382.47 39.2725 1383.15 40.8929 1383.15 42.9833C1383.15 45.7013 1382.12 47.8093 1380.06 49.3078C1378.03 50.7711 1375.22 51.5025 1371.62 51.5025ZM1399.82 51.5025C1397.69 51.5025 1395.8 51.1368 1394.16 50.4053C1392.56 49.6383 1391.21 48.6107 1390.13 47.3216C1389.04 46.0322 1388.22 44.5166 1387.67 42.7743C1387.11 41.0323 1386.83 39.1681 1386.83 37.182C1386.83 35.1959 1387.14 33.3492 1387.77 31.6418C1388.43 29.9345 1389.33 28.4536 1390.44 27.1993C1391.56 25.9449 1392.91 24.9693 1394.48 24.2724C1396.05 23.5756 1397.74 23.2271 1399.56 23.2271C1401.48 23.2271 1403.2 23.5929 1404.7 24.3247C1406.23 25.0215 1407.53 26.032 1408.58 27.3561C1409.62 28.6453 1410.43 30.2133 1410.99 32.06C1411.55 33.9067 1411.82 35.945 1411.82 38.175V38.6977H1391.54V39.0115C1391.54 41.6247 1392.29 43.7152 1393.8 45.2832C1395.3 46.816 1397.36 47.5827 1399.98 47.5827C1403.86 47.5827 1406.2 45.8232 1407 42.3038H1411.4C1410.81 45.3703 1409.5 47.6702 1407.48 49.203C1405.45 50.7359 1402.9 51.5025 1399.82 51.5025ZM1407.11 34.7778C1407.04 33.6628 1406.8 32.6523 1406.37 31.7464C1405.95 30.8056 1405.4 30.0042 1404.7 29.3422C1404.03 28.6453 1403.23 28.1052 1402.29 27.7219C1401.38 27.3387 1400.36 27.147 1399.25 27.147C1397.15 27.147 1395.39 27.8439 1393.95 29.2376C1392.56 30.5965 1391.75 32.4433 1391.54 34.7778H1407.11ZM1402.08 12.6172H1406.64L1401.03 20.0912H1396.47L1402.08 12.6172ZM1427.88 51.5025C1425.92 51.5025 1424.15 51.1892 1422.58 50.562C1421.05 49.9349 1419.72 49.0288 1418.6 47.8441C1417.52 46.6246 1416.67 45.1613 1416.08 43.4538C1415.49 41.7462 1415.2 39.8301 1415.2 37.7046C1415.2 35.4746 1415.49 33.4711 1416.08 31.6941C1416.67 29.8822 1417.52 28.3491 1418.6 27.0947C1419.72 25.8404 1421.07 24.8822 1422.64 24.2202C1424.21 23.5581 1425.99 23.2271 1427.98 23.2271C1431.27 23.2271 1433.94 23.9937 1436 25.5268C1438.06 27.0599 1439.28 29.3944 1439.67 32.5303H1435.06C1434.28 28.9414 1432.05 27.147 1428.35 27.147C1425.59 27.147 1423.49 28.0704 1422.06 29.9171C1420.63 31.7289 1419.91 34.3248 1419.91 37.7046C1419.91 40.6666 1420.59 43.0529 1421.95 44.8651C1423.35 46.6769 1425.31 47.5827 1427.82 47.5827C1430.02 47.5827 1431.74 47.0079 1432.96 45.858C1434.22 44.7084 1434.99 43.088 1435.27 40.9972H1439.83C1439.33 44.3774 1438.06 46.9731 1436 48.785C1433.97 50.5968 1431.27 51.5025 1427.88 51.5025ZM1454.36 51.5025C1448.13 51.5025 1445.03 48.2973 1445.03 41.8857V23.8543H1449.48V42.2518C1449.48 43.8199 1449.97 45.1089 1450.95 46.1194C1451.93 47.095 1453.27 47.5827 1454.99 47.5827C1457.6 47.5827 1459.6 46.8336 1460.96 45.3355C1462.32 43.8023 1463 41.7814 1463 39.2725V23.8543H1467.46V50.8754H1463.27V46.5898H1463.16C1461.34 49.8653 1458.41 51.5025 1454.36 51.5025ZM1478.4 23.8543V29.5512H1478.5C1480.53 25.3351 1483.64 23.2271 1487.83 23.2271H1488.46V27.931C1485.07 27.931 1482.59 28.8021 1481.02 30.5443C1479.45 32.2864 1478.67 35.0391 1478.67 38.802V50.8754H1474.21V23.8543H1478.4ZM1496.75 13.558V18.9936H1492.3V13.558H1496.75ZM1496.75 23.8543V50.8754H1492.3V23.8543H1496.75ZM1511.78 50.8754C1510.63 50.8754 1509.66 50.7883 1508.85 50.6144C1508.08 50.4401 1507.45 50.1439 1506.96 49.7259C1506.47 49.3078 1506.12 48.7326 1505.91 48.0008C1505.7 47.2693 1505.6 46.3456 1505.6 45.2308V27.7742H1500.99V23.8543H1505.6V15.7531H1510.06V23.8543H1515.45V27.7742H1510.06V44.7084C1510.06 45.5094 1510.21 46.0846 1510.53 46.4331C1510.84 46.7817 1511.63 46.9555 1512.88 46.9555H1515.45V50.8754H1511.78ZM1531.53 51.5025C1529.4 51.5025 1527.52 51.1368 1525.87 50.4053C1524.27 49.6383 1522.92 48.6107 1521.84 47.3216C1520.75 46.0322 1519.93 44.5166 1519.38 42.7743C1518.82 41.0323 1518.54 39.1681 1518.54 37.182C1518.54 35.1959 1518.85 33.3492 1519.48 31.6418C1520.14 29.9345 1521.04 28.4536 1522.15 27.1993C1523.27 25.9449 1524.62 24.9693 1526.19 24.2724C1527.76 23.5756 1529.46 23.2271 1531.27 23.2271C1533.2 23.2271 1534.9 23.5929 1536.41 24.3247C1537.94 25.0215 1539.24 26.032 1540.29 27.3561C1541.33 28.6453 1542.14 30.2133 1542.7 32.06C1543.26 33.9067 1543.53 35.945 1543.53 38.175V38.6977H1523.26V39.0115C1523.26 41.6247 1524 43.7152 1525.51 45.2832C1527.01 46.816 1529.07 47.5827 1531.69 47.5827C1535.57 47.5827 1537.91 45.8232 1538.71 42.3038H1543.12C1542.53 45.3703 1541.21 47.6702 1539.19 49.203C1537.16 50.7359 1534.61 51.5025 1531.53 51.5025ZM1538.82 34.7778C1538.75 33.6628 1538.5 32.6523 1538.08 31.7464C1537.67 30.8056 1537.11 30.0042 1536.41 29.3422C1535.74 28.6453 1534.94 28.1052 1534 27.7219C1533.09 27.3387 1532.07 27.147 1530.96 27.147C1528.86 27.147 1527.1 27.8439 1525.67 29.2376C1524.27 30.5965 1523.47 32.4433 1523.26 34.7778H1538.82ZM1533.79 12.6172H1538.35L1532.74 20.0912H1528.18L1533.79 12.6172Z" fill="black"/>
<path d="M1074.65 101.057C1072.77 101.057 1071.05 100.726 1069.52 100.064C1068.01 99.3673 1066.7 98.3916 1065.58 97.1374C1064.5 95.8831 1063.66 94.3846 1063.07 92.6423C1062.47 90.9004 1062.18 88.9667 1062.18 86.8411C1062.18 84.7154 1062.45 82.7993 1063.02 81.0918C1063.61 79.3498 1064.43 77.8686 1065.48 76.6491C1066.56 75.3948 1067.85 74.4367 1069.36 73.7748C1070.9 73.1125 1072.61 72.7816 1074.49 72.7816C1076.27 72.7816 1077.97 73.1473 1079.58 73.8791C1081.22 74.611 1082.46 75.6562 1083.3 77.0152H1083.4V63.1124H1087.86V100.43H1083.4V96.7716H1083.3C1082.6 98.1654 1081.48 99.2278 1079.94 99.9596C1078.44 100.691 1076.68 101.057 1074.65 101.057ZM1075.28 97.1374C1077.83 97.1374 1079.84 96.2137 1081.31 94.3674C1082.81 92.4856 1083.56 90.0119 1083.56 86.9454C1083.56 83.8793 1082.81 81.4055 1081.31 79.5237C1079.84 77.6423 1077.72 76.7014 1074.97 76.7014C1072.35 76.7014 1070.34 77.6251 1068.94 79.4717C1067.58 81.318 1066.9 83.8793 1066.9 87.1544C1066.9 88.6181 1067.09 89.9771 1067.47 91.2314C1067.89 92.4509 1068.47 93.4961 1069.2 94.3674C1069.93 95.2384 1070.81 95.9179 1071.82 96.4055C1072.87 96.8931 1074.02 97.1374 1075.28 97.1374ZM1106.46 101.057C1104.32 101.057 1102.44 100.691 1100.8 99.9596C1099.19 99.193 1097.85 98.1654 1096.76 96.8759C1095.68 95.5865 1094.86 94.0709 1094.3 92.3289C1093.74 90.5867 1093.46 88.7224 1093.46 86.7363C1093.46 84.7502 1093.78 82.904 1094.4 81.1965C1095.07 79.4889 1095.96 78.0081 1097.08 76.7538C1098.2 75.4995 1099.54 74.5235 1101.11 73.8268C1102.69 73.1301 1104.38 72.7816 1106.19 72.7816C1108.12 72.7816 1109.83 73.1473 1111.33 73.8791C1112.87 74.5758 1114.16 75.5867 1115.21 76.9105C1116.26 78.1999 1117.06 79.7679 1117.62 81.6146C1118.18 83.4612 1118.46 85.4993 1118.46 87.7296V88.252H1098.18V88.5658C1098.18 91.179 1098.93 93.2698 1100.43 94.8375C1101.93 96.3707 1103.99 97.1374 1106.61 97.1374C1110.49 97.1374 1112.84 95.3775 1113.64 91.8585H1118.04C1117.45 94.925 1116.14 97.2245 1114.11 98.7574C1112.08 100.291 1109.53 101.057 1106.46 101.057ZM1113.74 84.3321C1113.67 83.2174 1113.43 82.2065 1113.01 81.3008C1112.59 80.3603 1112.03 79.5589 1111.33 78.8966C1110.67 78.1999 1109.86 77.6595 1108.92 77.2766C1108.01 76.8933 1107 76.7014 1105.88 76.7014C1103.79 76.7014 1102.02 77.3981 1100.59 78.7923C1099.19 80.1509 1098.39 81.9975 1098.18 84.3321H1113.74ZM1133.04 101.057C1129.55 101.057 1126.79 100.308 1124.76 98.8097C1122.77 97.2768 1121.71 94.977 1121.57 91.9109H1126.02C1126.09 93.5832 1126.74 94.8726 1127.96 95.7784C1129.22 96.6841 1131 97.1374 1133.31 97.1374C1137.67 97.1374 1139.85 95.7956 1139.85 93.1128C1139.85 91.8933 1139.33 90.9528 1138.28 90.2905C1137.72 89.9419 1136.89 89.5938 1135.77 89.2453C1134.65 88.8619 1133.2 88.4962 1131.42 88.1477C1128.1 87.451 1125.72 86.5273 1124.29 85.3777C1122.86 84.1926 1122.14 82.5551 1122.14 80.4646C1122.14 79.3147 1122.37 78.2695 1122.83 77.3286C1123.31 76.3881 1123.99 75.5867 1124.87 74.9244C1125.78 74.2277 1126.84 73.7053 1128.07 73.3563C1129.32 72.9734 1130.74 72.7816 1132.31 72.7816C1136.01 72.7816 1138.74 73.4958 1140.49 74.9244C1142.23 76.3185 1143.19 78.4261 1143.37 81.2484H1138.91V81.1965C1138.77 79.7328 1138.13 78.618 1136.98 77.8514C1135.85 77.0847 1134.41 76.7014 1132.62 76.7014C1130.84 76.7014 1129.43 76.9976 1128.38 77.59C1127.37 78.1823 1126.86 79.0361 1126.86 80.1509C1126.86 81.1613 1127.3 81.9803 1128.17 82.6074C1129.08 83.1998 1130.48 83.705 1132.36 84.1231L1136.56 85.064C1139.18 85.6563 1141.17 86.5273 1142.53 87.6772C1143.89 88.8272 1144.57 90.4472 1144.57 92.538C1144.57 95.2556 1143.54 97.3636 1141.48 98.8621C1139.45 100.325 1136.64 101.057 1133.04 101.057ZM1172.43 100.43C1171.28 100.43 1170.31 100.343 1169.5 100.169C1168.73 99.9948 1168.1 99.6982 1167.61 99.2802C1167.12 98.8621 1166.77 98.2873 1166.56 97.5554C1166.35 96.8236 1166.25 95.9003 1166.25 94.7855V77.3286H1161.64V73.4087H1166.25V65.3075H1170.71V73.4087H1176.1V77.3286H1170.71V94.2627C1170.71 95.0641 1170.86 95.6389 1171.18 95.9874C1171.49 96.336 1172.28 96.5102 1173.54 96.5102H1176.1V100.43H1172.43ZM1192.18 101.057C1190.05 101.057 1188.17 100.691 1186.52 99.9596C1184.92 99.193 1183.57 98.1654 1182.49 96.8759C1181.4 95.5865 1180.59 94.0709 1180.03 92.3289C1179.47 90.5867 1179.19 88.7224 1179.19 86.7363C1179.19 84.7502 1179.5 82.904 1180.13 81.1965C1180.79 79.4889 1181.69 78.0081 1182.8 76.7538C1183.92 75.4995 1185.27 74.5235 1186.84 73.8268C1188.41 73.1301 1190.11 72.7816 1191.92 72.7816C1193.85 72.7816 1195.56 73.1473 1197.06 73.8791C1198.59 74.5758 1199.89 75.5867 1200.94 76.9105C1201.98 78.1999 1202.79 79.7679 1203.35 81.6146C1203.91 83.4612 1204.18 85.4993 1204.18 87.7296V88.252H1183.91V88.5658C1183.91 91.179 1184.65 93.2698 1186.16 94.8375C1187.66 96.3707 1189.72 97.1374 1192.34 97.1374C1196.22 97.1374 1198.56 95.3775 1199.37 91.8585H1203.77C1203.18 94.925 1201.86 97.2245 1199.84 98.7574C1197.81 100.291 1195.26 101.057 1192.18 101.057ZM1199.47 84.3321C1199.4 83.2174 1199.16 82.2065 1198.74 81.3008C1198.32 80.3603 1197.76 79.5589 1197.06 78.8966C1196.39 78.1999 1195.59 77.6595 1194.65 77.2766C1193.74 76.8933 1192.72 76.7014 1191.61 76.7014C1189.51 76.7014 1187.75 77.3981 1186.32 78.7923C1184.92 80.1509 1184.12 81.9975 1183.91 84.3321H1199.47ZM1194.44 62.1719H1199L1193.39 69.6455H1188.83L1194.44 62.1719ZM1213.74 63.1124V100.43H1209.28V63.1124H1213.74ZM1232.38 101.057C1230.25 101.057 1228.37 100.691 1226.72 99.9596C1225.12 99.193 1223.77 98.1654 1222.69 96.8759C1221.61 95.5865 1220.79 94.0709 1220.23 92.3289C1219.67 90.5867 1219.39 88.7224 1219.39 86.7363C1219.39 84.7502 1219.7 82.904 1220.33 81.1965C1221 79.4889 1221.89 78.0081 1223 76.7538C1224.12 75.4995 1225.47 74.5235 1227.04 73.8268C1228.61 73.1301 1230.31 72.7816 1232.12 72.7816C1234.05 72.7816 1235.76 73.1473 1237.26 73.8791C1238.8 74.5758 1240.09 75.5867 1241.14 76.9105C1242.18 78.1999 1242.99 79.7679 1243.55 81.6146C1244.11 83.4612 1244.38 85.4993 1244.38 87.7296V88.252H1224.11V88.5658C1224.11 91.179 1224.86 93.2698 1226.36 94.8375C1227.86 96.3707 1229.92 97.1374 1232.54 97.1374C1236.42 97.1374 1238.76 95.3775 1239.57 91.8585H1243.97C1243.38 94.925 1242.07 97.2245 1240.04 98.7574C1238.01 100.291 1235.46 101.057 1232.38 101.057ZM1239.67 84.3321C1239.6 83.2174 1239.36 82.2065 1238.94 81.3008C1238.52 80.3603 1237.96 79.5589 1237.26 78.8966C1236.6 78.1999 1235.79 77.6595 1234.85 77.2766C1233.94 76.8933 1232.93 76.7014 1231.81 76.7014C1229.71 76.7014 1227.95 77.3981 1226.52 78.7923C1225.12 80.1509 1224.32 81.9975 1224.11 84.3321H1239.67ZM1234.64 62.1719H1239.2L1233.59 69.6455H1229.03L1234.64 62.1719ZM1260.44 101.057C1258.48 101.057 1256.72 100.743 1255.15 100.116C1253.61 99.4892 1252.28 98.5835 1251.16 97.3988C1250.08 96.1793 1249.24 94.716 1248.65 93.0084C1248.05 91.3009 1247.76 89.3847 1247.76 87.2591C1247.76 85.0292 1248.05 83.0255 1248.65 81.2484C1249.24 79.4366 1250.08 77.9037 1251.16 76.6491C1252.28 75.3948 1253.63 74.4367 1255.2 73.7748C1256.77 73.1125 1258.55 72.7816 1260.54 72.7816C1263.83 72.7816 1266.5 73.5482 1268.56 75.0814C1270.62 76.6143 1271.85 78.9489 1272.23 82.085H1267.62C1266.85 78.4957 1264.61 76.7014 1260.91 76.7014C1258.15 76.7014 1256.05 77.6251 1254.62 79.4717C1253.19 81.2836 1252.47 83.8793 1252.47 87.2591C1252.47 90.2209 1253.16 92.6075 1254.52 94.4194C1255.91 96.2316 1257.87 97.1374 1260.39 97.1374C1262.59 97.1374 1264.3 96.5626 1265.52 95.4126C1266.78 94.2627 1267.55 92.6423 1267.83 90.5519H1272.39C1271.9 93.9317 1270.62 96.5274 1268.56 98.3393C1266.54 100.151 1263.83 101.057 1260.44 101.057ZM1289.28 101.057C1287.29 101.057 1285.47 100.726 1283.83 100.064C1282.22 99.4021 1280.84 98.4612 1279.69 97.2417C1278.57 95.9874 1277.69 94.489 1277.06 92.747C1276.44 91.0051 1276.12 89.071 1276.12 86.9454C1276.12 84.7854 1276.42 82.834 1277.01 81.0918C1277.64 79.3498 1278.52 77.8686 1279.64 76.6491C1280.79 75.3948 1282.17 74.4367 1283.77 73.7748C1285.41 73.1125 1287.25 72.7816 1289.28 72.7816C1291.3 72.7816 1293.12 73.1301 1294.73 73.8268C1296.37 74.4891 1297.75 75.43 1298.87 76.6491C1300.02 77.8686 1300.9 79.3498 1301.49 81.0918C1302.12 82.834 1302.43 84.7854 1302.43 86.9454C1302.43 89.001 1302.12 90.9004 1301.49 92.6423C1300.9 94.3498 1300.02 95.8307 1298.87 97.085C1297.75 98.3393 1296.37 99.3153 1294.73 100.012C1293.12 100.709 1291.3 101.057 1289.28 101.057ZM1289.28 97.1374C1290.5 97.1374 1291.62 96.8931 1292.63 96.4055C1293.68 95.9179 1294.57 95.2384 1295.3 94.3674C1296.07 93.4613 1296.67 92.3813 1297.09 91.1267C1297.51 89.8724 1297.72 88.4786 1297.72 86.9454C1297.72 85.4125 1297.51 84.0188 1297.09 82.7645C1296.67 81.5098 1296.09 80.4474 1295.36 79.5761C1294.62 78.6703 1293.73 77.9733 1292.68 77.4856C1291.64 76.9628 1290.48 76.7014 1289.22 76.7014C1288.04 76.7014 1286.92 76.9628 1285.87 77.4856C1284.86 77.9733 1283.97 78.6703 1283.2 79.5761C1282.46 80.4818 1281.89 81.5622 1281.47 82.8165C1281.05 84.0711 1280.84 85.4473 1280.84 86.9454C1280.84 88.4439 1281.05 89.82 1281.47 91.0747C1281.89 92.3289 1282.46 93.4093 1283.2 94.3151C1283.93 95.2208 1284.8 95.9179 1285.82 96.4055C1286.87 96.8931 1288.02 97.1374 1289.28 97.1374ZM1312.09 73.4087V77.3809H1312.2C1314.23 74.3144 1317.14 72.7816 1320.95 72.7816C1324.93 72.7816 1327.41 74.3144 1328.39 77.3809C1329.3 75.9176 1330.49 74.7849 1331.96 73.9839C1333.46 73.1825 1335.12 72.7816 1336.93 72.7816C1340.01 72.7816 1342.26 73.4611 1343.7 74.82C1345.17 76.179 1345.9 78.0604 1345.9 80.4646V100.43H1341.44V82.5031C1341.44 80.517 1341.04 79.0533 1340.24 78.1128C1339.43 77.1719 1338.09 76.7014 1336.2 76.7014C1334.11 76.7014 1332.39 77.3286 1331.06 78.5832C1329.78 79.8023 1329.13 81.4227 1329.13 83.4436V100.43H1324.67V82.5031C1324.67 80.517 1324.27 79.0533 1323.47 78.1128C1322.66 77.1719 1321.37 76.7014 1319.59 76.7014C1318.3 76.7014 1317.12 76.9976 1316.08 77.59C1315.03 78.1475 1314.16 79.0361 1313.45 80.2556C1312.72 81.4403 1312.36 82.5203 1312.36 83.496V100.43H1307.9V73.4087H1312.09ZM1356.99 73.4087V77.3809H1357.1C1359.12 74.3144 1362.04 72.7816 1365.85 72.7816C1369.83 72.7816 1372.31 74.3144 1373.29 77.3809C1374.2 75.9176 1375.39 74.7849 1376.85 73.9839C1378.36 73.1825 1380.02 72.7816 1381.83 72.7816C1384.91 72.7816 1387.16 73.4611 1388.6 74.82C1390.06 76.179 1390.8 78.0604 1390.8 80.4646V100.43H1386.34V82.5031C1386.34 80.517 1385.94 79.0533 1385.14 78.1128C1384.33 77.1719 1382.98 76.7014 1381.1 76.7014C1379 76.7014 1377.29 77.3286 1375.96 78.5832C1374.67 79.8023 1374.03 81.4227 1374.03 83.4436V100.43H1369.57V82.5031C1369.57 80.517 1369.17 79.0533 1368.37 78.1128C1367.56 77.1719 1366.27 76.7014 1364.49 76.7014C1363.19 76.7014 1362.02 76.9976 1360.98 77.59C1359.92 78.1475 1359.05 79.0361 1358.35 80.2556C1357.62 81.4403 1357.25 82.5203 1357.25 83.496V100.43H1352.8V73.4087H1356.99ZM1407.03 101.057C1400.81 101.057 1397.7 97.8516 1397.7 91.4404V73.4087H1402.15V91.8061C1402.15 93.3742 1402.64 94.6636 1403.62 95.674C1404.6 96.6497 1405.94 97.1374 1407.65 97.1374C1410.28 97.1374 1412.27 96.3883 1413.63 94.8898C1414.99 93.357 1415.67 91.3357 1415.67 88.8272V73.4087H1420.13V100.43H1415.94V96.1441H1415.83C1414.01 99.4196 1411.08 101.057 1407.03 101.057ZM1431.23 73.4087V77.6947H1431.33C1433.25 74.4191 1436.19 72.7816 1440.14 72.7816C1446.36 72.7816 1449.47 76.0047 1449.47 82.4507V100.43H1445.01V81.9803C1445.01 80.4818 1444.54 79.2276 1443.6 78.2171C1442.65 77.207 1441.27 76.7014 1439.46 76.7014C1436.91 76.7014 1434.93 77.4681 1433.53 79.0013C1432.17 80.4998 1431.49 82.5031 1431.49 85.0116V100.43H1427.04V73.4087H1431.23ZM1461.09 63.1124V68.5479H1456.64V63.1124H1461.09ZM1461.09 73.4087V100.43H1456.64V73.4087H1461.09ZM1479.43 101.057C1477.47 101.057 1475.71 100.743 1474.13 100.116C1472.6 99.4892 1471.27 98.5835 1470.15 97.3988C1469.06 96.1793 1468.23 94.716 1467.63 93.0084C1467.04 91.3009 1466.74 89.3847 1466.74 87.2591C1466.74 85.0292 1467.04 83.0255 1467.63 81.2484C1468.23 79.4366 1469.06 77.9037 1470.15 76.6491C1471.27 75.3948 1472.61 74.4367 1474.18 73.7748C1475.76 73.1125 1477.54 72.7816 1479.53 72.7816C1482.81 72.7816 1485.49 73.5482 1487.55 75.0814C1489.61 76.6143 1490.84 78.9489 1491.22 82.085H1486.61C1485.84 78.4957 1483.6 76.7014 1479.9 76.7014C1477.14 76.7014 1475.04 77.6251 1473.61 79.4717C1472.18 81.2836 1471.46 83.8793 1471.46 87.2591C1471.46 90.2209 1472.14 92.6075 1473.5 94.4194C1474.9 96.2316 1476.86 97.1374 1479.37 97.1374C1481.58 97.1374 1483.29 96.5626 1484.51 95.4126C1485.77 94.2627 1486.54 92.6423 1486.82 90.5519H1491.38C1490.89 93.9317 1489.61 96.5274 1487.55 98.3393C1485.52 100.151 1482.81 101.057 1479.43 101.057ZM1504.07 101.057C1501.24 101.057 1499.04 100.413 1497.47 99.1235C1495.9 97.7996 1495.11 95.9179 1495.11 93.4789C1495.11 91.0395 1495.9 89.1233 1497.47 87.7296C1499.08 86.3011 1502.72 85.2207 1508.42 84.4892C1510.38 84.245 1511.69 83.8793 1512.35 83.3916C1513.05 82.8688 1513.4 82.1198 1513.4 81.1441C1513.4 78.1823 1511.39 76.7014 1507.38 76.7014C1505.17 76.7014 1503.51 77.1195 1502.39 77.9557C1501.31 78.7571 1500.72 80.0465 1500.61 81.8236H1496.16C1496.54 75.7957 1500.39 72.7816 1507.69 72.7816C1514.43 72.7816 1517.8 75.203 1517.8 80.0465V95.6217C1517.8 96.6321 1518.28 97.1374 1519.22 97.1374C1519.6 97.1374 1520.06 97.0502 1520.58 96.8759V100.325C1519.67 100.813 1518.6 101.057 1517.38 101.057C1514.87 101.057 1513.61 99.6635 1513.61 96.8759C1511.24 99.6635 1508.05 101.057 1504.07 101.057ZM1505.07 97.1374C1506.29 97.1374 1507.41 96.9807 1508.42 96.6669C1509.44 96.3532 1510.31 95.9179 1511.04 95.3603C1511.78 94.8027 1512.33 94.1756 1512.72 93.4789C1513.14 92.747 1513.35 91.9632 1513.35 91.1267V86.4753C1512.96 86.7539 1512.51 86.9805 1511.98 87.1544C1511.46 87.3287 1510.87 87.4682 1510.2 87.5729L1505.64 88.252C1503.65 88.531 1502.19 89.0534 1501.24 89.82C1500.3 90.5867 1499.83 91.7018 1499.83 93.1651C1499.83 94.4194 1500.28 95.3951 1501.19 96.0921C1502.1 96.7888 1503.39 97.1374 1505.07 97.1374ZM1532.85 100.43C1531.7 100.43 1530.73 100.343 1529.92 100.169C1529.16 99.9948 1528.52 99.6982 1528.04 99.2802C1527.55 98.8621 1527.2 98.2873 1526.98 97.5554C1526.78 96.8236 1526.67 95.9003 1526.67 94.7855V77.3286H1522.06V73.4087H1526.67V65.3075H1531.13V73.4087H1536.52V77.3286H1531.13V94.2627C1531.13 95.0641 1531.28 95.6389 1531.6 95.9874C1531.91 96.336 1532.7 96.5102 1533.96 96.5102H1536.52V100.43H1532.85ZM1546.41 63.1124V68.5479H1541.95V63.1124H1546.41ZM1546.41 73.4087V100.43H1541.95V73.4087H1546.41ZM1565.21 101.057C1563.22 101.057 1561.41 100.726 1559.76 100.064C1558.16 99.4021 1556.78 98.4612 1555.62 97.2417C1554.5 95.9874 1553.63 94.489 1553 92.747C1552.38 91.0051 1552.06 89.071 1552.06 86.9454C1552.06 84.7854 1552.36 82.834 1552.95 81.0918C1553.58 79.3498 1554.45 77.8686 1555.57 76.6491C1556.72 75.3948 1558.1 74.4367 1559.71 73.7748C1561.35 73.1125 1563.19 72.7816 1565.21 72.7816C1567.24 72.7816 1569.06 73.1301 1570.66 73.8268C1572.31 74.4891 1573.69 75.43 1574.81 76.6491C1575.96 77.8686 1576.83 79.3498 1577.43 81.0918C1578.05 82.834 1578.37 84.7854 1578.37 86.9454C1578.37 89.001 1578.05 90.9004 1577.43 92.6423C1576.83 94.3498 1575.96 95.8307 1574.81 97.085C1573.69 98.3393 1572.31 99.3153 1570.66 100.012C1569.06 100.709 1567.24 101.057 1565.21 101.057ZM1565.21 97.1374C1566.44 97.1374 1567.56 96.8931 1568.57 96.4055C1569.62 95.9179 1570.51 95.2384 1571.24 94.3674C1572.01 93.4613 1572.6 92.3813 1573.02 91.1267C1573.44 89.8724 1573.65 88.4786 1573.65 86.9454C1573.65 85.4125 1573.44 84.0188 1573.02 82.7645C1572.6 81.5098 1572.03 80.4474 1571.29 79.5761C1570.56 78.6703 1569.67 77.9733 1568.62 77.4856C1567.57 76.9628 1566.42 76.7014 1565.16 76.7014C1563.97 76.7014 1562.85 76.9628 1561.81 77.4856C1560.79 77.9733 1559.9 78.6703 1559.13 79.5761C1558.4 80.4818 1557.83 81.5622 1557.41 82.8165C1556.98 84.0711 1556.78 85.4473 1556.78 86.9454C1556.78 88.4439 1556.98 89.82 1557.41 91.0747C1557.83 92.3289 1558.4 93.4093 1559.13 94.3151C1559.87 95.2208 1560.74 95.9179 1561.75 96.4055C1562.8 96.8931 1563.96 97.1374 1565.21 97.1374ZM1588.03 73.4087V77.6947H1588.14C1590.06 74.4191 1592.99 72.7816 1596.94 72.7816C1603.16 72.7816 1606.27 76.0047 1606.27 82.4507V100.43H1601.81V81.9803C1601.81 80.4818 1601.34 79.2276 1600.4 78.2171C1599.45 77.207 1598.08 76.7014 1596.26 76.7014C1593.71 76.7014 1591.74 77.4681 1590.34 79.0013C1588.98 80.4998 1588.29 82.5031 1588.29 85.0116V100.43H1583.84V73.4087H1588.03ZM1622.92 101.057C1619.43 101.057 1616.67 100.308 1614.65 98.8097C1612.65 97.2768 1611.58 94.977 1611.45 91.9109H1615.9C1615.97 93.5832 1616.62 94.8726 1617.84 95.7784C1619.1 96.6841 1620.88 97.1374 1623.19 97.1374C1627.56 97.1374 1629.74 95.7956 1629.74 93.1128C1629.74 91.8933 1629.21 90.9528 1628.17 90.2905C1627.61 89.9419 1626.77 89.5938 1625.65 89.2453C1624.53 88.8619 1623.08 88.4962 1621.3 88.1477C1617.98 87.451 1615.61 86.5273 1614.18 85.3777C1612.74 84.1926 1612.02 82.5551 1612.02 80.4646C1612.02 79.3147 1612.25 78.2695 1612.71 77.3286C1613.19 76.3881 1613.87 75.5867 1614.75 74.9244C1615.65 74.2277 1616.72 73.7053 1617.95 73.3563C1619.21 72.9734 1620.62 72.7816 1622.19 72.7816C1625.9 72.7816 1628.62 73.4958 1630.37 74.9244C1632.11 76.3185 1633.07 78.4261 1633.25 81.2484H1628.79V81.1965C1628.65 79.7328 1628.01 78.618 1626.86 77.8514C1625.74 77.0847 1624.29 76.7014 1622.51 76.7014C1620.72 76.7014 1619.31 76.9976 1618.26 77.59C1617.25 78.1823 1616.74 79.0361 1616.74 80.1509C1616.74 81.1613 1617.18 81.9803 1618.05 82.6074C1618.96 83.1998 1620.36 83.705 1622.25 84.1231L1626.44 85.064C1629.06 85.6563 1631.05 86.5273 1632.41 87.6772C1633.78 88.8272 1634.45 90.4472 1634.45 92.538C1634.45 95.2556 1633.43 97.3636 1631.37 98.8621C1629.34 100.325 1626.52 101.057 1622.92 101.057Z" fill="black"/>
<mask id="mask0_986_728" style="mask-type:luminance" maskUnits="userSpaceOnUse" x="166" y="13" width="196" height="87">
<path d="M361.855 13.6328H166.445V99.5404H361.855V13.6328Z" fill="white"/>
</mask>
<g mask="url(#mask0_986_728)">
<path d="M166.445 13.6328H215.298L217.313 15.4046H310.988L313.003 13.6328H361.855V99.5408H313.003L310.988 97.7687H217.313L215.298 99.5408H166.445V13.6328Z" fill="#FF0000"/>
<path d="M215.289 13.6328H312.994V99.5408H215.289V13.6328ZM265.973 92.9182L265.057 77.473C265.044 77.2189 265.096 76.9655 265.209 76.7312C265.321 76.4973 265.493 76.2883 265.709 76.1198C265.926 75.952 266.183 75.8282 266.461 75.759C266.74 75.6894 267.032 75.6757 267.317 75.7192L284.802 78.4215L282.441 72.694C282.345 72.4662 282.333 72.2178 282.406 71.9836C282.479 71.7493 282.634 71.541 282.848 71.3878L302.002 57.7498L297.687 55.9781C297.395 55.857 297.164 55.6468 297.037 55.3865C296.909 55.1259 296.894 54.8335 296.995 54.5641L300.781 44.327L289.748 46.385C289.449 46.44 289.138 46.4022 288.867 46.278C288.596 46.1541 288.382 45.9516 288.262 45.7051L286.125 41.2842L277.515 49.4098C277.318 49.5925 277.059 49.714 276.777 49.7561C276.495 49.7981 276.205 49.7595 275.95 49.6445C275.696 49.5294 275.49 49.3449 275.365 49.119C275.24 48.8924 275.202 48.6367 275.255 48.3894L279.408 29.5615L272.752 32.9441C272.596 33.0247 272.422 33.0761 272.242 33.0953C272.062 33.1145 271.88 33.1011 271.706 33.0558C271.533 33.0104 271.371 32.9343 271.233 32.832C271.094 32.7296 270.981 32.6034 270.9 32.4609L264.142 20.7918L257.383 32.4609C257.302 32.6034 257.189 32.7296 257.05 32.832C256.911 32.9343 256.75 33.0104 256.576 33.0558C256.403 33.1011 256.221 33.1145 256.041 33.0953C255.861 33.0761 255.688 33.0247 255.531 32.9441L248.875 29.5615L253.028 48.3894C253.082 48.6367 253.043 48.8924 252.918 49.119C252.792 49.3449 252.587 49.5294 252.333 49.6445C252.078 49.7595 251.788 49.7981 251.506 49.7561C251.224 49.714 250.965 49.5925 250.768 49.4098L242.158 41.2842L240.021 45.7051C239.9 45.9516 239.687 46.1541 239.416 46.278C239.145 46.4022 238.834 46.44 238.535 46.385L227.502 44.327L231.288 54.5641C231.389 54.8335 231.374 55.1259 231.246 55.3865C231.119 55.6468 230.888 55.857 230.596 55.9781L226.281 57.7498L245.435 71.3878C245.649 71.541 245.804 71.7493 245.877 71.9836C245.95 72.2178 245.938 72.4662 245.842 72.694L243.481 78.4215L260.966 75.7192C261.251 75.6757 261.543 75.6894 261.822 75.759C262.1 75.8282 262.357 75.952 262.574 76.1198C262.79 76.2883 262.962 76.4973 263.074 76.7312C263.187 76.9655 263.239 77.2189 263.226 77.473L262.309 92.9182H265.973Z" fill="white"/>
</g>
</svg>
